<?xml version="1.0" encoding="utf-8"?>
<svg xmlns="http://www.w3.org/2000/svg" xmlns:xlink="http://www.w3.org/1999/xlink" width="600" height="400" viewBox="0 0 2400 1600">
<defs>
  <clipPath id="clip8900">
    <rect x="0" y="0" width="2400" height="1600"/>
  </clipPath>
</defs>
<polygon clip-path="url(#clip8900)" points="
0,1600 2400,1600 2400,0 0,0 
  " fill="#ffffff" fill-rule="evenodd" fill-opacity="1"/>
<defs>
  <clipPath id="clip8901">
    <rect x="480" y="0" width="1681" height="1600"/>
  </clipPath>
</defs>
<polygon clip-path="url(#clip8900)" points="
245.111,1425.62 2352.76,1425.62 2352.76,47.2441 245.111,47.2441 
  " fill="#ffffff" fill-rule="evenodd" fill-opacity="1"/>
<defs>
  <clipPath id="clip8902">
    <rect x="245" y="47" width="2109" height="1379"/>
  </clipPath>
</defs>
<polyline clip-path="url(#clip8902)" style="stroke:#000000; stroke-width:2; stroke-opacity:0.1; fill:none" points="
  245.111,1425.62 245.111,47.2441 
  "/>
<polyline clip-path="url(#clip8902)" style="stroke:#000000; stroke-width:2; stroke-opacity:0.1; fill:none" points="
  666.64,1425.62 666.64,47.2441 
  "/>
<polyline clip-path="url(#clip8902)" style="stroke:#000000; stroke-width:2; stroke-opacity:0.1; fill:none" points="
  1088.17,1425.62 1088.17,47.2441 
  "/>
<polyline clip-path="url(#clip8902)" style="stroke:#000000; stroke-width:2; stroke-opacity:0.1; fill:none" points="
  1509.7,1425.62 1509.7,47.2441 
  "/>
<polyline clip-path="url(#clip8902)" style="stroke:#000000; stroke-width:2; stroke-opacity:0.1; fill:none" points="
  1931.23,1425.62 1931.23,47.2441 
  "/>
<polyline clip-path="url(#clip8902)" style="stroke:#000000; stroke-width:2; stroke-opacity:0.1; fill:none" points="
  2352.76,1425.62 2352.76,47.2441 
  "/>
<polyline clip-path="url(#clip8902)" style="stroke:#000000; stroke-width:2; stroke-opacity:0.1; fill:none" points="
  245.111,1386.61 2352.76,1386.61 
  "/>
<polyline clip-path="url(#clip8902)" style="stroke:#000000; stroke-width:2; stroke-opacity:0.1; fill:none" points="
  245.111,1177.55 2352.76,1177.55 
  "/>
<polyline clip-path="url(#clip8902)" style="stroke:#000000; stroke-width:2; stroke-opacity:0.1; fill:none" points="
  245.111,968.488 2352.76,968.488 
  "/>
<polyline clip-path="url(#clip8902)" style="stroke:#000000; stroke-width:2; stroke-opacity:0.1; fill:none" points="
  245.111,759.428 2352.76,759.428 
  "/>
<polyline clip-path="url(#clip8902)" style="stroke:#000000; stroke-width:2; stroke-opacity:0.1; fill:none" points="
  245.111,550.368 2352.76,550.368 
  "/>
<polyline clip-path="url(#clip8902)" style="stroke:#000000; stroke-width:2; stroke-opacity:0.1; fill:none" points="
  245.111,341.308 2352.76,341.308 
  "/>
<polyline clip-path="url(#clip8902)" style="stroke:#000000; stroke-width:2; stroke-opacity:0.1; fill:none" points="
  245.111,132.248 2352.76,132.248 
  "/>
<polyline clip-path="url(#clip8900)" style="stroke:#000000; stroke-width:4; stroke-opacity:1; fill:none" points="
  245.111,1425.62 2352.76,1425.62 
  "/>
<polyline clip-path="url(#clip8900)" style="stroke:#000000; stroke-width:4; stroke-opacity:1; fill:none" points="
  245.111,1425.62 245.111,47.2441 
  "/>
<polyline clip-path="url(#clip8900)" style="stroke:#000000; stroke-width:4; stroke-opacity:1; fill:none" points="
  245.111,1425.62 245.111,1404.94 
  "/>
<polyline clip-path="url(#clip8900)" style="stroke:#000000; stroke-width:4; stroke-opacity:1; fill:none" points="
  666.64,1425.62 666.64,1404.94 
  "/>
<polyline clip-path="url(#clip8900)" style="stroke:#000000; stroke-width:4; stroke-opacity:1; fill:none" points="
  1088.17,1425.62 1088.17,1404.94 
  "/>
<polyline clip-path="url(#clip8900)" style="stroke:#000000; stroke-width:4; stroke-opacity:1; fill:none" points="
  1509.7,1425.62 1509.7,1404.94 
  "/>
<polyline clip-path="url(#clip8900)" style="stroke:#000000; stroke-width:4; stroke-opacity:1; fill:none" points="
  1931.23,1425.62 1931.23,1404.94 
  "/>
<polyline clip-path="url(#clip8900)" style="stroke:#000000; stroke-width:4; stroke-opacity:1; fill:none" points="
  2352.76,1425.62 2352.76,1404.94 
  "/>
<polyline clip-path="url(#clip8900)" style="stroke:#000000; stroke-width:4; stroke-opacity:1; fill:none" points="
  245.111,1386.61 276.726,1386.61 
  "/>
<polyline clip-path="url(#clip8900)" style="stroke:#000000; stroke-width:4; stroke-opacity:1; fill:none" points="
  245.111,1177.55 276.726,1177.55 
  "/>
<polyline clip-path="url(#clip8900)" style="stroke:#000000; stroke-width:4; stroke-opacity:1; fill:none" points="
  245.111,968.488 276.726,968.488 
  "/>
<polyline clip-path="url(#clip8900)" style="stroke:#000000; stroke-width:4; stroke-opacity:1; fill:none" points="
  245.111,759.428 276.726,759.428 
  "/>
<polyline clip-path="url(#clip8900)" style="stroke:#000000; stroke-width:4; stroke-opacity:1; fill:none" points="
  245.111,550.368 276.726,550.368 
  "/>
<polyline clip-path="url(#clip8900)" style="stroke:#000000; stroke-width:4; stroke-opacity:1; fill:none" points="
  245.111,341.308 276.726,341.308 
  "/>
<polyline clip-path="url(#clip8900)" style="stroke:#000000; stroke-width:4; stroke-opacity:1; fill:none" points="
  245.111,132.248 276.726,132.248 
  "/>
<g clip-path="url(#clip8900)">
<text style="fill:#000000; fill-opacity:1; font-family:Arial,Helvetica Neue,Helvetica,sans-serif; font-size:48px; text-anchor:middle;" transform="rotate(0, 245.111, 1479.62)" x="245.111" y="1479.62">0</text>
</g>
<g clip-path="url(#clip8900)">
<text style="fill:#000000; fill-opacity:1; font-family:Arial,Helvetica Neue,Helvetica,sans-serif; font-size:48px; text-anchor:middle;" transform="rotate(0, 666.64, 1479.62)" x="666.64" y="1479.62">2</text>
</g>
<g clip-path="url(#clip8900)">
<text style="fill:#000000; fill-opacity:1; font-family:Arial,Helvetica Neue,Helvetica,sans-serif; font-size:48px; text-anchor:middle;" transform="rotate(0, 1088.17, 1479.62)" x="1088.17" y="1479.62">4</text>
</g>
<g clip-path="url(#clip8900)">
<text style="fill:#000000; fill-opacity:1; font-family:Arial,Helvetica Neue,Helvetica,sans-serif; font-size:48px; text-anchor:middle;" transform="rotate(0, 1509.7, 1479.62)" x="1509.7" y="1479.62">6</text>
</g>
<g clip-path="url(#clip8900)">
<text style="fill:#000000; fill-opacity:1; font-family:Arial,Helvetica Neue,Helvetica,sans-serif; font-size:48px; text-anchor:middle;" transform="rotate(0, 1931.23, 1479.62)" x="1931.23" y="1479.62">8</text>
</g>
<g clip-path="url(#clip8900)">
<text style="fill:#000000; fill-opacity:1; font-family:Arial,Helvetica Neue,Helvetica,sans-serif; font-size:48px; text-anchor:middle;" transform="rotate(0, 2352.76, 1479.62)" x="2352.76" y="1479.62">10</text>
</g>
<g clip-path="url(#clip8900)">
<text style="fill:#000000; fill-opacity:1; font-family:Arial,Helvetica Neue,Helvetica,sans-serif; font-size:48px; text-anchor:end;" transform="rotate(0, 221.111, 1404.11)" x="221.111" y="1404.11">0</text>
</g>
<g clip-path="url(#clip8900)">
<text style="fill:#000000; fill-opacity:1; font-family:Arial,Helvetica Neue,Helvetica,sans-serif; font-size:48px; text-anchor:start;" transform="rotate(0, 90.9698, 1201.28)" x="90.9698" y="1201.28">1×10</text>
</g>
<g clip-path="url(#clip8900)">
<text style="fill:#000000; fill-opacity:1; font-family:Arial,Helvetica Neue,Helvetica,sans-serif; font-size:38px; text-anchor:start;" transform="rotate(0, 199.367, 1173.87)" x="199.367" y="1173.87">8</text>
</g>
<g clip-path="url(#clip8900)">
<text style="fill:#000000; fill-opacity:1; font-family:Arial,Helvetica Neue,Helvetica,sans-serif; font-size:48px; text-anchor:start;" transform="rotate(0, 90.9698, 992.216)" x="90.9698" y="992.216">2×10</text>
</g>
<g clip-path="url(#clip8900)">
<text style="fill:#000000; fill-opacity:1; font-family:Arial,Helvetica Neue,Helvetica,sans-serif; font-size:38px; text-anchor:start;" transform="rotate(0, 199.367, 964.805)" x="199.367" y="964.805">8</text>
</g>
<g clip-path="url(#clip8900)">
<text style="fill:#000000; fill-opacity:1; font-family:Arial,Helvetica Neue,Helvetica,sans-serif; font-size:48px; text-anchor:start;" transform="rotate(0, 90.9698, 783.156)" x="90.9698" y="783.156">3×10</text>
</g>
<g clip-path="url(#clip8900)">
<text style="fill:#000000; fill-opacity:1; font-family:Arial,Helvetica Neue,Helvetica,sans-serif; font-size:38px; text-anchor:start;" transform="rotate(0, 199.367, 755.745)" x="199.367" y="755.745">8</text>
</g>
<g clip-path="url(#clip8900)">
<text style="fill:#000000; fill-opacity:1; font-family:Arial,Helvetica Neue,Helvetica,sans-serif; font-size:48px; text-anchor:start;" transform="rotate(0, 90.9698, 574.096)" x="90.9698" y="574.096">4×10</text>
</g>
<g clip-path="url(#clip8900)">
<text style="fill:#000000; fill-opacity:1; font-family:Arial,Helvetica Neue,Helvetica,sans-serif; font-size:38px; text-anchor:start;" transform="rotate(0, 199.367, 546.685)" x="199.367" y="546.685">8</text>
</g>
<g clip-path="url(#clip8900)">
<text style="fill:#000000; fill-opacity:1; font-family:Arial,Helvetica Neue,Helvetica,sans-serif; font-size:48px; text-anchor:start;" transform="rotate(0, 90.9698, 365.036)" x="90.9698" y="365.036">5×10</text>
</g>
<g clip-path="url(#clip8900)">
<text style="fill:#000000; fill-opacity:1; font-family:Arial,Helvetica Neue,Helvetica,sans-serif; font-size:38px; text-anchor:start;" transform="rotate(0, 199.367, 337.625)" x="199.367" y="337.625">8</text>
</g>
<g clip-path="url(#clip8900)">
<text style="fill:#000000; fill-opacity:1; font-family:Arial,Helvetica Neue,Helvetica,sans-serif; font-size:48px; text-anchor:start;" transform="rotate(0, 90.9698, 155.975)" x="90.9698" y="155.975">6×10</text>
</g>
<g clip-path="url(#clip8900)">
<text style="fill:#000000; fill-opacity:1; font-family:Arial,Helvetica Neue,Helvetica,sans-serif; font-size:38px; text-anchor:start;" transform="rotate(0, 199.367, 128.565)" x="199.367" y="128.565">8</text>
</g>
<g clip-path="url(#clip8900)">
<text style="fill:#000000; fill-opacity:1; font-family:Arial,Helvetica Neue,Helvetica,sans-serif; font-size:66px; text-anchor:middle;" transform="rotate(0, 1298.93, 1559.48)" x="1298.93" y="1559.48">t</text>
</g>
<polyline clip-path="url(#clip8902)" style="stroke:#009af9; stroke-width:12; stroke-opacity:1; fill:none" points="
  245.111,86.2547 247.221,88.0857 249.331,90.1542 251.441,92.2234 253.55,94.2908 255.66,96.3557 257.77,98.4178 259.88,100.477 261.989,102.533 264.099,104.586 
  266.209,106.636 268.319,108.683 270.428,110.726 272.538,112.767 274.648,114.804 276.758,116.838 278.867,118.869 280.977,120.896 283.087,122.921 285.197,124.942 
  287.306,126.96 289.416,128.975 291.526,130.986 293.636,132.994 295.745,135 297.855,137.002 299.965,139 302.075,140.996 304.184,142.988 306.294,144.978 
  308.404,146.964 310.514,148.947 312.623,150.926 314.733,152.903 316.843,154.876 318.953,156.847 321.063,158.814 323.172,160.778 325.282,162.739 327.392,164.696 
  329.502,166.651 331.611,168.602 333.721,170.551 335.831,172.496 337.941,174.438 340.05,176.377 342.16,178.313 344.27,180.246 346.38,182.175 348.489,184.102 
  350.599,186.026 352.709,187.946 354.819,189.863 356.928,191.778 359.038,193.689 361.148,195.597 363.258,197.502 365.367,199.405 367.477,201.304 369.587,203.2 
  371.697,205.093 373.806,206.983 375.916,208.87 378.026,210.754 380.136,212.635 382.245,214.512 384.355,216.387 386.465,218.259 388.575,220.128 390.684,221.994 
  392.794,223.857 394.904,225.717 397.014,227.574 399.123,229.428 401.233,231.279 403.343,233.127 405.453,234.972 407.562,236.814 409.672,238.654 411.782,240.49 
  413.892,242.323 416.001,244.154 418.111,245.981 420.221,247.806 422.331,249.627 424.44,251.446 426.55,253.262 428.66,255.075 430.77,256.885 432.879,258.692 
  434.989,260.496 437.099,262.298 439.209,264.096 441.318,265.892 443.428,267.684 445.538,269.474 447.648,271.261 449.758,273.045 451.867,274.826 453.977,276.605 
  456.087,278.38 458.197,280.153 460.306,281.923 462.416,283.69 464.526,285.454 466.636,287.216 468.745,288.974 470.855,290.73 472.965,292.483 475.075,294.233 
  477.184,295.98 479.294,297.725 481.404,299.467 483.514,301.206 485.623,302.942 487.733,304.675 489.843,306.406 491.953,308.134 494.062,309.859 496.172,311.581 
  498.282,313.301 500.392,315.018 502.501,316.732 504.611,318.443 506.721,320.152 508.831,321.857 510.94,323.561 513.05,325.261 515.16,326.959 517.27,328.654 
  519.379,330.346 521.489,332.035 523.599,333.722 525.709,335.406 527.818,337.088 529.928,338.767 532.038,340.443 534.148,342.116 536.257,343.787 538.367,345.455 
  540.477,347.12 542.587,348.783 544.696,350.443 546.806,352.1 548.916,353.755 551.026,355.407 553.135,357.057 555.245,358.704 557.355,360.348 559.465,361.989 
  561.574,363.628 563.684,365.264 565.794,366.898 567.904,368.529 570.014,370.158 572.123,371.783 574.233,373.407 576.343,375.027 578.453,376.645 580.562,378.261 
  582.672,379.874 584.782,381.484 586.892,383.092 589.001,384.697 591.111,386.299 593.221,387.899 595.331,389.497 597.44,391.092 599.55,392.684 601.66,394.274 
  603.77,395.861 605.879,397.446 607.989,399.028 610.099,400.608 612.209,402.185 614.318,403.759 616.428,405.331 618.538,406.901 620.648,408.468 622.757,410.033 
  624.867,411.595 626.977,413.154 629.087,414.711 631.196,416.266 633.306,417.818 635.416,419.367 637.526,420.914 639.635,422.459 641.745,424.001 643.855,425.541 
  645.965,427.078 648.074,428.613 650.184,430.145 652.294,431.675 654.404,433.202 656.513,434.727 658.623,436.25 660.733,437.77 662.843,439.287 664.952,440.803 
  667.062,442.315 669.172,443.826 671.282,445.334 673.391,446.839 675.501,448.342 677.611,449.843 679.721,451.341 681.83,452.837 683.94,454.331 686.05,455.822 
  688.16,457.311 690.27,458.797 692.379,460.281 694.489,461.763 696.599,463.242 698.709,464.719 700.818,466.193 702.928,467.666 705.038,469.135 707.148,470.603 
  709.257,472.068 711.367,473.531 713.477,474.991 715.587,476.449 717.696,477.905 719.806,479.358 721.916,480.809 724.026,482.258 726.135,483.705 728.245,485.149 
  730.355,486.591 732.465,488.03 734.574,489.467 736.684,490.902 738.794,492.335 740.904,493.765 743.013,495.193 745.123,496.619 747.233,498.042 749.343,499.463 
  751.452,500.882 753.562,502.299 755.672,503.713 757.782,505.126 759.891,506.535 762.001,507.943 764.111,509.348 766.221,510.751 768.33,512.152 770.44,513.551 
  772.55,514.947 774.66,516.341 776.769,517.733 778.879,519.123 780.989,520.51 783.099,521.896 785.208,523.279 787.318,524.659 789.428,526.038 791.538,527.414 
  793.647,528.789 795.757,530.161 797.867,531.53 799.977,532.898 802.086,534.263 804.196,535.627 806.306,536.988 808.416,538.346 810.526,539.703 812.635,541.058 
  814.745,542.41 816.855,543.76 818.965,545.108 821.074,546.454 823.184,547.798 825.294,549.139 827.404,550.479 829.513,551.816 831.623,553.151 833.733,554.484 
  835.843,555.815 837.952,557.144 840.062,558.47 842.172,559.795 844.282,561.117 846.391,562.437 848.501,563.755 850.611,565.072 852.721,566.385 854.83,567.697 
  856.94,569.007 859.05,570.315 861.16,571.62 863.269,572.924 865.379,574.225 867.489,575.524 869.599,576.821 871.708,578.116 873.818,579.409 875.928,580.7 
  878.038,581.989 880.147,583.276 882.257,584.561 884.367,585.844 886.477,587.124 888.586,588.403 890.696,589.68 892.806,590.954 894.916,592.227 897.025,593.497 
  899.135,594.766 901.245,596.032 903.355,597.296 905.464,598.559 907.574,599.819 909.684,601.077 911.794,602.334 913.903,603.588 916.013,604.84 918.123,606.09 
  920.233,607.339 922.342,608.585 924.452,609.829 926.562,611.072 928.672,612.312 930.781,613.55 932.891,614.786 935.001,616.021 937.111,617.253 939.221,618.484 
  941.33,619.712 943.44,620.939 945.55,622.163 947.66,623.386 949.769,624.606 951.879,625.825 953.989,627.042 956.099,628.256 958.208,629.469 960.318,630.68 
  962.428,631.889 964.538,633.096 966.647,634.301 968.757,635.504 970.867,636.705 972.977,637.904 975.086,639.102 977.196,640.297 979.306,641.491 981.416,642.682 
  983.525,643.872 985.635,645.06 987.745,646.246 989.855,647.43 991.964,648.612 994.074,649.792 996.184,650.971 998.294,652.147 1000.4,653.322 1002.51,654.494 
  1004.62,655.665 1006.73,656.834 1008.84,658.001 1010.95,659.166 1013.06,660.33 1015.17,661.491 1017.28,662.651 1019.39,663.808 1021.5,664.964 1023.61,666.118 
  1025.72,667.271 1027.83,668.421 1029.94,669.569 1032.05,670.716 1034.16,671.861 1036.27,673.004 1038.38,674.145 1040.49,675.285 1042.6,676.422 1044.71,677.558 
  1046.82,678.692 1048.93,679.824 1051.04,680.954 1053.15,682.083 1055.26,683.209 1057.37,684.334 1059.48,685.457 1061.59,686.578 1063.7,687.698 1065.81,688.816 
  1067.92,689.931 1070.03,691.046 1072.14,692.158 1074.24,693.268 1076.35,694.377 1078.46,695.484 1080.57,696.589 1082.68,697.693 1084.79,698.795 1086.9,699.894 
  1089.01,700.993 1091.12,702.089 1093.23,703.184 1095.34,704.277 1097.45,705.368 1099.56,706.457 1101.67,707.545 1103.78,708.631 1105.89,709.715 1108,710.797 
  1110.11,711.878 1112.22,712.957 1114.33,714.034 1116.44,715.11 1118.55,716.183 1120.66,717.256 1122.77,718.326 1124.88,719.395 1126.99,720.462 1129.1,721.527 
  1131.21,722.59 1133.32,723.652 1135.43,724.712 1137.54,725.771 1139.65,726.827 1141.76,727.883 1143.87,728.936 1145.98,729.988 1148.09,731.038 1150.2,732.086 
  1152.31,733.133 1154.42,734.178 1156.53,735.221 1158.63,736.262 1160.74,737.302 1162.85,738.341 1164.96,739.377 1167.07,740.412 1169.18,741.446 1171.29,742.477 
  1173.4,743.507 1175.51,744.536 1177.62,745.562 1179.73,746.587 1181.84,747.611 1183.95,748.633 1186.06,749.653 1188.17,750.671 1190.28,751.688 1192.39,752.704 
  1194.5,753.717 1196.61,754.729 1198.72,755.74 1200.83,756.748 1202.94,757.756 1205.05,758.761 1207.16,759.765 1209.27,760.767 1211.38,761.768 1213.49,762.767 
  1215.6,763.765 1217.71,764.761 1219.82,765.755 1221.93,766.748 1224.04,767.739 1226.15,768.729 1228.26,769.717 1230.37,770.703 1232.48,771.688 1234.59,772.671 
  1236.7,773.653 1238.81,774.633 1240.92,775.611 1243.03,776.588 1245.13,777.564 1247.24,778.538 1249.35,779.51 1251.46,780.481 1253.57,781.45 1255.68,782.418 
  1257.79,783.384 1259.9,784.348 1262.01,785.311 1264.12,786.273 1266.23,787.233 1268.34,788.191 1270.45,789.148 1272.56,790.103 1274.67,791.057 1276.78,792.009 
  1278.89,792.96 1281,793.909 1283.11,794.857 1285.22,795.803 1287.33,796.748 1289.44,797.691 1291.55,798.633 1293.66,799.573 1295.77,800.511 1297.88,801.449 
  1299.99,802.384 1302.1,803.318 1304.21,804.251 1306.32,805.182 1308.43,806.112 1310.54,807.04 1312.65,807.967 1314.76,808.892 1316.87,809.816 1318.98,810.738 
  1321.09,811.659 1323.2,812.578 1325.31,813.496 1327.42,814.412 1329.53,815.327 1331.63,816.24 1333.74,817.152 1335.85,818.063 1337.96,818.972 1340.07,819.879 
  1342.18,820.786 1344.29,821.69 1346.4,822.594 1348.51,823.495 1350.62,824.396 1352.73,825.295 1354.84,826.192 1356.95,827.088 1359.06,827.983 1361.17,828.876 
  1363.28,829.768 1365.39,830.658 1367.5,831.547 1369.61,832.434 1371.72,833.32 1373.83,834.205 1375.94,835.088 1378.05,835.97 1380.16,836.85 1382.27,837.729 
  1384.38,838.607 1386.49,839.483 1388.6,840.358 1390.71,841.231 1392.82,842.103 1394.93,842.974 1397.04,843.843 1399.15,844.711 1401.26,845.577 1403.37,846.442 
  1405.48,847.306 1407.59,848.168 1409.7,849.029 1411.81,849.889 1413.92,850.747 1416.02,851.603 1418.13,852.459 1420.24,853.313 1422.35,854.165 1424.46,855.017 
  1426.57,855.867 1428.68,856.715 1430.79,857.562 1432.9,858.408 1435.01,859.253 1437.12,860.096 1439.23,860.938 1441.34,861.778 1443.45,862.617 1445.56,863.455 
  1447.67,864.291 1449.78,865.126 1451.89,865.96 1454,866.792 1456.11,867.623 1458.22,868.453 1460.33,869.282 1462.44,870.109 1464.55,870.934 1466.66,871.759 
  1468.77,872.582 1470.88,873.404 1472.99,874.224 1475.1,875.043 1477.21,875.861 1479.32,876.678 1481.43,877.493 1483.54,878.307 1485.65,879.12 1487.76,879.931 
  1489.87,880.741 1491.98,881.55 1494.09,882.357 1496.2,883.163 1498.31,883.968 1500.42,884.772 1502.52,885.574 1504.63,886.375 1506.74,887.175 1508.85,887.973 
  1510.96,888.771 1513.07,889.566 1515.18,890.361 1517.29,891.154 1519.4,891.946 1521.51,892.737 1523.62,893.527 1525.73,894.315 1527.84,895.102 1529.95,895.888 
  1532.06,896.672 1534.17,897.456 1536.28,898.238 1538.39,899.018 1540.5,899.798 1542.61,900.576 1544.72,901.353 1546.83,902.129 1548.94,902.903 1551.05,903.677 
  1553.16,904.449 1555.27,905.22 1557.38,905.989 1559.49,906.757 1561.6,907.525 1563.71,908.29 1565.82,909.055 1567.93,909.819 1570.04,910.581 1572.15,911.342 
  1574.26,912.101 1576.37,912.86 1578.48,913.617 1580.59,914.374 1582.7,915.128 1584.81,915.882 1586.92,916.635 1589.02,917.386 1591.13,918.136 1593.24,918.885 
  1595.35,919.633 1597.46,920.379 1599.57,921.124 1601.68,921.869 1603.79,922.612 1605.9,923.353 1608.01,924.094 1610.12,924.833 1612.23,925.571 1614.34,926.308 
  1616.45,927.044 1618.56,927.779 1620.67,928.512 1622.78,929.245 1624.89,929.976 1627,930.706 1629.11,931.434 1631.22,932.162 1633.33,932.889 1635.44,933.614 
  1637.55,934.338 1639.66,935.061 1641.77,935.783 1643.88,936.503 1645.99,937.223 1648.1,937.941 1650.21,938.658 1652.32,939.375 1654.43,940.089 1656.54,940.803 
  1658.65,941.516 1660.76,942.227 1662.87,942.938 1664.98,943.647 1667.09,944.355 1669.2,945.062 1671.31,945.768 1673.42,946.472 1675.52,947.176 1677.63,947.878 
  1679.74,948.58 1681.85,949.28 1683.96,949.979 1686.07,950.677 1688.18,951.374 1690.29,952.069 1692.4,952.764 1694.51,953.457 1696.62,954.15 1698.73,954.841 
  1700.84,955.531 1702.95,956.22 1705.06,956.908 1707.17,957.595 1709.28,958.281 1711.39,958.966 1713.5,959.649 1715.61,960.332 1717.72,961.013 1719.83,961.693 
  1721.94,962.372 1724.05,963.05 1726.16,963.728 1728.27,964.403 1730.38,965.078 1732.49,965.752 1734.6,966.425 1736.71,967.096 1738.82,967.767 1740.93,968.436 
  1743.04,969.105 1745.15,969.772 1747.26,970.438 1749.37,971.104 1751.48,971.768 1753.59,972.431 1755.7,973.093 1757.81,973.754 1759.91,974.414 1762.02,975.073 
  1764.13,975.73 1766.24,976.387 1768.35,977.043 1770.46,977.697 1772.57,978.351 1774.68,979.003 1776.79,979.655 1778.9,980.305 1781.01,980.955 1783.12,981.603 
  1785.23,982.251 1787.34,982.897 1789.45,983.542 1791.56,984.186 1793.67,984.829 1795.78,985.472 1797.89,986.113 1800,986.753 1802.11,987.392 1804.22,988.03 
  1806.33,988.667 1808.44,989.303 1810.55,989.938 1812.66,990.572 1814.77,991.205 1816.88,991.837 1818.99,992.468 1821.1,993.098 1823.21,993.727 1825.32,994.355 
  1827.43,994.982 1829.54,995.608 1831.65,996.233 1833.76,996.857 1835.87,997.479 1837.98,998.101 1840.09,998.722 1842.2,999.342 1844.31,999.961 1846.41,1000.58 
  1848.52,1001.2 1850.63,1001.81 1852.74,1002.43 1854.85,1003.04 1856.96,1003.65 1859.07,1004.27 1861.18,1004.88 1863.29,1005.49 1865.4,1006.1 1867.51,1006.7 
  1869.62,1007.31 1871.73,1007.92 1873.84,1008.52 1875.95,1009.13 1878.06,1009.73 1880.17,1010.33 1882.28,1010.93 1884.39,1011.53 1886.5,1012.13 1888.61,1012.73 
  1890.72,1013.33 1892.83,1013.93 1894.94,1014.52 1897.05,1015.12 1899.16,1015.71 1901.27,1016.3 1903.38,1016.9 1905.49,1017.49 1907.6,1018.08 1909.71,1018.66 
  1911.82,1019.25 1913.93,1019.84 1916.04,1020.43 1918.15,1021.01 1920.26,1021.6 1922.37,1022.18 1924.48,1022.76 1926.59,1023.34 1928.7,1023.92 1930.81,1024.5 
  1932.91,1025.08 1935.02,1025.66 1937.13,1026.24 1939.24,1026.81 1941.35,1027.39 1943.46,1027.96 1945.57,1028.53 1947.68,1029.11 1949.79,1029.68 1951.9,1030.25 
  1954.01,1030.82 1956.12,1031.39 1958.23,1031.95 1960.34,1032.52 1962.45,1033.09 1964.56,1033.65 1966.67,1034.22 1968.78,1034.78 1970.89,1035.34 1973,1035.9 
  1975.11,1036.46 1977.22,1037.02 1979.33,1037.58 1981.44,1038.14 1983.55,1038.7 1985.66,1039.25 1987.77,1039.81 1989.88,1040.36 1991.99,1040.91 1994.1,1041.47 
  1996.21,1042.02 1998.32,1042.57 2000.43,1043.12 2002.54,1043.67 2004.65,1044.22 2006.76,1044.76 2008.87,1045.31 2010.98,1045.85 2013.09,1046.4 2015.2,1046.94 
  2017.3,1047.48 2019.41,1048.03 2021.52,1048.57 2023.63,1049.11 2025.74,1049.65 2027.85,1050.19 2029.96,1050.72 2032.07,1051.26 2034.18,1051.8 2036.29,1052.33 
  2038.4,1052.87 2040.51,1053.4 2042.62,1053.93 2044.73,1054.46 2046.84,1054.99 2048.95,1055.52 2051.06,1056.05 2053.17,1056.58 2055.28,1057.11 2057.39,1057.63 
  2059.5,1058.16 2061.61,1058.68 2063.72,1059.21 2065.83,1059.73 2067.94,1060.25 2070.05,1060.78 2072.16,1061.3 2074.27,1061.82 2076.38,1062.33 2078.49,1062.85 
  2080.6,1063.37 2082.71,1063.89 2084.82,1064.4 2086.93,1064.92 2089.04,1065.43 2091.15,1065.94 2093.26,1066.46 2095.37,1066.97 2097.48,1067.48 2099.59,1067.99 
  2101.7,1068.5 2103.8,1069.01 2105.91,1069.51 2108.02,1070.02 2110.13,1070.53 2112.24,1071.03 2114.35,1071.54 2116.46,1072.04 2118.57,1072.54 2120.68,1073.04 
  2122.79,1073.54 2124.9,1074.04 2127.01,1074.54 2129.12,1075.04 2131.23,1075.54 2133.34,1076.04 2135.45,1076.53 2137.56,1077.03 2139.67,1077.52 2141.78,1078.02 
  2143.89,1078.51 2146,1079 2148.11,1079.49 2150.22,1079.98 2152.33,1080.47 2154.44,1080.96 2156.55,1081.45 2158.66,1081.94 2160.77,1082.43 2162.88,1082.91 
  2164.99,1083.4 2167.1,1083.88 2169.21,1084.37 2171.32,1084.85 2173.43,1085.33 2175.54,1085.81 2177.65,1086.29 2179.76,1086.77 2181.87,1087.25 2183.98,1087.73 
  2186.09,1088.21 2188.2,1088.68 2190.3,1089.16 2192.41,1089.64 2194.52,1090.11 2196.63,1090.58 2198.74,1091.06 2200.85,1091.53 2202.96,1092 2205.07,1092.47 
  2207.18,1092.94 2209.29,1093.41 2211.4,1093.88 2213.51,1094.35 2215.62,1094.81 2217.73,1095.28 2219.84,1095.74 2221.95,1096.21 2224.06,1096.67 2226.17,1097.14 
  2228.28,1097.6 2230.39,1098.06 2232.5,1098.52 2234.61,1098.98 2236.72,1099.44 2238.83,1099.9 2240.94,1100.36 2243.05,1100.81 2245.16,1101.27 2247.27,1101.73 
  2249.38,1102.18 2251.49,1102.64 2253.6,1103.09 2255.71,1103.54 2257.82,1104 2259.93,1104.45 2262.04,1104.9 2264.15,1105.35 2266.26,1105.8 2268.37,1106.25 
  2270.48,1106.69 2272.59,1107.14 2274.69,1107.59 2276.8,1108.03 2278.91,1108.48 2281.02,1108.92 2283.13,1109.37 2285.24,1109.81 2287.35,1110.25 2289.46,1110.69 
  2291.57,1111.13 2293.68,1111.57 2295.79,1112.01 2297.9,1112.45 2300.01,1112.89 2302.12,1113.33 2304.23,1113.76 2306.34,1114.2 2308.45,1114.63 2310.56,1115.07 
  2312.67,1115.5 2314.78,1115.94 2316.89,1116.37 2319,1116.8 2321.11,1117.23 2323.22,1117.66 2325.33,1118.09 2327.44,1118.52 2329.55,1118.95 2331.66,1119.38 
  2333.77,1119.8 2335.88,1120.23 2337.99,1120.65 2340.1,1121.08 2342.21,1121.5 2344.32,1121.93 2346.43,1122.35 2348.54,1122.77 2350.65,1123.19 2352.76,1123.61 
  
  "/>
<polyline clip-path="url(#clip8902)" style="stroke:#e26f46; stroke-width:12; stroke-opacity:1; fill:none" points="
  245.111,1386.61 247.221,1384.83 249.331,1382.95 251.441,1381.19 253.55,1379.55 255.66,1378.02 257.77,1376.59 259.88,1375.26 261.989,1374.02 264.099,1372.86 
  266.209,1371.78 268.319,1370.78 270.428,1369.85 272.538,1368.98 274.648,1368.17 276.758,1367.41 278.867,1366.71 280.977,1366.06 283.087,1365.46 285.197,1364.9 
  287.306,1364.37 289.416,1363.89 291.526,1363.44 293.636,1363.02 295.745,1362.64 297.855,1362.28 299.965,1361.95 302.075,1361.64 304.184,1361.36 306.294,1361.1 
  308.404,1360.85 310.514,1360.63 312.623,1360.43 314.733,1360.24 316.843,1360.07 318.953,1359.91 321.063,1359.76 323.172,1359.63 325.282,1359.51 327.392,1359.4 
  329.502,1359.3 331.611,1359.21 333.721,1359.13 335.831,1359.06 337.941,1359 340.05,1358.94 342.16,1358.89 344.27,1358.84 346.38,1358.8 348.489,1358.77 
  350.599,1358.74 352.709,1358.72 354.819,1358.7 356.928,1358.69 359.038,1358.68 361.148,1358.67 363.258,1358.67 365.367,1358.67 367.477,1358.67 369.587,1358.68 
  371.697,1358.68 373.806,1358.69 375.916,1358.71 378.026,1358.72 380.136,1358.74 382.245,1358.76 384.355,1358.78 386.465,1358.8 388.575,1358.82 390.684,1358.85 
  392.794,1358.87 394.904,1358.9 397.014,1358.93 399.123,1358.96 401.233,1358.99 403.343,1359.02 405.453,1359.05 407.562,1359.08 409.672,1359.12 411.782,1359.15 
  413.892,1359.18 416.001,1359.22 418.111,1359.25 420.221,1359.29 422.331,1359.33 424.44,1359.36 426.55,1359.4 428.66,1359.44 430.77,1359.48 432.879,1359.52 
  434.989,1359.55 437.099,1359.59 439.209,1359.63 441.318,1359.67 443.428,1359.71 445.538,1359.75 447.648,1359.79 449.758,1359.83 451.867,1359.87 453.977,1359.91 
  456.087,1359.95 458.197,1359.99 460.306,1360.03 462.416,1360.07 464.526,1360.11 466.636,1360.15 468.745,1360.19 470.855,1360.24 472.965,1360.28 475.075,1360.32 
  477.184,1360.36 479.294,1360.4 481.404,1360.44 483.514,1360.48 485.623,1360.52 487.733,1360.56 489.843,1360.6 491.953,1360.64 494.062,1360.68 496.172,1360.73 
  498.282,1360.77 500.392,1360.81 502.501,1360.85 504.611,1360.89 506.721,1360.93 508.831,1360.97 510.94,1361.01 513.05,1361.05 515.16,1361.09 517.27,1361.13 
  519.379,1361.17 521.489,1361.21 523.599,1361.25 525.709,1361.29 527.818,1361.33 529.928,1361.37 532.038,1361.41 534.148,1361.45 536.257,1361.49 538.367,1361.53 
  540.477,1361.57 542.587,1361.61 544.696,1361.65 546.806,1361.69 548.916,1361.73 551.026,1361.77 553.135,1361.81 555.245,1361.85 557.355,1361.89 559.465,1361.93 
  561.574,1361.97 563.684,1362.01 565.794,1362.05 567.904,1362.09 570.014,1362.13 572.123,1362.17 574.233,1362.21 576.343,1362.25 578.453,1362.28 580.562,1362.32 
  582.672,1362.36 584.782,1362.4 586.892,1362.44 589.001,1362.48 591.111,1362.52 593.221,1362.56 595.331,1362.59 597.44,1362.63 599.55,1362.67 601.66,1362.71 
  603.77,1362.75 605.879,1362.79 607.989,1362.82 610.099,1362.86 612.209,1362.9 614.318,1362.94 616.428,1362.98 618.538,1363.01 620.648,1363.05 622.757,1363.09 
  624.867,1363.13 626.977,1363.16 629.087,1363.2 631.196,1363.24 633.306,1363.28 635.416,1363.31 637.526,1363.35 639.635,1363.39 641.745,1363.42 643.855,1363.46 
  645.965,1363.5 648.074,1363.54 650.184,1363.57 652.294,1363.61 654.404,1363.65 656.513,1363.68 658.623,1363.72 660.733,1363.76 662.843,1363.79 664.952,1363.83 
  667.062,1363.87 669.172,1363.9 671.282,1363.94 673.391,1363.98 675.501,1364.01 677.611,1364.05 679.721,1364.08 681.83,1364.12 683.94,1364.16 686.05,1364.19 
  688.16,1364.23 690.27,1364.26 692.379,1364.3 694.489,1364.33 696.599,1364.37 698.709,1364.41 700.818,1364.44 702.928,1364.48 705.038,1364.51 707.148,1364.55 
  709.257,1364.58 711.367,1364.62 713.477,1364.65 715.587,1364.69 717.696,1364.72 719.806,1364.76 721.916,1364.79 724.026,1364.83 726.135,1364.86 728.245,1364.9 
  730.355,1364.93 732.465,1364.97 734.574,1365 736.684,1365.04 738.794,1365.07 740.904,1365.11 743.013,1365.14 745.123,1365.17 747.233,1365.21 749.343,1365.24 
  751.452,1365.28 753.562,1365.31 755.672,1365.35 757.782,1365.38 759.891,1365.41 762.001,1365.45 764.111,1365.48 766.221,1365.52 768.33,1365.55 770.44,1365.58 
  772.55,1365.62 774.66,1365.65 776.769,1365.68 778.879,1365.72 780.989,1365.75 783.099,1365.78 785.208,1365.82 787.318,1365.85 789.428,1365.88 791.538,1365.92 
  793.647,1365.95 795.757,1365.98 797.867,1366.02 799.977,1366.05 802.086,1366.08 804.196,1366.11 806.306,1366.15 808.416,1366.18 810.526,1366.21 812.635,1366.25 
  814.745,1366.28 816.855,1366.31 818.965,1366.34 821.074,1366.38 823.184,1366.41 825.294,1366.44 827.404,1366.47 829.513,1366.5 831.623,1366.54 833.733,1366.57 
  835.843,1366.6 837.952,1366.63 840.062,1366.66 842.172,1366.7 844.282,1366.73 846.391,1366.76 848.501,1366.79 850.611,1366.82 852.721,1366.85 854.83,1366.89 
  856.94,1366.92 859.05,1366.95 861.16,1366.98 863.269,1367.01 865.379,1367.04 867.489,1367.07 869.599,1367.11 871.708,1367.14 873.818,1367.17 875.928,1367.2 
  878.038,1367.23 880.147,1367.26 882.257,1367.29 884.367,1367.32 886.477,1367.35 888.586,1367.39 890.696,1367.42 892.806,1367.45 894.916,1367.48 897.025,1367.51 
  899.135,1367.54 901.245,1367.57 903.355,1367.6 905.464,1367.63 907.574,1367.66 909.684,1367.69 911.794,1367.72 913.903,1367.75 916.013,1367.78 918.123,1367.81 
  920.233,1367.84 922.342,1367.87 924.452,1367.9 926.562,1367.93 928.672,1367.96 930.781,1367.99 932.891,1368.02 935.001,1368.05 937.111,1368.08 939.221,1368.11 
  941.33,1368.14 943.44,1368.17 945.55,1368.2 947.66,1368.23 949.769,1368.26 951.879,1368.29 953.989,1368.32 956.099,1368.35 958.208,1368.38 960.318,1368.41 
  962.428,1368.43 964.538,1368.46 966.647,1368.49 968.757,1368.52 970.867,1368.55 972.977,1368.58 975.086,1368.61 977.196,1368.63 979.306,1368.66 981.416,1368.69 
  983.525,1368.72 985.635,1368.75 987.745,1368.77 989.855,1368.8 991.964,1368.83 994.074,1368.86 996.184,1368.89 998.294,1368.92 1000.4,1368.94 1002.51,1368.97 
  1004.62,1369 1006.73,1369.03 1008.84,1369.06 1010.95,1369.08 1013.06,1369.11 1015.17,1369.14 1017.28,1369.17 1019.39,1369.2 1021.5,1369.22 1023.61,1369.25 
  1025.72,1369.28 1027.83,1369.31 1029.94,1369.34 1032.05,1369.36 1034.16,1369.39 1036.27,1369.42 1038.38,1369.45 1040.49,1369.48 1042.6,1369.5 1044.71,1369.53 
  1046.82,1369.56 1048.93,1369.59 1051.04,1369.62 1053.15,1369.64 1055.26,1369.67 1057.37,1369.7 1059.48,1369.73 1061.59,1369.76 1063.7,1369.78 1065.81,1369.81 
  1067.92,1369.84 1070.03,1369.87 1072.14,1369.89 1074.24,1369.92 1076.35,1369.95 1078.46,1369.97 1080.57,1370 1082.68,1370.03 1084.79,1370.05 1086.9,1370.08 
  1089.01,1370.11 1091.12,1370.13 1093.23,1370.16 1095.34,1370.18 1097.45,1370.21 1099.56,1370.23 1101.67,1370.26 1103.78,1370.28 1105.89,1370.31 1108,1370.33 
  1110.11,1370.36 1112.22,1370.38 1114.33,1370.41 1116.44,1370.43 1118.55,1370.46 1120.66,1370.48 1122.77,1370.51 1124.88,1370.53 1126.99,1370.56 1129.1,1370.58 
  1131.21,1370.61 1133.32,1370.63 1135.43,1370.65 1137.54,1370.68 1139.65,1370.71 1141.76,1370.73 1143.87,1370.76 1145.98,1370.78 1148.09,1370.81 1150.2,1370.83 
  1152.31,1370.86 1154.42,1370.88 1156.53,1370.91 1158.63,1370.94 1160.74,1370.96 1162.85,1370.99 1164.96,1371.01 1167.07,1371.04 1169.18,1371.07 1171.29,1371.09 
  1173.4,1371.12 1175.51,1371.15 1177.62,1371.17 1179.73,1371.2 1181.84,1371.23 1183.95,1371.25 1186.06,1371.28 1188.17,1371.3 1190.28,1371.33 1192.39,1371.36 
  1194.5,1371.38 1196.61,1371.41 1198.72,1371.43 1200.83,1371.46 1202.94,1371.48 1205.05,1371.51 1207.16,1371.53 1209.27,1371.56 1211.38,1371.58 1213.49,1371.6 
  1215.6,1371.63 1217.71,1371.65 1219.82,1371.67 1221.93,1371.69 1224.04,1371.72 1226.15,1371.74 1228.26,1371.76 1230.37,1371.78 1232.48,1371.8 1234.59,1371.83 
  1236.7,1371.85 1238.81,1371.87 1240.92,1371.89 1243.03,1371.91 1245.13,1371.94 1247.24,1371.96 1249.35,1371.98 1251.46,1372 1253.57,1372.02 1255.68,1372.05 
  1257.79,1372.07 1259.9,1372.09 1262.01,1372.12 1264.12,1372.14 1266.23,1372.16 1268.34,1372.19 1270.45,1372.21 1272.56,1372.23 1274.67,1372.26 1276.78,1372.28 
  1278.89,1372.31 1281,1372.33 1283.11,1372.35 1285.22,1372.38 1287.33,1372.4 1289.44,1372.43 1291.55,1372.45 1293.66,1372.48 1295.77,1372.5 1297.88,1372.53 
  1299.99,1372.55 1302.1,1372.57 1304.21,1372.6 1306.32,1372.62 1308.43,1372.65 1310.54,1372.67 1312.65,1372.69 1314.76,1372.72 1316.87,1372.74 1318.98,1372.76 
  1321.09,1372.78 1323.2,1372.8 1325.31,1372.83 1327.42,1372.85 1329.53,1372.87 1331.63,1372.89 1333.74,1372.91 1335.85,1372.93 1337.96,1372.95 1340.07,1372.97 
  1342.18,1372.99 1344.29,1373.01 1346.4,1373.03 1348.51,1373.05 1350.62,1373.07 1352.73,1373.09 1354.84,1373.11 1356.95,1373.13 1359.06,1373.15 1361.17,1373.17 
  1363.28,1373.19 1365.39,1373.22 1367.5,1373.24 1369.61,1373.26 1371.72,1373.28 1373.83,1373.3 1375.94,1373.32 1378.05,1373.34 1380.16,1373.37 1382.27,1373.39 
  1384.38,1373.41 1386.49,1373.43 1388.6,1373.45 1390.71,1373.48 1392.82,1373.5 1394.93,1373.52 1397.04,1373.54 1399.15,1373.57 1401.26,1373.59 1403.37,1373.61 
  1405.48,1373.63 1407.59,1373.65 1409.7,1373.68 1411.81,1373.7 1413.92,1373.72 1416.02,1373.74 1418.13,1373.76 1420.24,1373.78 1422.35,1373.8 1424.46,1373.82 
  1426.57,1373.84 1428.68,1373.86 1430.79,1373.88 1432.9,1373.9 1435.01,1373.92 1437.12,1373.94 1439.23,1373.96 1441.34,1373.98 1443.45,1374 1445.56,1374.02 
  1447.67,1374.03 1449.78,1374.05 1451.89,1374.07 1454,1374.09 1456.11,1374.11 1458.22,1374.13 1460.33,1374.15 1462.44,1374.17 1464.55,1374.19 1466.66,1374.21 
  1468.77,1374.23 1470.88,1374.25 1472.99,1374.27 1475.1,1374.29 1477.21,1374.31 1479.32,1374.33 1481.43,1374.35 1483.54,1374.37 1485.65,1374.39 1487.76,1374.41 
  1489.87,1374.43 1491.98,1374.45 1494.09,1374.47 1496.2,1374.49 1498.31,1374.51 1500.42,1374.53 1502.52,1374.55 1504.63,1374.57 1506.74,1374.59 1508.85,1374.61 
  1510.96,1374.63 1513.07,1374.65 1515.18,1374.67 1517.29,1374.69 1519.4,1374.71 1521.51,1374.73 1523.62,1374.75 1525.73,1374.76 1527.84,1374.78 1529.95,1374.8 
  1532.06,1374.82 1534.17,1374.84 1536.28,1374.86 1538.39,1374.87 1540.5,1374.89 1542.61,1374.91 1544.72,1374.93 1546.83,1374.95 1548.94,1374.96 1551.05,1374.98 
  1553.16,1375 1555.27,1375.02 1557.38,1375.04 1559.49,1375.05 1561.6,1375.07 1563.71,1375.09 1565.82,1375.11 1567.93,1375.13 1570.04,1375.15 1572.15,1375.16 
  1574.26,1375.18 1576.37,1375.2 1578.48,1375.22 1580.59,1375.24 1582.7,1375.26 1584.81,1375.27 1586.92,1375.29 1589.02,1375.31 1591.13,1375.33 1593.24,1375.35 
  1595.35,1375.37 1597.46,1375.39 1599.57,1375.4 1601.68,1375.42 1603.79,1375.44 1605.9,1375.46 1608.01,1375.48 1610.12,1375.5 1612.23,1375.51 1614.34,1375.53 
  1616.45,1375.55 1618.56,1375.57 1620.67,1375.59 1622.78,1375.6 1624.89,1375.62 1627,1375.64 1629.11,1375.66 1631.22,1375.67 1633.33,1375.69 1635.44,1375.71 
  1637.55,1375.73 1639.66,1375.74 1641.77,1375.76 1643.88,1375.78 1645.99,1375.79 1648.1,1375.81 1650.21,1375.83 1652.32,1375.84 1654.43,1375.86 1656.54,1375.88 
  1658.65,1375.89 1660.76,1375.91 1662.87,1375.93 1664.98,1375.94 1667.09,1375.96 1669.2,1375.98 1671.31,1375.99 1673.42,1376.01 1675.52,1376.03 1677.63,1376.04 
  1679.74,1376.06 1681.85,1376.08 1683.96,1376.1 1686.07,1376.11 1688.18,1376.13 1690.29,1376.15 1692.4,1376.16 1694.51,1376.18 1696.62,1376.2 1698.73,1376.22 
  1700.84,1376.23 1702.95,1376.25 1705.06,1376.27 1707.17,1376.28 1709.28,1376.3 1711.39,1376.32 1713.5,1376.33 1715.61,1376.35 1717.72,1376.37 1719.83,1376.38 
  1721.94,1376.4 1724.05,1376.42 1726.16,1376.43 1728.27,1376.45 1730.38,1376.47 1732.49,1376.48 1734.6,1376.5 1736.71,1376.52 1738.82,1376.53 1740.93,1376.55 
  1743.04,1376.56 1745.15,1376.58 1747.26,1376.59 1749.37,1376.61 1751.48,1376.62 1753.59,1376.64 1755.7,1376.66 1757.81,1376.67 1759.91,1376.69 1762.02,1376.7 
  1764.13,1376.72 1766.24,1376.73 1768.35,1376.75 1770.46,1376.76 1772.57,1376.78 1774.68,1376.8 1776.79,1376.81 1778.9,1376.83 1781.01,1376.84 1783.12,1376.86 
  1785.23,1376.87 1787.34,1376.89 1789.45,1376.9 1791.56,1376.92 1793.67,1376.94 1795.78,1376.95 1797.89,1376.97 1800,1376.98 1802.11,1377 1804.22,1377.01 
  1806.33,1377.03 1808.44,1377.05 1810.55,1377.06 1812.66,1377.08 1814.77,1377.09 1816.88,1377.11 1818.99,1377.12 1821.1,1377.14 1823.21,1377.16 1825.32,1377.17 
  1827.43,1377.19 1829.54,1377.2 1831.65,1377.22 1833.76,1377.23 1835.87,1377.25 1837.98,1377.26 1840.09,1377.28 1842.2,1377.29 1844.31,1377.31 1846.41,1377.32 
  1848.52,1377.34 1850.63,1377.35 1852.74,1377.36 1854.85,1377.38 1856.96,1377.39 1859.07,1377.41 1861.18,1377.42 1863.29,1377.44 1865.4,1377.45 1867.51,1377.46 
  1869.62,1377.48 1871.73,1377.49 1873.84,1377.51 1875.95,1377.52 1878.06,1377.54 1880.17,1377.55 1882.28,1377.56 1884.39,1377.58 1886.5,1377.59 1888.61,1377.61 
  1890.72,1377.62 1892.83,1377.64 1894.94,1377.65 1897.05,1377.67 1899.16,1377.68 1901.27,1377.69 1903.38,1377.71 1905.49,1377.72 1907.6,1377.74 1909.71,1377.75 
  1911.82,1377.77 1913.93,1377.78 1916.04,1377.8 1918.15,1377.81 1920.26,1377.82 1922.37,1377.84 1924.48,1377.85 1926.59,1377.87 1928.7,1377.88 1930.81,1377.9 
  1932.91,1377.91 1935.02,1377.93 1937.13,1377.94 1939.24,1377.95 1941.35,1377.97 1943.46,1377.98 1945.57,1378 1947.68,1378.01 1949.79,1378.02 1951.9,1378.04 
  1954.01,1378.05 1956.12,1378.06 1958.23,1378.08 1960.34,1378.09 1962.45,1378.1 1964.56,1378.12 1966.67,1378.13 1968.78,1378.14 1970.89,1378.16 1973,1378.17 
  1975.11,1378.18 1977.22,1378.2 1979.33,1378.21 1981.44,1378.22 1983.55,1378.23 1985.66,1378.25 1987.77,1378.26 1989.88,1378.27 1991.99,1378.29 1994.1,1378.3 
  1996.21,1378.31 1998.32,1378.33 2000.43,1378.34 2002.54,1378.35 2004.65,1378.37 2006.76,1378.38 2008.87,1378.39 2010.98,1378.41 2013.09,1378.42 2015.2,1378.43 
  2017.3,1378.45 2019.41,1378.46 2021.52,1378.47 2023.63,1378.49 2025.74,1378.5 2027.85,1378.51 2029.96,1378.53 2032.07,1378.54 2034.18,1378.55 2036.29,1378.57 
  2038.4,1378.58 2040.51,1378.59 2042.62,1378.61 2044.73,1378.62 2046.84,1378.63 2048.95,1378.65 2051.06,1378.66 2053.17,1378.67 2055.28,1378.68 2057.39,1378.7 
  2059.5,1378.71 2061.61,1378.72 2063.72,1378.73 2065.83,1378.75 2067.94,1378.76 2070.05,1378.77 2072.16,1378.78 2074.27,1378.8 2076.38,1378.81 2078.49,1378.82 
  2080.6,1378.83 2082.71,1378.84 2084.82,1378.86 2086.93,1378.87 2089.04,1378.88 2091.15,1378.89 2093.26,1378.9 2095.37,1378.92 2097.48,1378.93 2099.59,1378.94 
  2101.7,1378.95 2103.8,1378.96 2105.91,1378.98 2108.02,1378.99 2110.13,1379 2112.24,1379.01 2114.35,1379.02 2116.46,1379.04 2118.57,1379.05 2120.68,1379.06 
  2122.79,1379.07 2124.9,1379.09 2127.01,1379.1 2129.12,1379.11 2131.23,1379.12 2133.34,1379.14 2135.45,1379.15 2137.56,1379.16 2139.67,1379.17 2141.78,1379.19 
  2143.89,1379.2 2146,1379.21 2148.11,1379.22 2150.22,1379.23 2152.33,1379.25 2154.44,1379.26 2156.55,1379.27 2158.66,1379.28 2160.77,1379.29 2162.88,1379.31 
  2164.99,1379.32 2167.1,1379.33 2169.21,1379.34 2171.32,1379.35 2173.43,1379.36 2175.54,1379.37 2177.65,1379.39 2179.76,1379.4 2181.87,1379.41 2183.98,1379.42 
  2186.09,1379.43 2188.2,1379.44 2190.3,1379.45 2192.41,1379.46 2194.52,1379.47 2196.63,1379.49 2198.74,1379.5 2200.85,1379.51 2202.96,1379.52 2205.07,1379.53 
  2207.18,1379.54 2209.29,1379.55 2211.4,1379.56 2213.51,1379.57 2215.62,1379.59 2217.73,1379.6 2219.84,1379.61 2221.95,1379.62 2224.06,1379.63 2226.17,1379.64 
  2228.28,1379.65 2230.39,1379.66 2232.5,1379.68 2234.61,1379.69 2236.72,1379.7 2238.83,1379.71 2240.94,1379.72 2243.05,1379.73 2245.16,1379.74 2247.27,1379.76 
  2249.38,1379.77 2251.49,1379.78 2253.6,1379.79 2255.71,1379.8 2257.82,1379.81 2259.93,1379.82 2262.04,1379.84 2264.15,1379.85 2266.26,1379.86 2268.37,1379.87 
  2270.48,1379.88 2272.59,1379.89 2274.69,1379.9 2276.8,1379.91 2278.91,1379.92 2281.02,1379.93 2283.13,1379.94 2285.24,1379.95 2287.35,1379.96 2289.46,1379.97 
  2291.57,1379.98 2293.68,1379.99 2295.79,1380.01 2297.9,1380.02 2300.01,1380.03 2302.12,1380.04 2304.23,1380.05 2306.34,1380.06 2308.45,1380.07 2310.56,1380.08 
  2312.67,1380.09 2314.78,1380.1 2316.89,1380.11 2319,1380.12 2321.11,1380.13 2323.22,1380.14 2325.33,1380.15 2327.44,1380.16 2329.55,1380.17 2331.66,1380.18 
  2333.77,1380.19 2335.88,1380.2 2337.99,1380.21 2340.1,1380.22 2342.21,1380.23 2344.32,1380.24 2346.43,1380.25 2348.54,1380.26 2350.65,1380.27 2352.76,1380.28 
  
  "/>
<polyline clip-path="url(#clip8902)" style="stroke:#3da44d; stroke-width:12; stroke-opacity:1; fill:none" points="
  245.111,1386.61 247.221,1386.55 249.331,1386.37 251.441,1386.06 253.55,1385.63 255.66,1385.1 257.77,1384.47 259.88,1383.74 261.989,1382.92 264.099,1382.03 
  266.209,1381.05 268.319,1380.01 270.428,1378.9 272.538,1377.73 274.648,1376.5 276.758,1375.22 278.867,1373.89 280.977,1372.51 283.087,1371.09 285.197,1369.63 
  287.306,1368.14 289.416,1366.61 291.526,1365.05 293.636,1363.45 295.745,1361.84 297.855,1360.19 299.965,1358.52 302.075,1356.83 304.184,1355.13 306.294,1353.4 
  308.404,1351.65 310.514,1349.89 312.623,1348.12 314.733,1346.33 316.843,1344.53 318.953,1342.72 321.063,1340.89 323.172,1339.06 325.282,1337.22 327.392,1335.37 
  329.502,1333.52 331.611,1331.66 333.721,1329.79 335.831,1327.92 337.941,1326.04 340.05,1324.16 342.16,1322.27 344.27,1320.38 346.38,1318.49 348.489,1316.6 
  350.599,1314.7 352.709,1312.8 354.819,1310.91 356.928,1309.01 359.038,1307.1 361.148,1305.2 363.258,1303.3 365.367,1301.4 367.477,1299.5 369.587,1297.6 
  371.697,1295.69 373.806,1293.79 375.916,1291.89 378.026,1290 380.136,1288.1 382.245,1286.2 384.355,1284.31 386.465,1282.41 388.575,1280.52 390.684,1278.63 
  392.794,1276.74 394.904,1274.85 397.014,1272.97 399.123,1271.09 401.233,1269.2 403.343,1267.33 405.453,1265.45 407.562,1263.57 409.672,1261.7 411.782,1259.83 
  413.892,1257.96 416.001,1256.1 418.111,1254.24 420.221,1252.37 422.331,1250.52 424.44,1248.66 426.55,1246.81 428.66,1244.96 430.77,1243.11 432.879,1241.26 
  434.989,1239.42 437.099,1237.58 439.209,1235.74 441.318,1233.91 443.428,1232.08 445.538,1230.25 447.648,1228.42 449.758,1226.6 451.867,1224.77 453.977,1222.96 
  456.087,1221.14 458.197,1219.33 460.306,1217.52 462.416,1215.71 464.526,1213.9 466.636,1212.1 468.745,1210.3 470.855,1208.51 472.965,1206.71 475.075,1204.92 
  477.184,1203.13 479.294,1201.35 481.404,1199.56 483.514,1197.78 485.623,1196.01 487.733,1194.23 489.843,1192.46 491.953,1190.69 494.062,1188.93 496.172,1187.16 
  498.282,1185.4 500.392,1183.65 502.501,1181.89 504.611,1180.14 506.721,1178.39 508.831,1176.64 510.94,1174.9 513.05,1173.16 515.16,1171.42 517.27,1169.68 
  519.379,1167.95 521.489,1166.22 523.599,1164.49 525.709,1162.77 527.818,1161.05 529.928,1159.33 532.038,1157.61 534.148,1155.9 536.257,1154.19 538.367,1152.48 
  540.477,1150.78 542.587,1149.07 544.696,1147.37 546.806,1145.68 548.916,1143.98 551.026,1142.29 553.135,1140.6 555.245,1138.91 557.355,1137.23 559.465,1135.55 
  561.574,1133.87 563.684,1132.2 565.794,1130.52 567.904,1128.85 570.014,1127.19 572.123,1125.52 574.233,1123.86 576.343,1122.2 578.453,1120.54 580.562,1118.89 
  582.672,1117.23 584.782,1115.59 586.892,1113.94 589.001,1112.3 591.111,1110.65 593.221,1109.02 595.331,1107.38 597.44,1105.75 599.55,1104.12 601.66,1102.49 
  603.77,1100.86 605.879,1099.24 607.989,1097.62 610.099,1096 612.209,1094.39 614.318,1092.77 616.428,1091.16 618.538,1089.56 620.648,1087.95 622.757,1086.35 
  624.867,1084.75 626.977,1083.15 629.087,1081.56 631.196,1079.97 633.306,1078.38 635.416,1076.79 637.526,1075.21 639.635,1073.62 641.745,1072.04 643.855,1070.47 
  645.965,1068.89 648.074,1067.32 650.184,1065.75 652.294,1064.19 654.404,1062.62 656.513,1061.06 658.623,1059.5 660.733,1057.94 662.843,1056.39 664.952,1054.84 
  667.062,1053.29 669.172,1051.74 671.282,1050.2 673.391,1048.66 675.501,1047.12 677.611,1045.58 679.721,1044.05 681.83,1042.51 683.94,1040.98 686.05,1039.46 
  688.16,1037.93 690.27,1036.41 692.379,1034.89 694.489,1033.37 696.599,1031.86 698.709,1030.35 700.818,1028.84 702.928,1027.33 705.038,1025.82 707.148,1024.32 
  709.257,1022.82 711.367,1021.32 713.477,1019.83 715.587,1018.33 717.696,1016.84 719.806,1015.35 721.916,1013.87 724.026,1012.38 726.135,1010.9 728.245,1009.42 
  730.355,1007.95 732.465,1006.47 734.574,1005 736.684,1003.53 738.794,1002.06 740.904,1000.6 743.013,999.138 745.123,997.678 747.233,996.22 749.343,994.764 
  751.452,993.311 753.562,991.86 755.672,990.412 757.782,988.966 759.891,987.522 762.001,986.08 764.111,984.641 766.221,983.204 768.33,981.77 770.44,980.337 
  772.55,978.907 774.66,977.48 776.769,976.054 778.879,974.631 780.989,973.21 783.099,971.791 785.208,970.375 787.318,968.961 789.428,967.549 791.538,966.139 
  793.647,964.732 795.757,963.327 797.867,961.924 799.977,960.524 802.086,959.125 804.196,957.729 806.306,956.336 808.416,954.944 810.526,953.555 812.635,952.167 
  814.745,950.783 816.855,949.4 818.965,948.019 821.074,946.641 823.184,945.265 825.294,943.891 827.404,942.52 829.513,941.15 831.623,939.783 833.733,938.418 
  835.843,937.055 837.952,935.695 840.062,934.336 842.172,932.98 844.282,931.626 846.391,930.274 848.501,928.924 850.611,927.576 852.721,926.231 854.83,924.888 
  856.94,923.546 859.05,922.207 861.16,920.87 863.269,919.536 865.379,918.203 867.489,916.872 869.599,915.544 871.708,914.218 873.818,912.893 875.928,911.571 
  878.038,910.251 880.147,908.933 882.257,907.618 884.367,906.304 886.477,904.992 888.586,903.683 890.696,902.375 892.806,901.07 894.916,899.767 897.025,898.465 
  899.135,897.166 901.245,895.869 903.355,894.574 905.464,893.281 907.574,891.991 909.684,890.702 911.794,889.415 913.903,888.13 916.013,886.848 918.123,885.567 
  920.233,884.289 922.342,883.012 924.452,881.738 926.562,880.466 928.672,879.195 930.781,877.927 932.891,876.661 935.001,875.397 937.111,874.134 939.221,872.874 
  941.33,871.616 943.44,870.36 945.55,869.106 947.66,867.854 949.769,866.604 951.879,865.356 953.989,864.11 956.099,862.867 958.208,861.625 960.318,860.385 
  962.428,859.147 964.538,857.912 966.647,856.678 968.757,855.446 970.867,854.217 972.977,852.989 975.086,851.763 977.196,850.54 979.306,849.318 981.416,848.098 
  983.525,846.88 985.635,845.664 987.745,844.45 989.855,843.238 991.964,842.028 994.074,840.82 996.184,839.613 998.294,838.409 1000.4,837.206 1002.51,836.005 
  1004.62,834.806 1006.73,833.609 1008.84,832.414 1010.95,831.221 1013.06,830.03 1015.17,828.84 1017.28,827.652 1019.39,826.466 1021.5,825.282 1023.61,824.1 
  1025.72,822.92 1027.83,821.741 1029.94,820.565 1032.05,819.39 1034.16,818.217 1036.27,817.046 1038.38,815.877 1040.49,814.709 1042.6,813.544 1044.71,812.38 
  1046.82,811.218 1048.93,810.058 1051.04,808.9 1053.15,807.743 1055.26,806.589 1057.37,805.436 1059.48,804.285 1061.59,803.136 1063.7,801.989 1065.81,800.844 
  1067.92,799.701 1070.03,798.559 1072.14,797.419 1074.24,796.282 1076.35,795.146 1078.46,794.012 1080.57,792.88 1082.68,791.75 1084.79,790.622 1086.9,789.495 
  1089.01,788.371 1091.12,787.249 1093.23,786.128 1095.34,785.01 1097.45,783.893 1099.56,782.779 1101.67,781.666 1103.78,780.555 1105.89,779.446 1108,778.339 
  1110.11,777.234 1112.22,776.13 1114.33,775.029 1116.44,773.928 1118.55,772.83 1120.66,771.733 1122.77,770.639 1124.88,769.545 1126.99,768.454 1129.1,767.364 
  1131.21,766.275 1133.32,765.189 1135.43,764.103 1137.54,763.02 1139.65,761.938 1141.76,760.858 1143.87,759.779 1145.98,758.702 1148.09,757.626 1150.2,756.552 
  1152.31,755.48 1154.42,754.409 1156.53,753.34 1158.63,752.272 1160.74,751.206 1162.85,750.142 1164.96,749.079 1167.07,748.017 1169.18,746.958 1171.29,745.9 
  1173.4,744.843 1175.51,743.788 1177.62,742.735 1179.73,741.684 1181.84,740.634 1183.95,739.586 1186.06,738.539 1188.17,737.494 1190.28,736.451 1192.39,735.41 
  1194.5,734.371 1196.61,733.333 1198.72,732.297 1200.83,731.263 1202.94,730.231 1205.05,729.201 1207.16,728.172 1209.27,727.146 1211.38,726.122 1213.49,725.099 
  1215.6,724.079 1217.71,723.06 1219.82,722.044 1221.93,721.029 1224.04,720.015 1226.15,719.004 1228.26,717.994 1230.37,716.986 1232.48,715.979 1234.59,714.974 
  1236.7,713.97 1238.81,712.969 1240.92,711.968 1243.03,710.969 1245.13,709.972 1247.24,708.976 1249.35,707.981 1251.46,706.988 1253.57,705.996 1255.68,705.006 
  1257.79,704.017 1259.9,703.03 1262.01,702.044 1264.12,701.059 1266.23,700.076 1268.34,699.094 1270.45,698.113 1272.56,697.134 1274.67,696.156 1276.78,695.18 
  1278.89,694.205 1281,693.231 1283.11,692.259 1285.22,691.289 1287.33,690.32 1289.44,689.352 1291.55,688.386 1293.66,687.421 1295.77,686.458 1297.88,685.496 
  1299.99,684.536 1302.1,683.577 1304.21,682.621 1306.32,681.665 1308.43,680.712 1310.54,679.76 1312.65,678.81 1314.76,677.862 1316.87,676.916 1318.98,675.971 
  1321.09,675.029 1323.2,674.088 1325.31,673.15 1327.42,672.212 1329.53,671.277 1331.63,670.343 1333.74,669.411 1335.85,668.48 1337.96,667.55 1340.07,666.623 
  1342.18,665.696 1344.29,664.771 1346.4,663.848 1348.51,662.926 1350.62,662.005 1352.73,661.085 1354.84,660.167 1356.95,659.251 1359.06,658.335 1361.17,657.421 
  1363.28,656.509 1365.39,655.597 1367.5,654.687 1369.61,653.779 1371.72,652.871 1373.83,651.965 1375.94,651.06 1378.05,650.157 1380.16,649.254 1382.27,648.353 
  1384.38,647.454 1386.49,646.556 1388.6,645.659 1390.71,644.763 1392.82,643.869 1394.93,642.976 1397.04,642.085 1399.15,641.195 1401.26,640.306 1403.37,639.419 
  1405.48,638.533 1407.59,637.649 1409.7,636.766 1411.81,635.885 1413.92,635.006 1416.02,634.128 1418.13,633.251 1420.24,632.376 1422.35,631.503 1424.46,630.632 
  1426.57,629.762 1428.68,628.894 1430.79,628.028 1432.9,627.162 1435.01,626.298 1437.12,625.436 1439.23,624.575 1441.34,623.715 1443.45,622.857 1445.56,622 
  1447.67,621.145 1449.78,620.29 1451.89,619.437 1454,618.586 1456.11,617.735 1458.22,616.886 1460.33,616.038 1462.44,615.192 1464.55,614.347 1466.66,613.503 
  1468.77,612.66 1470.88,611.818 1472.99,610.978 1475.1,610.139 1477.21,609.301 1479.32,608.465 1481.43,607.63 1483.54,606.796 1485.65,605.963 1487.76,605.131 
  1489.87,604.301 1491.98,603.472 1494.09,602.644 1496.2,601.818 1498.31,600.993 1500.42,600.169 1502.52,599.347 1504.63,598.526 1506.74,597.706 1508.85,596.887 
  1510.96,596.07 1513.07,595.255 1515.18,594.441 1517.29,593.628 1519.4,592.816 1521.51,592.006 1523.62,591.198 1525.73,590.391 1527.84,589.585 1529.95,588.781 
  1532.06,587.978 1534.17,587.177 1536.28,586.377 1538.39,585.578 1540.5,584.78 1542.61,583.984 1544.72,583.189 1546.83,582.395 1548.94,581.603 1551.05,580.811 
  1553.16,580.021 1555.27,579.232 1557.38,578.445 1559.49,577.658 1561.6,576.873 1563.71,576.089 1565.82,575.306 1567.93,574.525 1570.04,573.744 1572.15,572.965 
  1574.26,572.187 1576.37,571.41 1578.48,570.634 1580.59,569.86 1582.7,569.086 1584.81,568.314 1586.92,567.543 1589.02,566.773 1591.13,566.005 1593.24,565.237 
  1595.35,564.471 1597.46,563.706 1599.57,562.942 1601.68,562.18 1603.79,561.418 1605.9,560.658 1608.01,559.899 1610.12,559.141 1612.23,558.385 1614.34,557.63 
  1616.45,556.876 1618.56,556.123 1620.67,555.372 1622.78,554.622 1624.89,553.873 1627,553.125 1629.11,552.379 1631.22,551.635 1633.33,550.891 1635.44,550.149 
  1637.55,549.408 1639.66,548.668 1641.77,547.929 1643.88,547.192 1645.99,546.455 1648.1,545.72 1650.21,544.986 1652.32,544.253 1654.43,543.522 1656.54,542.791 
  1658.65,542.062 1660.76,541.333 1662.87,540.606 1664.98,539.88 1667.09,539.155 1669.2,538.432 1671.31,537.709 1673.42,536.987 1675.52,536.267 1677.63,535.548 
  1679.74,534.829 1681.85,534.112 1683.96,533.396 1686.07,532.681 1688.18,531.967 1690.29,531.255 1692.4,530.543 1694.51,529.832 1696.62,529.123 1698.73,528.414 
  1700.84,527.707 1702.95,527.001 1705.06,526.296 1707.17,525.592 1709.28,524.889 1711.39,524.188 1713.5,523.487 1715.61,522.788 1717.72,522.09 1719.83,521.393 
  1721.94,520.697 1724.05,520.002 1726.16,519.309 1728.27,518.616 1730.38,517.925 1732.49,517.235 1734.6,516.547 1736.71,515.859 1738.82,515.173 1740.93,514.488 
  1743.04,513.804 1745.15,513.121 1747.26,512.439 1749.37,511.758 1751.48,511.078 1753.59,510.4 1755.7,509.722 1757.81,509.046 1759.91,508.37 1762.02,507.696 
  1764.13,507.023 1766.24,506.351 1768.35,505.679 1770.46,505.009 1772.57,504.34 1774.68,503.672 1776.79,503.005 1778.9,502.339 1781.01,501.674 1783.12,501.01 
  1785.23,500.347 1787.34,499.685 1789.45,499.024 1791.56,498.364 1793.67,497.705 1795.78,497.047 1797.89,496.391 1800,495.735 1802.11,495.08 1804.22,494.426 
  1806.33,493.773 1808.44,493.121 1810.55,492.471 1812.66,491.821 1814.77,491.172 1816.88,490.525 1818.99,489.878 1821.1,489.233 1823.21,488.588 1825.32,487.945 
  1827.43,487.302 1829.54,486.661 1831.65,486.021 1833.76,485.382 1835.87,484.744 1837.98,484.107 1840.09,483.471 1842.2,482.836 1844.31,482.203 1846.41,481.57 
  1848.52,480.939 1850.63,480.308 1852.74,479.679 1854.85,479.05 1856.96,478.423 1859.07,477.797 1861.18,477.171 1863.29,476.547 1865.4,475.924 1867.51,475.301 
  1869.62,474.68 1871.73,474.06 1873.84,473.44 1875.95,472.822 1878.06,472.204 1880.17,471.587 1882.28,470.972 1884.39,470.357 1886.5,469.743 1888.61,469.131 
  1890.72,468.519 1892.83,467.908 1894.94,467.298 1897.05,466.689 1899.16,466.08 1901.27,465.473 1903.38,464.867 1905.49,464.262 1907.6,463.657 1909.71,463.054 
  1911.82,462.451 1913.93,461.849 1916.04,461.249 1918.15,460.649 1920.26,460.05 1922.37,459.452 1924.48,458.855 1926.59,458.26 1928.7,457.665 1930.81,457.071 
  1932.91,456.478 1935.02,455.886 1937.13,455.294 1939.24,454.704 1941.35,454.115 1943.46,453.527 1945.57,452.94 1947.68,452.354 1949.79,451.769 1951.9,451.185 
  1954.01,450.603 1956.12,450.021 1958.23,449.44 1960.34,448.86 1962.45,448.281 1964.56,447.703 1966.67,447.125 1968.78,446.549 1970.89,445.974 1973,445.399 
  1975.11,444.826 1977.22,444.253 1979.33,443.682 1981.44,443.111 1983.55,442.541 1985.66,441.972 1987.77,441.404 1989.88,440.836 1991.99,440.27 1994.1,439.704 
  1996.21,439.139 1998.32,438.576 2000.43,438.013 2002.54,437.45 2004.65,436.889 2006.76,436.329 2008.87,435.769 2010.98,435.21 2013.09,434.652 2015.2,434.095 
  2017.3,433.539 2019.41,432.984 2021.52,432.43 2023.63,431.876 2025.74,431.323 2027.85,430.771 2029.96,430.22 2032.07,429.67 2034.18,429.121 2036.29,428.573 
  2038.4,428.025 2040.51,427.479 2042.62,426.933 2044.73,426.388 2046.84,425.845 2048.95,425.302 2051.06,424.76 2053.17,424.219 2055.28,423.679 2057.39,423.139 
  2059.5,422.601 2061.61,422.064 2063.72,421.528 2065.83,420.992 2067.94,420.458 2070.05,419.924 2072.16,419.392 2074.27,418.86 2076.38,418.329 2078.49,417.798 
  2080.6,417.269 2082.71,416.741 2084.82,416.213 2086.93,415.686 2089.04,415.16 2091.15,414.635 2093.26,414.111 2095.37,413.587 2097.48,413.064 2099.59,412.542 
  2101.7,412.021 2103.8,411.501 2105.91,410.981 2108.02,410.462 2110.13,409.944 2112.24,409.427 2114.35,408.91 2116.46,408.395 2118.57,407.88 2120.68,407.366 
  2122.79,406.852 2124.9,406.34 2127.01,405.828 2129.12,405.317 2131.23,404.807 2133.34,404.297 2135.45,403.789 2137.56,403.281 2139.67,402.774 2141.78,402.268 
  2143.89,401.763 2146,401.258 2148.11,400.754 2150.22,400.252 2152.33,399.749 2154.44,399.248 2156.55,398.748 2158.66,398.248 2160.77,397.75 2162.88,397.252 
  2164.99,396.755 2167.1,396.259 2169.21,395.764 2171.32,395.27 2173.43,394.777 2175.54,394.284 2177.65,393.792 2179.76,393.301 2181.87,392.811 2183.98,392.322 
  2186.09,391.833 2188.2,391.345 2190.3,390.858 2192.41,390.372 2194.52,389.887 2196.63,389.402 2198.74,388.918 2200.85,388.435 2202.96,387.952 2205.07,387.47 
  2207.18,386.989 2209.29,386.509 2211.4,386.029 2213.51,385.551 2215.62,385.072 2217.73,384.595 2219.84,384.118 2221.95,383.642 2224.06,383.167 2226.17,382.693 
  2228.28,382.219 2230.39,381.746 2232.5,381.273 2234.61,380.802 2236.72,380.331 2238.83,379.861 2240.94,379.391 2243.05,378.923 2245.16,378.455 2247.27,377.988 
  2249.38,377.521 2251.49,377.055 2253.6,376.59 2255.71,376.126 2257.82,375.663 2259.93,375.2 2262.04,374.738 2264.15,374.277 2266.26,373.817 2268.37,373.357 
  2270.48,372.899 2272.59,372.441 2274.69,371.984 2276.8,371.527 2278.91,371.072 2281.02,370.617 2283.13,370.163 2285.24,369.71 2287.35,369.257 2289.46,368.805 
  2291.57,368.354 2293.68,367.904 2295.79,367.454 2297.9,367.005 2300.01,366.556 2302.12,366.108 2304.23,365.661 2306.34,365.215 2308.45,364.77 2310.56,364.325 
  2312.67,363.88 2314.78,363.437 2316.89,362.994 2319,362.552 2321.11,362.111 2323.22,361.67 2325.33,361.23 2327.44,360.791 2329.55,360.352 2331.66,359.914 
  2333.77,359.477 2335.88,359.04 2337.99,358.605 2340.1,358.169 2342.21,357.735 2344.32,357.301 2346.43,356.868 2348.54,356.436 2350.65,356.004 2352.76,355.574 
  
  "/>
<polygon clip-path="url(#clip8900)" points="
1861.6,372.684 2280.76,372.684 2280.76,130.764 1861.6,130.764 
  " fill="#ffffff" fill-rule="evenodd" fill-opacity="1"/>
<polyline clip-path="url(#clip8900)" style="stroke:#000000; stroke-width:4; stroke-opacity:1; fill:none" points="
  1861.6,372.684 2280.76,372.684 2280.76,130.764 1861.6,130.764 1861.6,372.684 
  "/>
<polyline clip-path="url(#clip8900)" style="stroke:#009af9; stroke-width:12; stroke-opacity:1; fill:none" points="
  1885.6,191.244 2029.6,191.244 
  "/>
<g clip-path="url(#clip8900)">
<text style="fill:#000000; fill-opacity:1; font-family:Arial,Helvetica Neue,Helvetica,sans-serif; font-size:48px; text-anchor:start;" transform="rotate(0, 2053.6, 208.744)" x="2053.6" y="208.744">Ln(t)</text>
</g>
<polyline clip-path="url(#clip8900)" style="stroke:#e26f46; stroke-width:12; stroke-opacity:1; fill:none" points="
  1885.6,251.724 2029.6,251.724 
  "/>
<g clip-path="url(#clip8900)">
<text style="fill:#000000; fill-opacity:1; font-family:Arial,Helvetica Neue,Helvetica,sans-serif; font-size:48px; text-anchor:start;" transform="rotate(0, 2053.6, 269.224)" x="2053.6" y="269.224">DCA(t)</text>
</g>
<polyline clip-path="url(#clip8900)" style="stroke:#3da44d; stroke-width:12; stroke-opacity:1; fill:none" points="
  1885.6,312.204 2029.6,312.204 
  "/>
<g clip-path="url(#clip8900)">
<text style="fill:#000000; fill-opacity:1; font-family:Arial,Helvetica Neue,Helvetica,sans-serif; font-size:48px; text-anchor:start;" transform="rotate(0, 2053.6, 329.704)" x="2053.6" y="329.704">DCAA(t)</text>
</g>
</svg>
