<?xml version="1.0" encoding="utf-8"?>
<svg xmlns="http://www.w3.org/2000/svg" xmlns:xlink="http://www.w3.org/1999/xlink" width="600" height="400" viewBox="0 0 2400 1600">
<defs>
  <clipPath id="clip8500">
    <rect x="0" y="0" width="2400" height="1600"/>
  </clipPath>
</defs>
<polygon clip-path="url(#clip8500)" points="
0,1600 2400,1600 2400,0 0,0 
  " fill="#ffffff" fill-rule="evenodd" fill-opacity="1"/>
<defs>
  <clipPath id="clip8501">
    <rect x="480" y="0" width="1681" height="1600"/>
  </clipPath>
</defs>
<polygon clip-path="url(#clip8500)" points="
245.111,1425.62 2352.76,1425.62 2352.76,47.2441 245.111,47.2441 
  " fill="#ffffff" fill-rule="evenodd" fill-opacity="1"/>
<defs>
  <clipPath id="clip8502">
    <rect x="245" y="47" width="2109" height="1379"/>
  </clipPath>
</defs>
<polyline clip-path="url(#clip8502)" style="stroke:#000000; stroke-width:2; stroke-opacity:0.1; fill:none" points="
  245.111,1425.62 245.111,47.2441 
  "/>
<polyline clip-path="url(#clip8502)" style="stroke:#000000; stroke-width:2; stroke-opacity:0.1; fill:none" points="
  666.64,1425.62 666.64,47.2441 
  "/>
<polyline clip-path="url(#clip8502)" style="stroke:#000000; stroke-width:2; stroke-opacity:0.1; fill:none" points="
  1088.17,1425.62 1088.17,47.2441 
  "/>
<polyline clip-path="url(#clip8502)" style="stroke:#000000; stroke-width:2; stroke-opacity:0.1; fill:none" points="
  1509.7,1425.62 1509.7,47.2441 
  "/>
<polyline clip-path="url(#clip8502)" style="stroke:#000000; stroke-width:2; stroke-opacity:0.1; fill:none" points="
  1931.23,1425.62 1931.23,47.2441 
  "/>
<polyline clip-path="url(#clip8502)" style="stroke:#000000; stroke-width:2; stroke-opacity:0.1; fill:none" points="
  2352.76,1425.62 2352.76,47.2441 
  "/>
<polyline clip-path="url(#clip8502)" style="stroke:#000000; stroke-width:2; stroke-opacity:0.1; fill:none" points="
  245.111,1386.61 2352.76,1386.61 
  "/>
<polyline clip-path="url(#clip8502)" style="stroke:#000000; stroke-width:2; stroke-opacity:0.1; fill:none" points="
  245.111,1177.55 2352.76,1177.55 
  "/>
<polyline clip-path="url(#clip8502)" style="stroke:#000000; stroke-width:2; stroke-opacity:0.1; fill:none" points="
  245.111,968.488 2352.76,968.488 
  "/>
<polyline clip-path="url(#clip8502)" style="stroke:#000000; stroke-width:2; stroke-opacity:0.1; fill:none" points="
  245.111,759.428 2352.76,759.428 
  "/>
<polyline clip-path="url(#clip8502)" style="stroke:#000000; stroke-width:2; stroke-opacity:0.1; fill:none" points="
  245.111,550.368 2352.76,550.368 
  "/>
<polyline clip-path="url(#clip8502)" style="stroke:#000000; stroke-width:2; stroke-opacity:0.1; fill:none" points="
  245.111,341.308 2352.76,341.308 
  "/>
<polyline clip-path="url(#clip8502)" style="stroke:#000000; stroke-width:2; stroke-opacity:0.1; fill:none" points="
  245.111,132.248 2352.76,132.248 
  "/>
<polyline clip-path="url(#clip8500)" style="stroke:#000000; stroke-width:4; stroke-opacity:1; fill:none" points="
  245.111,1425.62 2352.76,1425.62 
  "/>
<polyline clip-path="url(#clip8500)" style="stroke:#000000; stroke-width:4; stroke-opacity:1; fill:none" points="
  245.111,1425.62 245.111,47.2441 
  "/>
<polyline clip-path="url(#clip8500)" style="stroke:#000000; stroke-width:4; stroke-opacity:1; fill:none" points="
  245.111,1425.62 245.111,1404.94 
  "/>
<polyline clip-path="url(#clip8500)" style="stroke:#000000; stroke-width:4; stroke-opacity:1; fill:none" points="
  666.64,1425.62 666.64,1404.94 
  "/>
<polyline clip-path="url(#clip8500)" style="stroke:#000000; stroke-width:4; stroke-opacity:1; fill:none" points="
  1088.17,1425.62 1088.17,1404.94 
  "/>
<polyline clip-path="url(#clip8500)" style="stroke:#000000; stroke-width:4; stroke-opacity:1; fill:none" points="
  1509.7,1425.62 1509.7,1404.94 
  "/>
<polyline clip-path="url(#clip8500)" style="stroke:#000000; stroke-width:4; stroke-opacity:1; fill:none" points="
  1931.23,1425.62 1931.23,1404.94 
  "/>
<polyline clip-path="url(#clip8500)" style="stroke:#000000; stroke-width:4; stroke-opacity:1; fill:none" points="
  2352.76,1425.62 2352.76,1404.94 
  "/>
<polyline clip-path="url(#clip8500)" style="stroke:#000000; stroke-width:4; stroke-opacity:1; fill:none" points="
  245.111,1386.61 276.726,1386.61 
  "/>
<polyline clip-path="url(#clip8500)" style="stroke:#000000; stroke-width:4; stroke-opacity:1; fill:none" points="
  245.111,1177.55 276.726,1177.55 
  "/>
<polyline clip-path="url(#clip8500)" style="stroke:#000000; stroke-width:4; stroke-opacity:1; fill:none" points="
  245.111,968.488 276.726,968.488 
  "/>
<polyline clip-path="url(#clip8500)" style="stroke:#000000; stroke-width:4; stroke-opacity:1; fill:none" points="
  245.111,759.428 276.726,759.428 
  "/>
<polyline clip-path="url(#clip8500)" style="stroke:#000000; stroke-width:4; stroke-opacity:1; fill:none" points="
  245.111,550.368 276.726,550.368 
  "/>
<polyline clip-path="url(#clip8500)" style="stroke:#000000; stroke-width:4; stroke-opacity:1; fill:none" points="
  245.111,341.308 276.726,341.308 
  "/>
<polyline clip-path="url(#clip8500)" style="stroke:#000000; stroke-width:4; stroke-opacity:1; fill:none" points="
  245.111,132.248 276.726,132.248 
  "/>
<g clip-path="url(#clip8500)">
<text style="fill:#000000; fill-opacity:1; font-family:Arial,Helvetica Neue,Helvetica,sans-serif; font-size:48px; text-anchor:middle;" transform="rotate(0, 245.111, 1479.62)" x="245.111" y="1479.62">0</text>
</g>
<g clip-path="url(#clip8500)">
<text style="fill:#000000; fill-opacity:1; font-family:Arial,Helvetica Neue,Helvetica,sans-serif; font-size:48px; text-anchor:middle;" transform="rotate(0, 666.64, 1479.62)" x="666.64" y="1479.62">2</text>
</g>
<g clip-path="url(#clip8500)">
<text style="fill:#000000; fill-opacity:1; font-family:Arial,Helvetica Neue,Helvetica,sans-serif; font-size:48px; text-anchor:middle;" transform="rotate(0, 1088.17, 1479.62)" x="1088.17" y="1479.62">4</text>
</g>
<g clip-path="url(#clip8500)">
<text style="fill:#000000; fill-opacity:1; font-family:Arial,Helvetica Neue,Helvetica,sans-serif; font-size:48px; text-anchor:middle;" transform="rotate(0, 1509.7, 1479.62)" x="1509.7" y="1479.62">6</text>
</g>
<g clip-path="url(#clip8500)">
<text style="fill:#000000; fill-opacity:1; font-family:Arial,Helvetica Neue,Helvetica,sans-serif; font-size:48px; text-anchor:middle;" transform="rotate(0, 1931.23, 1479.62)" x="1931.23" y="1479.62">8</text>
</g>
<g clip-path="url(#clip8500)">
<text style="fill:#000000; fill-opacity:1; font-family:Arial,Helvetica Neue,Helvetica,sans-serif; font-size:48px; text-anchor:middle;" transform="rotate(0, 2352.76, 1479.62)" x="2352.76" y="1479.62">10</text>
</g>
<g clip-path="url(#clip8500)">
<text style="fill:#000000; fill-opacity:1; font-family:Arial,Helvetica Neue,Helvetica,sans-serif; font-size:48px; text-anchor:end;" transform="rotate(0, 221.111, 1404.11)" x="221.111" y="1404.11">0</text>
</g>
<g clip-path="url(#clip8500)">
<text style="fill:#000000; fill-opacity:1; font-family:Arial,Helvetica Neue,Helvetica,sans-serif; font-size:48px; text-anchor:start;" transform="rotate(0, 90.9698, 1201.28)" x="90.9698" y="1201.28">1×10</text>
</g>
<g clip-path="url(#clip8500)">
<text style="fill:#000000; fill-opacity:1; font-family:Arial,Helvetica Neue,Helvetica,sans-serif; font-size:38px; text-anchor:start;" transform="rotate(0, 199.367, 1173.87)" x="199.367" y="1173.87">8</text>
</g>
<g clip-path="url(#clip8500)">
<text style="fill:#000000; fill-opacity:1; font-family:Arial,Helvetica Neue,Helvetica,sans-serif; font-size:48px; text-anchor:start;" transform="rotate(0, 90.9698, 992.216)" x="90.9698" y="992.216">2×10</text>
</g>
<g clip-path="url(#clip8500)">
<text style="fill:#000000; fill-opacity:1; font-family:Arial,Helvetica Neue,Helvetica,sans-serif; font-size:38px; text-anchor:start;" transform="rotate(0, 199.367, 964.805)" x="199.367" y="964.805">8</text>
</g>
<g clip-path="url(#clip8500)">
<text style="fill:#000000; fill-opacity:1; font-family:Arial,Helvetica Neue,Helvetica,sans-serif; font-size:48px; text-anchor:start;" transform="rotate(0, 90.9698, 783.156)" x="90.9698" y="783.156">3×10</text>
</g>
<g clip-path="url(#clip8500)">
<text style="fill:#000000; fill-opacity:1; font-family:Arial,Helvetica Neue,Helvetica,sans-serif; font-size:38px; text-anchor:start;" transform="rotate(0, 199.367, 755.745)" x="199.367" y="755.745">8</text>
</g>
<g clip-path="url(#clip8500)">
<text style="fill:#000000; fill-opacity:1; font-family:Arial,Helvetica Neue,Helvetica,sans-serif; font-size:48px; text-anchor:start;" transform="rotate(0, 90.9698, 574.096)" x="90.9698" y="574.096">4×10</text>
</g>
<g clip-path="url(#clip8500)">
<text style="fill:#000000; fill-opacity:1; font-family:Arial,Helvetica Neue,Helvetica,sans-serif; font-size:38px; text-anchor:start;" transform="rotate(0, 199.367, 546.685)" x="199.367" y="546.685">8</text>
</g>
<g clip-path="url(#clip8500)">
<text style="fill:#000000; fill-opacity:1; font-family:Arial,Helvetica Neue,Helvetica,sans-serif; font-size:48px; text-anchor:start;" transform="rotate(0, 90.9698, 365.036)" x="90.9698" y="365.036">5×10</text>
</g>
<g clip-path="url(#clip8500)">
<text style="fill:#000000; fill-opacity:1; font-family:Arial,Helvetica Neue,Helvetica,sans-serif; font-size:38px; text-anchor:start;" transform="rotate(0, 199.367, 337.625)" x="199.367" y="337.625">8</text>
</g>
<g clip-path="url(#clip8500)">
<text style="fill:#000000; fill-opacity:1; font-family:Arial,Helvetica Neue,Helvetica,sans-serif; font-size:48px; text-anchor:start;" transform="rotate(0, 90.9698, 155.975)" x="90.9698" y="155.975">6×10</text>
</g>
<g clip-path="url(#clip8500)">
<text style="fill:#000000; fill-opacity:1; font-family:Arial,Helvetica Neue,Helvetica,sans-serif; font-size:38px; text-anchor:start;" transform="rotate(0, 199.367, 128.565)" x="199.367" y="128.565">8</text>
</g>
<g clip-path="url(#clip8500)">
<text style="fill:#000000; fill-opacity:1; font-family:Arial,Helvetica Neue,Helvetica,sans-serif; font-size:66px; text-anchor:middle;" transform="rotate(0, 1298.93, 1559.48)" x="1298.93" y="1559.48">t</text>
</g>
<polyline clip-path="url(#clip8502)" style="stroke:#009af9; stroke-width:12; stroke-opacity:1; fill:none" points="
  245.111,86.2547 247.221,88.0861 249.331,90.155 251.441,92.2245 253.55,94.2923 255.66,96.3576 257.77,98.4201 259.88,100.48 261.989,102.536 264.099,104.59 
  266.209,106.64 268.319,108.687 270.428,110.731 272.538,112.772 274.648,114.81 276.758,116.844 278.867,118.875 280.977,120.903 283.087,122.928 285.197,124.95 
  287.306,126.968 289.416,128.983 291.526,130.995 293.636,133.004 295.745,135.01 297.855,137.012 299.965,139.011 302.075,141.007 304.184,143 306.294,144.99 
  308.404,146.976 310.514,148.96 312.623,150.94 314.733,152.917 316.843,154.891 318.953,156.862 321.063,158.829 323.172,160.794 325.282,162.755 327.392,164.713 
  329.502,166.668 331.611,168.62 333.721,170.569 335.831,172.515 337.941,174.458 340.05,176.397 342.16,178.334 344.27,180.267 346.38,182.197 348.489,184.124 
  350.599,186.048 352.709,187.969 354.819,189.887 356.928,191.802 359.038,193.714 361.148,195.623 363.258,197.528 365.367,199.431 367.477,201.331 369.587,203.227 
  371.697,205.121 373.806,207.011 375.916,208.899 378.026,210.783 380.136,212.665 382.245,214.543 384.355,216.419 386.465,218.291 388.575,220.161 390.684,222.027 
  392.794,223.891 394.904,225.751 397.014,227.609 399.123,229.463 401.233,231.315 403.343,233.164 405.453,235.009 407.562,236.852 409.672,238.692 411.782,240.529 
  413.892,242.363 416.001,244.194 418.111,246.022 420.221,247.847 422.331,249.669 424.44,251.488 426.55,253.305 428.66,255.118 430.77,256.929 432.879,258.736 
  434.989,260.541 437.099,262.343 439.209,264.142 441.318,265.938 443.428,267.731 445.538,269.522 447.648,271.309 449.758,273.094 451.867,274.876 453.977,276.655 
  456.087,278.431 458.197,280.204 460.306,281.975 462.416,283.742 464.526,285.507 466.636,287.269 468.745,289.028 470.855,290.784 472.965,292.538 475.075,294.289 
  477.184,296.037 479.294,297.782 481.404,299.524 483.514,301.264 485.623,303 487.733,304.734 489.843,306.466 491.953,308.194 494.062,309.92 496.172,311.643 
  498.282,313.363 500.392,315.08 502.501,316.795 504.611,318.507 506.721,320.216 508.831,321.922 510.94,323.626 513.05,325.327 515.16,327.025 517.27,328.721 
  519.379,330.414 521.489,332.104 523.599,333.791 525.709,335.476 527.818,337.158 529.928,338.837 532.038,340.514 534.148,342.188 536.257,343.859 538.367,345.528 
  540.477,347.194 542.587,348.857 544.696,350.518 546.806,352.175 548.916,353.831 551.026,355.483 553.135,357.133 555.245,358.781 557.355,360.426 559.465,362.068 
  561.574,363.707 563.684,365.344 565.794,366.978 567.904,368.61 570.014,370.239 572.123,371.865 574.233,373.489 576.343,375.11 578.453,376.729 580.562,378.345 
  582.672,379.958 584.782,381.569 586.892,383.177 589.001,384.783 591.111,386.386 593.221,387.987 595.331,389.585 597.44,391.18 599.55,392.773 601.66,394.363 
  603.77,395.951 605.879,397.537 607.989,399.119 610.099,400.699 612.209,402.277 614.318,403.852 616.428,405.425 618.538,406.995 620.648,408.563 622.757,410.128 
  624.867,411.69 626.977,413.25 629.087,414.808 631.196,416.363 633.306,417.916 635.416,419.466 637.526,421.013 639.635,422.558 641.745,424.101 643.855,425.641 
  645.965,427.179 648.074,428.714 650.184,430.247 652.294,431.778 654.404,433.306 656.513,434.831 658.623,436.354 660.733,437.875 662.843,439.393 664.952,440.909 
  667.062,442.422 669.172,443.933 671.282,445.441 673.391,446.947 675.501,448.451 677.611,449.952 679.721,451.451 681.83,452.948 683.94,454.442 686.05,455.933 
  688.16,457.423 690.27,458.91 692.379,460.394 694.489,461.876 696.599,463.356 698.709,464.833 700.818,466.308 702.928,467.781 705.038,469.251 707.148,470.719 
  709.257,472.185 711.367,473.648 713.477,475.109 715.587,476.568 717.696,478.024 719.806,479.478 721.916,480.93 724.026,482.379 726.135,483.826 728.245,485.271 
  730.355,486.713 732.465,488.153 734.574,489.591 736.684,491.026 738.794,492.459 740.904,493.89 743.013,495.319 745.123,496.745 747.233,498.169 749.343,499.591 
  751.452,501.01 753.562,502.427 755.672,503.842 757.782,505.255 759.891,506.665 762.001,508.073 764.111,509.479 766.221,510.883 768.33,512.284 770.44,513.683 
  772.55,515.08 774.66,516.474 776.769,517.867 778.879,519.257 780.989,520.645 783.099,522.031 785.208,523.414 787.318,524.796 789.428,526.175 791.538,527.552 
  793.647,528.926 795.757,530.299 797.867,531.669 799.977,533.037 802.086,534.403 804.196,535.767 806.306,537.128 808.416,538.488 810.526,539.845 812.635,541.2 
  814.745,542.553 816.855,543.903 818.965,545.252 821.074,546.598 823.184,547.942 825.294,549.284 827.404,550.624 829.513,551.962 831.623,553.298 833.733,554.631 
  835.843,555.963 837.952,557.292 840.062,558.619 842.172,559.944 844.282,561.267 846.391,562.587 848.501,563.906 850.611,565.222 852.721,566.537 854.83,567.849 
  856.94,569.159 859.05,570.467 861.16,571.773 863.269,573.077 865.379,574.379 867.489,575.679 869.599,576.977 871.708,578.272 873.818,579.566 875.928,580.857 
  878.038,582.147 880.147,583.434 882.257,584.719 884.367,586.002 886.477,587.283 888.586,588.563 890.696,589.84 892.806,591.115 894.916,592.388 897.025,593.659 
  899.135,594.927 901.245,596.194 903.355,597.459 905.464,598.722 907.574,599.983 909.684,601.241 911.794,602.498 913.903,603.753 916.013,605.006 918.123,606.256 
  920.233,607.505 922.342,608.752 924.452,609.997 926.562,611.239 928.672,612.48 930.781,613.719 932.891,614.956 935.001,616.191 937.111,617.423 939.221,618.654 
  941.33,619.883 943.44,621.11 945.55,622.335 947.66,623.558 949.769,624.779 951.879,625.998 953.989,627.215 956.099,628.431 958.208,629.644 960.318,630.855 
  962.428,632.064 964.538,633.272 966.647,634.477 968.757,635.681 970.867,636.883 972.977,638.082 975.086,639.28 977.196,640.476 979.306,641.67 981.416,642.862 
  983.525,644.052 985.635,645.24 987.745,646.427 989.855,647.611 991.964,648.794 994.074,649.975 996.184,651.153 998.294,652.33 1000.4,653.505 1002.51,654.678 
  1004.62,655.85 1006.73,657.019 1008.84,658.186 1010.95,659.352 1013.06,660.516 1015.17,661.678 1017.28,662.838 1019.39,663.996 1021.5,665.152 1023.61,666.307 
  1025.72,667.459 1027.83,668.61 1029.94,669.759 1032.05,670.906 1034.16,672.052 1036.27,673.195 1038.38,674.337 1040.49,675.476 1042.6,676.614 1044.71,677.751 
  1046.82,678.885 1048.93,680.017 1051.04,681.148 1053.15,682.277 1055.26,683.404 1057.37,684.529 1059.48,685.653 1061.59,686.774 1063.7,687.894 1065.81,689.012 
  1067.92,690.129 1070.03,691.243 1072.14,692.356 1074.24,693.467 1076.35,694.576 1078.46,695.684 1080.57,696.789 1082.68,697.893 1084.79,698.995 1086.9,700.095 
  1089.01,701.194 1091.12,702.291 1093.23,703.386 1095.34,704.479 1097.45,705.571 1099.56,706.661 1101.67,707.749 1103.78,708.835 1105.89,709.919 1108,711.002 
  1110.11,712.083 1112.22,713.163 1114.33,714.24 1116.44,715.316 1118.55,716.391 1120.66,717.463 1122.77,718.534 1124.88,719.603 1126.99,720.67 1129.1,721.736 
  1131.21,722.8 1133.32,723.862 1135.43,724.923 1137.54,725.981 1139.65,727.039 1141.76,728.094 1143.87,729.148 1145.98,730.2 1148.09,731.25 1150.2,732.299 
  1152.31,733.346 1154.42,734.391 1156.53,735.435 1158.63,736.477 1160.74,737.517 1162.85,738.556 1164.96,739.593 1167.07,740.629 1169.18,741.662 1171.29,742.694 
  1173.4,743.725 1175.51,744.753 1177.62,745.781 1179.73,746.806 1181.84,747.83 1183.95,748.852 1186.06,749.873 1188.17,750.891 1190.28,751.909 1192.39,752.924 
  1194.5,753.938 1196.61,754.951 1198.72,755.962 1200.83,756.971 1202.94,757.978 1205.05,758.984 1207.16,759.989 1209.27,760.991 1211.38,761.992 1213.49,762.992 
  1215.6,763.99 1217.71,764.986 1219.82,765.981 1221.93,766.974 1224.04,767.966 1226.15,768.956 1228.26,769.944 1230.37,770.931 1232.48,771.916 1234.59,772.9 
  1236.7,773.882 1238.81,774.862 1240.92,775.841 1243.03,776.818 1245.13,777.794 1247.24,778.768 1249.35,779.741 1251.46,780.712 1253.57,781.682 1255.68,782.65 
  1257.79,783.616 1259.9,784.581 1262.01,785.544 1264.12,786.506 1266.23,787.467 1268.34,788.425 1270.45,789.383 1272.56,790.338 1274.67,791.292 1276.78,792.245 
  1278.89,793.196 1281,794.146 1283.11,795.094 1285.22,796.04 1287.33,796.985 1289.44,797.929 1291.55,798.871 1293.66,799.811 1295.77,800.75 1297.88,801.688 
  1299.99,802.624 1302.1,803.558 1304.21,804.491 1306.32,805.423 1308.43,806.353 1310.54,807.281 1312.65,808.208 1314.76,809.134 1316.87,810.058 1318.98,810.981 
  1321.09,811.902 1323.2,812.821 1325.31,813.74 1327.42,814.656 1329.53,815.572 1331.63,816.485 1333.74,817.398 1335.85,818.308 1337.96,819.218 1340.07,820.126 
  1342.18,821.032 1344.29,821.937 1346.4,822.841 1348.51,823.743 1350.62,824.644 1352.73,825.543 1354.84,826.441 1356.95,827.337 1359.06,828.232 1361.17,829.126 
  1363.28,830.018 1365.39,830.908 1367.5,831.798 1369.61,832.685 1371.72,833.572 1373.83,834.457 1375.94,835.34 1378.05,836.222 1380.16,837.103 1382.27,837.982 
  1384.38,838.86 1386.49,839.737 1388.6,840.612 1390.71,841.486 1392.82,842.358 1394.93,843.229 1397.04,844.098 1399.15,844.967 1401.26,845.833 1403.37,846.699 
  1405.48,847.563 1407.59,848.425 1409.7,849.286 1411.81,850.146 1413.92,851.005 1416.02,851.862 1418.13,852.717 1420.24,853.572 1422.35,854.425 1424.46,855.276 
  1426.57,856.126 1428.68,856.975 1430.79,857.823 1432.9,858.669 1435.01,859.514 1437.12,860.357 1439.23,861.199 1441.34,862.04 1443.45,862.88 1445.56,863.718 
  1447.67,864.554 1449.78,865.39 1451.89,866.224 1454,867.057 1456.11,867.888 1458.22,868.718 1460.33,869.547 1462.44,870.374 1464.55,871.2 1466.66,872.025 
  1468.77,872.848 1470.88,873.67 1472.99,874.491 1475.1,875.311 1477.21,876.129 1479.32,876.946 1481.43,877.761 1483.54,878.576 1485.65,879.389 1487.76,880.2 
  1489.87,881.011 1491.98,881.82 1494.09,882.627 1496.2,883.434 1498.31,884.239 1500.42,885.043 1502.52,885.845 1504.63,886.647 1506.74,887.447 1508.85,888.246 
  1510.96,889.043 1513.07,889.839 1515.18,890.634 1517.29,891.428 1519.4,892.22 1521.51,893.011 1523.62,893.801 1525.73,894.59 1527.84,895.377 1529.95,896.163 
  1532.06,896.948 1534.17,897.731 1536.28,898.514 1538.39,899.295 1540.5,900.075 1542.61,900.853 1544.72,901.63 1546.83,902.406 1548.94,903.181 1551.05,903.955 
  1553.16,904.727 1555.27,905.498 1557.38,906.268 1559.49,907.037 1561.6,907.804 1563.71,908.57 1565.82,909.335 1567.93,910.099 1570.04,910.862 1572.15,911.623 
  1574.26,912.383 1576.37,913.142 1578.48,913.899 1580.59,914.656 1582.7,915.411 1584.81,916.165 1586.92,916.918 1589.02,917.669 1591.13,918.42 1593.24,919.169 
  1595.35,919.917 1597.46,920.664 1599.57,921.409 1601.68,922.154 1603.79,922.897 1605.9,923.639 1608.01,924.38 1610.12,925.119 1612.23,925.858 1614.34,926.595 
  1616.45,927.331 1618.56,928.066 1620.67,928.8 1622.78,929.533 1624.89,930.264 1627,930.994 1629.11,931.723 1631.22,932.451 1633.33,933.178 1635.44,933.903 
  1637.55,934.628 1639.66,935.351 1641.77,936.073 1643.88,936.794 1645.99,937.514 1648.1,938.232 1650.21,938.95 1652.32,939.666 1654.43,940.381 1656.54,941.096 
  1658.65,941.808 1660.76,942.52 1662.87,943.231 1664.98,943.94 1667.09,944.649 1669.2,945.356 1671.31,946.062 1673.42,946.767 1675.52,947.471 1677.63,948.173 
  1679.74,948.875 1681.85,949.575 1683.96,950.275 1686.07,950.973 1688.18,951.67 1690.29,952.366 1692.4,953.061 1694.51,953.755 1696.62,954.447 1698.73,955.139 
  1700.84,955.829 1702.95,956.518 1705.06,957.207 1707.17,957.894 1709.28,958.58 1711.39,959.265 1713.5,959.949 1715.61,960.631 1717.72,961.313 1719.83,961.993 
  1721.94,962.673 1724.05,963.351 1726.16,964.029 1728.27,964.705 1730.38,965.38 1732.49,966.054 1734.6,966.727 1736.71,967.399 1738.82,968.07 1740.93,968.739 
  1743.04,969.408 1745.15,970.076 1747.26,970.742 1749.37,971.408 1751.48,972.072 1753.59,972.735 1755.7,973.398 1757.81,974.059 1759.91,974.719 1762.02,975.378 
  1764.13,976.036 1766.24,976.693 1768.35,977.349 1770.46,978.004 1772.57,978.658 1774.68,979.31 1776.79,979.962 1778.9,980.613 1781.01,981.263 1783.12,981.911 
  1785.23,982.559 1787.34,983.205 1789.45,983.851 1791.56,984.495 1793.67,985.139 1795.78,985.781 1797.89,986.422 1800,987.063 1802.11,987.702 1804.22,988.341 
  1806.33,988.978 1808.44,989.614 1810.55,990.249 1812.66,990.884 1814.77,991.517 1816.88,992.149 1818.99,992.78 1821.1,993.41 1823.21,994.04 1825.32,994.668 
  1827.43,995.295 1829.54,995.921 1831.65,996.546 1833.76,997.17 1835.87,997.794 1837.98,998.416 1840.09,999.037 1842.2,999.657 1844.31,1000.28 1846.41,1000.89 
  1848.52,1001.51 1850.63,1002.13 1852.74,1002.74 1854.85,1003.36 1856.96,1003.97 1859.07,1004.58 1861.18,1005.19 1863.29,1005.8 1865.4,1006.41 1867.51,1007.02 
  1869.62,1007.63 1871.73,1008.24 1873.84,1008.84 1875.95,1009.45 1878.06,1010.05 1880.17,1010.65 1882.28,1011.25 1884.39,1011.85 1886.5,1012.45 1888.61,1013.05 
  1890.72,1013.65 1892.83,1014.25 1894.94,1014.84 1897.05,1015.44 1899.16,1016.03 1901.27,1016.62 1903.38,1017.22 1905.49,1017.81 1907.6,1018.4 1909.71,1018.99 
  1911.82,1019.58 1913.93,1020.16 1916.04,1020.75 1918.15,1021.33 1920.26,1021.92 1922.37,1022.5 1924.48,1023.09 1926.59,1023.67 1928.7,1024.25 1930.81,1024.83 
  1932.91,1025.41 1935.02,1025.98 1937.13,1026.56 1939.24,1027.14 1941.35,1027.71 1943.46,1028.29 1945.57,1028.86 1947.68,1029.43 1949.79,1030 1951.9,1030.57 
  1954.01,1031.14 1956.12,1031.71 1958.23,1032.28 1960.34,1032.85 1962.45,1033.41 1964.56,1033.98 1966.67,1034.54 1968.78,1035.11 1970.89,1035.67 1973,1036.23 
  1975.11,1036.79 1977.22,1037.35 1979.33,1037.91 1981.44,1038.47 1983.55,1039.03 1985.66,1039.58 1987.77,1040.14 1989.88,1040.69 1991.99,1041.24 1994.1,1041.8 
  1996.21,1042.35 1998.32,1042.9 2000.43,1043.45 2002.54,1044 2004.65,1044.55 2006.76,1045.09 2008.87,1045.64 2010.98,1046.19 2013.09,1046.73 2015.2,1047.28 
  2017.3,1047.82 2019.41,1048.36 2021.52,1048.9 2023.63,1049.44 2025.74,1049.98 2027.85,1050.52 2029.96,1051.06 2032.07,1051.59 2034.18,1052.13 2036.29,1052.67 
  2038.4,1053.2 2040.51,1053.73 2042.62,1054.27 2044.73,1054.8 2046.84,1055.33 2048.95,1055.86 2051.06,1056.39 2053.17,1056.92 2055.28,1057.44 2057.39,1057.97 
  2059.5,1058.5 2061.61,1059.02 2063.72,1059.55 2065.83,1060.07 2067.94,1060.59 2070.05,1061.11 2072.16,1061.63 2074.27,1062.15 2076.38,1062.67 2078.49,1063.19 
  2080.6,1063.71 2082.71,1064.23 2084.82,1064.74 2086.93,1065.26 2089.04,1065.77 2091.15,1066.28 2093.26,1066.8 2095.37,1067.31 2097.48,1067.82 2099.59,1068.33 
  2101.7,1068.84 2103.8,1069.35 2105.91,1069.86 2108.02,1070.36 2110.13,1070.87 2112.24,1071.37 2114.35,1071.88 2116.46,1072.38 2118.57,1072.88 2120.68,1073.39 
  2122.79,1073.89 2124.9,1074.39 2127.01,1074.89 2129.12,1075.39 2131.23,1075.88 2133.34,1076.38 2135.45,1076.88 2137.56,1077.37 2139.67,1077.87 2141.78,1078.36 
  2143.89,1078.86 2146,1079.35 2148.11,1079.84 2150.22,1080.33 2152.33,1080.82 2154.44,1081.31 2156.55,1081.8 2158.66,1082.29 2160.77,1082.77 2162.88,1083.26 
  2164.99,1083.74 2167.1,1084.23 2169.21,1084.71 2171.32,1085.2 2173.43,1085.68 2175.54,1086.16 2177.65,1086.64 2179.76,1087.12 2181.87,1087.6 2183.98,1088.08 
  2186.09,1088.56 2188.2,1089.03 2190.3,1089.51 2192.41,1089.98 2194.52,1090.46 2196.63,1090.93 2198.74,1091.41 2200.85,1091.88 2202.96,1092.35 2205.07,1092.82 
  2207.18,1093.29 2209.29,1093.76 2211.4,1094.23 2213.51,1094.7 2215.62,1095.16 2217.73,1095.63 2219.84,1096.1 2221.95,1096.56 2224.06,1097.02 2226.17,1097.49 
  2228.28,1097.95 2230.39,1098.41 2232.5,1098.87 2234.61,1099.33 2236.72,1099.79 2238.83,1100.25 2240.94,1100.71 2243.05,1101.17 2245.16,1101.63 2247.27,1102.08 
  2249.38,1102.54 2251.49,1102.99 2253.6,1103.44 2255.71,1103.9 2257.82,1104.35 2259.93,1104.8 2262.04,1105.25 2264.15,1105.7 2266.26,1106.15 2268.37,1106.6 
  2270.48,1107.05 2272.59,1107.5 2274.69,1107.94 2276.8,1108.39 2278.91,1108.83 2281.02,1109.28 2283.13,1109.72 2285.24,1110.17 2287.35,1110.61 2289.46,1111.05 
  2291.57,1111.49 2293.68,1111.93 2295.79,1112.37 2297.9,1112.81 2300.01,1113.25 2302.12,1113.68 2304.23,1114.12 2306.34,1114.56 2308.45,1114.99 2310.56,1115.43 
  2312.67,1115.86 2314.78,1116.29 2316.89,1116.73 2319,1117.16 2321.11,1117.59 2323.22,1118.02 2325.33,1118.45 2327.44,1118.88 2329.55,1119.31 2331.66,1119.74 
  2333.77,1120.16 2335.88,1120.59 2337.99,1121.01 2340.1,1121.44 2342.21,1121.86 2344.32,1122.29 2346.43,1122.71 2348.54,1123.13 2350.65,1123.55 2352.76,1123.97 
  
  "/>
<polyline clip-path="url(#clip8502)" style="stroke:#e26f46; stroke-width:12; stroke-opacity:1; fill:none" points="
  245.111,1386.61 247.221,1384.78 249.331,1382.73 251.441,1380.7 253.55,1378.68 255.66,1376.67 257.77,1374.68 259.88,1372.71 261.989,1370.76 264.099,1368.82 
  266.209,1366.89 268.319,1364.99 270.428,1363.1 272.538,1361.22 274.648,1359.36 276.758,1357.52 278.867,1355.7 280.977,1353.88 283.087,1352.09 285.197,1350.31 
  287.306,1348.54 289.416,1346.79 291.526,1345.06 293.636,1343.34 295.745,1341.63 297.855,1339.94 299.965,1338.27 302.075,1336.6 304.184,1334.96 306.294,1333.32 
  308.404,1331.71 310.514,1330.1 312.623,1328.51 314.733,1326.94 316.843,1325.37 318.953,1323.82 321.063,1322.29 323.172,1320.77 325.282,1319.26 327.392,1317.77 
  329.502,1316.28 331.611,1314.82 333.721,1313.36 335.831,1311.92 337.941,1310.49 340.05,1309.07 342.16,1307.67 344.27,1306.28 346.38,1304.9 348.489,1303.53 
  350.599,1302.18 352.709,1300.84 354.819,1299.51 356.928,1298.19 359.038,1296.88 361.148,1295.59 363.258,1294.31 365.367,1293.04 367.477,1291.78 369.587,1290.53 
  371.697,1289.3 373.806,1288.07 375.916,1286.86 378.026,1285.66 380.136,1284.47 382.245,1283.29 384.355,1282.12 386.465,1280.96 388.575,1279.82 390.684,1278.68 
  392.794,1277.56 394.904,1276.44 397.014,1275.34 399.123,1274.25 401.233,1273.16 403.343,1272.09 405.453,1271.03 407.562,1269.97 409.672,1268.93 411.782,1267.9 
  413.892,1266.88 416.001,1265.86 418.111,1264.86 420.221,1263.87 422.331,1262.89 424.44,1261.91 426.55,1260.95 428.66,1259.99 430.77,1259.05 432.879,1258.11 
  434.989,1257.18 437.099,1256.27 439.209,1255.36 441.318,1254.46 443.428,1253.57 445.538,1252.69 447.648,1251.81 449.758,1250.95 451.867,1250.09 453.977,1249.25 
  456.087,1248.41 458.197,1247.58 460.306,1246.76 462.416,1245.94 464.526,1245.14 466.636,1244.34 468.745,1243.55 470.855,1242.77 472.965,1242 475.075,1241.24 
  477.184,1240.48 479.294,1239.74 481.404,1239 483.514,1238.26 485.623,1237.54 487.733,1236.82 489.843,1236.11 491.953,1235.41 494.062,1234.72 496.172,1234.03 
  498.282,1233.35 500.392,1232.68 502.501,1232.01 504.611,1231.36 506.721,1230.71 508.831,1230.06 510.94,1229.43 513.05,1228.8 515.16,1228.18 517.27,1227.56 
  519.379,1226.95 521.489,1226.35 523.599,1225.76 525.709,1225.17 527.818,1224.59 529.928,1224.01 532.038,1223.45 534.148,1222.88 536.257,1222.33 538.367,1221.78 
  540.477,1221.24 542.587,1220.7 544.696,1220.17 546.806,1219.65 548.916,1219.13 551.026,1218.62 553.135,1218.12 555.245,1217.62 557.355,1217.13 559.465,1216.64 
  561.574,1216.16 563.684,1215.68 565.794,1215.21 567.904,1214.75 570.014,1214.29 572.123,1213.84 574.233,1213.39 576.343,1212.95 578.453,1212.52 580.562,1212.09 
  582.672,1211.67 584.782,1211.25 586.892,1210.83 589.001,1210.43 591.111,1210.02 593.221,1209.63 595.331,1209.23 597.44,1208.85 599.55,1208.47 601.66,1208.09 
  603.77,1207.72 605.879,1207.35 607.989,1206.99 610.099,1206.63 612.209,1206.28 614.318,1205.94 616.428,1205.59 618.538,1205.26 620.648,1204.92 622.757,1204.6 
  624.867,1204.28 626.977,1203.96 629.087,1203.64 631.196,1203.34 633.306,1203.03 635.416,1202.73 637.526,1202.44 639.635,1202.15 641.745,1201.86 643.855,1201.58 
  645.965,1201.3 648.074,1201.03 650.184,1200.76 652.294,1200.5 654.404,1200.23 656.513,1199.98 658.623,1199.73 660.733,1199.48 662.843,1199.24 664.952,1199 
  667.062,1198.76 669.172,1198.53 671.282,1198.3 673.391,1198.08 675.501,1197.86 677.611,1197.64 679.721,1197.43 681.83,1197.22 683.94,1197.02 686.05,1196.82 
  688.16,1196.62 690.27,1196.43 692.379,1196.24 694.489,1196.05 696.599,1195.87 698.709,1195.69 700.818,1195.52 702.928,1195.35 705.038,1195.18 707.148,1195.01 
  709.257,1194.85 711.367,1194.7 713.477,1194.54 715.587,1194.39 717.696,1194.24 719.806,1194.1 721.916,1193.96 724.026,1193.82 726.135,1193.69 728.245,1193.56 
  730.355,1193.43 732.465,1193.3 734.574,1193.18 736.684,1193.06 738.794,1192.95 740.904,1192.84 743.013,1192.73 745.123,1192.62 747.233,1192.52 749.343,1192.42 
  751.452,1192.32 753.562,1192.22 755.672,1192.13 757.782,1192.05 759.891,1191.96 762.001,1191.88 764.111,1191.8 766.221,1191.72 768.33,1191.64 770.44,1191.57 
  772.55,1191.5 774.66,1191.44 776.769,1191.37 778.879,1191.31 780.989,1191.25 783.099,1191.2 785.208,1191.15 787.318,1191.09 789.428,1191.05 791.538,1191 
  793.647,1190.96 795.757,1190.92 797.867,1190.88 799.977,1190.84 802.086,1190.81 804.196,1190.78 806.306,1190.75 808.416,1190.73 810.526,1190.7 812.635,1190.68 
  814.745,1190.66 816.855,1190.64 818.965,1190.63 821.074,1190.62 823.184,1190.61 825.294,1190.6 827.404,1190.59 829.513,1190.59 831.623,1190.59 833.733,1190.59 
  835.843,1190.59 837.952,1190.6 840.062,1190.6 842.172,1190.61 844.282,1190.62 846.391,1190.64 848.501,1190.65 850.611,1190.67 852.721,1190.69 854.83,1190.71 
  856.94,1190.73 859.05,1190.76 861.16,1190.79 863.269,1190.81 865.379,1190.85 867.489,1190.88 869.599,1190.91 871.708,1190.95 873.818,1190.99 875.928,1191.03 
  878.038,1191.07 880.147,1191.11 882.257,1191.16 884.367,1191.2 886.477,1191.25 888.586,1191.3 890.696,1191.36 892.806,1191.41 894.916,1191.46 897.025,1191.52 
  899.135,1191.58 901.245,1191.64 903.355,1191.7 905.464,1191.77 907.574,1191.83 909.684,1191.9 911.794,1191.97 913.903,1192.04 916.013,1192.11 918.123,1192.18 
  920.233,1192.26 922.342,1192.33 924.452,1192.41 926.562,1192.49 928.672,1192.57 930.781,1192.65 932.891,1192.73 935.001,1192.82 937.111,1192.9 939.221,1192.99 
  941.33,1193.08 943.44,1193.17 945.55,1193.26 947.66,1193.35 949.769,1193.45 951.879,1193.54 953.989,1193.64 956.099,1193.74 958.208,1193.84 960.318,1193.94 
  962.428,1194.04 964.538,1194.14 966.647,1194.25 968.757,1194.35 970.867,1194.46 972.977,1194.57 975.086,1194.68 977.196,1194.79 979.306,1194.9 981.416,1195.01 
  983.525,1195.12 985.635,1195.24 987.745,1195.36 989.855,1195.47 991.964,1195.59 994.074,1195.71 996.184,1195.83 998.294,1195.95 1000.4,1196.07 1002.51,1196.2 
  1004.62,1196.32 1006.73,1196.45 1008.84,1196.57 1010.95,1196.7 1013.06,1196.83 1015.17,1196.96 1017.28,1197.09 1019.39,1197.22 1021.5,1197.35 1023.61,1197.49 
  1025.72,1197.62 1027.83,1197.76 1029.94,1197.89 1032.05,1198.03 1034.16,1198.17 1036.27,1198.3 1038.38,1198.44 1040.49,1198.58 1042.6,1198.73 1044.71,1198.87 
  1046.82,1199.01 1048.93,1199.15 1051.04,1199.3 1053.15,1199.45 1055.26,1199.59 1057.37,1199.74 1059.48,1199.89 1061.59,1200.04 1063.7,1200.18 1065.81,1200.34 
  1067.92,1200.49 1070.03,1200.64 1072.14,1200.79 1074.24,1200.94 1076.35,1201.1 1078.46,1201.25 1080.57,1201.41 1082.68,1201.56 1084.79,1201.72 1086.9,1201.88 
  1089.01,1202.04 1091.12,1202.2 1093.23,1202.36 1095.34,1202.52 1097.45,1202.68 1099.56,1202.84 1101.67,1203 1103.78,1203.16 1105.89,1203.33 1108,1203.49 
  1110.11,1203.66 1112.22,1203.82 1114.33,1203.99 1116.44,1204.15 1118.55,1204.32 1120.66,1204.49 1122.77,1204.66 1124.88,1204.83 1126.99,1205 1129.1,1205.17 
  1131.21,1205.34 1133.32,1205.51 1135.43,1205.68 1137.54,1205.85 1139.65,1206.02 1141.76,1206.2 1143.87,1206.37 1145.98,1206.55 1148.09,1206.72 1150.2,1206.9 
  1152.31,1207.07 1154.42,1207.25 1156.53,1207.42 1158.63,1207.6 1160.74,1207.78 1162.85,1207.96 1164.96,1208.13 1167.07,1208.31 1169.18,1208.49 1171.29,1208.67 
  1173.4,1208.85 1175.51,1209.03 1177.62,1209.21 1179.73,1209.4 1181.84,1209.58 1183.95,1209.76 1186.06,1209.94 1188.17,1210.13 1190.28,1210.31 1192.39,1210.49 
  1194.5,1210.68 1196.61,1210.86 1198.72,1211.05 1200.83,1211.23 1202.94,1211.42 1205.05,1211.6 1207.16,1211.79 1209.27,1211.98 1211.38,1212.16 1213.49,1212.35 
  1215.6,1212.54 1217.71,1212.73 1219.82,1212.91 1221.93,1213.1 1224.04,1213.29 1226.15,1213.48 1228.26,1213.67 1230.37,1213.86 1232.48,1214.05 1234.59,1214.24 
  1236.7,1214.43 1238.81,1214.62 1240.92,1214.81 1243.03,1215 1245.13,1215.2 1247.24,1215.39 1249.35,1215.58 1251.46,1215.77 1253.57,1215.96 1255.68,1216.16 
  1257.79,1216.35 1259.9,1216.54 1262.01,1216.74 1264.12,1216.93 1266.23,1217.12 1268.34,1217.32 1270.45,1217.51 1272.56,1217.71 1274.67,1217.9 1276.78,1218.1 
  1278.89,1218.29 1281,1218.49 1283.11,1218.68 1285.22,1218.88 1287.33,1219.08 1289.44,1219.27 1291.55,1219.47 1293.66,1219.66 1295.77,1219.86 1297.88,1220.06 
  1299.99,1220.25 1302.1,1220.45 1304.21,1220.65 1306.32,1220.85 1308.43,1221.04 1310.54,1221.24 1312.65,1221.44 1314.76,1221.64 1316.87,1221.84 1318.98,1222.03 
  1321.09,1222.23 1323.2,1222.43 1325.31,1222.63 1327.42,1222.83 1329.53,1223.03 1331.63,1223.23 1333.74,1223.43 1335.85,1223.62 1337.96,1223.82 1340.07,1224.02 
  1342.18,1224.22 1344.29,1224.42 1346.4,1224.62 1348.51,1224.82 1350.62,1225.02 1352.73,1225.22 1354.84,1225.42 1356.95,1225.62 1359.06,1225.82 1361.17,1226.02 
  1363.28,1226.22 1365.39,1226.42 1367.5,1226.62 1369.61,1226.82 1371.72,1227.02 1373.83,1227.23 1375.94,1227.43 1378.05,1227.63 1380.16,1227.83 1382.27,1228.03 
  1384.38,1228.23 1386.49,1228.43 1388.6,1228.63 1390.71,1228.83 1392.82,1229.03 1394.93,1229.23 1397.04,1229.44 1399.15,1229.64 1401.26,1229.84 1403.37,1230.04 
  1405.48,1230.24 1407.59,1230.44 1409.7,1230.64 1411.81,1230.84 1413.92,1231.04 1416.02,1231.25 1418.13,1231.45 1420.24,1231.65 1422.35,1231.85 1424.46,1232.05 
  1426.57,1232.25 1428.68,1232.45 1430.79,1232.65 1432.9,1232.86 1435.01,1233.06 1437.12,1233.26 1439.23,1233.46 1441.34,1233.66 1443.45,1233.86 1445.56,1234.06 
  1447.67,1234.26 1449.78,1234.46 1451.89,1234.66 1454,1234.87 1456.11,1235.07 1458.22,1235.27 1460.33,1235.47 1462.44,1235.67 1464.55,1235.87 1466.66,1236.07 
  1468.77,1236.27 1470.88,1236.47 1472.99,1236.67 1475.1,1236.87 1477.21,1237.07 1479.32,1237.27 1481.43,1237.47 1483.54,1237.67 1485.65,1237.87 1487.76,1238.07 
  1489.87,1238.27 1491.98,1238.47 1494.09,1238.67 1496.2,1238.87 1498.31,1239.07 1500.42,1239.27 1502.52,1239.47 1504.63,1239.67 1506.74,1239.87 1508.85,1240.07 
  1510.96,1240.27 1513.07,1240.47 1515.18,1240.67 1517.29,1240.87 1519.4,1241.06 1521.51,1241.26 1523.62,1241.46 1525.73,1241.66 1527.84,1241.86 1529.95,1242.06 
  1532.06,1242.26 1534.17,1242.45 1536.28,1242.65 1538.39,1242.85 1540.5,1243.05 1542.61,1243.25 1544.72,1243.44 1546.83,1243.64 1548.94,1243.84 1551.05,1244.04 
  1553.16,1244.23 1555.27,1244.43 1557.38,1244.63 1559.49,1244.83 1561.6,1245.02 1563.71,1245.22 1565.82,1245.42 1567.93,1245.61 1570.04,1245.81 1572.15,1246.01 
  1574.26,1246.2 1576.37,1246.4 1578.48,1246.59 1580.59,1246.79 1582.7,1246.99 1584.81,1247.18 1586.92,1247.38 1589.02,1247.57 1591.13,1247.77 1593.24,1247.96 
  1595.35,1248.16 1597.46,1248.35 1599.57,1248.55 1601.68,1248.74 1603.79,1248.94 1605.9,1249.13 1608.01,1249.33 1610.12,1249.52 1612.23,1249.71 1614.34,1249.91 
  1616.45,1250.1 1618.56,1250.3 1620.67,1250.49 1622.78,1250.68 1624.89,1250.88 1627,1251.07 1629.11,1251.26 1631.22,1251.45 1633.33,1251.65 1635.44,1251.84 
  1637.55,1252.03 1639.66,1252.22 1641.77,1252.42 1643.88,1252.61 1645.99,1252.8 1648.1,1252.99 1650.21,1253.18 1652.32,1253.37 1654.43,1253.57 1656.54,1253.76 
  1658.65,1253.95 1660.76,1254.14 1662.87,1254.33 1664.98,1254.52 1667.09,1254.71 1669.2,1254.9 1671.31,1255.09 1673.42,1255.28 1675.52,1255.47 1677.63,1255.66 
  1679.74,1255.85 1681.85,1256.04 1683.96,1256.22 1686.07,1256.41 1688.18,1256.6 1690.29,1256.79 1692.4,1256.98 1694.51,1257.17 1696.62,1257.35 1698.73,1257.54 
  1700.84,1257.73 1702.95,1257.92 1705.06,1258.1 1707.17,1258.29 1709.28,1258.48 1711.39,1258.66 1713.5,1258.85 1715.61,1259.04 1717.72,1259.22 1719.83,1259.41 
  1721.94,1259.6 1724.05,1259.78 1726.16,1259.97 1728.27,1260.15 1730.38,1260.34 1732.49,1260.52 1734.6,1260.71 1736.71,1260.89 1738.82,1261.07 1740.93,1261.26 
  1743.04,1261.44 1745.15,1261.63 1747.26,1261.81 1749.37,1261.99 1751.48,1262.18 1753.59,1262.36 1755.7,1262.54 1757.81,1262.73 1759.91,1262.91 1762.02,1263.09 
  1764.13,1263.27 1766.24,1263.45 1768.35,1263.64 1770.46,1263.82 1772.57,1264 1774.68,1264.18 1776.79,1264.36 1778.9,1264.54 1781.01,1264.72 1783.12,1264.9 
  1785.23,1265.08 1787.34,1265.26 1789.45,1265.44 1791.56,1265.62 1793.67,1265.8 1795.78,1265.98 1797.89,1266.16 1800,1266.34 1802.11,1266.52 1804.22,1266.7 
  1806.33,1266.87 1808.44,1267.05 1810.55,1267.23 1812.66,1267.41 1814.77,1267.58 1816.88,1267.76 1818.99,1267.94 1821.1,1268.12 1823.21,1268.29 1825.32,1268.47 
  1827.43,1268.65 1829.54,1268.82 1831.65,1269 1833.76,1269.17 1835.87,1269.35 1837.98,1269.52 1840.09,1269.7 1842.2,1269.87 1844.31,1270.05 1846.41,1270.22 
  1848.52,1270.4 1850.63,1270.57 1852.74,1270.75 1854.85,1270.92 1856.96,1271.09 1859.07,1271.27 1861.18,1271.44 1863.29,1271.61 1865.4,1271.79 1867.51,1271.96 
  1869.62,1272.13 1871.73,1272.3 1873.84,1272.48 1875.95,1272.65 1878.06,1272.82 1880.17,1272.99 1882.28,1273.16 1884.39,1273.33 1886.5,1273.5 1888.61,1273.67 
  1890.72,1273.84 1892.83,1274.01 1894.94,1274.18 1897.05,1274.35 1899.16,1274.52 1901.27,1274.69 1903.38,1274.86 1905.49,1275.03 1907.6,1275.2 1909.71,1275.37 
  1911.82,1275.54 1913.93,1275.7 1916.04,1275.87 1918.15,1276.04 1920.26,1276.21 1922.37,1276.38 1924.48,1276.54 1926.59,1276.71 1928.7,1276.88 1930.81,1277.04 
  1932.91,1277.21 1935.02,1277.38 1937.13,1277.54 1939.24,1277.71 1941.35,1277.87 1943.46,1278.04 1945.57,1278.2 1947.68,1278.37 1949.79,1278.53 1951.9,1278.7 
  1954.01,1278.86 1956.12,1279.03 1958.23,1279.19 1960.34,1279.35 1962.45,1279.52 1964.56,1279.68 1966.67,1279.84 1968.78,1280.01 1970.89,1280.17 1973,1280.33 
  1975.11,1280.49 1977.22,1280.66 1979.33,1280.82 1981.44,1280.98 1983.55,1281.14 1985.66,1281.3 1987.77,1281.46 1989.88,1281.62 1991.99,1281.78 1994.1,1281.94 
  1996.21,1282.1 1998.32,1282.26 2000.43,1282.42 2002.54,1282.58 2004.65,1282.74 2006.76,1282.9 2008.87,1283.06 2010.98,1283.22 2013.09,1283.38 2015.2,1283.54 
  2017.3,1283.69 2019.41,1283.85 2021.52,1284.01 2023.63,1284.17 2025.74,1284.33 2027.85,1284.48 2029.96,1284.64 2032.07,1284.8 2034.18,1284.95 2036.29,1285.11 
  2038.4,1285.26 2040.51,1285.42 2042.62,1285.58 2044.73,1285.73 2046.84,1285.89 2048.95,1286.04 2051.06,1286.2 2053.17,1286.35 2055.28,1286.51 2057.39,1286.66 
  2059.5,1286.81 2061.61,1286.97 2063.72,1287.12 2065.83,1287.27 2067.94,1287.43 2070.05,1287.58 2072.16,1287.73 2074.27,1287.89 2076.38,1288.04 2078.49,1288.19 
  2080.6,1288.34 2082.71,1288.49 2084.82,1288.65 2086.93,1288.8 2089.04,1288.95 2091.15,1289.1 2093.26,1289.25 2095.37,1289.4 2097.48,1289.55 2099.59,1289.7 
  2101.7,1289.85 2103.8,1290 2105.91,1290.15 2108.02,1290.3 2110.13,1290.45 2112.24,1290.6 2114.35,1290.74 2116.46,1290.89 2118.57,1291.04 2120.68,1291.19 
  2122.79,1291.34 2124.9,1291.48 2127.01,1291.63 2129.12,1291.78 2131.23,1291.93 2133.34,1292.07 2135.45,1292.22 2137.56,1292.37 2139.67,1292.51 2141.78,1292.66 
  2143.89,1292.8 2146,1292.95 2148.11,1293.09 2150.22,1293.24 2152.33,1293.38 2154.44,1293.53 2156.55,1293.67 2158.66,1293.82 2160.77,1293.96 2162.88,1294.11 
  2164.99,1294.25 2167.1,1294.39 2169.21,1294.54 2171.32,1294.68 2173.43,1294.82 2175.54,1294.97 2177.65,1295.11 2179.76,1295.25 2181.87,1295.39 2183.98,1295.54 
  2186.09,1295.68 2188.2,1295.82 2190.3,1295.96 2192.41,1296.1 2194.52,1296.24 2196.63,1296.38 2198.74,1296.52 2200.85,1296.66 2202.96,1296.8 2205.07,1296.94 
  2207.18,1297.08 2209.29,1297.22 2211.4,1297.36 2213.51,1297.5 2215.62,1297.64 2217.73,1297.78 2219.84,1297.92 2221.95,1298.06 2224.06,1298.19 2226.17,1298.33 
  2228.28,1298.47 2230.39,1298.61 2232.5,1298.75 2234.61,1298.88 2236.72,1299.02 2238.83,1299.16 2240.94,1299.29 2243.05,1299.43 2245.16,1299.57 2247.27,1299.7 
  2249.38,1299.84 2251.49,1299.97 2253.6,1300.11 2255.71,1300.24 2257.82,1300.38 2259.93,1300.51 2262.04,1300.65 2264.15,1300.78 2266.26,1300.92 2268.37,1301.05 
  2270.48,1301.18 2272.59,1301.32 2274.69,1301.45 2276.8,1301.59 2278.91,1301.72 2281.02,1301.85 2283.13,1301.98 2285.24,1302.12 2287.35,1302.25 2289.46,1302.38 
  2291.57,1302.51 2293.68,1302.64 2295.79,1302.78 2297.9,1302.91 2300.01,1303.04 2302.12,1303.17 2304.23,1303.3 2306.34,1303.43 2308.45,1303.56 2310.56,1303.69 
  2312.67,1303.82 2314.78,1303.95 2316.89,1304.08 2319,1304.21 2321.11,1304.34 2323.22,1304.47 2325.33,1304.6 2327.44,1304.73 2329.55,1304.86 2331.66,1304.98 
  2333.77,1305.11 2335.88,1305.24 2337.99,1305.37 2340.1,1305.5 2342.21,1305.62 2344.32,1305.75 2346.43,1305.88 2348.54,1306 2350.65,1306.13 2352.76,1306.26 
  
  "/>
<polyline clip-path="url(#clip8502)" style="stroke:#3da44d; stroke-width:12; stroke-opacity:1; fill:none" points="
  245.111,1386.61 247.221,1386.6 249.331,1386.58 251.441,1386.55 253.55,1386.5 255.66,1386.44 257.77,1386.37 259.88,1386.28 261.989,1386.18 264.099,1386.06 
  266.209,1385.94 268.319,1385.8 270.428,1385.64 272.538,1385.48 274.648,1385.3 276.758,1385.1 278.867,1384.9 280.977,1384.68 283.087,1384.45 285.197,1384.21 
  287.306,1383.96 289.416,1383.7 291.526,1383.42 293.636,1383.13 295.745,1382.83 297.855,1382.52 299.965,1382.19 302.075,1381.86 304.184,1381.51 306.294,1381.16 
  308.404,1380.79 310.514,1380.41 312.623,1380.02 314.733,1379.62 316.843,1379.21 318.953,1378.78 321.063,1378.35 323.172,1377.91 325.282,1377.46 327.392,1376.99 
  329.502,1376.52 331.611,1376.03 333.721,1375.54 335.831,1375.04 337.941,1374.52 340.05,1374 342.16,1373.47 344.27,1372.93 346.38,1372.38 348.489,1371.81 
  350.599,1371.24 352.709,1370.67 354.819,1370.08 356.928,1369.48 359.038,1368.87 361.148,1368.26 363.258,1367.63 365.367,1367 367.477,1366.36 369.587,1365.71 
  371.697,1365.05 373.806,1364.39 375.916,1363.71 378.026,1363.03 380.136,1362.34 382.245,1361.64 384.355,1360.93 386.465,1360.22 388.575,1359.49 390.684,1358.76 
  392.794,1358.02 394.904,1357.28 397.014,1356.52 399.123,1355.76 401.233,1354.99 403.343,1354.22 405.453,1353.43 407.562,1352.64 409.672,1351.85 411.782,1351.04 
  413.892,1350.23 416.001,1349.41 418.111,1348.59 420.221,1347.75 422.331,1346.92 424.44,1346.07 426.55,1345.22 428.66,1344.36 430.77,1343.49 432.879,1342.62 
  434.989,1341.75 437.099,1340.86 439.209,1339.97 441.318,1339.07 443.428,1338.17 445.538,1337.26 447.648,1336.35 449.758,1335.43 451.867,1334.5 453.977,1333.57 
  456.087,1332.63 458.197,1331.69 460.306,1330.74 462.416,1329.78 464.526,1328.82 466.636,1327.86 468.745,1326.89 470.855,1325.91 472.965,1324.93 475.075,1323.94 
  477.184,1322.95 479.294,1321.95 481.404,1320.95 483.514,1319.94 485.623,1318.93 487.733,1317.91 489.843,1316.89 491.953,1315.87 494.062,1314.83 496.172,1313.8 
  498.282,1312.76 500.392,1311.71 502.501,1310.66 504.611,1309.61 506.721,1308.55 508.831,1307.49 510.94,1306.42 513.05,1305.35 515.16,1304.27 517.27,1303.19 
  519.379,1302.1 521.489,1301.01 523.599,1299.92 525.709,1298.83 527.818,1297.72 529.928,1296.62 532.038,1295.51 534.148,1294.4 536.257,1293.28 538.367,1292.16 
  540.477,1291.04 542.587,1289.91 544.696,1288.78 546.806,1287.64 548.916,1286.51 551.026,1285.36 553.135,1284.22 555.245,1283.07 557.355,1281.92 559.465,1280.76 
  561.574,1279.61 563.684,1278.44 565.794,1277.28 567.904,1276.11 570.014,1274.94 572.123,1273.76 574.233,1272.59 576.343,1271.41 578.453,1270.22 580.562,1269.04 
  582.672,1267.85 584.782,1266.66 586.892,1265.46 589.001,1264.26 591.111,1263.06 593.221,1261.86 595.331,1260.65 597.44,1259.44 599.55,1258.23 601.66,1257.02 
  603.77,1255.8 605.879,1254.58 607.989,1253.36 610.099,1252.14 612.209,1250.91 614.318,1249.68 616.428,1248.45 618.538,1247.22 620.648,1245.98 622.757,1244.75 
  624.867,1243.51 626.977,1242.26 629.087,1241.02 631.196,1239.77 633.306,1238.52 635.416,1237.27 637.526,1236.02 639.635,1234.77 641.745,1233.51 643.855,1232.25 
  645.965,1230.99 648.074,1229.73 650.184,1228.46 652.294,1227.2 654.404,1225.93 656.513,1224.66 658.623,1223.39 660.733,1222.12 662.843,1220.84 664.952,1219.57 
  667.062,1218.29 669.172,1217.01 671.282,1215.73 673.391,1214.44 675.501,1213.16 677.611,1211.88 679.721,1210.59 681.83,1209.3 683.94,1208.01 686.05,1206.72 
  688.16,1205.43 690.27,1204.13 692.379,1202.84 694.489,1201.54 696.599,1200.24 698.709,1198.94 700.818,1197.64 702.928,1196.34 705.038,1195.04 707.148,1193.74 
  709.257,1192.43 711.367,1191.13 713.477,1189.82 715.587,1188.51 717.696,1187.2 719.806,1185.89 721.916,1184.58 724.026,1183.27 726.135,1181.96 728.245,1180.64 
  730.355,1179.33 732.465,1178.01 734.574,1176.7 736.684,1175.38 738.794,1174.06 740.904,1172.75 743.013,1171.43 745.123,1170.11 747.233,1168.79 749.343,1167.46 
  751.452,1166.14 753.562,1164.82 755.672,1163.5 757.782,1162.17 759.891,1160.85 762.001,1159.52 764.111,1158.2 766.221,1156.87 768.33,1155.54 770.44,1154.21 
  772.55,1152.89 774.66,1151.56 776.769,1150.23 778.879,1148.9 780.989,1147.57 783.099,1146.24 785.208,1144.91 787.318,1143.58 789.428,1142.25 791.538,1140.92 
  793.647,1139.59 795.757,1138.25 797.867,1136.92 799.977,1135.59 802.086,1134.26 804.196,1132.92 806.306,1131.59 808.416,1130.26 810.526,1128.92 812.635,1127.59 
  814.745,1126.26 816.855,1124.92 818.965,1123.59 821.074,1122.26 823.184,1120.92 825.294,1119.59 827.404,1118.25 829.513,1116.92 831.623,1115.58 833.733,1114.25 
  835.843,1112.92 837.952,1111.58 840.062,1110.25 842.172,1108.91 844.282,1107.58 846.391,1106.25 848.501,1104.91 850.611,1103.58 852.721,1102.24 854.83,1100.91 
  856.94,1099.58 859.05,1098.24 861.16,1096.91 863.269,1095.58 865.379,1094.25 867.489,1092.91 869.599,1091.58 871.708,1090.25 873.818,1088.92 875.928,1087.59 
  878.038,1086.26 880.147,1084.92 882.257,1083.59 884.367,1082.26 886.477,1080.93 888.586,1079.6 890.696,1078.28 892.806,1076.95 894.916,1075.62 897.025,1074.29 
  899.135,1072.96 901.245,1071.64 903.355,1070.31 905.464,1068.98 907.574,1067.66 909.684,1066.33 911.794,1065.01 913.903,1063.68 916.013,1062.36 918.123,1061.03 
  920.233,1059.71 922.342,1058.39 924.452,1057.06 926.562,1055.74 928.672,1054.42 930.781,1053.1 932.891,1051.78 935.001,1050.46 937.111,1049.14 939.221,1047.82 
  941.33,1046.51 943.44,1045.19 945.55,1043.87 947.66,1042.56 949.769,1041.24 951.879,1039.93 953.989,1038.61 956.099,1037.3 958.208,1035.99 960.318,1034.68 
  962.428,1033.37 964.538,1032.06 966.647,1030.75 968.757,1029.44 970.867,1028.13 972.977,1026.82 975.086,1025.51 977.196,1024.21 979.306,1022.9 981.416,1021.6 
  983.525,1020.29 985.635,1018.99 987.745,1017.69 989.855,1016.39 991.964,1015.09 994.074,1013.79 996.184,1012.49 998.294,1011.19 1000.4,1009.89 1002.51,1008.6 
  1004.62,1007.3 1006.73,1006 1008.84,1004.71 1010.95,1003.42 1013.06,1002.13 1015.17,1000.83 1017.28,999.544 1019.39,998.254 1021.5,996.966 1023.61,995.678 
  1025.72,994.391 1027.83,993.105 1029.94,991.82 1032.05,990.536 1034.16,989.253 1036.27,987.971 1038.38,986.69 1040.49,985.41 1042.6,984.13 1044.71,982.852 
  1046.82,981.575 1048.93,980.298 1051.04,979.023 1053.15,977.749 1055.26,976.475 1057.37,975.203 1059.48,973.931 1061.59,972.661 1063.7,971.392 1065.81,970.123 
  1067.92,968.856 1070.03,967.59 1072.14,966.324 1074.24,965.06 1076.35,963.797 1078.46,962.535 1080.57,961.273 1082.68,960.013 1084.79,958.754 1086.9,957.497 
  1089.01,956.24 1091.12,954.984 1093.23,953.729 1095.34,952.476 1097.45,951.223 1099.56,949.972 1101.67,948.721 1103.78,947.472 1105.89,946.224 1108,944.977 
  1110.11,943.731 1112.22,942.486 1114.33,941.243 1116.44,940 1118.55,938.759 1120.66,937.519 1122.77,936.279 1124.88,935.041 1126.99,933.805 1129.1,932.569 
  1131.21,931.335 1133.32,930.101 1135.43,928.869 1137.54,927.638 1139.65,926.408 1141.76,925.179 1143.87,923.952 1145.98,922.726 1148.09,921.501 1150.2,920.277 
  1152.31,919.054 1154.42,917.832 1156.53,916.612 1158.63,915.393 1160.74,914.175 1162.85,912.958 1164.96,911.743 1167.07,910.528 1169.18,909.315 1171.29,908.104 
  1173.4,906.893 1175.51,905.684 1177.62,904.475 1179.73,903.268 1181.84,902.063 1183.95,900.858 1186.06,899.655 1188.17,898.453 1190.28,897.252 1192.39,896.053 
  1194.5,894.855 1196.61,893.658 1198.72,892.462 1200.83,891.268 1202.94,890.075 1205.05,888.883 1207.16,887.692 1209.27,886.503 1211.38,885.315 1213.49,884.128 
  1215.6,882.943 1217.71,881.758 1219.82,880.575 1221.93,879.394 1224.04,878.213 1226.15,877.034 1228.26,875.857 1230.37,874.68 1232.48,873.505 1234.59,872.331 
  1236.7,871.158 1238.81,869.987 1240.92,868.817 1243.03,867.649 1245.13,866.481 1247.24,865.315 1249.35,864.15 1251.46,862.987 1253.57,861.825 1255.68,860.664 
  1257.79,859.505 1259.9,858.346 1262.01,857.19 1264.12,856.034 1266.23,854.88 1268.34,853.727 1270.45,852.575 1272.56,851.425 1274.67,850.276 1276.78,849.128 
  1278.89,847.982 1281,846.837 1283.11,845.694 1285.22,844.551 1287.33,843.41 1289.44,842.271 1291.55,841.132 1293.66,839.995 1295.77,838.86 1297.88,837.726 
  1299.99,836.593 1302.1,835.461 1304.21,834.331 1306.32,833.202 1308.43,832.074 1310.54,830.948 1312.65,829.823 1314.76,828.699 1316.87,827.577 1318.98,826.456 
  1321.09,825.337 1323.2,824.219 1325.31,823.102 1327.42,821.986 1329.53,820.872 1331.63,819.759 1333.74,818.648 1335.85,817.538 1337.96,816.429 1340.07,815.322 
  1342.18,814.216 1344.29,813.111 1346.4,812.008 1348.51,810.906 1350.62,809.805 1352.73,808.706 1354.84,807.608 1356.95,806.512 1359.06,805.416 1361.17,804.323 
  1363.28,803.23 1365.39,802.139 1367.5,801.049 1369.61,799.961 1371.72,798.874 1373.83,797.789 1375.94,796.704 1378.05,795.621 1380.16,794.54 1382.27,793.46 
  1384.38,792.381 1386.49,791.303 1388.6,790.227 1390.71,789.153 1392.82,788.079 1394.93,787.007 1397.04,785.937 1399.15,784.868 1401.26,783.8 1403.37,782.733 
  1405.48,781.668 1407.59,780.604 1409.7,779.542 1411.81,778.481 1413.92,777.421 1416.02,776.363 1418.13,775.306 1420.24,774.251 1422.35,773.196 1424.46,772.144 
  1426.57,771.092 1428.68,770.042 1430.79,768.993 1432.9,767.946 1435.01,766.9 1437.12,765.856 1439.23,764.812 1441.34,763.771 1443.45,762.73 1445.56,761.691 
  1447.67,760.653 1449.78,759.617 1451.89,758.582 1454,757.549 1456.11,756.516 1458.22,755.486 1460.33,754.456 1462.44,753.428 1464.55,752.401 1466.66,751.376 
  1468.77,750.352 1470.88,749.329 1472.99,748.308 1475.1,747.288 1477.21,746.27 1479.32,745.252 1481.43,744.237 1483.54,743.222 1485.65,742.209 1487.76,741.198 
  1489.87,740.187 1491.98,739.178 1494.09,738.171 1496.2,737.164 1498.31,736.16 1500.42,735.156 1502.52,734.154 1504.63,733.153 1506.74,732.154 1508.85,731.156 
  1510.96,730.159 1513.07,729.164 1515.18,728.17 1517.29,727.177 1519.4,726.186 1521.51,725.196 1523.62,724.207 1525.73,723.22 1527.84,722.234 1529.95,721.25 
  1532.06,720.266 1534.17,719.285 1536.28,718.304 1538.39,717.325 1540.5,716.347 1542.61,715.371 1544.72,714.396 1546.83,713.422 1548.94,712.45 1551.05,711.478 
  1553.16,710.509 1555.27,709.54 1557.38,708.573 1559.49,707.608 1561.6,706.643 1563.71,705.68 1565.82,704.719 1567.93,703.758 1570.04,702.799 1572.15,701.842 
  1574.26,700.885 1576.37,699.93 1578.48,698.976 1580.59,698.024 1582.7,697.073 1584.81,696.123 1586.92,695.175 1589.02,694.228 1591.13,693.282 1593.24,692.338 
  1595.35,691.395 1597.46,690.453 1599.57,689.513 1601.68,688.574 1603.79,687.636 1605.9,686.7 1608.01,685.764 1610.12,684.831 1612.23,683.898 1614.34,682.967 
  1616.45,682.037 1618.56,681.109 1620.67,680.181 1622.78,679.255 1624.89,678.331 1627,677.408 1629.11,676.486 1631.22,675.565 1633.33,674.646 1635.44,673.728 
  1637.55,672.811 1639.66,671.895 1641.77,670.981 1643.88,670.069 1645.99,669.157 1648.1,668.247 1650.21,667.338 1652.32,666.43 1654.43,665.524 1656.54,664.619 
  1658.65,663.715 1660.76,662.813 1662.87,661.912 1664.98,661.012 1667.09,660.113 1669.2,659.216 1671.31,658.32 1673.42,657.426 1675.52,656.532 1677.63,655.64 
  1679.74,654.749 1681.85,653.86 1683.96,652.972 1686.07,652.085 1688.18,651.199 1690.29,650.315 1692.4,649.432 1694.51,648.55 1696.62,647.669 1698.73,646.79 
  1700.84,645.912 1702.95,645.035 1705.06,644.16 1707.17,643.286 1709.28,642.413 1711.39,641.542 1713.5,640.671 1715.61,639.802 1717.72,638.934 1719.83,638.068 
  1721.94,637.203 1724.05,636.339 1726.16,635.476 1728.27,634.615 1730.38,633.754 1732.49,632.895 1734.6,632.038 1736.71,631.181 1738.82,630.326 1740.93,629.472 
  1743.04,628.62 1745.15,627.768 1747.26,626.918 1749.37,626.07 1751.48,625.222 1753.59,624.376 1755.7,623.53 1757.81,622.687 1759.91,621.844 1762.02,621.003 
  1764.13,620.163 1766.24,619.324 1768.35,618.486 1770.46,617.65 1772.57,616.814 1774.68,615.981 1776.79,615.148 1778.9,614.316 1781.01,613.486 1783.12,612.657 
  1785.23,611.829 1787.34,611.003 1789.45,610.178 1791.56,609.353 1793.67,608.531 1795.78,607.709 1797.89,606.889 1800,606.069 1802.11,605.251 1804.22,604.435 
  1806.33,603.619 1808.44,602.805 1810.55,601.992 1812.66,601.18 1814.77,600.369 1816.88,599.559 1818.99,598.751 1821.1,597.944 1823.21,597.138 1825.32,596.333 
  1827.43,595.53 1829.54,594.728 1831.65,593.927 1833.76,593.127 1835.87,592.328 1837.98,591.531 1840.09,590.734 1842.2,589.939 1844.31,589.145 1846.41,588.352 
  1848.52,587.561 1850.63,586.771 1852.74,585.981 1854.85,585.193 1856.96,584.406 1859.07,583.621 1861.18,582.836 1863.29,582.053 1865.4,581.271 1867.51,580.49 
  1869.62,579.71 1871.73,578.932 1873.84,578.154 1875.95,577.378 1878.06,576.603 1880.17,575.829 1882.28,575.056 1884.39,574.285 1886.5,573.514 1888.61,572.745 
  1890.72,571.977 1892.83,571.21 1894.94,570.444 1897.05,569.679 1899.16,568.916 1901.27,568.153 1903.38,567.392 1905.49,566.632 1907.6,565.873 1909.71,565.116 
  1911.82,564.359 1913.93,563.603 1916.04,562.849 1918.15,562.096 1920.26,561.344 1922.37,560.593 1924.48,559.843 1926.59,559.095 1928.7,558.347 1930.81,557.601 
  1932.91,556.855 1935.02,556.111 1937.13,555.368 1939.24,554.626 1941.35,553.886 1943.46,553.146 1945.57,552.408 1947.68,551.67 1949.79,550.934 1951.9,550.199 
  1954.01,549.465 1956.12,548.732 1958.23,548 1960.34,547.27 1962.45,546.54 1964.56,545.812 1966.67,545.084 1968.78,544.358 1970.89,543.633 1973,542.909 
  1975.11,542.186 1977.22,541.464 1979.33,540.744 1981.44,540.024 1983.55,539.305 1985.66,538.588 1987.77,537.872 1989.88,537.156 1991.99,536.442 1994.1,535.729 
  1996.21,535.017 1998.32,534.307 2000.43,533.597 2002.54,532.888 2004.65,532.181 2006.76,531.474 2008.87,530.769 2010.98,530.064 2013.09,529.361 2015.2,528.659 
  2017.3,527.958 2019.41,527.258 2021.52,526.559 2023.63,525.861 2025.74,525.164 2027.85,524.468 2029.96,523.774 2032.07,523.08 2034.18,522.387 2036.29,521.696 
  2038.4,521.006 2040.51,520.316 2042.62,519.628 2044.73,518.941 2046.84,518.255 2048.95,517.569 2051.06,516.885 2053.17,516.202 2055.28,515.52 2057.39,514.84 
  2059.5,514.16 2061.61,513.481 2063.72,512.803 2065.83,512.127 2067.94,511.451 2070.05,510.776 2072.16,510.103 2074.27,509.43 2076.38,508.759 2078.49,508.088 
  2080.6,507.419 2082.71,506.751 2084.82,506.083 2086.93,505.417 2089.04,504.752 2091.15,504.087 2093.26,503.424 2095.37,502.762 2097.48,502.101 2099.59,501.441 
  2101.7,500.782 2103.8,500.123 2105.91,499.466 2108.02,498.81 2110.13,498.155 2112.24,497.501 2114.35,496.848 2116.46,496.196 2118.57,495.545 2120.68,494.895 
  2122.79,494.246 2124.9,493.598 2127.01,492.951 2129.12,492.305 2131.23,491.66 2133.34,491.016 2135.45,490.373 2137.56,489.731 2139.67,489.09 2141.78,488.45 
  2143.89,487.811 2146,487.173 2148.11,486.536 2150.22,485.9 2152.33,485.265 2154.44,484.631 2156.55,483.998 2158.66,483.366 2160.77,482.735 2162.88,482.105 
  2164.99,481.476 2167.1,480.848 2169.21,480.22 2171.32,479.594 2173.43,478.969 2175.54,478.345 2177.65,477.721 2179.76,477.099 2181.87,476.478 2183.98,475.857 
  2186.09,475.238 2188.2,474.619 2190.3,474.002 2192.41,473.385 2194.52,472.77 2196.63,472.155 2198.74,471.541 2200.85,470.929 2202.96,470.317 2205.07,469.706 
  2207.18,469.096 2209.29,468.487 2211.4,467.879 2213.51,467.272 2215.62,466.666 2217.73,466.061 2219.84,465.457 2221.95,464.854 2224.06,464.252 2226.17,463.65 
  2228.28,463.05 2230.39,462.45 2232.5,461.852 2234.61,461.254 2236.72,460.658 2238.83,460.062 2240.94,459.467 2243.05,458.873 2245.16,458.28 2247.27,457.688 
  2249.38,457.097 2251.49,456.507 2253.6,455.918 2255.71,455.329 2257.82,454.742 2259.93,454.155 2262.04,453.57 2264.15,452.985 2266.26,452.401 2268.37,451.819 
  2270.48,451.237 2272.59,450.656 2274.69,450.076 2276.8,449.496 2278.91,448.918 2281.02,448.341 2283.13,447.764 2285.24,447.189 2287.35,446.614 2289.46,446.04 
  2291.57,445.467 2293.68,444.895 2295.79,444.324 2297.9,443.754 2300.01,443.185 2302.12,442.616 2304.23,442.049 2306.34,441.482 2308.45,440.917 2310.56,440.352 
  2312.67,439.788 2314.78,439.225 2316.89,438.662 2319,438.101 2321.11,437.541 2323.22,436.981 2325.33,436.423 2327.44,435.865 2329.55,435.308 2331.66,434.752 
  2333.77,434.197 2335.88,433.642 2337.99,433.089 2340.1,432.536 2342.21,431.985 2344.32,431.434 2346.43,430.884 2348.54,430.335 2350.65,429.787 2352.76,429.239 
  
  "/>
<polygon clip-path="url(#clip8500)" points="
1861.6,372.684 2280.76,372.684 2280.76,130.764 1861.6,130.764 
  " fill="#ffffff" fill-rule="evenodd" fill-opacity="1"/>
<polyline clip-path="url(#clip8500)" style="stroke:#000000; stroke-width:4; stroke-opacity:1; fill:none" points="
  1861.6,372.684 2280.76,372.684 2280.76,130.764 1861.6,130.764 1861.6,372.684 
  "/>
<polyline clip-path="url(#clip8500)" style="stroke:#009af9; stroke-width:12; stroke-opacity:1; fill:none" points="
  1885.6,191.244 2029.6,191.244 
  "/>
<g clip-path="url(#clip8500)">
<text style="fill:#000000; fill-opacity:1; font-family:Arial,Helvetica Neue,Helvetica,sans-serif; font-size:48px; text-anchor:start;" transform="rotate(0, 2053.6, 208.744)" x="2053.6" y="208.744">Ln(t)</text>
</g>
<polyline clip-path="url(#clip8500)" style="stroke:#e26f46; stroke-width:12; stroke-opacity:1; fill:none" points="
  1885.6,251.724 2029.6,251.724 
  "/>
<g clip-path="url(#clip8500)">
<text style="fill:#000000; fill-opacity:1; font-family:Arial,Helvetica Neue,Helvetica,sans-serif; font-size:48px; text-anchor:start;" transform="rotate(0, 2053.6, 269.224)" x="2053.6" y="269.224">DCA(t)</text>
</g>
<polyline clip-path="url(#clip8500)" style="stroke:#3da44d; stroke-width:12; stroke-opacity:1; fill:none" points="
  1885.6,312.204 2029.6,312.204 
  "/>
<g clip-path="url(#clip8500)">
<text style="fill:#000000; fill-opacity:1; font-family:Arial,Helvetica Neue,Helvetica,sans-serif; font-size:48px; text-anchor:start;" transform="rotate(0, 2053.6, 329.704)" x="2053.6" y="329.704">DCAA(t)</text>
</g>
</svg>
