<?xml version="1.0" encoding="utf-8"?>
<svg xmlns="http://www.w3.org/2000/svg" xmlns:xlink="http://www.w3.org/1999/xlink" width="600" height="400" viewBox="0 0 2400 1600">
<defs>
  <clipPath id="clip7900">
    <rect x="0" y="0" width="2400" height="1600"/>
  </clipPath>
</defs>
<polygon clip-path="url(#clip7900)" points="
0,1600 2400,1600 2400,0 0,0 
  " fill="#ffffff" fill-rule="evenodd" fill-opacity="1"/>
<defs>
  <clipPath id="clip7901">
    <rect x="480" y="0" width="1681" height="1600"/>
  </clipPath>
</defs>
<polygon clip-path="url(#clip7900)" points="
167.279,1425.62 2352.76,1425.62 2352.76,47.2441 167.279,47.2441 
  " fill="#ffffff" fill-rule="evenodd" fill-opacity="1"/>
<defs>
  <clipPath id="clip7902">
    <rect x="167" y="47" width="2186" height="1379"/>
  </clipPath>
</defs>
<polyline clip-path="url(#clip7902)" style="stroke:#000000; stroke-width:2; stroke-opacity:0.1; fill:none" points="
  167.279,1425.62 167.279,47.2441 
  "/>
<polyline clip-path="url(#clip7902)" style="stroke:#000000; stroke-width:2; stroke-opacity:0.1; fill:none" points="
  604.374,1425.62 604.374,47.2441 
  "/>
<polyline clip-path="url(#clip7902)" style="stroke:#000000; stroke-width:2; stroke-opacity:0.1; fill:none" points="
  1041.47,1425.62 1041.47,47.2441 
  "/>
<polyline clip-path="url(#clip7902)" style="stroke:#000000; stroke-width:2; stroke-opacity:0.1; fill:none" points="
  1478.57,1425.62 1478.57,47.2441 
  "/>
<polyline clip-path="url(#clip7902)" style="stroke:#000000; stroke-width:2; stroke-opacity:0.1; fill:none" points="
  1915.66,1425.62 1915.66,47.2441 
  "/>
<polyline clip-path="url(#clip7902)" style="stroke:#000000; stroke-width:2; stroke-opacity:0.1; fill:none" points="
  2352.76,1425.62 2352.76,47.2441 
  "/>
<polyline clip-path="url(#clip7902)" style="stroke:#000000; stroke-width:2; stroke-opacity:0.1; fill:none" points="
  167.279,1386.61 2352.76,1386.61 
  "/>
<polyline clip-path="url(#clip7902)" style="stroke:#000000; stroke-width:2; stroke-opacity:0.1; fill:none" points="
  167.279,1179.98 2352.76,1179.98 
  "/>
<polyline clip-path="url(#clip7902)" style="stroke:#000000; stroke-width:2; stroke-opacity:0.1; fill:none" points="
  167.279,973.344 2352.76,973.344 
  "/>
<polyline clip-path="url(#clip7902)" style="stroke:#000000; stroke-width:2; stroke-opacity:0.1; fill:none" points="
  167.279,766.711 2352.76,766.711 
  "/>
<polyline clip-path="url(#clip7902)" style="stroke:#000000; stroke-width:2; stroke-opacity:0.1; fill:none" points="
  167.279,560.078 2352.76,560.078 
  "/>
<polyline clip-path="url(#clip7902)" style="stroke:#000000; stroke-width:2; stroke-opacity:0.1; fill:none" points="
  167.279,353.445 2352.76,353.445 
  "/>
<polyline clip-path="url(#clip7902)" style="stroke:#000000; stroke-width:2; stroke-opacity:0.1; fill:none" points="
  167.279,146.812 2352.76,146.812 
  "/>
<polyline clip-path="url(#clip7900)" style="stroke:#000000; stroke-width:4; stroke-opacity:1; fill:none" points="
  167.279,1425.62 2352.76,1425.62 
  "/>
<polyline clip-path="url(#clip7900)" style="stroke:#000000; stroke-width:4; stroke-opacity:1; fill:none" points="
  167.279,1425.62 167.279,47.2441 
  "/>
<polyline clip-path="url(#clip7900)" style="stroke:#000000; stroke-width:4; stroke-opacity:1; fill:none" points="
  167.279,1425.62 167.279,1404.94 
  "/>
<polyline clip-path="url(#clip7900)" style="stroke:#000000; stroke-width:4; stroke-opacity:1; fill:none" points="
  604.374,1425.62 604.374,1404.94 
  "/>
<polyline clip-path="url(#clip7900)" style="stroke:#000000; stroke-width:4; stroke-opacity:1; fill:none" points="
  1041.47,1425.62 1041.47,1404.94 
  "/>
<polyline clip-path="url(#clip7900)" style="stroke:#000000; stroke-width:4; stroke-opacity:1; fill:none" points="
  1478.57,1425.62 1478.57,1404.94 
  "/>
<polyline clip-path="url(#clip7900)" style="stroke:#000000; stroke-width:4; stroke-opacity:1; fill:none" points="
  1915.66,1425.62 1915.66,1404.94 
  "/>
<polyline clip-path="url(#clip7900)" style="stroke:#000000; stroke-width:4; stroke-opacity:1; fill:none" points="
  2352.76,1425.62 2352.76,1404.94 
  "/>
<polyline clip-path="url(#clip7900)" style="stroke:#000000; stroke-width:4; stroke-opacity:1; fill:none" points="
  167.279,1386.61 200.061,1386.61 
  "/>
<polyline clip-path="url(#clip7900)" style="stroke:#000000; stroke-width:4; stroke-opacity:1; fill:none" points="
  167.279,1179.98 200.061,1179.98 
  "/>
<polyline clip-path="url(#clip7900)" style="stroke:#000000; stroke-width:4; stroke-opacity:1; fill:none" points="
  167.279,973.344 200.061,973.344 
  "/>
<polyline clip-path="url(#clip7900)" style="stroke:#000000; stroke-width:4; stroke-opacity:1; fill:none" points="
  167.279,766.711 200.061,766.711 
  "/>
<polyline clip-path="url(#clip7900)" style="stroke:#000000; stroke-width:4; stroke-opacity:1; fill:none" points="
  167.279,560.078 200.061,560.078 
  "/>
<polyline clip-path="url(#clip7900)" style="stroke:#000000; stroke-width:4; stroke-opacity:1; fill:none" points="
  167.279,353.445 200.061,353.445 
  "/>
<polyline clip-path="url(#clip7900)" style="stroke:#000000; stroke-width:4; stroke-opacity:1; fill:none" points="
  167.279,146.812 200.061,146.812 
  "/>
<g clip-path="url(#clip7900)">
<text style="fill:#000000; fill-opacity:1; font-family:Arial,Helvetica Neue,Helvetica,sans-serif; font-size:48px; text-anchor:middle;" transform="rotate(0, 167.279, 1479.62)" x="167.279" y="1479.62">0</text>
</g>
<g clip-path="url(#clip7900)">
<text style="fill:#000000; fill-opacity:1; font-family:Arial,Helvetica Neue,Helvetica,sans-serif; font-size:48px; text-anchor:middle;" transform="rotate(0, 604.374, 1479.62)" x="604.374" y="1479.62">20</text>
</g>
<g clip-path="url(#clip7900)">
<text style="fill:#000000; fill-opacity:1; font-family:Arial,Helvetica Neue,Helvetica,sans-serif; font-size:48px; text-anchor:middle;" transform="rotate(0, 1041.47, 1479.62)" x="1041.47" y="1479.62">40</text>
</g>
<g clip-path="url(#clip7900)">
<text style="fill:#000000; fill-opacity:1; font-family:Arial,Helvetica Neue,Helvetica,sans-serif; font-size:48px; text-anchor:middle;" transform="rotate(0, 1478.57, 1479.62)" x="1478.57" y="1479.62">60</text>
</g>
<g clip-path="url(#clip7900)">
<text style="fill:#000000; fill-opacity:1; font-family:Arial,Helvetica Neue,Helvetica,sans-serif; font-size:48px; text-anchor:middle;" transform="rotate(0, 1915.66, 1479.62)" x="1915.66" y="1479.62">80</text>
</g>
<g clip-path="url(#clip7900)">
<text style="fill:#000000; fill-opacity:1; font-family:Arial,Helvetica Neue,Helvetica,sans-serif; font-size:48px; text-anchor:middle;" transform="rotate(0, 2352.76, 1479.62)" x="2352.76" y="1479.62">100</text>
</g>
<g clip-path="url(#clip7900)">
<text style="fill:#000000; fill-opacity:1; font-family:Arial,Helvetica Neue,Helvetica,sans-serif; font-size:48px; text-anchor:end;" transform="rotate(0, 143.279, 1404.11)" x="143.279" y="1404.11">0</text>
</g>
<g clip-path="url(#clip7900)">
<text style="fill:#000000; fill-opacity:1; font-family:Arial,Helvetica Neue,Helvetica,sans-serif; font-size:48px; text-anchor:end;" transform="rotate(0, 143.279, 1197.48)" x="143.279" y="1197.48">100</text>
</g>
<g clip-path="url(#clip7900)">
<text style="fill:#000000; fill-opacity:1; font-family:Arial,Helvetica Neue,Helvetica,sans-serif; font-size:48px; text-anchor:end;" transform="rotate(0, 143.279, 990.844)" x="143.279" y="990.844">200</text>
</g>
<g clip-path="url(#clip7900)">
<text style="fill:#000000; fill-opacity:1; font-family:Arial,Helvetica Neue,Helvetica,sans-serif; font-size:48px; text-anchor:end;" transform="rotate(0, 143.279, 784.211)" x="143.279" y="784.211">300</text>
</g>
<g clip-path="url(#clip7900)">
<text style="fill:#000000; fill-opacity:1; font-family:Arial,Helvetica Neue,Helvetica,sans-serif; font-size:48px; text-anchor:end;" transform="rotate(0, 143.279, 577.578)" x="143.279" y="577.578">400</text>
</g>
<g clip-path="url(#clip7900)">
<text style="fill:#000000; fill-opacity:1; font-family:Arial,Helvetica Neue,Helvetica,sans-serif; font-size:48px; text-anchor:end;" transform="rotate(0, 143.279, 370.945)" x="143.279" y="370.945">500</text>
</g>
<g clip-path="url(#clip7900)">
<text style="fill:#000000; fill-opacity:1; font-family:Arial,Helvetica Neue,Helvetica,sans-serif; font-size:48px; text-anchor:end;" transform="rotate(0, 143.279, 164.312)" x="143.279" y="164.312">600</text>
</g>
<g clip-path="url(#clip7900)">
<text style="fill:#000000; fill-opacity:1; font-family:Arial,Helvetica Neue,Helvetica,sans-serif; font-size:66px; text-anchor:middle;" transform="rotate(0, 1260.02, 1559.48)" x="1260.02" y="1559.48">t</text>
</g>
<polyline clip-path="url(#clip7902)" style="stroke:#009af9; stroke-width:12; stroke-opacity:1; fill:none" points="
  167.279,146.812 169.467,1382.31 171.654,1384.43 173.842,1385.12 176.03,1385.46 178.217,1385.65 180.405,1385.78 182.593,1385.86 184.78,1385.92 186.968,1385.96 
  189.156,1385.99 191.343,1386.02 193.531,1386.03 195.719,1386.05 197.906,1386.06 200.094,1386.07 202.282,1386.07 204.469,1386.08 206.657,1386.08 208.845,1386.08 
  211.032,1386.09 213.22,1386.09 215.408,1386.09 217.595,1386.09 219.783,1386.09 221.971,1386.09 224.158,1386.09 226.346,1386.09 228.534,1386.09 230.721,1386.09 
  232.909,1386.09 235.097,1386.09 237.284,1386.09 239.472,1386.09 241.66,1386.09 243.847,1386.09 246.035,1386.09 248.223,1386.09 250.41,1386.09 252.598,1386.09 
  254.786,1386.09 256.973,1386.09 259.161,1386.09 261.349,1386.09 263.536,1386.09 265.724,1386.09 267.912,1386.09 270.099,1386.09 272.287,1386.09 274.475,1386.09 
  276.662,1386.09 278.85,1386.09 281.038,1386.09 283.225,1386.09 285.413,1386.09 287.601,1386.09 289.788,1386.09 291.976,1386.09 294.164,1386.09 296.351,1386.09 
  298.539,1386.09 300.727,1386.09 302.914,1386.09 305.102,1386.09 307.29,1386.09 309.477,1386.09 311.665,1386.09 313.853,1386.09 316.04,1386.09 318.228,1386.09 
  320.416,1386.09 322.603,1386.09 324.791,1386.09 326.979,1386.09 329.166,1386.09 331.354,1386.09 333.542,1386.09 335.729,1386.09 337.917,1386.09 340.105,1386.09 
  342.292,1386.09 344.48,1386.09 346.668,1386.09 348.855,1386.09 351.043,1386.09 353.231,1386.09 355.418,1386.09 357.606,1386.09 359.794,1386.09 361.981,1386.09 
  364.169,1386.09 366.357,1386.09 368.544,1386.09 370.732,1386.09 372.92,1386.09 375.107,1386.09 377.295,1386.09 379.483,1386.09 381.67,1386.09 383.858,1386.09 
  386.046,1386.09 388.233,1386.09 390.421,1386.09 392.609,1386.09 394.796,1386.09 396.984,1386.09 399.172,1386.09 401.359,1386.09 403.547,1386.09 405.735,1386.09 
  407.922,1386.09 410.11,1386.09 412.298,1386.09 414.485,1386.09 416.673,1386.09 418.861,1386.09 421.048,1386.09 423.236,1386.09 425.424,1386.09 427.611,1386.09 
  429.799,1386.09 431.987,1386.09 434.174,1386.09 436.362,1386.09 438.55,1386.09 440.737,1386.09 442.925,1386.09 445.113,1386.09 447.3,1386.09 449.488,1386.09 
  451.676,1386.09 453.863,1386.09 456.051,1386.09 458.239,1386.09 460.426,1386.09 462.614,1386.09 464.802,1386.09 466.989,1386.09 469.177,1386.09 471.365,1386.09 
  473.552,1386.09 475.74,1386.09 477.927,1386.09 480.115,1386.09 482.303,1386.09 484.49,1386.09 486.678,1386.09 488.866,1386.09 491.053,1386.09 493.241,1386.09 
  495.429,1386.09 497.616,1386.09 499.804,1386.09 501.992,1386.09 504.179,1386.09 506.367,1386.09 508.555,1386.09 510.742,1386.09 512.93,1386.09 515.118,1386.09 
  517.305,1386.09 519.493,1386.09 521.681,1386.09 523.868,1386.09 526.056,1386.09 528.244,1386.09 530.431,1386.09 532.619,1386.09 534.807,1386.09 536.994,1386.09 
  539.182,1386.09 541.37,1386.09 543.557,1386.09 545.745,1386.09 547.933,1386.09 550.12,1386.09 552.308,1386.09 554.496,1386.09 556.683,1386.09 558.871,1386.09 
  561.059,1386.09 563.246,1386.09 565.434,1386.09 567.622,1386.09 569.809,1386.09 571.997,1386.09 574.185,1386.09 576.372,1386.09 578.56,1386.09 580.748,1386.09 
  582.935,1386.09 585.123,1386.09 587.311,1386.09 589.498,1386.09 591.686,1386.09 593.874,1386.09 596.061,1386.09 598.249,1386.09 600.437,1386.09 602.624,1386.09 
  604.812,1386.09 607,1386.09 609.187,1386.09 611.375,1386.09 613.563,1386.09 615.75,1386.09 617.938,1386.09 620.126,1386.09 622.313,1386.09 624.501,1386.09 
  626.689,1386.09 628.876,1386.09 631.064,1386.09 633.252,1386.09 635.439,1386.09 637.627,1386.09 639.815,1386.09 642.002,1386.09 644.19,1386.09 646.378,1386.09 
  648.565,1386.09 650.753,1386.09 652.941,1386.09 655.128,1386.09 657.316,1386.09 659.504,1386.09 661.691,1386.09 663.879,1386.09 666.067,1386.09 668.254,1386.09 
  670.442,1386.09 672.63,1386.09 674.817,1386.09 677.005,1386.09 679.193,1386.09 681.38,1386.09 683.568,1386.09 685.756,1386.09 687.943,1386.09 690.131,1386.09 
  692.319,1386.09 694.506,1386.09 696.694,1386.09 698.882,1386.09 701.069,1386.09 703.257,1386.09 705.445,1386.09 707.632,1386.09 709.82,1386.1 712.008,1386.1 
  714.195,1386.1 716.383,1386.1 718.571,1386.1 720.758,1386.1 722.946,1386.1 725.134,1386.1 727.321,1386.1 729.509,1386.1 731.697,1386.1 733.884,1386.1 
  736.072,1386.1 738.26,1386.09 740.447,1386.09 742.635,1386.09 744.823,1386.09 747.01,1386.09 749.198,1386.09 751.386,1386.09 753.573,1386.09 755.761,1386.09 
  757.949,1386.09 760.136,1386.09 762.324,1386.09 764.512,1386.09 766.699,1386.09 768.887,1386.09 771.075,1386.1 773.262,1386.1 775.45,1386.1 777.638,1386.1 
  779.825,1386.1 782.013,1386.09 784.201,1386.09 786.388,1386.09 788.576,1386.09 790.764,1386.09 792.951,1386.09 795.139,1386.09 797.326,1386.09 799.514,1386.09 
  801.702,1386.09 803.889,1386.09 806.077,1386.09 808.265,1386.09 810.452,1386.09 812.64,1386.09 814.828,1386.09 817.015,1386.09 819.203,1386.09 821.391,1386.09 
  823.578,1386.09 825.766,1386.09 827.954,1386.09 830.141,1386.09 832.329,1386.09 834.517,1386.09 836.704,1386.09 838.892,1386.09 841.08,1386.09 843.267,1386.09 
  845.455,1386.09 847.643,1386.09 849.83,1386.09 852.018,1386.09 854.206,1386.09 856.393,1386.09 858.581,1386.09 860.769,1386.09 862.956,1386.09 865.144,1386.09 
  867.332,1386.09 869.519,1386.09 871.707,1386.09 873.895,1386.09 876.082,1386.09 878.27,1386.09 880.458,1386.09 882.645,1386.09 884.833,1386.09 887.021,1386.09 
  889.208,1386.09 891.396,1386.09 893.584,1386.09 895.771,1386.09 897.959,1386.09 900.147,1386.09 902.334,1386.09 904.522,1386.09 906.71,1386.09 908.897,1386.09 
  911.085,1386.09 913.273,1386.09 915.46,1386.09 917.648,1386.09 919.836,1386.09 922.023,1386.09 924.211,1386.09 926.399,1386.09 928.586,1386.09 930.774,1386.09 
  932.962,1386.09 935.149,1386.09 937.337,1386.09 939.525,1386.09 941.712,1386.09 943.9,1386.09 946.088,1386.09 948.275,1386.09 950.463,1386.09 952.651,1386.09 
  954.838,1386.09 957.026,1386.09 959.214,1386.09 961.401,1386.09 963.589,1386.09 965.777,1386.09 967.964,1386.09 970.152,1386.09 972.34,1386.09 974.527,1386.09 
  976.715,1386.09 978.903,1386.09 981.09,1386.09 983.278,1386.09 985.466,1386.09 987.653,1386.09 989.841,1386.09 992.029,1386.09 994.216,1386.09 996.404,1386.09 
  998.592,1386.09 1000.78,1386.09 1002.97,1386.09 1005.15,1386.09 1007.34,1386.09 1009.53,1386.09 1011.72,1386.09 1013.91,1386.09 1016.09,1386.09 1018.28,1386.09 
  1020.47,1386.09 1022.66,1386.09 1024.84,1386.09 1027.03,1386.09 1029.22,1386.09 1031.41,1386.09 1033.59,1386.09 1035.78,1386.09 1037.97,1386.09 1040.16,1386.09 
  1042.34,1386.09 1044.53,1386.09 1046.72,1386.09 1048.91,1386.09 1051.1,1386.09 1053.28,1386.09 1055.47,1386.09 1057.66,1386.09 1059.85,1386.09 1062.03,1386.09 
  1064.22,1386.09 1066.41,1386.09 1068.6,1386.09 1070.78,1386.09 1072.97,1386.09 1075.16,1386.09 1077.35,1386.09 1079.54,1386.09 1081.72,1386.09 1083.91,1386.09 
  1086.1,1386.09 1088.29,1386.09 1090.47,1386.09 1092.66,1386.09 1094.85,1386.09 1097.04,1386.09 1099.22,1386.09 1101.41,1386.09 1103.6,1386.09 1105.79,1386.09 
  1107.97,1386.09 1110.16,1386.09 1112.35,1386.09 1114.54,1386.09 1116.73,1386.09 1118.91,1386.09 1121.1,1386.09 1123.29,1386.09 1125.48,1386.09 1127.66,1386.09 
  1129.85,1386.09 1132.04,1386.09 1134.23,1386.09 1136.41,1386.09 1138.6,1386.09 1140.79,1386.09 1142.98,1386.09 1145.17,1386.09 1147.35,1386.09 1149.54,1386.09 
  1151.73,1386.09 1153.92,1386.09 1156.1,1386.09 1158.29,1386.09 1160.48,1386.09 1162.67,1386.09 1164.85,1386.09 1167.04,1386.09 1169.23,1386.09 1171.42,1386.09 
  1173.6,1386.09 1175.79,1386.09 1177.98,1386.09 1180.17,1386.09 1182.36,1386.09 1184.54,1386.09 1186.73,1386.09 1188.92,1386.09 1191.11,1386.09 1193.29,1386.09 
  1195.48,1386.09 1197.67,1386.09 1199.86,1386.09 1202.04,1386.09 1204.23,1386.09 1206.42,1386.09 1208.61,1386.09 1210.8,1386.09 1212.98,1386.09 1215.17,1386.09 
  1217.36,1386.09 1219.55,1386.09 1221.73,1386.09 1223.92,1386.09 1226.11,1386.09 1228.3,1386.09 1230.48,1386.09 1232.67,1386.09 1234.86,1386.09 1237.05,1386.09 
  1239.23,1386.09 1241.42,1386.09 1243.61,1386.09 1245.8,1386.09 1247.99,1386.09 1250.17,1386.09 1252.36,1386.09 1254.55,1386.09 1256.74,1386.09 1258.92,1386.09 
  1261.11,1386.09 1263.3,1386.09 1265.49,1386.09 1267.67,1386.09 1269.86,1386.09 1272.05,1386.09 1274.24,1386.09 1276.43,1386.09 1278.61,1386.09 1280.8,1386.09 
  1282.99,1386.09 1285.18,1386.09 1287.36,1386.09 1289.55,1386.09 1291.74,1386.09 1293.93,1386.09 1296.11,1386.09 1298.3,1386.09 1300.49,1386.09 1302.68,1386.09 
  1304.86,1386.09 1307.05,1386.09 1309.24,1386.09 1311.43,1386.09 1313.62,1386.09 1315.8,1386.09 1317.99,1386.09 1320.18,1386.09 1322.37,1386.09 1324.55,1386.09 
  1326.74,1386.09 1328.93,1386.09 1331.12,1386.09 1333.3,1386.09 1335.49,1386.09 1337.68,1386.09 1339.87,1386.09 1342.05,1386.09 1344.24,1386.09 1346.43,1386.09 
  1348.62,1386.09 1350.81,1386.09 1352.99,1386.09 1355.18,1386.09 1357.37,1386.09 1359.56,1386.09 1361.74,1386.09 1363.93,1386.09 1366.12,1386.09 1368.31,1386.09 
  1370.49,1386.09 1372.68,1386.09 1374.87,1386.09 1377.06,1386.09 1379.25,1386.09 1381.43,1386.09 1383.62,1386.09 1385.81,1386.09 1388,1386.09 1390.18,1386.09 
  1392.37,1386.09 1394.56,1386.09 1396.75,1386.09 1398.93,1386.09 1401.12,1386.09 1403.31,1386.09 1405.5,1386.09 1407.68,1386.09 1409.87,1386.09 1412.06,1386.09 
  1414.25,1386.09 1416.44,1386.09 1418.62,1386.09 1420.81,1386.09 1423,1386.09 1425.19,1386.09 1427.37,1386.09 1429.56,1386.09 1431.75,1386.09 1433.94,1386.09 
  1436.12,1386.09 1438.31,1386.09 1440.5,1386.09 1442.69,1386.09 1444.88,1386.09 1447.06,1386.09 1449.25,1386.09 1451.44,1386.09 1453.63,1386.09 1455.81,1386.09 
  1458,1386.09 1460.19,1386.09 1462.38,1386.09 1464.56,1386.09 1466.75,1386.09 1468.94,1386.09 1471.13,1386.09 1473.31,1386.09 1475.5,1386.09 1477.69,1386.09 
  1479.88,1386.09 1482.07,1386.09 1484.25,1386.09 1486.44,1386.09 1488.63,1386.09 1490.82,1386.09 1493,1386.09 1495.19,1386.09 1497.38,1386.09 1499.57,1386.09 
  1501.75,1386.09 1503.94,1386.09 1506.13,1386.09 1508.32,1386.09 1510.51,1386.09 1512.69,1386.09 1514.88,1386.09 1517.07,1386.09 1519.26,1386.09 1521.44,1386.09 
  1523.63,1386.09 1525.82,1386.09 1528.01,1386.09 1530.19,1386.09 1532.38,1386.09 1534.57,1386.09 1536.76,1386.09 1538.94,1386.09 1541.13,1386.09 1543.32,1386.09 
  1545.51,1386.09 1547.7,1386.09 1549.88,1386.09 1552.07,1386.09 1554.26,1386.09 1556.45,1386.09 1558.63,1386.09 1560.82,1386.09 1563.01,1386.09 1565.2,1386.09 
  1567.38,1386.09 1569.57,1386.09 1571.76,1386.09 1573.95,1386.09 1576.14,1386.09 1578.32,1386.09 1580.51,1386.09 1582.7,1386.09 1584.89,1386.09 1587.07,1386.09 
  1589.26,1386.09 1591.45,1386.09 1593.64,1386.09 1595.82,1386.09 1598.01,1386.09 1600.2,1386.09 1602.39,1386.09 1604.57,1386.09 1606.76,1386.09 1608.95,1386.09 
  1611.14,1386.09 1613.33,1386.09 1615.51,1386.09 1617.7,1386.09 1619.89,1386.09 1622.08,1386.09 1624.26,1386.09 1626.45,1386.09 1628.64,1386.09 1630.83,1386.09 
  1633.01,1386.09 1635.2,1386.09 1637.39,1386.09 1639.58,1386.09 1641.76,1386.09 1643.95,1386.09 1646.14,1386.09 1648.33,1386.09 1650.52,1386.09 1652.7,1386.09 
  1654.89,1386.09 1657.08,1386.09 1659.27,1386.09 1661.45,1386.09 1663.64,1386.09 1665.83,1386.09 1668.02,1386.09 1670.2,1386.09 1672.39,1386.09 1674.58,1386.09 
  1676.77,1386.09 1678.96,1386.09 1681.14,1386.09 1683.33,1386.09 1685.52,1386.09 1687.71,1386.09 1689.89,1386.09 1692.08,1386.09 1694.27,1386.09 1696.46,1386.09 
  1698.64,1386.09 1700.83,1386.09 1703.02,1386.09 1705.21,1386.09 1707.39,1386.09 1709.58,1386.09 1711.77,1386.09 1713.96,1386.09 1716.15,1386.09 1718.33,1386.09 
  1720.52,1386.09 1722.71,1386.09 1724.9,1386.09 1727.08,1386.09 1729.27,1386.09 1731.46,1386.09 1733.65,1386.09 1735.83,1386.09 1738.02,1386.09 1740.21,1386.09 
  1742.4,1386.09 1744.59,1386.09 1746.77,1386.09 1748.96,1386.09 1751.15,1386.09 1753.34,1386.09 1755.52,1386.09 1757.71,1386.09 1759.9,1386.09 1762.09,1386.09 
  1764.27,1386.09 1766.46,1386.09 1768.65,1386.09 1770.84,1386.09 1773.02,1386.09 1775.21,1386.09 1777.4,1386.09 1779.59,1386.09 1781.78,1386.09 1783.96,1386.09 
  1786.15,1386.09 1788.34,1386.09 1790.53,1386.09 1792.71,1386.09 1794.9,1386.09 1797.09,1386.09 1799.28,1386.09 1801.46,1386.09 1803.65,1386.09 1805.84,1386.09 
  1808.03,1386.09 1810.22,1386.09 1812.4,1386.09 1814.59,1386.09 1816.78,1386.09 1818.97,1386.09 1821.15,1386.09 1823.34,1386.09 1825.53,1386.09 1827.72,1386.09 
  1829.9,1386.09 1832.09,1386.09 1834.28,1386.09 1836.47,1386.09 1838.65,1386.09 1840.84,1386.09 1843.03,1386.09 1845.22,1386.09 1847.41,1386.09 1849.59,1386.09 
  1851.78,1386.09 1853.97,1386.09 1856.16,1386.09 1858.34,1386.09 1860.53,1386.09 1862.72,1386.09 1864.91,1386.09 1867.09,1386.09 1869.28,1386.09 1871.47,1386.09 
  1873.66,1386.09 1875.85,1386.09 1878.03,1386.09 1880.22,1386.09 1882.41,1386.09 1884.6,1386.09 1886.78,1386.09 1888.97,1386.09 1891.16,1386.09 1893.35,1386.09 
  1895.53,1386.09 1897.72,1386.09 1899.91,1386.09 1902.1,1386.09 1904.28,1386.09 1906.47,1386.09 1908.66,1386.09 1910.85,1386.09 1913.04,1386.09 1915.22,1386.09 
  1917.41,1386.09 1919.6,1386.09 1921.79,1386.09 1923.97,1386.09 1926.16,1386.09 1928.35,1386.09 1930.54,1386.09 1932.72,1386.09 1934.91,1386.09 1937.1,1386.09 
  1939.29,1386.09 1941.47,1386.09 1943.66,1386.09 1945.85,1386.09 1948.04,1386.09 1950.23,1386.09 1952.41,1386.09 1954.6,1386.09 1956.79,1386.09 1958.98,1386.09 
  1961.16,1386.09 1963.35,1386.09 1965.54,1386.09 1967.73,1386.09 1969.91,1386.09 1972.1,1386.09 1974.29,1386.09 1976.48,1386.09 1978.67,1386.09 1980.85,1386.09 
  1983.04,1386.09 1985.23,1386.09 1987.42,1386.09 1989.6,1386.09 1991.79,1386.09 1993.98,1386.09 1996.17,1386.09 1998.35,1386.09 2000.54,1386.09 2002.73,1386.09 
  2004.92,1386.09 2007.1,1386.09 2009.29,1386.09 2011.48,1386.09 2013.67,1386.09 2015.86,1386.09 2018.04,1386.09 2020.23,1386.09 2022.42,1386.09 2024.61,1386.09 
  2026.79,1386.09 2028.98,1386.09 2031.17,1386.09 2033.36,1386.09 2035.54,1386.09 2037.73,1386.09 2039.92,1386.09 2042.11,1386.09 2044.3,1386.09 2046.48,1386.09 
  2048.67,1386.09 2050.86,1386.09 2053.05,1386.09 2055.23,1386.09 2057.42,1386.09 2059.61,1386.09 2061.8,1386.09 2063.98,1386.09 2066.17,1386.09 2068.36,1386.09 
  2070.55,1386.09 2072.73,1386.09 2074.92,1386.09 2077.11,1386.09 2079.3,1386.09 2081.49,1386.09 2083.67,1386.09 2085.86,1386.09 2088.05,1386.09 2090.24,1386.09 
  2092.42,1386.09 2094.61,1386.09 2096.8,1386.09 2098.99,1386.09 2101.17,1386.09 2103.36,1386.09 2105.55,1386.09 2107.74,1386.09 2109.93,1386.09 2112.11,1386.09 
  2114.3,1386.09 2116.49,1386.09 2118.68,1386.09 2120.86,1386.09 2123.05,1386.09 2125.24,1386.09 2127.43,1386.09 2129.61,1386.09 2131.8,1386.09 2133.99,1386.09 
  2136.18,1386.09 2138.36,1386.09 2140.55,1386.09 2142.74,1386.09 2144.93,1386.09 2147.12,1386.09 2149.3,1386.09 2151.49,1386.09 2153.68,1386.09 2155.87,1386.09 
  2158.05,1386.09 2160.24,1386.09 2162.43,1386.09 2164.62,1386.09 2166.8,1386.09 2168.99,1386.09 2171.18,1386.09 2173.37,1386.09 2175.56,1386.09 2177.74,1386.09 
  2179.93,1386.09 2182.12,1386.09 2184.31,1386.09 2186.49,1386.09 2188.68,1386.09 2190.87,1386.09 2193.06,1386.09 2195.24,1386.09 2197.43,1386.09 2199.62,1386.09 
  2201.81,1386.09 2203.99,1386.09 2206.18,1386.09 2208.37,1386.09 2210.56,1386.09 2212.75,1386.09 2214.93,1386.09 2217.12,1386.09 2219.31,1386.09 2221.5,1386.09 
  2223.68,1386.09 2225.87,1386.09 2228.06,1386.09 2230.25,1386.09 2232.43,1386.09 2234.62,1386.09 2236.81,1386.09 2239,1386.09 2241.19,1386.09 2243.37,1386.09 
  2245.56,1386.09 2247.75,1386.09 2249.94,1386.09 2252.12,1386.09 2254.31,1386.09 2256.5,1386.09 2258.69,1386.09 2260.87,1386.09 2263.06,1386.09 2265.25,1386.09 
  2267.44,1386.09 2269.62,1386.09 2271.81,1386.09 2274,1386.09 2276.19,1386.09 2278.38,1386.09 2280.56,1386.09 2282.75,1386.09 2284.94,1386.09 2287.13,1386.09 
  2289.31,1386.09 2291.5,1386.09 2293.69,1386.09 2295.88,1386.09 2298.06,1386.09 2300.25,1386.09 2302.44,1386.09 2304.63,1386.09 2306.81,1386.09 2309,1386.09 
  2311.19,1386.09 2313.38,1386.09 2315.57,1386.09 2317.75,1386.09 2319.94,1386.09 2322.13,1386.09 2324.32,1386.09 2326.5,1386.09 2328.69,1386.09 2330.88,1386.09 
  2333.07,1386.09 2335.25,1386.09 2337.44,1386.09 2339.63,1386.09 2341.82,1386.09 2344.01,1386.09 2346.19,1386.09 2348.38,1386.09 2350.57,1386.09 2352.76,1386.09 
  
  "/>
<polyline clip-path="url(#clip7902)" style="stroke:#e26f46; stroke-width:12; stroke-opacity:1; fill:none" points="
  167.279,1386.61 169.467,230.265 171.654,303.53 173.842,373.385 176.03,439.029 178.217,500.533 180.405,558.097 182.593,611.948 184.78,662.314 186.968,709.413 
  189.156,753.454 191.343,794.632 193.531,833.132 195.719,869.128 197.906,902.78 200.094,934.242 202.282,963.656 204.469,991.154 206.657,1016.86 208.845,1040.89 
  211.032,1063.36 213.22,1084.36 215.408,1104 217.595,1122.35 219.783,1139.51 221.971,1155.56 224.158,1170.55 226.346,1184.57 228.534,1197.68 230.721,1209.93 
  232.909,1221.38 235.097,1232.09 237.284,1242.1 239.472,1251.46 241.66,1260.2 243.847,1268.38 246.035,1276.03 248.223,1283.17 250.41,1289.85 252.598,1296.1 
  254.786,1301.94 256.973,1307.39 259.161,1312.5 261.349,1317.27 263.536,1321.73 265.724,1325.9 267.912,1329.79 270.099,1333.43 272.287,1336.84 274.475,1340.02 
  276.662,1343 278.85,1345.78 281.038,1348.38 283.225,1350.81 285.413,1353.09 287.601,1355.21 289.788,1357.2 291.976,1359.05 294.164,1360.79 296.351,1362.41 
  298.539,1363.93 300.727,1365.35 302.914,1366.67 305.102,1367.91 307.29,1369.07 309.477,1370.15 311.665,1371.17 313.853,1372.11 316.04,1373 318.228,1373.82 
  320.416,1374.6 322.603,1375.32 324.791,1376 326.979,1376.63 329.166,1377.22 331.354,1377.77 333.542,1378.29 335.729,1378.77 337.917,1379.22 340.105,1379.64 
  342.292,1380.03 344.48,1380.4 346.668,1380.75 348.855,1381.07 351.043,1381.37 353.231,1381.65 355.418,1381.92 357.606,1382.16 359.794,1382.39 361.981,1382.61 
  364.169,1382.81 366.357,1382.99 368.544,1383.17 370.732,1383.33 372.92,1383.49 375.107,1383.63 377.295,1383.77 379.483,1383.89 381.67,1384.01 383.858,1384.12 
  386.046,1384.22 388.233,1384.32 390.421,1384.41 392.609,1384.49 394.796,1384.57 396.984,1384.64 399.172,1384.71 401.359,1384.77 403.547,1384.83 405.735,1384.89 
  407.922,1384.94 410.11,1384.99 412.298,1385.03 414.485,1385.08 416.673,1385.12 418.861,1385.15 421.048,1385.19 423.236,1385.22 425.424,1385.25 427.611,1385.28 
  429.799,1385.31 431.987,1385.33 434.174,1385.36 436.362,1385.38 438.55,1385.4 440.737,1385.42 442.925,1385.43 445.113,1385.45 447.3,1385.47 449.488,1385.48 
  451.676,1385.49 453.863,1385.51 456.051,1385.52 458.239,1385.53 460.426,1385.54 462.614,1385.55 464.802,1385.56 466.989,1385.57 469.177,1385.58 471.365,1385.58 
  473.552,1385.59 475.74,1385.6 477.927,1385.6 480.115,1385.61 482.303,1385.61 484.49,1385.62 486.678,1385.62 488.866,1385.63 491.053,1385.63 493.241,1385.64 
  495.429,1385.64 497.616,1385.64 499.804,1385.65 501.992,1385.65 504.179,1385.65 506.367,1385.65 508.555,1385.66 510.742,1385.66 512.93,1385.66 515.118,1385.66 
  517.305,1385.66 519.493,1385.67 521.681,1385.67 523.868,1385.67 526.056,1385.67 528.244,1385.67 530.431,1385.67 532.619,1385.67 534.807,1385.67 536.994,1385.68 
  539.182,1385.68 541.37,1385.68 543.557,1385.68 545.745,1385.68 547.933,1385.68 550.12,1385.68 552.308,1385.68 554.496,1385.68 556.683,1385.68 558.871,1385.68 
  561.059,1385.68 563.246,1385.68 565.434,1385.68 567.622,1385.68 569.809,1385.68 571.997,1385.68 574.185,1385.68 576.372,1385.69 578.56,1385.69 580.748,1385.69 
  582.935,1385.69 585.123,1385.69 587.311,1385.69 589.498,1385.69 591.686,1385.69 593.874,1385.69 596.061,1385.69 598.249,1385.69 600.437,1385.69 602.624,1385.69 
  604.812,1385.69 607,1385.69 609.187,1385.69 611.375,1385.69 613.563,1385.69 615.75,1385.69 617.938,1385.69 620.126,1385.69 622.313,1385.69 624.501,1385.69 
  626.689,1385.69 628.876,1385.69 631.064,1385.69 633.252,1385.69 635.439,1385.69 637.627,1385.69 639.815,1385.69 642.002,1385.69 644.19,1385.69 646.378,1385.69 
  648.565,1385.69 650.753,1385.69 652.941,1385.69 655.128,1385.69 657.316,1385.69 659.504,1385.69 661.691,1385.69 663.879,1385.69 666.067,1385.69 668.254,1385.69 
  670.442,1385.69 672.63,1385.69 674.817,1385.69 677.005,1385.69 679.193,1385.69 681.38,1385.69 683.568,1385.69 685.756,1385.69 687.943,1385.69 690.131,1385.69 
  692.319,1385.69 694.506,1385.69 696.694,1385.69 698.882,1385.69 701.069,1385.69 703.257,1385.69 705.445,1385.69 707.632,1385.69 709.82,1385.69 712.008,1385.69 
  714.195,1385.69 716.383,1385.69 718.571,1385.69 720.758,1385.69 722.946,1385.69 725.134,1385.69 727.321,1385.69 729.509,1385.69 731.697,1385.69 733.884,1385.69 
  736.072,1385.69 738.26,1385.69 740.447,1385.69 742.635,1385.69 744.823,1385.69 747.01,1385.69 749.198,1385.69 751.386,1385.69 753.573,1385.69 755.761,1385.69 
  757.949,1385.69 760.136,1385.69 762.324,1385.69 764.512,1385.69 766.699,1385.69 768.887,1385.69 771.075,1385.69 773.262,1385.69 775.45,1385.69 777.638,1385.69 
  779.825,1385.69 782.013,1385.69 784.201,1385.69 786.388,1385.69 788.576,1385.69 790.764,1385.69 792.951,1385.69 795.139,1385.69 797.326,1385.69 799.514,1385.69 
  801.702,1385.69 803.889,1385.69 806.077,1385.69 808.265,1385.69 810.452,1385.69 812.64,1385.69 814.828,1385.69 817.015,1385.69 819.203,1385.69 821.391,1385.69 
  823.578,1385.69 825.766,1385.69 827.954,1385.69 830.141,1385.69 832.329,1385.69 834.517,1385.69 836.704,1385.69 838.892,1385.69 841.08,1385.69 843.267,1385.69 
  845.455,1385.69 847.643,1385.69 849.83,1385.69 852.018,1385.69 854.206,1385.69 856.393,1385.69 858.581,1385.69 860.769,1385.69 862.956,1385.69 865.144,1385.69 
  867.332,1385.69 869.519,1385.69 871.707,1385.69 873.895,1385.69 876.082,1385.69 878.27,1385.69 880.458,1385.69 882.645,1385.69 884.833,1385.69 887.021,1385.69 
  889.208,1385.69 891.396,1385.69 893.584,1385.69 895.771,1385.69 897.959,1385.69 900.147,1385.69 902.334,1385.69 904.522,1385.69 906.71,1385.69 908.897,1385.69 
  911.085,1385.69 913.273,1385.69 915.46,1385.69 917.648,1385.69 919.836,1385.69 922.023,1385.69 924.211,1385.69 926.399,1385.69 928.586,1385.69 930.774,1385.69 
  932.962,1385.69 935.149,1385.69 937.337,1385.69 939.525,1385.69 941.712,1385.69 943.9,1385.69 946.088,1385.69 948.275,1385.69 950.463,1385.69 952.651,1385.69 
  954.838,1385.69 957.026,1385.69 959.214,1385.69 961.401,1385.69 963.589,1385.69 965.777,1385.69 967.964,1385.69 970.152,1385.69 972.34,1385.69 974.527,1385.69 
  976.715,1385.69 978.903,1385.69 981.09,1385.69 983.278,1385.69 985.466,1385.69 987.653,1385.69 989.841,1385.69 992.029,1385.69 994.216,1385.69 996.404,1385.69 
  998.592,1385.69 1000.78,1385.69 1002.97,1385.69 1005.15,1385.69 1007.34,1385.69 1009.53,1385.69 1011.72,1385.69 1013.91,1385.69 1016.09,1385.69 1018.28,1385.69 
  1020.47,1385.69 1022.66,1385.69 1024.84,1385.69 1027.03,1385.69 1029.22,1385.69 1031.41,1385.69 1033.59,1385.69 1035.78,1385.69 1037.97,1385.69 1040.16,1385.69 
  1042.34,1385.69 1044.53,1385.69 1046.72,1385.69 1048.91,1385.69 1051.1,1385.69 1053.28,1385.69 1055.47,1385.69 1057.66,1385.69 1059.85,1385.69 1062.03,1385.69 
  1064.22,1385.69 1066.41,1385.69 1068.6,1385.69 1070.78,1385.69 1072.97,1385.69 1075.16,1385.69 1077.35,1385.69 1079.54,1385.69 1081.72,1385.69 1083.91,1385.69 
  1086.1,1385.69 1088.29,1385.69 1090.47,1385.69 1092.66,1385.69 1094.85,1385.69 1097.04,1385.69 1099.22,1385.69 1101.41,1385.69 1103.6,1385.69 1105.79,1385.69 
  1107.97,1385.69 1110.16,1385.69 1112.35,1385.69 1114.54,1385.69 1116.73,1385.69 1118.91,1385.69 1121.1,1385.69 1123.29,1385.69 1125.48,1385.69 1127.66,1385.69 
  1129.85,1385.69 1132.04,1385.69 1134.23,1385.69 1136.41,1385.69 1138.6,1385.69 1140.79,1385.69 1142.98,1385.69 1145.17,1385.69 1147.35,1385.69 1149.54,1385.69 
  1151.73,1385.69 1153.92,1385.69 1156.1,1385.69 1158.29,1385.69 1160.48,1385.69 1162.67,1385.69 1164.85,1385.69 1167.04,1385.69 1169.23,1385.69 1171.42,1385.69 
  1173.6,1385.69 1175.79,1385.69 1177.98,1385.69 1180.17,1385.69 1182.36,1385.69 1184.54,1385.69 1186.73,1385.69 1188.92,1385.69 1191.11,1385.69 1193.29,1385.69 
  1195.48,1385.69 1197.67,1385.69 1199.86,1385.69 1202.04,1385.69 1204.23,1385.69 1206.42,1385.69 1208.61,1385.69 1210.8,1385.69 1212.98,1385.69 1215.17,1385.69 
  1217.36,1385.69 1219.55,1385.69 1221.73,1385.69 1223.92,1385.69 1226.11,1385.69 1228.3,1385.69 1230.48,1385.69 1232.67,1385.69 1234.86,1385.69 1237.05,1385.69 
  1239.23,1385.69 1241.42,1385.69 1243.61,1385.69 1245.8,1385.69 1247.99,1385.69 1250.17,1385.69 1252.36,1385.69 1254.55,1385.69 1256.74,1385.69 1258.92,1385.69 
  1261.11,1385.69 1263.3,1385.69 1265.49,1385.69 1267.67,1385.69 1269.86,1385.69 1272.05,1385.69 1274.24,1385.69 1276.43,1385.69 1278.61,1385.69 1280.8,1385.69 
  1282.99,1385.69 1285.18,1385.69 1287.36,1385.69 1289.55,1385.69 1291.74,1385.69 1293.93,1385.69 1296.11,1385.69 1298.3,1385.69 1300.49,1385.69 1302.68,1385.69 
  1304.86,1385.69 1307.05,1385.69 1309.24,1385.69 1311.43,1385.69 1313.62,1385.69 1315.8,1385.69 1317.99,1385.69 1320.18,1385.69 1322.37,1385.69 1324.55,1385.69 
  1326.74,1385.69 1328.93,1385.69 1331.12,1385.69 1333.3,1385.69 1335.49,1385.69 1337.68,1385.69 1339.87,1385.69 1342.05,1385.69 1344.24,1385.69 1346.43,1385.69 
  1348.62,1385.69 1350.81,1385.69 1352.99,1385.69 1355.18,1385.69 1357.37,1385.69 1359.56,1385.69 1361.74,1385.69 1363.93,1385.69 1366.12,1385.69 1368.31,1385.69 
  1370.49,1385.69 1372.68,1385.69 1374.87,1385.69 1377.06,1385.69 1379.25,1385.69 1381.43,1385.69 1383.62,1385.69 1385.81,1385.69 1388,1385.69 1390.18,1385.69 
  1392.37,1385.69 1394.56,1385.69 1396.75,1385.69 1398.93,1385.69 1401.12,1385.69 1403.31,1385.69 1405.5,1385.69 1407.68,1385.69 1409.87,1385.69 1412.06,1385.69 
  1414.25,1385.69 1416.44,1385.69 1418.62,1385.69 1420.81,1385.69 1423,1385.69 1425.19,1385.69 1427.37,1385.69 1429.56,1385.69 1431.75,1385.69 1433.94,1385.69 
  1436.12,1385.69 1438.31,1385.69 1440.5,1385.69 1442.69,1385.69 1444.88,1385.69 1447.06,1385.69 1449.25,1385.69 1451.44,1385.69 1453.63,1385.69 1455.81,1385.69 
  1458,1385.69 1460.19,1385.69 1462.38,1385.69 1464.56,1385.69 1466.75,1385.69 1468.94,1385.69 1471.13,1385.69 1473.31,1385.69 1475.5,1385.69 1477.69,1385.69 
  1479.88,1385.69 1482.07,1385.69 1484.25,1385.69 1486.44,1385.69 1488.63,1385.69 1490.82,1385.69 1493,1385.69 1495.19,1385.69 1497.38,1385.69 1499.57,1385.69 
  1501.75,1385.69 1503.94,1385.69 1506.13,1385.69 1508.32,1385.69 1510.51,1385.69 1512.69,1385.69 1514.88,1385.69 1517.07,1385.69 1519.26,1385.69 1521.44,1385.69 
  1523.63,1385.69 1525.82,1385.69 1528.01,1385.69 1530.19,1385.69 1532.38,1385.69 1534.57,1385.69 1536.76,1385.69 1538.94,1385.69 1541.13,1385.69 1543.32,1385.69 
  1545.51,1385.69 1547.7,1385.69 1549.88,1385.69 1552.07,1385.69 1554.26,1385.69 1556.45,1385.69 1558.63,1385.69 1560.82,1385.69 1563.01,1385.69 1565.2,1385.69 
  1567.38,1385.69 1569.57,1385.69 1571.76,1385.69 1573.95,1385.69 1576.14,1385.69 1578.32,1385.69 1580.51,1385.69 1582.7,1385.69 1584.89,1385.69 1587.07,1385.69 
  1589.26,1385.69 1591.45,1385.69 1593.64,1385.69 1595.82,1385.69 1598.01,1385.69 1600.2,1385.69 1602.39,1385.69 1604.57,1385.69 1606.76,1385.69 1608.95,1385.69 
  1611.14,1385.69 1613.33,1385.69 1615.51,1385.69 1617.7,1385.69 1619.89,1385.69 1622.08,1385.69 1624.26,1385.69 1626.45,1385.69 1628.64,1385.69 1630.83,1385.69 
  1633.01,1385.69 1635.2,1385.69 1637.39,1385.69 1639.58,1385.69 1641.76,1385.69 1643.95,1385.69 1646.14,1385.69 1648.33,1385.69 1650.52,1385.69 1652.7,1385.69 
  1654.89,1385.69 1657.08,1385.69 1659.27,1385.69 1661.45,1385.69 1663.64,1385.69 1665.83,1385.69 1668.02,1385.69 1670.2,1385.69 1672.39,1385.69 1674.58,1385.69 
  1676.77,1385.69 1678.96,1385.69 1681.14,1385.69 1683.33,1385.69 1685.52,1385.69 1687.71,1385.69 1689.89,1385.69 1692.08,1385.69 1694.27,1385.69 1696.46,1385.69 
  1698.64,1385.69 1700.83,1385.69 1703.02,1385.69 1705.21,1385.69 1707.39,1385.69 1709.58,1385.69 1711.77,1385.69 1713.96,1385.69 1716.15,1385.69 1718.33,1385.69 
  1720.52,1385.69 1722.71,1385.69 1724.9,1385.69 1727.08,1385.69 1729.27,1385.69 1731.46,1385.69 1733.65,1385.69 1735.83,1385.69 1738.02,1385.69 1740.21,1385.69 
  1742.4,1385.69 1744.59,1385.69 1746.77,1385.69 1748.96,1385.69 1751.15,1385.69 1753.34,1385.69 1755.52,1385.69 1757.71,1385.69 1759.9,1385.69 1762.09,1385.69 
  1764.27,1385.69 1766.46,1385.69 1768.65,1385.69 1770.84,1385.69 1773.02,1385.69 1775.21,1385.69 1777.4,1385.69 1779.59,1385.69 1781.78,1385.69 1783.96,1385.69 
  1786.15,1385.69 1788.34,1385.69 1790.53,1385.69 1792.71,1385.69 1794.9,1385.69 1797.09,1385.69 1799.28,1385.69 1801.46,1385.69 1803.65,1385.69 1805.84,1385.69 
  1808.03,1385.69 1810.22,1385.69 1812.4,1385.69 1814.59,1385.69 1816.78,1385.69 1818.97,1385.69 1821.15,1385.69 1823.34,1385.69 1825.53,1385.69 1827.72,1385.69 
  1829.9,1385.69 1832.09,1385.69 1834.28,1385.69 1836.47,1385.69 1838.65,1385.69 1840.84,1385.69 1843.03,1385.69 1845.22,1385.69 1847.41,1385.69 1849.59,1385.69 
  1851.78,1385.69 1853.97,1385.69 1856.16,1385.69 1858.34,1385.69 1860.53,1385.69 1862.72,1385.69 1864.91,1385.69 1867.09,1385.69 1869.28,1385.69 1871.47,1385.69 
  1873.66,1385.69 1875.85,1385.69 1878.03,1385.69 1880.22,1385.69 1882.41,1385.69 1884.6,1385.69 1886.78,1385.69 1888.97,1385.69 1891.16,1385.69 1893.35,1385.69 
  1895.53,1385.69 1897.72,1385.69 1899.91,1385.69 1902.1,1385.69 1904.28,1385.69 1906.47,1385.69 1908.66,1385.69 1910.85,1385.69 1913.04,1385.69 1915.22,1385.69 
  1917.41,1385.69 1919.6,1385.69 1921.79,1385.69 1923.97,1385.69 1926.16,1385.69 1928.35,1385.69 1930.54,1385.69 1932.72,1385.69 1934.91,1385.69 1937.1,1385.69 
  1939.29,1385.69 1941.47,1385.69 1943.66,1385.69 1945.85,1385.69 1948.04,1385.69 1950.23,1385.69 1952.41,1385.69 1954.6,1385.69 1956.79,1385.69 1958.98,1385.69 
  1961.16,1385.69 1963.35,1385.69 1965.54,1385.69 1967.73,1385.69 1969.91,1385.69 1972.1,1385.69 1974.29,1385.69 1976.48,1385.69 1978.67,1385.69 1980.85,1385.69 
  1983.04,1385.69 1985.23,1385.69 1987.42,1385.69 1989.6,1385.69 1991.79,1385.69 1993.98,1385.69 1996.17,1385.69 1998.35,1385.69 2000.54,1385.69 2002.73,1385.69 
  2004.92,1385.69 2007.1,1385.69 2009.29,1385.69 2011.48,1385.69 2013.67,1385.69 2015.86,1385.69 2018.04,1385.69 2020.23,1385.69 2022.42,1385.69 2024.61,1385.69 
  2026.79,1385.69 2028.98,1385.69 2031.17,1385.69 2033.36,1385.69 2035.54,1385.69 2037.73,1385.69 2039.92,1385.69 2042.11,1385.69 2044.3,1385.69 2046.48,1385.69 
  2048.67,1385.69 2050.86,1385.69 2053.05,1385.69 2055.23,1385.69 2057.42,1385.69 2059.61,1385.69 2061.8,1385.69 2063.98,1385.69 2066.17,1385.69 2068.36,1385.69 
  2070.55,1385.69 2072.73,1385.69 2074.92,1385.69 2077.11,1385.69 2079.3,1385.69 2081.49,1385.69 2083.67,1385.69 2085.86,1385.69 2088.05,1385.69 2090.24,1385.69 
  2092.42,1385.69 2094.61,1385.69 2096.8,1385.69 2098.99,1385.69 2101.17,1385.69 2103.36,1385.69 2105.55,1385.69 2107.74,1385.69 2109.93,1385.69 2112.11,1385.69 
  2114.3,1385.69 2116.49,1385.69 2118.68,1385.69 2120.86,1385.69 2123.05,1385.69 2125.24,1385.69 2127.43,1385.69 2129.61,1385.69 2131.8,1385.69 2133.99,1385.69 
  2136.18,1385.69 2138.36,1385.69 2140.55,1385.69 2142.74,1385.69 2144.93,1385.69 2147.12,1385.69 2149.3,1385.69 2151.49,1385.69 2153.68,1385.69 2155.87,1385.69 
  2158.05,1385.69 2160.24,1385.69 2162.43,1385.69 2164.62,1385.69 2166.8,1385.69 2168.99,1385.69 2171.18,1385.69 2173.37,1385.69 2175.56,1385.69 2177.74,1385.69 
  2179.93,1385.69 2182.12,1385.69 2184.31,1385.69 2186.49,1385.69 2188.68,1385.69 2190.87,1385.69 2193.06,1385.69 2195.24,1385.69 2197.43,1385.69 2199.62,1385.69 
  2201.81,1385.69 2203.99,1385.69 2206.18,1385.69 2208.37,1385.69 2210.56,1385.69 2212.75,1385.69 2214.93,1385.69 2217.12,1385.69 2219.31,1385.69 2221.5,1385.69 
  2223.68,1385.69 2225.87,1385.69 2228.06,1385.69 2230.25,1385.69 2232.43,1385.69 2234.62,1385.69 2236.81,1385.69 2239,1385.69 2241.19,1385.69 2243.37,1385.69 
  2245.56,1385.69 2247.75,1385.69 2249.94,1385.69 2252.12,1385.69 2254.31,1385.69 2256.5,1385.69 2258.69,1385.69 2260.87,1385.69 2263.06,1385.69 2265.25,1385.69 
  2267.44,1385.69 2269.62,1385.69 2271.81,1385.69 2274,1385.69 2276.19,1385.69 2278.38,1385.69 2280.56,1385.69 2282.75,1385.69 2284.94,1385.69 2287.13,1385.69 
  2289.31,1385.69 2291.5,1385.69 2293.69,1385.69 2295.88,1385.69 2298.06,1385.69 2300.25,1385.69 2302.44,1385.69 2304.63,1385.69 2306.81,1385.69 2309,1385.69 
  2311.19,1385.69 2313.38,1385.69 2315.57,1385.69 2317.75,1385.69 2319.94,1385.69 2322.13,1385.69 2324.32,1385.69 2326.5,1385.69 2328.69,1385.69 2330.88,1385.69 
  2333.07,1385.69 2335.25,1385.69 2337.44,1385.69 2339.63,1385.69 2341.82,1385.69 2344.01,1385.69 2346.19,1385.69 2348.38,1385.69 2350.57,1385.69 2352.76,1385.69 
  
  "/>
<polyline clip-path="url(#clip7902)" style="stroke:#3da44d; stroke-width:12; stroke-opacity:1; fill:none" points="
  167.279,1386.61 169.467,1307.39 171.654,1231.94 173.842,1161.34 176.03,1095.29 178.217,1033.53 180.405,975.783 182.593,921.786 184.78,871.3 186.968,824.096 
  189.156,779.962 191.343,738.698 193.531,700.118 195.719,664.047 197.906,630.322 200.094,598.79 202.282,569.308 204.469,541.743 206.657,515.97 208.845,491.872 
  211.032,469.341 213.22,448.274 215.408,428.575 217.595,410.156 219.783,392.933 221.971,376.828 224.158,361.769 226.346,347.688 228.534,334.519 230.721,322.205 
  232.909,310.689 235.097,299.92 237.284,289.848 239.472,280.429 241.66,271.619 243.847,263.379 246.035,255.672 248.223,248.464 250.41,241.722 252.598,235.415 
  254.786,229.515 256.973,223.995 259.161,218.83 261.349,213.998 263.536,209.476 265.724,205.246 267.912,201.288 270.099,197.584 272.287,194.117 274.475,190.872 
  276.662,187.833 278.85,184.988 281.038,182.325 283.225,179.832 285.413,177.497 287.601,175.311 289.788,173.263 291.976,171.344 294.164,169.547 296.351,167.862 
  298.539,166.282 300.727,164.802 302.914,163.414 305.102,162.112 307.29,160.892 309.477,159.747 311.665,158.673 313.853,157.665 316.04,156.718 318.228,155.829 
  320.416,154.993 322.603,154.208 324.791,153.47 326.979,152.776 329.166,152.124 331.354,151.51 333.542,150.932 335.729,150.388 337.917,149.875 340.105,149.391 
  342.292,148.935 344.48,148.504 346.668,148.097 348.855,147.713 351.043,147.35 353.231,147.007 355.418,146.682 357.606,146.374 359.794,146.082 361.981,145.805 
  364.169,145.542 366.357,145.292 368.544,145.055 370.732,144.828 372.92,144.613 375.107,144.407 377.295,144.211 379.483,144.024 381.67,143.845 383.858,143.673 
  386.046,143.509 388.233,143.351 390.421,143.199 392.609,143.054 394.796,142.913 396.984,142.778 399.172,142.648 401.359,142.522 403.547,142.4 405.735,142.282 
  407.922,142.168 410.11,142.057 412.298,141.949 414.485,141.845 416.673,141.743 418.861,141.643 421.048,141.546 423.236,141.452 425.424,141.359 427.611,141.269 
  429.799,141.18 431.987,141.093 434.174,141.008 436.362,140.924 438.55,140.842 440.737,140.761 442.925,140.681 445.113,140.602 447.3,140.525 449.488,140.448 
  451.676,140.372 453.863,140.298 456.051,140.224 458.239,140.151 460.426,140.078 462.614,140.006 464.802,139.935 466.989,139.865 469.177,139.795 471.365,139.726 
  473.552,139.657 475.74,139.588 477.927,139.52 480.115,139.452 482.303,139.385 484.49,139.318 486.678,139.251 488.866,139.185 491.053,139.119 493.241,139.053 
  495.429,138.987 497.616,138.922 499.804,138.857 501.992,138.792 504.179,138.727 506.367,138.663 508.555,138.598 510.742,138.534 512.93,138.47 515.118,138.406 
  517.305,138.342 519.493,138.278 521.681,138.215 523.868,138.151 526.056,138.088 528.244,138.024 530.431,137.961 532.619,137.898 534.807,137.835 536.994,137.772 
  539.182,137.709 541.37,137.646 543.557,137.583 545.745,137.52 547.933,137.458 550.12,137.395 552.308,137.332 554.496,137.27 556.683,137.207 558.871,137.144 
  561.059,137.082 563.246,137.019 565.434,136.957 567.622,136.895 569.809,136.832 571.997,136.77 574.185,136.707 576.372,136.645 578.56,136.583 580.748,136.52 
  582.935,136.458 585.123,136.396 587.311,136.334 589.498,136.271 591.686,136.209 593.874,136.147 596.061,136.085 598.249,136.022 600.437,135.96 602.624,135.898 
  604.812,135.836 607,135.774 609.187,135.712 611.375,135.649 613.563,135.587 615.75,135.525 617.938,135.463 620.126,135.401 622.313,135.339 624.501,135.277 
  626.689,135.215 628.876,135.152 631.064,135.09 633.252,135.028 635.439,134.966 637.627,134.904 639.815,134.842 642.002,134.78 644.19,134.718 646.378,134.656 
  648.565,134.594 650.753,134.532 652.941,134.469 655.128,134.407 657.316,134.345 659.504,134.283 661.691,134.221 663.879,134.159 666.067,134.097 668.254,134.035 
  670.442,133.973 672.63,133.911 674.817,133.849 677.005,133.787 679.193,133.725 681.38,133.663 683.568,133.6 685.756,133.538 687.943,133.476 690.131,133.414 
  692.319,133.352 694.506,133.29 696.694,133.228 698.882,133.166 701.069,133.104 703.257,133.042 705.445,132.98 707.632,132.918 709.82,132.856 712.008,132.794 
  714.195,132.732 716.383,132.67 718.571,132.608 720.758,132.546 722.946,132.484 725.134,132.422 727.321,132.36 729.509,132.298 731.697,132.235 733.884,132.173 
  736.072,132.111 738.26,132.049 740.447,131.987 742.635,131.925 744.823,131.863 747.01,131.801 749.198,131.738 751.386,131.676 753.573,131.614 755.761,131.552 
  757.949,131.49 760.136,131.428 762.324,131.366 764.512,131.304 766.699,131.242 768.887,131.18 771.075,131.118 773.262,131.056 775.45,130.994 777.638,130.932 
  779.825,130.87 782.013,130.808 784.201,130.746 786.388,130.684 788.576,130.622 790.764,130.559 792.951,130.497 795.139,130.435 797.326,130.373 799.514,130.312 
  801.702,130.25 803.889,130.188 806.077,130.125 808.265,130.063 810.452,130.001 812.64,129.939 814.828,129.877 817.015,129.815 819.203,129.753 821.391,129.691 
  823.578,129.629 825.766,129.567 827.954,129.505 830.141,129.443 832.329,129.381 834.517,129.319 836.704,129.257 838.892,129.195 841.08,129.133 843.267,129.07 
  845.455,129.008 847.643,128.946 849.83,128.884 852.018,128.822 854.206,128.76 856.393,128.698 858.581,128.636 860.769,128.574 862.956,128.512 865.144,128.45 
  867.332,128.388 869.519,128.326 871.707,128.264 873.895,128.202 876.082,128.14 878.27,128.078 880.458,128.016 882.645,127.954 884.833,127.892 887.021,127.829 
  889.208,127.767 891.396,127.705 893.584,127.643 895.771,127.581 897.959,127.519 900.147,127.457 902.334,127.395 904.522,127.333 906.71,127.271 908.897,127.209 
  911.085,127.147 913.273,127.085 915.46,127.023 917.648,126.961 919.836,126.899 922.023,126.837 924.211,126.775 926.399,126.713 928.586,126.651 930.774,126.588 
  932.962,126.526 935.149,126.464 937.337,126.402 939.525,126.34 941.712,126.278 943.9,126.216 946.088,126.154 948.275,126.092 950.463,126.03 952.651,125.968 
  954.838,125.906 957.026,125.844 959.214,125.782 961.401,125.72 963.589,125.658 965.777,125.596 967.964,125.534 970.152,125.471 972.34,125.409 974.527,125.347 
  976.715,125.285 978.903,125.223 981.09,125.161 983.278,125.099 985.466,125.037 987.653,124.975 989.841,124.913 992.029,124.851 994.216,124.789 996.404,124.727 
  998.592,124.665 1000.78,124.603 1002.97,124.541 1005.15,124.479 1007.34,124.417 1009.53,124.355 1011.72,124.292 1013.91,124.23 1016.09,124.168 1018.28,124.106 
  1020.47,124.044 1022.66,123.982 1024.84,123.92 1027.03,123.858 1029.22,123.796 1031.41,123.734 1033.59,123.672 1035.78,123.61 1037.97,123.548 1040.16,123.486 
  1042.34,123.424 1044.53,123.362 1046.72,123.3 1048.91,123.238 1051.1,123.176 1053.28,123.114 1055.47,123.052 1057.66,122.99 1059.85,122.927 1062.03,122.865 
  1064.22,122.803 1066.41,122.741 1068.6,122.679 1070.78,122.617 1072.97,122.555 1075.16,122.493 1077.35,122.431 1079.54,122.369 1081.72,122.307 1083.91,122.245 
  1086.1,122.183 1088.29,122.121 1090.47,122.059 1092.66,121.997 1094.85,121.935 1097.04,121.873 1099.22,121.81 1101.41,121.748 1103.6,121.686 1105.79,121.624 
  1107.97,121.562 1110.16,121.5 1112.35,121.438 1114.54,121.376 1116.73,121.314 1118.91,121.252 1121.1,121.19 1123.29,121.128 1125.48,121.066 1127.66,121.004 
  1129.85,120.942 1132.04,120.88 1134.23,120.818 1136.41,120.755 1138.6,120.693 1140.79,120.631 1142.98,120.569 1145.17,120.507 1147.35,120.445 1149.54,120.383 
  1151.73,120.321 1153.92,120.259 1156.1,120.197 1158.29,120.135 1160.48,120.073 1162.67,120.011 1164.85,119.949 1167.04,119.887 1169.23,119.825 1171.42,119.763 
  1173.6,119.701 1175.79,119.639 1177.98,119.577 1180.17,119.515 1182.36,119.453 1184.54,119.39 1186.73,119.328 1188.92,119.266 1191.11,119.204 1193.29,119.142 
  1195.48,119.08 1197.67,119.018 1199.86,118.956 1202.04,118.894 1204.23,118.832 1206.42,118.77 1208.61,118.708 1210.8,118.646 1212.98,118.584 1215.17,118.522 
  1217.36,118.46 1219.55,118.398 1221.73,118.336 1223.92,118.273 1226.11,118.211 1228.3,118.149 1230.48,118.087 1232.67,118.025 1234.86,117.963 1237.05,117.901 
  1239.23,117.839 1241.42,117.777 1243.61,117.715 1245.8,117.653 1247.99,117.591 1250.17,117.529 1252.36,117.467 1254.55,117.405 1256.74,117.343 1258.92,117.281 
  1261.11,117.219 1263.3,117.157 1265.49,117.095 1267.67,117.032 1269.86,116.97 1272.05,116.908 1274.24,116.846 1276.43,116.784 1278.61,116.722 1280.8,116.66 
  1282.99,116.598 1285.18,116.536 1287.36,116.474 1289.55,116.412 1291.74,116.35 1293.93,116.288 1296.11,116.226 1298.3,116.164 1300.49,116.102 1302.68,116.04 
  1304.86,115.978 1307.05,115.916 1309.24,115.853 1311.43,115.791 1313.62,115.729 1315.8,115.667 1317.99,115.605 1320.18,115.543 1322.37,115.481 1324.55,115.419 
  1326.74,115.357 1328.93,115.295 1331.12,115.233 1333.3,115.171 1335.49,115.109 1337.68,115.047 1339.87,114.985 1342.05,114.923 1344.24,114.861 1346.43,114.799 
  1348.62,114.737 1350.81,114.674 1352.99,114.612 1355.18,114.55 1357.37,114.488 1359.56,114.426 1361.74,114.364 1363.93,114.302 1366.12,114.24 1368.31,114.178 
  1370.49,114.116 1372.68,114.054 1374.87,113.992 1377.06,113.93 1379.25,113.868 1381.43,113.806 1383.62,113.744 1385.81,113.682 1388,113.62 1390.18,113.558 
  1392.37,113.495 1394.56,113.433 1396.75,113.371 1398.93,113.309 1401.12,113.247 1403.31,113.185 1405.5,113.123 1407.68,113.061 1409.87,112.999 1412.06,112.937 
  1414.25,112.875 1416.44,112.813 1418.62,112.751 1420.81,112.689 1423,112.627 1425.19,112.565 1427.37,112.503 1429.56,112.441 1431.75,112.379 1433.94,112.317 
  1436.12,112.254 1438.31,112.192 1440.5,112.13 1442.69,112.068 1444.88,112.006 1447.06,111.944 1449.25,111.882 1451.44,111.82 1453.63,111.758 1455.81,111.696 
  1458,111.634 1460.19,111.572 1462.38,111.51 1464.56,111.448 1466.75,111.386 1468.94,111.324 1471.13,111.262 1473.31,111.2 1475.5,111.138 1477.69,111.075 
  1479.88,111.013 1482.07,110.951 1484.25,110.889 1486.44,110.827 1488.63,110.765 1490.82,110.703 1493,110.641 1495.19,110.579 1497.38,110.517 1499.57,110.455 
  1501.75,110.393 1503.94,110.331 1506.13,110.269 1508.32,110.207 1510.51,110.145 1512.69,110.083 1514.88,110.021 1517.07,109.959 1519.26,109.896 1521.44,109.834 
  1523.63,109.772 1525.82,109.71 1528.01,109.648 1530.19,109.586 1532.38,109.524 1534.57,109.462 1536.76,109.4 1538.94,109.338 1541.13,109.276 1543.32,109.214 
  1545.51,109.152 1547.7,109.09 1549.88,109.028 1552.07,108.966 1554.26,108.904 1556.45,108.842 1558.63,108.78 1560.82,108.717 1563.01,108.655 1565.2,108.593 
  1567.38,108.531 1569.57,108.469 1571.76,108.407 1573.95,108.345 1576.14,108.283 1578.32,108.221 1580.51,108.159 1582.7,108.097 1584.89,108.035 1587.07,107.973 
  1589.26,107.911 1591.45,107.849 1593.64,107.787 1595.82,107.725 1598.01,107.663 1600.2,107.601 1602.39,107.539 1604.57,107.476 1606.76,107.414 1608.95,107.352 
  1611.14,107.29 1613.33,107.228 1615.51,107.166 1617.7,107.104 1619.89,107.042 1622.08,106.98 1624.26,106.918 1626.45,106.856 1628.64,106.794 1630.83,106.732 
  1633.01,106.67 1635.2,106.608 1637.39,106.546 1639.58,106.484 1641.76,106.422 1643.95,106.36 1646.14,106.297 1648.33,106.235 1650.52,106.173 1652.7,106.111 
  1654.89,106.049 1657.08,105.987 1659.27,105.925 1661.45,105.863 1663.64,105.801 1665.83,105.739 1668.02,105.677 1670.2,105.615 1672.39,105.553 1674.58,105.491 
  1676.77,105.429 1678.96,105.367 1681.14,105.305 1683.33,105.243 1685.52,105.181 1687.71,105.118 1689.89,105.056 1692.08,104.994 1694.27,104.932 1696.46,104.87 
  1698.64,104.808 1700.83,104.746 1703.02,104.684 1705.21,104.622 1707.39,104.56 1709.58,104.498 1711.77,104.436 1713.96,104.374 1716.15,104.312 1718.33,104.25 
  1720.52,104.188 1722.71,104.126 1724.9,104.064 1727.08,104.002 1729.27,103.939 1731.46,103.877 1733.65,103.815 1735.83,103.753 1738.02,103.691 1740.21,103.629 
  1742.4,103.567 1744.59,103.505 1746.77,103.443 1748.96,103.381 1751.15,103.319 1753.34,103.257 1755.52,103.195 1757.71,103.133 1759.9,103.071 1762.09,103.009 
  1764.27,102.947 1766.46,102.885 1768.65,102.823 1770.84,102.761 1773.02,102.698 1775.21,102.636 1777.4,102.574 1779.59,102.512 1781.78,102.45 1783.96,102.388 
  1786.15,102.326 1788.34,102.264 1790.53,102.202 1792.71,102.14 1794.9,102.078 1797.09,102.016 1799.28,101.954 1801.46,101.892 1803.65,101.83 1805.84,101.768 
  1808.03,101.706 1810.22,101.644 1812.4,101.582 1814.59,101.519 1816.78,101.457 1818.97,101.395 1821.15,101.333 1823.34,101.271 1825.53,101.209 1827.72,101.147 
  1829.9,101.085 1832.09,101.023 1834.28,100.961 1836.47,100.899 1838.65,100.837 1840.84,100.775 1843.03,100.713 1845.22,100.651 1847.41,100.589 1849.59,100.527 
  1851.78,100.465 1853.97,100.403 1856.16,100.34 1858.34,100.278 1860.53,100.216 1862.72,100.154 1864.91,100.092 1867.09,100.03 1869.28,99.9682 1871.47,99.9061 
  1873.66,99.8441 1875.85,99.782 1878.03,99.72 1880.22,99.6579 1882.41,99.5959 1884.6,99.5338 1886.78,99.4718 1888.97,99.4097 1891.16,99.3477 1893.35,99.2856 
  1895.53,99.2235 1897.72,99.1615 1899.91,99.0994 1902.1,99.0374 1904.28,98.9753 1906.47,98.9133 1908.66,98.8512 1910.85,98.7892 1913.04,98.7271 1915.22,98.6651 
  1917.41,98.603 1919.6,98.541 1921.79,98.4789 1923.97,98.4169 1926.16,98.3548 1928.35,98.2928 1930.54,98.2307 1932.72,98.1687 1934.91,98.1066 1937.1,98.0446 
  1939.29,97.9825 1941.47,97.9205 1943.66,97.8584 1945.85,97.7964 1948.04,97.7343 1950.23,97.6722 1952.41,97.6102 1954.6,97.5481 1956.79,97.4861 1958.98,97.424 
  1961.16,97.362 1963.35,97.2999 1965.54,97.2379 1967.73,97.1758 1969.91,97.1138 1972.1,97.0517 1974.29,96.9897 1976.48,96.9276 1978.67,96.8656 1980.85,96.8035 
  1983.04,96.7415 1985.23,96.6794 1987.42,96.6174 1989.6,96.5553 1991.79,96.4933 1993.98,96.4312 1996.17,96.3692 1998.35,96.3071 2000.54,96.2451 2002.73,96.183 
  2004.92,96.121 2007.1,96.0589 2009.29,95.9968 2011.48,95.9348 2013.67,95.8727 2015.86,95.8107 2018.04,95.7486 2020.23,95.6866 2022.42,95.6245 2024.61,95.5625 
  2026.79,95.5004 2028.98,95.4384 2031.17,95.3763 2033.36,95.3143 2035.54,95.2522 2037.73,95.1902 2039.92,95.1281 2042.11,95.0661 2044.3,95.004 2046.48,94.942 
  2048.67,94.8799 2050.86,94.8179 2053.05,94.7558 2055.23,94.6938 2057.42,94.6317 2059.61,94.5697 2061.8,94.5076 2063.98,94.4455 2066.17,94.3835 2068.36,94.3214 
  2070.55,94.2594 2072.73,94.1973 2074.92,94.1353 2077.11,94.0732 2079.3,94.0112 2081.49,93.9491 2083.67,93.8871 2085.86,93.825 2088.05,93.763 2090.24,93.7009 
  2092.42,93.6389 2094.61,93.5768 2096.8,93.5148 2098.99,93.4527 2101.17,93.3907 2103.36,93.3286 2105.55,93.2666 2107.74,93.2045 2109.93,93.1425 2112.11,93.0804 
  2114.3,93.0184 2116.49,92.9563 2118.68,92.8943 2120.86,92.8322 2123.05,92.7701 2125.24,92.7081 2127.43,92.646 2129.61,92.584 2131.8,92.5219 2133.99,92.4599 
  2136.18,92.3978 2138.36,92.3358 2140.55,92.2737 2142.74,92.2117 2144.93,92.1496 2147.12,92.0876 2149.3,92.0255 2151.49,91.9635 2153.68,91.9014 2155.87,91.8394 
  2158.05,91.7773 2160.24,91.7153 2162.43,91.6532 2164.62,91.5912 2166.8,91.5291 2168.99,91.4671 2171.18,91.405 2173.37,91.343 2175.56,91.2809 2177.74,91.2188 
  2179.93,91.1568 2182.12,91.0947 2184.31,91.0327 2186.49,90.9706 2188.68,90.9086 2190.87,90.8465 2193.06,90.7845 2195.24,90.7224 2197.43,90.6604 2199.62,90.5983 
  2201.81,90.5363 2203.99,90.4742 2206.18,90.4122 2208.37,90.3501 2210.56,90.2881 2212.75,90.226 2214.93,90.164 2217.12,90.1019 2219.31,90.0399 2221.5,89.9778 
  2223.68,89.9158 2225.87,89.8537 2228.06,89.7917 2230.25,89.7296 2232.43,89.6676 2234.62,89.6055 2236.81,89.5434 2239,89.4814 2241.19,89.4193 2243.37,89.3573 
  2245.56,89.2952 2247.75,89.2332 2249.94,89.1711 2252.12,89.1091 2254.31,89.047 2256.5,88.985 2258.69,88.9229 2260.87,88.8609 2263.06,88.7988 2265.25,88.7368 
  2267.44,88.6747 2269.62,88.6127 2271.81,88.5506 2274,88.4886 2276.19,88.4265 2278.38,88.3645 2280.56,88.3024 2282.75,88.2404 2284.94,88.1783 2287.13,88.1163 
  2289.31,88.0542 2291.5,87.9921 2293.69,87.9301 2295.88,87.868 2298.06,87.806 2300.25,87.7439 2302.44,87.6819 2304.63,87.6198 2306.81,87.5578 2309,87.4957 
  2311.19,87.4337 2313.38,87.3716 2315.57,87.3096 2317.75,87.2475 2319.94,87.1855 2322.13,87.1234 2324.32,87.0614 2326.5,86.9993 2328.69,86.9373 2330.88,86.8752 
  2333.07,86.8132 2335.25,86.7511 2337.44,86.6891 2339.63,86.627 2341.82,86.565 2344.01,86.5029 2346.19,86.4408 2348.38,86.3788 2350.57,86.3167 2352.76,86.2547 
  
  "/>
<polygon clip-path="url(#clip7900)" points="
1963.21,372.684 2280.76,372.684 2280.76,130.764 1963.21,130.764 
  " fill="#ffffff" fill-rule="evenodd" fill-opacity="1"/>
<polyline clip-path="url(#clip7900)" style="stroke:#000000; stroke-width:4; stroke-opacity:1; fill:none" points="
  1963.21,372.684 2280.76,372.684 2280.76,130.764 1963.21,130.764 1963.21,372.684 
  "/>
<polyline clip-path="url(#clip7900)" style="stroke:#009af9; stroke-width:12; stroke-opacity:1; fill:none" points="
  1987.21,191.244 2131.21,191.244 
  "/>
<g clip-path="url(#clip7900)">
<text style="fill:#000000; fill-opacity:1; font-family:Arial,Helvetica Neue,Helvetica,sans-serif; font-size:48px; text-anchor:start;" transform="rotate(0, 2155.21, 208.744)" x="2155.21" y="208.744">X(t)</text>
</g>
<polyline clip-path="url(#clip7900)" style="stroke:#e26f46; stroke-width:12; stroke-opacity:1; fill:none" points="
  1987.21,251.724 2131.21,251.724 
  "/>
<g clip-path="url(#clip7900)">
<text style="fill:#000000; fill-opacity:1; font-family:Arial,Helvetica Neue,Helvetica,sans-serif; font-size:48px; text-anchor:start;" transform="rotate(0, 2155.21, 269.224)" x="2155.21" y="269.224">Y(t)</text>
</g>
<polyline clip-path="url(#clip7900)" style="stroke:#3da44d; stroke-width:12; stroke-opacity:1; fill:none" points="
  1987.21,312.204 2131.21,312.204 
  "/>
<g clip-path="url(#clip7900)">
<text style="fill:#000000; fill-opacity:1; font-family:Arial,Helvetica Neue,Helvetica,sans-serif; font-size:48px; text-anchor:start;" transform="rotate(0, 2155.21, 329.704)" x="2155.21" y="329.704">Z(t)</text>
</g>
</svg>
