<?xml version="1.0" encoding="utf-8"?>
<svg xmlns="http://www.w3.org/2000/svg" xmlns:xlink="http://www.w3.org/1999/xlink" width="600" height="400" viewBox="0 0 2400 1600">
<defs>
  <clipPath id="clip0300">
    <rect x="0" y="0" width="2400" height="1600"/>
  </clipPath>
</defs>
<polygon clip-path="url(#clip0300)" points="
0,1600 2400,1600 2400,0 0,0 
  " fill="#ffffff" fill-rule="evenodd" fill-opacity="1"/>
<defs>
  <clipPath id="clip0301">
    <rect x="480" y="0" width="1681" height="1600"/>
  </clipPath>
</defs>
<polygon clip-path="url(#clip0300)" points="
167.279,1425.62 2352.76,1425.62 2352.76,47.2441 167.279,47.2441 
  " fill="#ffffff" fill-rule="evenodd" fill-opacity="1"/>
<defs>
  <clipPath id="clip0302">
    <rect x="167" y="47" width="2186" height="1379"/>
  </clipPath>
</defs>
<polyline clip-path="url(#clip0302)" style="stroke:#000000; stroke-width:2; stroke-opacity:0.1; fill:none" points="
  167.279,1425.62 167.279,47.2441 
  "/>
<polyline clip-path="url(#clip0302)" style="stroke:#000000; stroke-width:2; stroke-opacity:0.1; fill:none" points="
  531.525,1425.62 531.525,47.2441 
  "/>
<polyline clip-path="url(#clip0302)" style="stroke:#000000; stroke-width:2; stroke-opacity:0.1; fill:none" points="
  895.771,1425.62 895.771,47.2441 
  "/>
<polyline clip-path="url(#clip0302)" style="stroke:#000000; stroke-width:2; stroke-opacity:0.1; fill:none" points="
  1260.02,1425.62 1260.02,47.2441 
  "/>
<polyline clip-path="url(#clip0302)" style="stroke:#000000; stroke-width:2; stroke-opacity:0.1; fill:none" points="
  1624.26,1425.62 1624.26,47.2441 
  "/>
<polyline clip-path="url(#clip0302)" style="stroke:#000000; stroke-width:2; stroke-opacity:0.1; fill:none" points="
  1988.51,1425.62 1988.51,47.2441 
  "/>
<polyline clip-path="url(#clip0302)" style="stroke:#000000; stroke-width:2; stroke-opacity:0.1; fill:none" points="
  2352.76,1425.62 2352.76,47.2441 
  "/>
<polyline clip-path="url(#clip0302)" style="stroke:#000000; stroke-width:2; stroke-opacity:0.1; fill:none" points="
  167.279,1386.61 2352.76,1386.61 
  "/>
<polyline clip-path="url(#clip0302)" style="stroke:#000000; stroke-width:2; stroke-opacity:0.1; fill:none" points="
  167.279,1182.72 2352.76,1182.72 
  "/>
<polyline clip-path="url(#clip0302)" style="stroke:#000000; stroke-width:2; stroke-opacity:0.1; fill:none" points="
  167.279,978.839 2352.76,978.839 
  "/>
<polyline clip-path="url(#clip0302)" style="stroke:#000000; stroke-width:2; stroke-opacity:0.1; fill:none" points="
  167.279,774.953 2352.76,774.953 
  "/>
<polyline clip-path="url(#clip0302)" style="stroke:#000000; stroke-width:2; stroke-opacity:0.1; fill:none" points="
  167.279,571.068 2352.76,571.068 
  "/>
<polyline clip-path="url(#clip0302)" style="stroke:#000000; stroke-width:2; stroke-opacity:0.1; fill:none" points="
  167.279,367.182 2352.76,367.182 
  "/>
<polyline clip-path="url(#clip0302)" style="stroke:#000000; stroke-width:2; stroke-opacity:0.1; fill:none" points="
  167.279,163.297 2352.76,163.297 
  "/>
<polyline clip-path="url(#clip0300)" style="stroke:#000000; stroke-width:4; stroke-opacity:1; fill:none" points="
  167.279,1425.62 2352.76,1425.62 
  "/>
<polyline clip-path="url(#clip0300)" style="stroke:#000000; stroke-width:4; stroke-opacity:1; fill:none" points="
  167.279,1425.62 167.279,47.2441 
  "/>
<polyline clip-path="url(#clip0300)" style="stroke:#000000; stroke-width:4; stroke-opacity:1; fill:none" points="
  167.279,1425.62 167.279,1404.94 
  "/>
<polyline clip-path="url(#clip0300)" style="stroke:#000000; stroke-width:4; stroke-opacity:1; fill:none" points="
  531.525,1425.62 531.525,1404.94 
  "/>
<polyline clip-path="url(#clip0300)" style="stroke:#000000; stroke-width:4; stroke-opacity:1; fill:none" points="
  895.771,1425.62 895.771,1404.94 
  "/>
<polyline clip-path="url(#clip0300)" style="stroke:#000000; stroke-width:4; stroke-opacity:1; fill:none" points="
  1260.02,1425.62 1260.02,1404.94 
  "/>
<polyline clip-path="url(#clip0300)" style="stroke:#000000; stroke-width:4; stroke-opacity:1; fill:none" points="
  1624.26,1425.62 1624.26,1404.94 
  "/>
<polyline clip-path="url(#clip0300)" style="stroke:#000000; stroke-width:4; stroke-opacity:1; fill:none" points="
  1988.51,1425.62 1988.51,1404.94 
  "/>
<polyline clip-path="url(#clip0300)" style="stroke:#000000; stroke-width:4; stroke-opacity:1; fill:none" points="
  2352.76,1425.62 2352.76,1404.94 
  "/>
<polyline clip-path="url(#clip0300)" style="stroke:#000000; stroke-width:4; stroke-opacity:1; fill:none" points="
  167.279,1386.61 200.061,1386.61 
  "/>
<polyline clip-path="url(#clip0300)" style="stroke:#000000; stroke-width:4; stroke-opacity:1; fill:none" points="
  167.279,1182.72 200.061,1182.72 
  "/>
<polyline clip-path="url(#clip0300)" style="stroke:#000000; stroke-width:4; stroke-opacity:1; fill:none" points="
  167.279,978.839 200.061,978.839 
  "/>
<polyline clip-path="url(#clip0300)" style="stroke:#000000; stroke-width:4; stroke-opacity:1; fill:none" points="
  167.279,774.953 200.061,774.953 
  "/>
<polyline clip-path="url(#clip0300)" style="stroke:#000000; stroke-width:4; stroke-opacity:1; fill:none" points="
  167.279,571.068 200.061,571.068 
  "/>
<polyline clip-path="url(#clip0300)" style="stroke:#000000; stroke-width:4; stroke-opacity:1; fill:none" points="
  167.279,367.182 200.061,367.182 
  "/>
<polyline clip-path="url(#clip0300)" style="stroke:#000000; stroke-width:4; stroke-opacity:1; fill:none" points="
  167.279,163.297 200.061,163.297 
  "/>
<g clip-path="url(#clip0300)">
<text style="fill:#000000; fill-opacity:1; font-family:Arial,Helvetica Neue,Helvetica,sans-serif; font-size:48px; text-anchor:middle;" transform="rotate(0, 167.279, 1479.62)" x="167.279" y="1479.62">0</text>
</g>
<g clip-path="url(#clip0300)">
<text style="fill:#000000; fill-opacity:1; font-family:Arial,Helvetica Neue,Helvetica,sans-serif; font-size:48px; text-anchor:middle;" transform="rotate(0, 531.525, 1479.62)" x="531.525" y="1479.62">100</text>
</g>
<g clip-path="url(#clip0300)">
<text style="fill:#000000; fill-opacity:1; font-family:Arial,Helvetica Neue,Helvetica,sans-serif; font-size:48px; text-anchor:middle;" transform="rotate(0, 895.771, 1479.62)" x="895.771" y="1479.62">200</text>
</g>
<g clip-path="url(#clip0300)">
<text style="fill:#000000; fill-opacity:1; font-family:Arial,Helvetica Neue,Helvetica,sans-serif; font-size:48px; text-anchor:middle;" transform="rotate(0, 1260.02, 1479.62)" x="1260.02" y="1479.62">300</text>
</g>
<g clip-path="url(#clip0300)">
<text style="fill:#000000; fill-opacity:1; font-family:Arial,Helvetica Neue,Helvetica,sans-serif; font-size:48px; text-anchor:middle;" transform="rotate(0, 1624.26, 1479.62)" x="1624.26" y="1479.62">400</text>
</g>
<g clip-path="url(#clip0300)">
<text style="fill:#000000; fill-opacity:1; font-family:Arial,Helvetica Neue,Helvetica,sans-serif; font-size:48px; text-anchor:middle;" transform="rotate(0, 1988.51, 1479.62)" x="1988.51" y="1479.62">500</text>
</g>
<g clip-path="url(#clip0300)">
<text style="fill:#000000; fill-opacity:1; font-family:Arial,Helvetica Neue,Helvetica,sans-serif; font-size:48px; text-anchor:middle;" transform="rotate(0, 2352.76, 1479.62)" x="2352.76" y="1479.62">600</text>
</g>
<g clip-path="url(#clip0300)">
<text style="fill:#000000; fill-opacity:1; font-family:Arial,Helvetica Neue,Helvetica,sans-serif; font-size:48px; text-anchor:end;" transform="rotate(0, 143.279, 1404.11)" x="143.279" y="1404.11">0</text>
</g>
<g clip-path="url(#clip0300)">
<text style="fill:#000000; fill-opacity:1; font-family:Arial,Helvetica Neue,Helvetica,sans-serif; font-size:48px; text-anchor:end;" transform="rotate(0, 143.279, 1200.22)" x="143.279" y="1200.22">100</text>
</g>
<g clip-path="url(#clip0300)">
<text style="fill:#000000; fill-opacity:1; font-family:Arial,Helvetica Neue,Helvetica,sans-serif; font-size:48px; text-anchor:end;" transform="rotate(0, 143.279, 996.339)" x="143.279" y="996.339">200</text>
</g>
<g clip-path="url(#clip0300)">
<text style="fill:#000000; fill-opacity:1; font-family:Arial,Helvetica Neue,Helvetica,sans-serif; font-size:48px; text-anchor:end;" transform="rotate(0, 143.279, 792.453)" x="143.279" y="792.453">300</text>
</g>
<g clip-path="url(#clip0300)">
<text style="fill:#000000; fill-opacity:1; font-family:Arial,Helvetica Neue,Helvetica,sans-serif; font-size:48px; text-anchor:end;" transform="rotate(0, 143.279, 588.568)" x="143.279" y="588.568">400</text>
</g>
<g clip-path="url(#clip0300)">
<text style="fill:#000000; fill-opacity:1; font-family:Arial,Helvetica Neue,Helvetica,sans-serif; font-size:48px; text-anchor:end;" transform="rotate(0, 143.279, 384.682)" x="143.279" y="384.682">500</text>
</g>
<g clip-path="url(#clip0300)">
<text style="fill:#000000; fill-opacity:1; font-family:Arial,Helvetica Neue,Helvetica,sans-serif; font-size:48px; text-anchor:end;" transform="rotate(0, 143.279, 180.797)" x="143.279" y="180.797">600</text>
</g>
<g clip-path="url(#clip0300)">
<text style="fill:#000000; fill-opacity:1; font-family:Arial,Helvetica Neue,Helvetica,sans-serif; font-size:66px; text-anchor:middle;" transform="rotate(0, 1260.02, 1559.48)" x="1260.02" y="1559.48">t</text>
</g>
<polyline clip-path="url(#clip0302)" style="stroke:#009af9; stroke-width:12; stroke-opacity:1; fill:none" points="
  167.279,163.297 169.467,181.913 171.654,199.987 173.842,217.539 176.03,234.592 178.217,251.166 180.405,267.28 182.593,282.952 184.78,298.2 186.968,313.04 
  189.156,327.487 191.343,341.557 193.531,355.263 195.719,368.62 197.906,381.639 200.094,394.333 202.282,406.714 204.469,418.792 206.657,430.579 208.845,442.084 
  211.032,453.316 213.22,464.287 215.408,475.003 217.595,485.473 219.783,495.706 221.971,505.709 224.158,515.489 226.346,525.055 228.534,534.412 230.721,543.567 
  232.909,552.526 235.097,561.296 237.284,569.881 239.472,578.288 241.66,586.522 243.847,594.588 246.035,602.49 248.223,610.235 250.41,617.825 252.598,625.267 
  254.786,632.563 256.973,639.718 259.161,646.735 261.349,653.62 263.536,660.374 265.724,667.003 267.912,673.508 270.099,679.893 272.287,686.162 274.475,692.318 
  276.662,698.363 278.85,704.3 281.038,710.133 283.225,715.863 285.413,721.493 287.601,727.027 289.788,732.466 291.976,737.812 294.164,743.068 296.351,748.236 
  298.539,753.318 300.727,758.317 302.914,763.233 305.102,768.069 307.29,772.828 309.477,777.509 311.665,782.117 313.853,786.651 316.04,791.114 318.228,795.507 
  320.416,799.833 322.603,804.092 324.791,808.285 326.979,812.415 329.166,816.483 331.354,820.49 333.542,824.438 335.729,828.327 337.917,832.159 340.105,835.935 
  342.292,839.656 344.48,843.323 346.668,846.938 348.855,850.502 351.043,854.015 353.231,857.479 355.418,860.894 357.606,864.262 359.794,867.583 361.981,870.858 
  364.169,874.089 366.357,877.276 368.544,880.42 370.732,883.522 372.92,886.582 375.107,889.601 377.295,892.581 379.483,895.522 381.67,898.424 383.858,901.289 
  386.046,904.117 388.233,906.908 390.421,909.664 392.609,912.385 394.796,915.072 396.984,917.725 399.172,920.345 401.359,922.933 403.547,925.488 405.735,928.012 
  407.922,930.505 410.11,932.968 412.298,935.401 414.485,937.805 416.673,940.18 418.861,942.527 421.048,944.845 423.236,947.137 425.424,949.401 427.611,951.639 
  429.799,953.851 431.987,956.037 434.174,958.198 436.362,960.334 438.55,962.445 440.737,964.533 442.925,966.597 445.113,968.638 447.3,970.655 449.488,972.651 
  451.676,974.624 453.863,976.575 456.051,978.505 458.239,980.414 460.426,982.302 462.614,984.169 464.802,986.016 466.989,987.844 469.177,989.652 471.365,991.44 
  473.552,993.21 475.74,994.961 477.927,996.693 480.115,998.407 482.303,1000.1 484.49,1001.78 486.678,1003.44 488.866,1005.09 491.053,1006.71 493.241,1008.33 
  495.429,1009.92 497.616,1011.5 499.804,1013.06 501.992,1014.61 504.179,1016.14 506.367,1017.65 508.555,1019.15 510.742,1020.64 512.93,1022.11 515.118,1023.57 
  517.305,1025.01 519.493,1026.43 521.681,1027.85 523.868,1029.25 526.056,1030.64 528.244,1032.01 530.431,1033.37 532.619,1034.72 534.807,1036.05 536.994,1037.37 
  539.182,1038.68 541.37,1039.98 543.557,1041.26 545.745,1042.53 547.933,1043.79 550.12,1045.04 552.308,1046.28 554.496,1047.51 556.683,1048.72 558.871,1049.92 
  561.059,1051.12 563.246,1052.3 565.434,1053.47 567.622,1054.63 569.809,1055.78 571.997,1056.92 574.185,1058.05 576.372,1059.17 578.56,1060.28 580.748,1061.38 
  582.935,1062.47 585.123,1063.55 587.311,1064.62 589.498,1065.68 591.686,1066.74 593.874,1067.78 596.061,1068.81 598.249,1069.84 600.437,1070.85 602.624,1071.86 
  604.812,1072.86 607,1073.85 609.187,1074.83 611.375,1075.81 613.563,1076.77 615.75,1077.73 617.938,1078.68 620.126,1079.62 622.313,1080.56 624.501,1081.48 
  626.689,1082.4 628.876,1083.31 631.064,1084.21 633.252,1085.11 635.439,1086 637.627,1086.88 639.815,1087.75 642.002,1088.62 644.19,1089.48 646.378,1090.33 
  648.565,1091.17 650.753,1092.01 652.941,1092.84 655.128,1093.67 657.316,1094.49 659.504,1095.3 661.691,1096.11 663.879,1096.91 666.067,1097.7 668.254,1098.48 
  670.442,1099.27 672.63,1100.04 674.817,1100.81 677.005,1101.57 679.193,1102.33 681.38,1103.08 683.568,1103.82 685.756,1104.56 687.943,1105.29 690.131,1106.02 
  692.319,1106.74 694.506,1107.46 696.694,1108.17 698.882,1108.88 701.069,1109.58 703.257,1110.27 705.445,1110.96 707.632,1111.65 709.82,1112.33 712.008,1113 
  714.195,1113.67 716.383,1114.34 718.571,1115 720.758,1115.65 722.946,1116.3 725.134,1116.95 727.321,1117.59 729.509,1118.22 731.697,1118.85 733.884,1119.48 
  736.072,1120.1 738.26,1120.72 740.447,1121.33 742.635,1121.94 744.823,1122.54 747.01,1123.14 749.198,1123.74 751.386,1124.33 753.573,1124.91 755.761,1125.5 
  757.949,1126.07 760.136,1126.65 762.324,1127.22 764.512,1127.78 766.699,1128.35 768.887,1128.9 771.075,1129.46 773.262,1130.01 775.45,1130.55 777.638,1131.1 
  779.825,1131.63 782.013,1132.17 784.201,1132.7 786.388,1133.23 788.576,1133.75 790.764,1134.27 792.951,1134.79 795.139,1135.3 797.326,1135.81 799.514,1136.31 
  801.702,1136.82 803.889,1137.32 806.077,1137.81 808.265,1138.3 810.452,1138.79 812.64,1139.28 814.828,1139.76 817.015,1140.24 819.203,1140.71 821.391,1141.19 
  823.578,1141.65 825.766,1142.12 827.954,1142.58 830.141,1143.04 832.329,1143.5 834.517,1143.95 836.704,1144.4 838.892,1144.85 841.08,1145.3 843.267,1145.74 
  845.455,1146.18 847.643,1146.61 849.83,1147.05 852.018,1147.48 854.206,1147.9 856.393,1148.33 858.581,1148.75 860.769,1149.17 862.956,1149.59 865.144,1150 
  867.332,1150.41 869.519,1150.82 871.707,1151.22 873.895,1151.63 876.082,1152.03 878.27,1152.42 880.458,1152.82 882.645,1153.21 884.833,1153.6 887.021,1153.99 
  889.208,1154.38 891.396,1154.76 893.584,1155.14 895.771,1155.52 897.959,1155.89 900.147,1156.27 902.334,1156.64 904.522,1157 906.71,1157.37 908.897,1157.73 
  911.085,1158.1 913.273,1158.46 915.46,1158.81 917.648,1159.17 919.836,1159.52 922.023,1159.87 924.211,1160.22 926.399,1160.56 928.586,1160.91 930.774,1161.25 
  932.962,1161.59 935.149,1161.93 937.337,1162.26 939.525,1162.59 941.712,1162.93 943.9,1163.26 946.088,1163.58 948.275,1163.91 950.463,1164.23 952.651,1164.55 
  954.838,1164.87 957.026,1165.19 959.214,1165.5 961.401,1165.82 963.589,1166.13 965.777,1166.44 967.964,1166.75 970.152,1167.05 972.34,1167.35 974.527,1167.66 
  976.715,1167.96 978.903,1168.26 981.09,1168.55 983.278,1168.85 985.466,1169.14 987.653,1169.43 989.841,1169.72 992.029,1170.01 994.216,1170.3 996.404,1170.58 
  998.592,1170.86 1000.78,1171.14 1002.97,1171.42 1005.15,1171.7 1007.34,1171.98 1009.53,1172.25 1011.72,1172.52 1013.91,1172.79 1016.09,1173.06 1018.28,1173.33 
  1020.47,1173.6 1022.66,1173.86 1024.84,1174.13 1027.03,1174.39 1029.22,1174.65 1031.41,1174.91 1033.59,1175.17 1035.78,1175.42 1037.97,1175.68 1040.16,1175.93 
  1042.34,1176.18 1044.53,1176.43 1046.72,1176.68 1048.91,1176.92 1051.1,1177.17 1053.28,1177.41 1055.47,1177.66 1057.66,1177.9 1059.85,1178.14 1062.03,1178.38 
  1064.22,1178.61 1066.41,1178.85 1068.6,1179.08 1070.78,1179.32 1072.97,1179.55 1075.16,1179.78 1077.35,1180.01 1079.54,1180.24 1081.72,1180.46 1083.91,1180.69 
  1086.1,1180.91 1088.29,1181.14 1090.47,1181.36 1092.66,1181.58 1094.85,1181.8 1097.04,1182.01 1099.22,1182.23 1101.41,1182.45 1103.6,1182.66 1105.79,1182.87 
  1107.97,1183.08 1110.16,1183.29 1112.35,1183.5 1114.54,1183.71 1116.73,1183.92 1118.91,1184.13 1121.1,1184.33 1123.29,1184.53 1125.48,1184.74 1127.66,1184.94 
  1129.85,1185.14 1132.04,1185.34 1134.23,1185.53 1136.41,1185.73 1138.6,1185.93 1140.79,1186.12 1142.98,1186.31 1145.17,1186.51 1147.35,1186.7 1149.54,1186.89 
  1151.73,1187.08 1153.92,1187.27 1156.1,1187.45 1158.29,1187.64 1160.48,1187.83 1162.67,1188.01 1164.85,1188.19 1167.04,1188.37 1169.23,1188.56 1171.42,1188.74 
  1173.6,1188.92 1175.79,1189.09 1177.98,1189.27 1180.17,1189.45 1182.36,1189.62 1184.54,1189.8 1186.73,1189.97 1188.92,1190.14 1191.11,1190.31 1193.29,1190.48 
  1195.48,1190.65 1197.67,1190.82 1199.86,1190.99 1202.04,1191.16 1204.23,1191.32 1206.42,1191.49 1208.61,1191.65 1210.8,1191.82 1212.98,1191.98 1215.17,1192.14 
  1217.36,1192.3 1219.55,1192.46 1221.73,1192.62 1223.92,1192.78 1226.11,1192.93 1228.3,1193.09 1230.48,1193.25 1232.67,1193.4 1234.86,1193.55 1237.05,1193.71 
  1239.23,1193.86 1241.42,1194.01 1243.61,1194.16 1245.8,1194.31 1247.99,1194.46 1250.17,1194.61 1252.36,1194.76 1254.55,1194.9 1256.74,1195.05 1258.92,1195.19 
  1261.11,1195.34 1263.3,1195.48 1265.49,1195.63 1267.67,1195.77 1269.86,1195.91 1272.05,1196.05 1274.24,1196.19 1276.43,1196.33 1278.61,1196.47 1280.8,1196.6 
  1282.99,1196.74 1285.18,1196.88 1287.36,1197.01 1289.55,1197.15 1291.74,1197.28 1293.93,1197.42 1296.11,1197.55 1298.3,1197.68 1300.49,1197.81 1302.68,1197.94 
  1304.86,1198.07 1307.05,1198.2 1309.24,1198.33 1311.43,1198.46 1313.62,1198.59 1315.8,1198.71 1317.99,1198.84 1320.18,1198.96 1322.37,1199.09 1324.55,1199.21 
  1326.74,1199.33 1328.93,1199.46 1331.12,1199.58 1333.3,1199.7 1335.49,1199.82 1337.68,1199.94 1339.87,1200.06 1342.05,1200.18 1344.24,1200.3 1346.43,1200.42 
  1348.62,1200.53 1350.81,1200.65 1352.99,1200.77 1355.18,1200.88 1357.37,1201 1359.56,1201.11 1361.74,1201.22 1363.93,1201.34 1366.12,1201.45 1368.31,1201.56 
  1370.49,1201.67 1372.68,1201.78 1374.87,1201.89 1377.06,1202 1379.25,1202.11 1381.43,1202.22 1383.62,1202.33 1385.81,1202.44 1388,1202.54 1390.18,1202.65 
  1392.37,1202.76 1394.56,1202.86 1396.75,1202.96 1398.93,1203.07 1401.12,1203.17 1403.31,1203.28 1405.5,1203.38 1407.68,1203.48 1409.87,1203.58 1412.06,1203.68 
  1414.25,1203.78 1416.44,1203.88 1418.62,1203.98 1420.81,1204.08 1423,1204.18 1425.19,1204.28 1427.37,1204.38 1429.56,1204.47 1431.75,1204.57 1433.94,1204.66 
  1436.12,1204.76 1438.31,1204.86 1440.5,1204.95 1442.69,1205.04 1444.88,1205.14 1447.06,1205.23 1449.25,1205.32 1451.44,1205.42 1453.63,1205.51 1455.81,1205.6 
  1458,1205.69 1460.19,1205.78 1462.38,1205.87 1464.56,1205.96 1466.75,1206.05 1468.94,1206.14 1471.13,1206.22 1473.31,1206.31 1475.5,1206.4 1477.69,1206.49 
  1479.88,1206.57 1482.07,1206.66 1484.25,1206.74 1486.44,1206.83 1488.63,1206.91 1490.82,1207 1493,1207.08 1495.19,1207.16 1497.38,1207.25 1499.57,1207.33 
  1501.75,1207.41 1503.94,1207.49 1506.13,1207.58 1508.32,1207.66 1510.51,1207.74 1512.69,1207.82 1514.88,1207.9 1517.07,1207.98 1519.26,1208.06 1521.44,1208.13 
  1523.63,1208.21 1525.82,1208.29 1528.01,1208.37 1530.19,1208.44 1532.38,1208.52 1534.57,1208.6 1536.76,1208.67 1538.94,1208.75 1541.13,1208.82 1543.32,1208.9 
  1545.51,1208.97 1547.7,1209.05 1549.88,1209.12 1552.07,1209.19 1554.26,1209.27 1556.45,1209.34 1558.63,1209.41 1560.82,1209.48 1563.01,1209.55 1565.2,1209.63 
  1567.38,1209.7 1569.57,1209.77 1571.76,1209.84 1573.95,1209.91 1576.14,1209.98 1578.32,1210.04 1580.51,1210.11 1582.7,1210.18 1584.89,1210.25 1587.07,1210.32 
  1589.26,1210.39 1591.45,1210.45 1593.64,1210.52 1595.82,1210.59 1598.01,1210.65 1600.2,1210.72 1602.39,1210.78 1604.57,1210.85 1606.76,1210.91 1608.95,1210.98 
  1611.14,1211.04 1613.33,1211.11 1615.51,1211.17 1617.7,1211.23 1619.89,1211.3 1622.08,1211.36 1624.26,1211.42 1626.45,1211.48 1628.64,1211.54 1630.83,1211.61 
  1633.01,1211.67 1635.2,1211.73 1637.39,1211.79 1639.58,1211.85 1641.76,1211.91 1643.95,1211.97 1646.14,1212.03 1648.33,1212.09 1650.52,1212.15 1652.7,1212.2 
  1654.89,1212.26 1657.08,1212.32 1659.27,1212.38 1661.45,1212.44 1663.64,1212.49 1665.83,1212.55 1668.02,1212.61 1670.2,1212.66 1672.39,1212.72 1674.58,1212.77 
  1676.77,1212.83 1678.96,1212.89 1681.14,1212.94 1683.33,1213 1685.52,1213.05 1687.71,1213.1 1689.89,1213.16 1692.08,1213.21 1694.27,1213.27 1696.46,1213.32 
  1698.64,1213.37 1700.83,1213.42 1703.02,1213.48 1705.21,1213.53 1707.39,1213.58 1709.58,1213.63 1711.77,1213.68 1713.96,1213.73 1716.15,1213.79 1718.33,1213.84 
  1720.52,1213.89 1722.71,1213.94 1724.9,1213.99 1727.08,1214.04 1729.27,1214.09 1731.46,1214.14 1733.65,1214.18 1735.83,1214.23 1738.02,1214.28 1740.21,1214.33 
  1742.4,1214.38 1744.59,1214.43 1746.77,1214.47 1748.96,1214.52 1751.15,1214.57 1753.34,1214.62 1755.52,1214.66 1757.71,1214.71 1759.9,1214.75 1762.09,1214.8 
  1764.27,1214.85 1766.46,1214.89 1768.65,1214.94 1770.84,1214.98 1773.02,1215.03 1775.21,1215.07 1777.4,1215.12 1779.59,1215.16 1781.78,1215.21 1783.96,1215.25 
  1786.15,1215.29 1788.34,1215.34 1790.53,1215.38 1792.71,1215.42 1794.9,1215.47 1797.09,1215.51 1799.28,1215.55 1801.46,1215.59 1803.65,1215.63 1805.84,1215.68 
  1808.03,1215.72 1810.22,1215.76 1812.4,1215.8 1814.59,1215.84 1816.78,1215.88 1818.97,1215.92 1821.15,1215.96 1823.34,1216 1825.53,1216.04 1827.72,1216.08 
  1829.9,1216.12 1832.09,1216.16 1834.28,1216.2 1836.47,1216.24 1838.65,1216.28 1840.84,1216.32 1843.03,1216.36 1845.22,1216.4 1847.41,1216.43 1849.59,1216.47 
  1851.78,1216.51 1853.97,1216.55 1856.16,1216.59 1858.34,1216.62 1860.53,1216.66 1862.72,1216.7 1864.91,1216.73 1867.09,1216.77 1869.28,1216.81 1871.47,1216.84 
  1873.66,1216.88 1875.85,1216.92 1878.03,1216.95 1880.22,1216.99 1882.41,1217.02 1884.6,1217.06 1886.78,1217.09 1888.97,1217.13 1891.16,1217.16 1893.35,1217.2 
  1895.53,1217.23 1897.72,1217.27 1899.91,1217.3 1902.1,1217.33 1904.28,1217.37 1906.47,1217.4 1908.66,1217.43 1910.85,1217.47 1913.04,1217.5 1915.22,1217.53 
  1917.41,1217.57 1919.6,1217.6 1921.79,1217.63 1923.97,1217.66 1926.16,1217.7 1928.35,1217.73 1930.54,1217.76 1932.72,1217.79 1934.91,1217.82 1937.1,1217.86 
  1939.29,1217.89 1941.47,1217.92 1943.66,1217.95 1945.85,1217.98 1948.04,1218.01 1950.23,1218.04 1952.41,1218.07 1954.6,1218.1 1956.79,1218.13 1958.98,1218.16 
  1961.16,1218.19 1963.35,1218.22 1965.54,1218.25 1967.73,1218.28 1969.91,1218.31 1972.1,1218.34 1974.29,1218.37 1976.48,1218.4 1978.67,1218.43 1980.85,1218.46 
  1983.04,1218.48 1985.23,1218.51 1987.42,1218.54 1989.6,1218.57 1991.79,1218.6 1993.98,1218.63 1996.17,1218.65 1998.35,1218.68 2000.54,1218.71 2002.73,1218.74 
  2004.92,1218.76 2007.1,1218.79 2009.29,1218.82 2011.48,1218.84 2013.67,1218.87 2015.86,1218.9 2018.04,1218.92 2020.23,1218.95 2022.42,1218.98 2024.61,1219 
  2026.79,1219.03 2028.98,1219.05 2031.17,1219.08 2033.36,1219.11 2035.54,1219.13 2037.73,1219.16 2039.92,1219.18 2042.11,1219.21 2044.3,1219.23 2046.48,1219.26 
  2048.67,1219.28 2050.86,1219.31 2053.05,1219.33 2055.23,1219.36 2057.42,1219.38 2059.61,1219.41 2061.8,1219.43 2063.98,1219.45 2066.17,1219.48 2068.36,1219.5 
  2070.55,1219.52 2072.73,1219.55 2074.92,1219.57 2077.11,1219.6 2079.3,1219.62 2081.49,1219.64 2083.67,1219.66 2085.86,1219.69 2088.05,1219.71 2090.24,1219.73 
  2092.42,1219.76 2094.61,1219.78 2096.8,1219.8 2098.99,1219.82 2101.17,1219.85 2103.36,1219.87 2105.55,1219.89 2107.74,1219.91 2109.93,1219.93 2112.11,1219.96 
  2114.3,1219.98 2116.49,1220 2118.68,1220.02 2120.86,1220.04 2123.05,1220.06 2125.24,1220.08 2127.43,1220.1 2129.61,1220.13 2131.8,1220.15 2133.99,1220.17 
  2136.18,1220.19 2138.36,1220.21 2140.55,1220.23 2142.74,1220.25 2144.93,1220.27 2147.12,1220.29 2149.3,1220.31 2151.49,1220.33 2153.68,1220.35 2155.87,1220.37 
  2158.05,1220.39 2160.24,1220.41 2162.43,1220.43 2164.62,1220.45 2166.8,1220.47 2168.99,1220.49 2171.18,1220.51 2173.37,1220.52 2175.56,1220.54 2177.74,1220.56 
  2179.93,1220.58 2182.12,1220.6 2184.31,1220.62 2186.49,1220.64 2188.68,1220.66 2190.87,1220.67 2193.06,1220.69 2195.24,1220.71 2197.43,1220.73 2199.62,1220.75 
  2201.81,1220.76 2203.99,1220.78 2206.18,1220.8 2208.37,1220.82 2210.56,1220.84 2212.75,1220.85 2214.93,1220.87 2217.12,1220.89 2219.31,1220.9 2221.5,1220.92 
  2223.68,1220.94 2225.87,1220.96 2228.06,1220.97 2230.25,1220.99 2232.43,1221.01 2234.62,1221.02 2236.81,1221.04 2239,1221.06 2241.19,1221.07 2243.37,1221.09 
  2245.56,1221.11 2247.75,1221.12 2249.94,1221.14 2252.12,1221.15 2254.31,1221.17 2256.5,1221.19 2258.69,1221.2 2260.87,1221.22 2263.06,1221.23 2265.25,1221.25 
  2267.44,1221.27 2269.62,1221.28 2271.81,1221.3 2274,1221.31 2276.19,1221.33 2278.38,1221.34 2280.56,1221.36 2282.75,1221.37 2284.94,1221.39 2287.13,1221.4 
  2289.31,1221.42 2291.5,1221.43 2293.69,1221.45 2295.88,1221.46 2298.06,1221.48 2300.25,1221.49 2302.44,1221.51 2304.63,1221.52 2306.81,1221.54 2309,1221.55 
  2311.19,1221.56 2313.38,1221.58 2315.57,1221.59 2317.75,1221.61 2319.94,1221.62 2322.13,1221.63 2324.32,1221.65 2326.5,1221.66 2328.69,1221.68 2330.88,1221.69 
  2333.07,1221.7 2335.25,1221.72 2337.44,1221.73 2339.63,1221.74 2341.82,1221.76 2344.01,1221.77 2346.19,1221.78 2348.38,1221.8 2350.57,1221.81 2352.76,1221.82 
  
  "/>
<polyline clip-path="url(#clip0302)" style="stroke:#e26f46; stroke-width:12; stroke-opacity:1; fill:none" points="
  167.279,1386.61 169.467,1367.66 171.654,1349.34 173.842,1331.6 176.03,1314.44 178.217,1297.82 180.405,1281.73 182.593,1266.15 184.78,1251.05 186.968,1236.42 
  189.156,1222.24 191.343,1208.5 193.531,1195.17 195.719,1182.25 197.906,1169.72 200.094,1157.56 202.282,1145.76 204.469,1134.31 206.657,1123.2 208.845,1112.41 
  211.032,1101.94 213.22,1091.78 215.408,1081.91 217.595,1072.32 219.783,1063.01 221.971,1053.96 224.158,1045.18 226.346,1036.64 228.534,1028.35 230.721,1020.29 
  232.909,1012.46 235.097,1004.86 237.284,997.462 239.472,990.276 241.66,983.291 243.847,976.502 246.035,969.904 248.223,963.49 250.41,957.256 252.598,951.195 
  254.786,945.304 256.973,939.578 259.161,934.012 261.349,928.601 263.536,923.341 265.724,918.229 267.912,913.26 270.099,908.431 272.287,903.738 274.475,899.177 
  276.662,894.744 278.85,890.437 281.038,886.252 283.225,882.186 285.413,878.235 287.601,874.398 289.788,870.67 291.976,867.05 294.164,863.534 296.351,860.121 
  298.539,856.807 300.727,853.589 302.914,850.467 305.102,847.437 307.29,844.498 309.477,841.646 311.665,838.881 313.853,836.199 316.04,833.599 318.228,831.08 
  320.416,828.638 322.603,826.273 324.791,823.982 326.979,821.764 329.166,819.617 331.354,817.539 333.542,815.53 335.729,813.586 337.917,811.707 340.105,809.892 
  342.292,808.139 344.48,806.447 346.668,804.813 348.855,803.238 351.043,801.719 353.231,800.256 355.418,798.847 357.606,797.491 359.794,796.187 361.981,794.934 
  364.169,793.73 366.357,792.576 368.544,791.468 370.732,790.408 372.92,789.393 375.107,788.423 377.295,787.496 379.483,786.612 381.67,785.77 383.858,784.969 
  386.046,784.208 388.233,783.486 390.421,782.803 392.609,782.157 394.796,781.548 396.984,780.975 399.172,780.438 401.359,779.935 403.547,779.466 405.735,779.03 
  407.922,778.627 410.11,778.256 412.298,777.916 414.485,777.607 416.673,777.327 418.861,777.077 421.048,776.856 423.236,776.663 425.424,776.498 427.611,776.36 
  429.799,776.248 431.987,776.163 434.174,776.103 436.362,776.068 438.55,776.057 440.737,776.071 442.925,776.108 445.113,776.169 447.3,776.251 449.488,776.356 
  451.676,776.483 453.863,776.631 456.051,776.8 458.239,776.989 460.426,777.198 462.614,777.427 464.802,777.675 466.989,777.942 469.177,778.227 471.365,778.53 
  473.552,778.851 475.74,779.19 477.927,779.545 480.115,779.917 482.303,780.306 484.49,780.71 486.678,781.131 488.866,781.566 491.053,782.017 493.241,782.483 
  495.429,782.963 497.616,783.457 499.804,783.965 501.992,784.487 504.179,785.023 506.367,785.571 508.555,786.132 510.742,786.706 512.93,787.292 515.118,787.891 
  517.305,788.501 519.493,789.123 521.681,789.756 523.868,790.401 526.056,791.056 528.244,791.722 530.431,792.399 532.619,793.085 534.807,793.782 536.994,794.489 
  539.182,795.205 541.37,795.931 543.557,796.666 545.745,797.41 547.933,798.163 550.12,798.924 552.308,799.694 554.496,800.472 556.683,801.259 558.871,802.053 
  561.059,802.855 563.246,803.664 565.434,804.481 567.622,805.305 569.809,806.137 571.997,806.975 574.185,807.82 576.372,808.671 578.56,809.529 580.748,810.394 
  582.935,811.264 585.123,812.141 587.311,813.023 589.498,813.912 591.686,814.806 593.874,815.705 596.061,816.61 598.249,817.52 600.437,818.436 602.624,819.356 
  604.812,820.281 607,821.211 609.187,822.145 611.375,823.085 613.563,824.028 615.75,824.976 617.938,825.928 620.126,826.884 622.313,827.844 624.501,828.809 
  626.689,829.777 628.876,830.748 631.064,831.723 633.252,832.702 635.439,833.684 637.627,834.67 639.815,835.659 642.002,836.65 644.19,837.645 646.378,838.643 
  648.565,839.644 650.753,840.647 652.941,841.653 655.128,842.662 657.316,843.673 659.504,844.687 661.691,845.703 663.879,846.722 666.067,847.742 668.254,848.765 
  670.442,849.79 672.63,850.816 674.817,851.845 677.005,852.875 679.193,853.907 681.38,854.941 683.568,855.977 685.756,857.014 687.943,858.052 690.131,859.092 
  692.319,860.133 694.506,861.176 696.694,862.22 698.882,863.265 701.069,864.311 703.257,865.358 705.445,866.406 707.632,867.455 709.82,868.505 712.008,869.556 
  714.195,870.608 716.383,871.66 718.571,872.713 720.758,873.767 722.946,874.821 725.134,875.876 727.321,876.931 729.509,877.987 731.697,879.043 733.884,880.1 
  736.072,881.157 738.26,882.214 740.447,883.271 742.635,884.328 744.823,885.386 747.01,886.443 749.198,887.501 751.386,888.559 753.573,889.616 755.761,890.674 
  757.949,891.731 760.136,892.789 762.324,893.846 764.512,894.903 766.699,895.959 768.887,897.016 771.075,898.072 773.262,899.128 775.45,900.183 777.638,901.238 
  779.825,902.293 782.013,903.347 784.201,904.4 786.388,905.453 788.576,906.505 790.764,907.557 792.951,908.608 795.139,909.659 797.326,910.708 799.514,911.757 
  801.702,912.806 803.889,913.853 806.077,914.9 808.265,915.946 810.452,916.991 812.64,918.035 814.828,919.078 817.015,920.12 819.203,921.161 821.391,922.201 
  823.578,923.24 825.766,924.279 827.954,925.316 830.141,926.352 832.329,927.387 834.517,928.42 836.704,929.453 838.892,930.484 841.08,931.514 843.267,932.543 
  845.455,933.571 847.643,934.597 849.83,935.623 852.018,936.647 854.206,937.669 856.393,938.69 858.581,939.71 860.769,940.729 862.956,941.746 865.144,942.761 
  867.332,943.776 869.519,944.788 871.707,945.8 873.895,946.81 876.082,947.818 878.27,948.825 880.458,949.831 882.645,950.834 884.833,951.837 887.021,952.838 
  889.208,953.837 891.396,954.835 893.584,955.831 895.771,956.825 897.959,957.818 900.147,958.809 902.334,959.799 904.522,960.787 906.71,961.773 908.897,962.757 
  911.085,963.74 913.273,964.721 915.46,965.701 917.648,966.679 919.836,967.655 922.023,968.629 924.211,969.601 926.399,970.572 928.586,971.541 930.774,972.508 
  932.962,973.474 935.149,974.437 937.337,975.399 939.525,976.359 941.712,977.317 943.9,978.274 946.088,979.228 948.275,980.181 950.463,981.132 952.651,982.081 
  954.838,983.028 957.026,983.973 959.214,984.917 961.401,985.858 963.589,986.798 965.777,987.735 967.964,988.671 970.152,989.605 972.34,990.537 974.527,991.467 
  976.715,992.395 978.903,993.322 981.09,994.246 983.278,995.168 985.466,996.089 987.653,997.007 989.841,997.924 992.029,998.838 994.216,999.751 996.404,1000.66 
  998.592,1001.57 1000.78,1002.48 1002.97,1003.38 1005.15,1004.28 1007.34,1005.18 1009.53,1006.08 1011.72,1006.98 1013.91,1007.87 1016.09,1008.77 1018.28,1009.66 
  1020.47,1010.55 1022.66,1011.43 1024.84,1012.32 1027.03,1013.2 1029.22,1014.08 1031.41,1014.96 1033.59,1015.83 1035.78,1016.71 1037.97,1017.58 1040.16,1018.45 
  1042.34,1019.32 1044.53,1020.19 1046.72,1021.05 1048.91,1021.91 1051.1,1022.77 1053.28,1023.63 1055.47,1024.49 1057.66,1025.34 1059.85,1026.19 1062.03,1027.04 
  1064.22,1027.89 1066.41,1028.73 1068.6,1029.58 1070.78,1030.42 1072.97,1031.26 1075.16,1032.09 1077.35,1032.93 1079.54,1033.76 1081.72,1034.59 1083.91,1035.42 
  1086.1,1036.25 1088.29,1037.07 1090.47,1037.9 1092.66,1038.72 1094.85,1039.54 1097.04,1040.35 1099.22,1041.17 1101.41,1041.98 1103.6,1042.79 1105.79,1043.6 
  1107.97,1044.41 1110.16,1045.21 1112.35,1046.01 1114.54,1046.81 1116.73,1047.61 1118.91,1048.4 1121.1,1049.2 1123.29,1049.99 1125.48,1050.78 1127.66,1051.57 
  1129.85,1052.35 1132.04,1053.14 1134.23,1053.92 1136.41,1054.7 1138.6,1055.47 1140.79,1056.25 1142.98,1057.02 1145.17,1057.79 1147.35,1058.56 1149.54,1059.33 
  1151.73,1060.1 1153.92,1060.86 1156.1,1061.62 1158.29,1062.38 1160.48,1063.13 1162.67,1063.89 1164.85,1064.64 1167.04,1065.39 1169.23,1066.14 1171.42,1066.89 
  1173.6,1067.63 1175.79,1068.38 1177.98,1069.12 1180.17,1069.86 1182.36,1070.59 1184.54,1071.33 1186.73,1072.06 1188.92,1072.79 1191.11,1073.52 1193.29,1074.24 
  1195.48,1074.97 1197.67,1075.69 1199.86,1076.41 1202.04,1077.13 1204.23,1077.85 1206.42,1078.56 1208.61,1079.27 1210.8,1079.98 1212.98,1080.69 1215.17,1081.4 
  1217.36,1082.1 1219.55,1082.81 1221.73,1083.51 1223.92,1084.21 1226.11,1084.9 1228.3,1085.6 1230.48,1086.29 1232.67,1086.98 1234.86,1087.67 1237.05,1088.36 
  1239.23,1089.04 1241.42,1089.73 1243.61,1090.41 1245.8,1091.09 1247.99,1091.76 1250.17,1092.44 1252.36,1093.11 1254.55,1093.78 1256.74,1094.45 1258.92,1095.12 
  1261.11,1095.78 1263.3,1096.45 1265.49,1097.11 1267.67,1097.77 1269.86,1098.43 1272.05,1099.08 1274.24,1099.74 1276.43,1100.39 1278.61,1101.04 1280.8,1101.69 
  1282.99,1102.33 1285.18,1102.98 1287.36,1103.62 1289.55,1104.26 1291.74,1104.9 1293.93,1105.54 1296.11,1106.17 1298.3,1106.81 1300.49,1107.44 1302.68,1108.07 
  1304.86,1108.7 1307.05,1109.32 1309.24,1109.95 1311.43,1110.57 1313.62,1111.19 1315.8,1111.81 1317.99,1112.42 1320.18,1113.04 1322.37,1113.65 1324.55,1114.26 
  1326.74,1114.87 1328.93,1115.48 1331.12,1116.08 1333.3,1116.69 1335.49,1117.29 1337.68,1117.89 1339.87,1118.49 1342.05,1119.08 1344.24,1119.68 1346.43,1120.27 
  1348.62,1120.86 1350.81,1121.45 1352.99,1122.04 1355.18,1122.63 1357.37,1123.21 1359.56,1123.79 1361.74,1124.37 1363.93,1124.95 1366.12,1125.53 1368.31,1126.1 
  1370.49,1126.68 1372.68,1127.25 1374.87,1127.82 1377.06,1128.39 1379.25,1128.95 1381.43,1129.52 1383.62,1130.08 1385.81,1130.64 1388,1131.2 1390.18,1131.76 
  1392.37,1132.32 1394.56,1132.87 1396.75,1133.42 1398.93,1133.97 1401.12,1134.52 1403.31,1135.07 1405.5,1135.62 1407.68,1136.16 1409.87,1136.7 1412.06,1137.25 
  1414.25,1137.78 1416.44,1138.32 1418.62,1138.86 1420.81,1139.39 1423,1139.93 1425.19,1140.46 1427.37,1140.99 1429.56,1141.51 1431.75,1142.04 1433.94,1142.56 
  1436.12,1143.09 1438.31,1143.61 1440.5,1144.13 1442.69,1144.65 1444.88,1145.16 1447.06,1145.68 1449.25,1146.19 1451.44,1146.7 1453.63,1147.21 1455.81,1147.72 
  1458,1148.23 1460.19,1148.73 1462.38,1149.23 1464.56,1149.74 1466.75,1150.24 1468.94,1150.74 1471.13,1151.23 1473.31,1151.73 1475.5,1152.22 1477.69,1152.72 
  1479.88,1153.21 1482.07,1153.7 1484.25,1154.18 1486.44,1154.67 1488.63,1155.15 1490.82,1155.64 1493,1156.12 1495.19,1156.6 1497.38,1157.08 1499.57,1157.56 
  1501.75,1158.03 1503.94,1158.51 1506.13,1158.98 1508.32,1159.45 1510.51,1159.92 1512.69,1160.39 1514.88,1160.85 1517.07,1161.32 1519.26,1161.78 1521.44,1162.25 
  1523.63,1162.71 1525.82,1163.17 1528.01,1163.62 1530.19,1164.08 1532.38,1164.53 1534.57,1164.99 1536.76,1165.44 1538.94,1165.89 1541.13,1166.34 1543.32,1166.79 
  1545.51,1167.23 1547.7,1167.68 1549.88,1168.12 1552.07,1168.56 1554.26,1169 1556.45,1169.44 1558.63,1169.88 1560.82,1170.32 1563.01,1170.75 1565.2,1171.18 
  1567.38,1171.62 1569.57,1172.05 1571.76,1172.48 1573.95,1172.9 1576.14,1173.33 1578.32,1173.76 1580.51,1174.18 1582.7,1174.6 1584.89,1175.02 1587.07,1175.44 
  1589.26,1175.86 1591.45,1176.28 1593.64,1176.69 1595.82,1177.11 1598.01,1177.52 1600.2,1177.93 1602.39,1178.34 1604.57,1178.75 1606.76,1179.16 1608.95,1179.56 
  1611.14,1179.97 1613.33,1180.37 1615.51,1180.77 1617.7,1181.17 1619.89,1181.57 1622.08,1181.97 1624.26,1182.37 1626.45,1182.76 1628.64,1183.16 1630.83,1183.55 
  1633.01,1183.94 1635.2,1184.33 1637.39,1184.72 1639.58,1185.11 1641.76,1185.5 1643.95,1185.88 1646.14,1186.27 1648.33,1186.65 1650.52,1187.03 1652.7,1187.41 
  1654.89,1187.79 1657.08,1188.17 1659.27,1188.54 1661.45,1188.92 1663.64,1189.29 1665.83,1189.67 1668.02,1190.04 1670.2,1190.41 1672.39,1190.78 1674.58,1191.15 
  1676.77,1191.51 1678.96,1191.88 1681.14,1192.24 1683.33,1192.61 1685.52,1192.97 1687.71,1193.33 1689.89,1193.69 1692.08,1194.05 1694.27,1194.4 1696.46,1194.76 
  1698.64,1195.11 1700.83,1195.47 1703.02,1195.82 1705.21,1196.17 1707.39,1196.52 1709.58,1196.87 1711.77,1197.22 1713.96,1197.56 1716.15,1197.91 1718.33,1198.25 
  1720.52,1198.6 1722.71,1198.94 1724.9,1199.28 1727.08,1199.62 1729.27,1199.96 1731.46,1200.29 1733.65,1200.63 1735.83,1200.97 1738.02,1201.3 1740.21,1201.63 
  1742.4,1201.96 1744.59,1202.29 1746.77,1202.62 1748.96,1202.95 1751.15,1203.28 1753.34,1203.61 1755.52,1203.93 1757.71,1204.26 1759.9,1204.58 1762.09,1204.9 
  1764.27,1205.22 1766.46,1205.54 1768.65,1205.86 1770.84,1206.18 1773.02,1206.49 1775.21,1206.81 1777.4,1207.12 1779.59,1207.44 1781.78,1207.75 1783.96,1208.06 
  1786.15,1208.37 1788.34,1208.68 1790.53,1208.99 1792.71,1209.3 1794.9,1209.6 1797.09,1209.91 1799.28,1210.21 1801.46,1210.51 1803.65,1210.82 1805.84,1211.12 
  1808.03,1211.42 1810.22,1211.72 1812.4,1212.01 1814.59,1212.31 1816.78,1212.61 1818.97,1212.9 1821.15,1213.2 1823.34,1213.49 1825.53,1213.78 1827.72,1214.07 
  1829.9,1214.36 1832.09,1214.65 1834.28,1214.94 1836.47,1215.23 1838.65,1215.51 1840.84,1215.8 1843.03,1216.08 1845.22,1216.36 1847.41,1216.65 1849.59,1216.93 
  1851.78,1217.21 1853.97,1217.49 1856.16,1217.77 1858.34,1218.04 1860.53,1218.32 1862.72,1218.59 1864.91,1218.87 1867.09,1219.14 1869.28,1219.42 1871.47,1219.69 
  1873.66,1219.96 1875.85,1220.23 1878.03,1220.5 1880.22,1220.77 1882.41,1221.03 1884.6,1221.3 1886.78,1221.56 1888.97,1221.83 1891.16,1222.09 1893.35,1222.36 
  1895.53,1222.62 1897.72,1222.88 1899.91,1223.14 1902.1,1223.4 1904.28,1223.66 1906.47,1223.91 1908.66,1224.17 1910.85,1224.42 1913.04,1224.68 1915.22,1224.93 
  1917.41,1225.19 1919.6,1225.44 1921.79,1225.69 1923.97,1225.94 1926.16,1226.19 1928.35,1226.44 1930.54,1226.69 1932.72,1226.93 1934.91,1227.18 1937.1,1227.42 
  1939.29,1227.67 1941.47,1227.91 1943.66,1228.16 1945.85,1228.4 1948.04,1228.64 1950.23,1228.88 1952.41,1229.12 1954.6,1229.36 1956.79,1229.59 1958.98,1229.83 
  1961.16,1230.07 1963.35,1230.3 1965.54,1230.54 1967.73,1230.77 1969.91,1231 1972.1,1231.24 1974.29,1231.47 1976.48,1231.7 1978.67,1231.93 1980.85,1232.16 
  1983.04,1232.38 1985.23,1232.61 1987.42,1232.84 1989.6,1233.06 1991.79,1233.29 1993.98,1233.51 1996.17,1233.74 1998.35,1233.96 2000.54,1234.18 2002.73,1234.4 
  2004.92,1234.62 2007.1,1234.84 2009.29,1235.06 2011.48,1235.28 2013.67,1235.5 2015.86,1235.71 2018.04,1235.93 2020.23,1236.14 2022.42,1236.36 2024.61,1236.57 
  2026.79,1236.78 2028.98,1237 2031.17,1237.21 2033.36,1237.42 2035.54,1237.63 2037.73,1237.84 2039.92,1238.05 2042.11,1238.25 2044.3,1238.46 2046.48,1238.67 
  2048.67,1238.87 2050.86,1239.08 2053.05,1239.28 2055.23,1239.48 2057.42,1239.69 2059.61,1239.89 2061.8,1240.09 2063.98,1240.29 2066.17,1240.49 2068.36,1240.69 
  2070.55,1240.89 2072.73,1241.09 2074.92,1241.28 2077.11,1241.48 2079.3,1241.68 2081.49,1241.87 2083.67,1242.07 2085.86,1242.26 2088.05,1242.45 2090.24,1242.64 
  2092.42,1242.84 2094.61,1243.03 2096.8,1243.22 2098.99,1243.41 2101.17,1243.6 2103.36,1243.79 2105.55,1243.97 2107.74,1244.16 2109.93,1244.35 2112.11,1244.53 
  2114.3,1244.72 2116.49,1244.9 2118.68,1245.09 2120.86,1245.27 2123.05,1245.45 2125.24,1245.63 2127.43,1245.81 2129.61,1246 2131.8,1246.18 2133.99,1246.35 
  2136.18,1246.53 2138.36,1246.71 2140.55,1246.89 2142.74,1247.07 2144.93,1247.24 2147.12,1247.42 2149.3,1247.59 2151.49,1247.77 2153.68,1247.94 2155.87,1248.11 
  2158.05,1248.29 2160.24,1248.46 2162.43,1248.63 2164.62,1248.8 2166.8,1248.97 2168.99,1249.14 2171.18,1249.31 2173.37,1249.48 2175.56,1249.65 2177.74,1249.81 
  2179.93,1249.98 2182.12,1250.15 2184.31,1250.31 2186.49,1250.48 2188.68,1250.64 2190.87,1250.8 2193.06,1250.97 2195.24,1251.13 2197.43,1251.29 2199.62,1251.45 
  2201.81,1251.61 2203.99,1251.77 2206.18,1251.93 2208.37,1252.09 2210.56,1252.25 2212.75,1252.41 2214.93,1252.57 2217.12,1252.72 2219.31,1252.88 2221.5,1253.04 
  2223.68,1253.19 2225.87,1253.35 2228.06,1253.5 2230.25,1253.65 2232.43,1253.81 2234.62,1253.96 2236.81,1254.11 2239,1254.26 2241.19,1254.41 2243.37,1254.56 
  2245.56,1254.71 2247.75,1254.86 2249.94,1255.01 2252.12,1255.16 2254.31,1255.31 2256.5,1255.45 2258.69,1255.6 2260.87,1255.75 2263.06,1255.89 2265.25,1256.04 
  2267.44,1256.18 2269.62,1256.33 2271.81,1256.47 2274,1256.61 2276.19,1256.76 2278.38,1256.9 2280.56,1257.04 2282.75,1257.18 2284.94,1257.32 2287.13,1257.46 
  2289.31,1257.6 2291.5,1257.74 2293.69,1257.88 2295.88,1258.02 2298.06,1258.15 2300.25,1258.29 2302.44,1258.43 2304.63,1258.56 2306.81,1258.7 2309,1258.84 
  2311.19,1258.97 2313.38,1259.1 2315.57,1259.24 2317.75,1259.37 2319.94,1259.5 2322.13,1259.64 2324.32,1259.77 2326.5,1259.9 2328.69,1260.03 2330.88,1260.16 
  2333.07,1260.29 2335.25,1260.42 2337.44,1260.55 2339.63,1260.68 2341.82,1260.81 2344.01,1260.93 2346.19,1261.06 2348.38,1261.19 2350.57,1261.32 2352.76,1261.44 
  
  "/>
<polyline clip-path="url(#clip0302)" style="stroke:#3da44d; stroke-width:12; stroke-opacity:1; fill:none" points="
  167.279,1386.61 169.467,1386.57 171.654,1386.46 173.842,1386.27 176.03,1386.01 178.217,1385.69 180.405,1385.29 182.593,1384.84 184.78,1384.32 186.968,1383.74 
  189.156,1383.11 191.343,1382.41 193.531,1381.67 195.719,1380.87 197.906,1380.02 200.094,1379.11 202.282,1378.16 204.469,1377.17 206.657,1376.12 208.845,1375.04 
  211.032,1373.91 213.22,1372.74 215.408,1371.52 217.595,1370.27 219.783,1368.98 221.971,1367.66 224.158,1366.29 226.346,1364.89 228.534,1363.46 230.721,1362 
  232.909,1360.5 235.097,1358.97 237.284,1357.41 239.472,1355.83 241.66,1354.21 243.847,1352.56 246.035,1350.89 248.223,1349.2 250.41,1347.47 252.598,1345.72 
  254.786,1343.95 256.973,1342.16 259.161,1340.34 261.349,1338.5 263.536,1336.63 265.724,1334.75 267.912,1332.85 270.099,1330.92 272.287,1328.98 274.475,1327.02 
  276.662,1325.04 278.85,1323.04 281.038,1321.03 283.225,1318.99 285.413,1316.95 287.601,1314.88 289.788,1312.8 291.976,1310.71 294.164,1308.6 296.351,1306.48 
  298.539,1304.35 300.727,1302.2 302.914,1300.04 305.102,1297.86 307.29,1295.68 309.477,1293.48 311.665,1291.27 313.853,1289.05 316.04,1286.82 318.228,1284.58 
  320.416,1282.33 322.603,1280.07 324.791,1277.8 326.979,1275.52 329.166,1273.23 331.354,1270.93 333.542,1268.63 335.729,1266.31 337.917,1263.99 340.105,1261.66 
  342.292,1259.33 344.48,1256.99 346.668,1254.64 348.855,1252.28 351.043,1249.92 353.231,1247.55 355.418,1245.18 357.606,1242.8 359.794,1240.42 361.981,1238.03 
  364.169,1235.63 366.357,1233.23 368.544,1230.83 370.732,1228.42 372.92,1226.01 375.107,1223.59 377.295,1221.17 379.483,1218.74 381.67,1216.32 383.858,1213.89 
  386.046,1211.45 388.233,1209.01 390.421,1206.57 392.609,1204.13 394.796,1201.69 396.984,1199.24 399.172,1196.79 401.359,1194.34 403.547,1191.88 405.735,1189.43 
  407.922,1186.97 410.11,1184.51 412.298,1182.05 414.485,1179.59 416.673,1177.13 418.861,1174.66 421.048,1172.2 423.236,1169.73 425.424,1167.27 427.611,1164.8 
  429.799,1162.33 431.987,1159.86 434.174,1157.39 436.362,1154.93 438.55,1152.46 440.737,1149.99 442.925,1147.52 445.113,1145.05 447.3,1142.58 449.488,1140.12 
  451.676,1137.65 453.863,1135.18 456.051,1132.72 458.239,1130.25 460.426,1127.79 462.614,1125.32 464.802,1122.86 466.989,1120.4 469.177,1117.94 471.365,1115.48 
  473.552,1113.02 475.74,1110.56 477.927,1108.11 480.115,1105.66 482.303,1103.2 484.49,1100.75 486.678,1098.3 488.866,1095.86 491.053,1093.41 493.241,1090.97 
  495.429,1088.53 497.616,1086.09 499.804,1083.65 501.992,1081.21 504.179,1078.78 506.367,1076.35 508.555,1073.92 510.742,1071.49 512.93,1069.07 515.118,1066.65 
  517.305,1064.23 519.493,1061.81 521.681,1059.4 523.868,1056.98 526.056,1054.57 528.244,1052.17 530.431,1049.76 532.619,1047.36 534.807,1044.96 536.994,1042.57 
  539.182,1040.18 541.37,1037.79 543.557,1035.4 545.745,1033.02 547.933,1030.63 550.12,1028.26 552.308,1025.88 554.496,1023.51 556.683,1021.14 558.871,1018.78 
  561.059,1016.42 563.246,1014.06 565.434,1011.7 567.622,1009.35 569.809,1007 571.997,1004.66 574.185,1002.31 576.372,999.975 578.56,997.64 580.748,995.308 
  582.935,992.98 585.123,990.656 587.311,988.335 589.498,986.017 591.686,983.704 593.874,981.393 596.061,979.087 598.249,976.784 600.437,974.485 602.624,972.19 
  604.812,969.898 607,967.61 609.187,965.326 611.375,963.046 613.563,960.769 615.75,958.497 617.938,956.228 620.126,953.963 622.313,951.702 624.501,949.445 
  626.689,947.191 628.876,944.942 631.064,942.696 633.252,940.455 635.439,938.217 637.627,935.984 639.815,933.754 642.002,931.528 644.19,929.307 646.378,927.089 
  648.565,924.876 650.753,922.666 652.941,920.461 655.128,918.259 657.316,916.062 659.504,913.869 661.691,911.68 663.879,909.495 666.067,907.314 668.254,905.137 
  670.442,902.964 672.63,900.796 674.817,898.632 677.005,896.471 679.193,894.316 681.38,892.164 683.568,890.016 685.756,887.873 687.943,885.733 690.131,883.598 
  692.319,881.468 694.506,879.341 696.694,877.219 698.882,875.1 701.069,872.987 703.257,870.877 705.445,868.771 707.632,866.67 709.82,864.573 712.008,862.481 
  714.195,860.392 716.383,858.308 718.571,856.228 720.758,854.152 722.946,852.081 725.134,850.014 727.321,847.951 729.509,845.892 731.697,843.838 733.884,841.788 
  736.072,839.742 738.26,837.701 740.447,835.663 742.635,833.63 744.823,831.602 747.01,829.577 749.198,827.557 751.386,825.542 753.573,823.53 755.761,821.523 
  757.949,819.52 760.136,817.521 762.324,815.527 764.512,813.536 766.699,811.551 768.887,809.569 771.075,807.592 773.262,805.618 775.45,803.65 777.638,801.685 
  779.825,799.725 782.013,797.769 784.201,795.817 786.388,793.869 788.576,791.926 790.764,789.987 792.951,788.052 795.139,786.122 797.326,784.195 799.514,782.273 
  801.702,780.355 803.889,778.442 806.077,776.532 808.265,774.627 810.452,772.726 812.64,770.829 814.828,768.937 817.015,767.049 819.203,765.165 821.391,763.285 
  823.578,761.409 825.766,759.538 827.954,757.67 830.141,755.807 832.329,753.948 834.517,752.094 836.704,750.243 838.892,748.397 841.08,746.555 843.267,744.717 
  845.455,742.883 847.643,741.053 849.83,739.227 852.018,737.406 854.206,735.589 856.393,733.776 858.581,731.967 860.769,730.162 862.956,728.361 865.144,726.564 
  867.332,724.772 869.519,722.983 871.707,721.199 873.895,719.419 876.082,717.642 878.27,715.87 880.458,714.102 882.645,712.338 884.833,710.578 887.021,708.822 
  889.208,707.071 891.396,705.323 893.584,703.579 895.771,701.839 897.959,700.104 900.147,698.372 902.334,696.644 904.522,694.921 906.71,693.201 908.897,691.485 
  911.085,689.774 913.273,688.066 915.46,686.362 917.648,684.662 919.836,682.966 922.023,681.275 924.211,679.587 926.399,677.902 928.586,676.222 930.774,674.546 
  932.962,672.874 935.149,671.205 937.337,669.541 939.525,667.88 941.712,666.224 943.9,664.571 946.088,662.922 948.275,661.276 950.463,659.635 952.651,657.998 
  954.838,656.364 957.026,654.734 959.214,653.108 961.401,651.486 963.589,649.867 965.777,648.253 967.964,646.642 970.152,645.035 972.34,643.432 974.527,641.832 
  976.715,640.236 978.903,638.644 981.09,637.056 983.278,635.471 985.466,633.891 987.653,632.313 989.841,630.74 992.029,629.17 994.216,627.604 996.404,626.042 
  998.592,624.483 1000.78,622.928 1002.97,621.377 1005.15,619.829 1007.34,618.285 1009.53,616.745 1011.72,615.208 1013.91,613.675 1016.09,612.145 1018.28,610.619 
  1020.47,609.097 1022.66,607.578 1024.84,606.063 1027.03,604.551 1029.22,603.043 1031.41,601.539 1033.59,600.038 1035.78,598.54 1037.97,597.047 1040.16,595.556 
  1042.34,594.069 1044.53,592.586 1046.72,591.106 1048.91,589.63 1051.1,588.157 1053.28,586.688 1055.47,585.222 1057.66,583.759 1059.85,582.3 1062.03,580.845 
  1064.22,579.392 1066.41,577.944 1068.6,576.498 1070.78,575.056 1072.97,573.618 1075.16,572.183 1077.35,570.751 1079.54,569.323 1081.72,567.898 1083.91,566.476 
  1086.1,565.058 1088.29,563.643 1090.47,562.231 1092.66,560.823 1094.85,559.418 1097.04,558.017 1099.22,556.618 1101.41,555.223 1103.6,553.831 1105.79,552.443 
  1107.97,551.058 1110.16,549.676 1112.35,548.297 1114.54,546.922 1116.73,545.549 1118.91,544.18 1121.1,542.814 1123.29,541.452 1125.48,540.092 1127.66,538.736 
  1129.85,537.383 1132.04,536.033 1134.23,534.687 1136.41,533.343 1138.6,532.003 1140.79,530.666 1142.98,529.331 1145.17,528 1147.35,526.673 1149.54,525.348 
  1151.73,524.026 1153.92,522.707 1156.1,521.392 1158.29,520.079 1160.48,518.77 1162.67,517.464 1164.85,516.161 1167.04,514.86 1169.23,513.563 1171.42,512.269 
  1173.6,510.978 1175.79,509.69 1177.98,508.404 1180.17,507.122 1182.36,505.843 1184.54,504.567 1186.73,503.293 1188.92,502.023 1191.11,500.756 1193.29,499.491 
  1195.48,498.23 1197.67,496.971 1199.86,495.716 1202.04,494.463 1204.23,493.213 1206.42,491.966 1208.61,490.722 1210.8,489.481 1212.98,488.242 1215.17,487.007 
  1217.36,485.774 1219.55,484.545 1221.73,483.318 1223.92,482.094 1226.11,480.872 1228.3,479.654 1230.48,478.438 1232.67,477.225 1234.86,476.015 1237.05,474.808 
  1239.23,473.603 1241.42,472.401 1243.61,471.202 1245.8,470.006 1247.99,468.813 1250.17,467.622 1252.36,466.434 1254.55,465.248 1256.74,464.066 1258.92,462.886 
  1261.11,461.708 1263.3,460.534 1265.49,459.362 1267.67,458.193 1269.86,457.026 1272.05,455.862 1274.24,454.701 1276.43,453.542 1278.61,452.386 1280.8,451.233 
  1282.99,450.082 1285.18,448.934 1287.36,447.789 1289.55,446.646 1291.74,445.505 1293.93,444.368 1296.11,443.232 1298.3,442.1 1300.49,440.97 1302.68,439.842 
  1304.86,438.717 1307.05,437.595 1309.24,436.475 1311.43,435.358 1313.62,434.243 1315.8,433.13 1317.99,432.02 1320.18,430.913 1322.37,429.808 1324.55,428.706 
  1326.74,427.606 1328.93,426.508 1331.12,425.413 1333.3,424.321 1335.49,423.23 1337.68,422.143 1339.87,421.057 1342.05,419.975 1344.24,418.894 1346.43,417.816 
  1348.62,416.74 1350.81,415.667 1352.99,414.596 1355.18,413.528 1357.37,412.461 1359.56,411.398 1361.74,410.336 1363.93,409.277 1366.12,408.22 1368.31,407.166 
  1370.49,406.114 1372.68,405.064 1374.87,404.017 1377.06,402.971 1379.25,401.928 1381.43,400.888 1383.62,399.849 1385.81,398.813 1388,397.78 1390.18,396.748 
  1392.37,395.719 1394.56,394.692 1396.75,393.667 1398.93,392.644 1401.12,391.624 1403.31,390.606 1405.5,389.59 1407.68,388.576 1409.87,387.565 1412.06,386.556 
  1414.25,385.548 1416.44,384.544 1418.62,383.541 1420.81,382.54 1423,381.542 1425.19,380.545 1427.37,379.551 1429.56,378.559 1431.75,377.569 1433.94,376.581 
  1436.12,375.596 1438.31,374.612 1440.5,373.631 1442.69,372.651 1444.88,371.674 1447.06,370.699 1449.25,369.726 1451.44,368.755 1453.63,367.786 1455.81,366.819 
  1458,365.854 1460.19,364.891 1462.38,363.931 1464.56,362.972 1466.75,362.015 1468.94,361.06 1471.13,360.108 1473.31,359.157 1475.5,358.208 1477.69,357.262 
  1479.88,356.317 1482.07,355.374 1484.25,354.434 1486.44,353.495 1488.63,352.558 1490.82,351.623 1493,350.69 1495.19,349.759 1497.38,348.83 1499.57,347.903 
  1501.75,346.978 1503.94,346.055 1506.13,345.133 1508.32,344.214 1510.51,343.296 1512.69,342.381 1514.88,341.467 1517.07,340.555 1519.26,339.645 1521.44,338.737 
  1523.63,337.831 1525.82,336.927 1528.01,336.024 1530.19,335.123 1532.38,334.225 1534.57,333.328 1536.76,332.432 1538.94,331.539 1541.13,330.647 1543.32,329.758 
  1545.51,328.87 1547.7,327.984 1549.88,327.099 1552.07,326.217 1554.26,325.336 1556.45,324.457 1558.63,323.58 1560.82,322.705 1563.01,321.831 1565.2,320.959 
  1567.38,320.089 1569.57,319.22 1571.76,318.354 1573.95,317.489 1576.14,316.625 1578.32,315.764 1580.51,314.904 1582.7,314.046 1584.89,313.19 1587.07,312.335 
  1589.26,311.482 1591.45,310.631 1593.64,309.781 1595.82,308.933 1598.01,308.087 1600.2,307.242 1602.39,306.399 1604.57,305.558 1606.76,304.719 1608.95,303.881 
  1611.14,303.044 1613.33,302.21 1615.51,301.376 1617.7,300.545 1619.89,299.715 1622.08,298.887 1624.26,298.06 1626.45,297.235 1628.64,296.412 1630.83,295.59 
  1633.01,294.77 1635.2,293.951 1637.39,293.134 1639.58,292.319 1641.76,291.505 1643.95,290.692 1646.14,289.882 1648.33,289.072 1650.52,288.265 1652.7,287.458 
  1654.89,286.654 1657.08,285.851 1659.27,285.049 1661.45,284.249 1663.64,283.45 1665.83,282.653 1668.02,281.858 1670.2,281.064 1672.39,280.271 1674.58,279.48 
  1676.77,278.69 1678.96,277.902 1681.14,277.116 1683.33,276.331 1685.52,275.547 1687.71,274.765 1689.89,273.984 1692.08,273.205 1694.27,272.427 1696.46,271.65 
  1698.64,270.875 1700.83,270.102 1703.02,269.33 1705.21,268.559 1707.39,267.79 1709.58,267.022 1711.77,266.255 1713.96,265.49 1716.15,264.726 1718.33,263.964 
  1720.52,263.203 1722.71,262.444 1724.9,261.686 1727.08,260.929 1729.27,260.173 1731.46,259.419 1733.65,258.667 1735.83,257.916 1738.02,257.166 1740.21,256.417 
  1742.4,255.67 1744.59,254.924 1746.77,254.179 1748.96,253.436 1751.15,252.694 1753.34,251.954 1755.52,251.214 1757.71,250.476 1759.9,249.74 1762.09,249.004 
  1764.27,248.27 1766.46,247.538 1768.65,246.806 1770.84,246.076 1773.02,245.347 1775.21,244.619 1777.4,243.893 1779.59,243.168 1781.78,242.444 1783.96,241.722 
  1786.15,241 1788.34,240.28 1790.53,239.562 1792.71,238.844 1794.9,238.128 1797.09,237.413 1799.28,236.699 1801.46,235.986 1803.65,235.275 1805.84,234.565 
  1808.03,233.856 1810.22,233.148 1812.4,232.442 1814.59,231.736 1816.78,231.032 1818.97,230.329 1821.15,229.627 1823.34,228.927 1825.53,228.228 1827.72,227.529 
  1829.9,226.832 1832.09,226.136 1834.28,225.442 1836.47,224.748 1838.65,224.056 1840.84,223.365 1843.03,222.675 1845.22,221.986 1847.41,221.298 1849.59,220.611 
  1851.78,219.926 1853.97,219.242 1856.16,218.558 1858.34,217.876 1860.53,217.195 1862.72,216.515 1864.91,215.837 1867.09,215.159 1869.28,214.482 1871.47,213.807 
  1873.66,213.133 1875.85,212.459 1878.03,211.787 1880.22,211.116 1882.41,210.446 1884.6,209.777 1886.78,209.109 1888.97,208.443 1891.16,207.777 1893.35,207.112 
  1895.53,206.449 1897.72,205.786 1899.91,205.125 1902.1,204.464 1904.28,203.805 1906.47,203.146 1908.66,202.489 1910.85,201.833 1913.04,201.178 1915.22,200.523 
  1917.41,199.87 1919.6,199.218 1921.79,198.567 1923.97,197.917 1926.16,197.268 1928.35,196.62 1930.54,195.972 1932.72,195.326 1934.91,194.681 1937.1,194.037 
  1939.29,193.394 1941.47,192.752 1943.66,192.111 1945.85,191.47 1948.04,190.831 1950.23,190.193 1952.41,189.556 1954.6,188.919 1956.79,188.284 1958.98,187.65 
  1961.16,187.016 1963.35,186.384 1965.54,185.752 1967.73,185.122 1969.91,184.492 1972.1,183.863 1974.29,183.236 1976.48,182.609 1978.67,181.983 1980.85,181.358 
  1983.04,180.734 1985.23,180.111 1987.42,179.489 1989.6,178.867 1991.79,178.247 1993.98,177.627 1996.17,177.009 1998.35,176.391 2000.54,175.774 2002.73,175.159 
  2004.92,174.544 2007.1,173.93 2009.29,173.316 2011.48,172.704 2013.67,172.093 2015.86,171.482 2018.04,170.872 2020.23,170.264 2022.42,169.656 2024.61,169.049 
  2026.79,168.442 2028.98,167.837 2031.17,167.232 2033.36,166.629 2035.54,166.026 2037.73,165.424 2039.92,164.823 2042.11,164.223 2044.3,163.623 2046.48,163.025 
  2048.67,162.427 2050.86,161.83 2053.05,161.234 2055.23,160.638 2057.42,160.044 2059.61,159.45 2061.8,158.857 2063.98,158.265 2066.17,157.674 2068.36,157.084 
  2070.55,156.494 2072.73,155.905 2074.92,155.317 2077.11,154.73 2079.3,154.144 2081.49,153.558 2083.67,152.973 2085.86,152.389 2088.05,151.806 2090.24,151.223 
  2092.42,150.642 2094.61,150.061 2096.8,149.481 2098.99,148.901 2101.17,148.323 2103.36,147.745 2105.55,147.168 2107.74,146.591 2109.93,146.016 2112.11,145.441 
  2114.3,144.867 2116.49,144.293 2118.68,143.721 2120.86,143.149 2123.05,142.578 2125.24,142.007 2127.43,141.438 2129.61,140.869 2131.8,140.301 2133.99,139.733 
  2136.18,139.167 2138.36,138.6 2140.55,138.035 2142.74,137.471 2144.93,136.907 2147.12,136.344 2149.3,135.781 2151.49,135.219 2153.68,134.658 2155.87,134.098 
  2158.05,133.539 2160.24,132.98 2162.43,132.421 2164.62,131.864 2166.8,131.307 2168.99,130.751 2171.18,130.195 2173.37,129.641 2175.56,129.086 2177.74,128.533 
  2179.93,127.98 2182.12,127.428 2184.31,126.877 2186.49,126.326 2188.68,125.776 2190.87,125.226 2193.06,124.678 2195.24,124.13 2197.43,123.582 2199.62,123.035 
  2201.81,122.489 2203.99,121.944 2206.18,121.399 2208.37,120.855 2210.56,120.311 2212.75,119.768 2214.93,119.226 2217.12,118.684 2219.31,118.143 2221.5,117.603 
  2223.68,117.063 2225.87,116.524 2228.06,115.986 2230.25,115.448 2232.43,114.91 2234.62,114.374 2236.81,113.838 2239,113.302 2241.19,112.768 2243.37,112.233 
  2245.56,111.7 2247.75,111.167 2249.94,110.634 2252.12,110.103 2254.31,109.572 2256.5,109.041 2258.69,108.511 2260.87,107.982 2263.06,107.453 2265.25,106.925 
  2267.44,106.397 2269.62,105.87 2271.81,105.343 2274,104.818 2276.19,104.292 2278.38,103.767 2280.56,103.243 2282.75,102.72 2284.94,102.197 2287.13,101.674 
  2289.31,101.152 2291.5,100.631 2293.69,100.11 2295.88,99.5901 2298.06,99.0705 2300.25,98.5514 2302.44,98.0328 2304.63,97.5148 2306.81,96.9974 2309,96.4805 
  2311.19,95.9642 2313.38,95.4484 2315.57,94.9331 2317.75,94.4184 2319.94,93.9042 2322.13,93.3906 2324.32,92.8774 2326.5,92.3649 2328.69,91.8528 2330.88,91.3413 
  2333.07,90.8303 2335.25,90.3198 2337.44,89.8099 2339.63,89.3004 2341.82,88.7915 2344.01,88.2831 2346.19,87.7753 2348.38,87.2679 2350.57,86.761 2352.76,86.2547 
  
  "/>
<polygon clip-path="url(#clip0300)" points="
1963.21,372.684 2280.76,372.684 2280.76,130.764 1963.21,130.764 
  " fill="#ffffff" fill-rule="evenodd" fill-opacity="1"/>
<polyline clip-path="url(#clip0300)" style="stroke:#000000; stroke-width:4; stroke-opacity:1; fill:none" points="
  1963.21,372.684 2280.76,372.684 2280.76,130.764 1963.21,130.764 1963.21,372.684 
  "/>
<polyline clip-path="url(#clip0300)" style="stroke:#009af9; stroke-width:12; stroke-opacity:1; fill:none" points="
  1987.21,191.244 2131.21,191.244 
  "/>
<g clip-path="url(#clip0300)">
<text style="fill:#000000; fill-opacity:1; font-family:Arial,Helvetica Neue,Helvetica,sans-serif; font-size:48px; text-anchor:start;" transform="rotate(0, 2155.21, 208.744)" x="2155.21" y="208.744">X(t)</text>
</g>
<polyline clip-path="url(#clip0300)" style="stroke:#e26f46; stroke-width:12; stroke-opacity:1; fill:none" points="
  1987.21,251.724 2131.21,251.724 
  "/>
<g clip-path="url(#clip0300)">
<text style="fill:#000000; fill-opacity:1; font-family:Arial,Helvetica Neue,Helvetica,sans-serif; font-size:48px; text-anchor:start;" transform="rotate(0, 2155.21, 269.224)" x="2155.21" y="269.224">Y(t)</text>
</g>
<polyline clip-path="url(#clip0300)" style="stroke:#3da44d; stroke-width:12; stroke-opacity:1; fill:none" points="
  1987.21,312.204 2131.21,312.204 
  "/>
<g clip-path="url(#clip0300)">
<text style="fill:#000000; fill-opacity:1; font-family:Arial,Helvetica Neue,Helvetica,sans-serif; font-size:48px; text-anchor:start;" transform="rotate(0, 2155.21, 329.704)" x="2155.21" y="329.704">Z(t)</text>
</g>
</svg>
