<?xml version="1.0" encoding="utf-8"?>
<svg xmlns="http://www.w3.org/2000/svg" xmlns:xlink="http://www.w3.org/1999/xlink" width="600" height="400" viewBox="0 0 2400 1600">
<defs>
  <clipPath id="clip9300">
    <rect x="0" y="0" width="2400" height="1600"/>
  </clipPath>
</defs>
<polygon clip-path="url(#clip9300)" points="
0,1600 2400,1600 2400,0 0,0 
  " fill="#ffffff" fill-rule="evenodd" fill-opacity="1"/>
<defs>
  <clipPath id="clip9301">
    <rect x="480" y="0" width="1681" height="1600"/>
  </clipPath>
</defs>
<polygon clip-path="url(#clip9300)" points="
245.111,1425.62 2352.76,1425.62 2352.76,47.2441 245.111,47.2441 
  " fill="#ffffff" fill-rule="evenodd" fill-opacity="1"/>
<defs>
  <clipPath id="clip9302">
    <rect x="245" y="47" width="2109" height="1379"/>
  </clipPath>
</defs>
<polyline clip-path="url(#clip9302)" style="stroke:#000000; stroke-width:2; stroke-opacity:0.1; fill:none" points="
  245.111,1425.62 245.111,47.2441 
  "/>
<polyline clip-path="url(#clip9302)" style="stroke:#000000; stroke-width:2; stroke-opacity:0.1; fill:none" points="
  666.64,1425.62 666.64,47.2441 
  "/>
<polyline clip-path="url(#clip9302)" style="stroke:#000000; stroke-width:2; stroke-opacity:0.1; fill:none" points="
  1088.17,1425.62 1088.17,47.2441 
  "/>
<polyline clip-path="url(#clip9302)" style="stroke:#000000; stroke-width:2; stroke-opacity:0.1; fill:none" points="
  1509.7,1425.62 1509.7,47.2441 
  "/>
<polyline clip-path="url(#clip9302)" style="stroke:#000000; stroke-width:2; stroke-opacity:0.1; fill:none" points="
  1931.23,1425.62 1931.23,47.2441 
  "/>
<polyline clip-path="url(#clip9302)" style="stroke:#000000; stroke-width:2; stroke-opacity:0.1; fill:none" points="
  2352.76,1425.62 2352.76,47.2441 
  "/>
<polyline clip-path="url(#clip9302)" style="stroke:#000000; stroke-width:2; stroke-opacity:0.1; fill:none" points="
  245.111,1386.61 2352.76,1386.61 
  "/>
<polyline clip-path="url(#clip9302)" style="stroke:#000000; stroke-width:2; stroke-opacity:0.1; fill:none" points="
  245.111,1177.55 2352.76,1177.55 
  "/>
<polyline clip-path="url(#clip9302)" style="stroke:#000000; stroke-width:2; stroke-opacity:0.1; fill:none" points="
  245.111,968.488 2352.76,968.488 
  "/>
<polyline clip-path="url(#clip9302)" style="stroke:#000000; stroke-width:2; stroke-opacity:0.1; fill:none" points="
  245.111,759.428 2352.76,759.428 
  "/>
<polyline clip-path="url(#clip9302)" style="stroke:#000000; stroke-width:2; stroke-opacity:0.1; fill:none" points="
  245.111,550.368 2352.76,550.368 
  "/>
<polyline clip-path="url(#clip9302)" style="stroke:#000000; stroke-width:2; stroke-opacity:0.1; fill:none" points="
  245.111,341.308 2352.76,341.308 
  "/>
<polyline clip-path="url(#clip9302)" style="stroke:#000000; stroke-width:2; stroke-opacity:0.1; fill:none" points="
  245.111,132.248 2352.76,132.248 
  "/>
<polyline clip-path="url(#clip9300)" style="stroke:#000000; stroke-width:4; stroke-opacity:1; fill:none" points="
  245.111,1425.62 2352.76,1425.62 
  "/>
<polyline clip-path="url(#clip9300)" style="stroke:#000000; stroke-width:4; stroke-opacity:1; fill:none" points="
  245.111,1425.62 245.111,47.2441 
  "/>
<polyline clip-path="url(#clip9300)" style="stroke:#000000; stroke-width:4; stroke-opacity:1; fill:none" points="
  245.111,1425.62 245.111,1404.94 
  "/>
<polyline clip-path="url(#clip9300)" style="stroke:#000000; stroke-width:4; stroke-opacity:1; fill:none" points="
  666.64,1425.62 666.64,1404.94 
  "/>
<polyline clip-path="url(#clip9300)" style="stroke:#000000; stroke-width:4; stroke-opacity:1; fill:none" points="
  1088.17,1425.62 1088.17,1404.94 
  "/>
<polyline clip-path="url(#clip9300)" style="stroke:#000000; stroke-width:4; stroke-opacity:1; fill:none" points="
  1509.7,1425.62 1509.7,1404.94 
  "/>
<polyline clip-path="url(#clip9300)" style="stroke:#000000; stroke-width:4; stroke-opacity:1; fill:none" points="
  1931.23,1425.62 1931.23,1404.94 
  "/>
<polyline clip-path="url(#clip9300)" style="stroke:#000000; stroke-width:4; stroke-opacity:1; fill:none" points="
  2352.76,1425.62 2352.76,1404.94 
  "/>
<polyline clip-path="url(#clip9300)" style="stroke:#000000; stroke-width:4; stroke-opacity:1; fill:none" points="
  245.111,1386.61 276.726,1386.61 
  "/>
<polyline clip-path="url(#clip9300)" style="stroke:#000000; stroke-width:4; stroke-opacity:1; fill:none" points="
  245.111,1177.55 276.726,1177.55 
  "/>
<polyline clip-path="url(#clip9300)" style="stroke:#000000; stroke-width:4; stroke-opacity:1; fill:none" points="
  245.111,968.488 276.726,968.488 
  "/>
<polyline clip-path="url(#clip9300)" style="stroke:#000000; stroke-width:4; stroke-opacity:1; fill:none" points="
  245.111,759.428 276.726,759.428 
  "/>
<polyline clip-path="url(#clip9300)" style="stroke:#000000; stroke-width:4; stroke-opacity:1; fill:none" points="
  245.111,550.368 276.726,550.368 
  "/>
<polyline clip-path="url(#clip9300)" style="stroke:#000000; stroke-width:4; stroke-opacity:1; fill:none" points="
  245.111,341.308 276.726,341.308 
  "/>
<polyline clip-path="url(#clip9300)" style="stroke:#000000; stroke-width:4; stroke-opacity:1; fill:none" points="
  245.111,132.248 276.726,132.248 
  "/>
<g clip-path="url(#clip9300)">
<text style="fill:#000000; fill-opacity:1; font-family:Arial,Helvetica Neue,Helvetica,sans-serif; font-size:48px; text-anchor:middle;" transform="rotate(0, 245.111, 1479.62)" x="245.111" y="1479.62">0</text>
</g>
<g clip-path="url(#clip9300)">
<text style="fill:#000000; fill-opacity:1; font-family:Arial,Helvetica Neue,Helvetica,sans-serif; font-size:48px; text-anchor:middle;" transform="rotate(0, 666.64, 1479.62)" x="666.64" y="1479.62">2</text>
</g>
<g clip-path="url(#clip9300)">
<text style="fill:#000000; fill-opacity:1; font-family:Arial,Helvetica Neue,Helvetica,sans-serif; font-size:48px; text-anchor:middle;" transform="rotate(0, 1088.17, 1479.62)" x="1088.17" y="1479.62">4</text>
</g>
<g clip-path="url(#clip9300)">
<text style="fill:#000000; fill-opacity:1; font-family:Arial,Helvetica Neue,Helvetica,sans-serif; font-size:48px; text-anchor:middle;" transform="rotate(0, 1509.7, 1479.62)" x="1509.7" y="1479.62">6</text>
</g>
<g clip-path="url(#clip9300)">
<text style="fill:#000000; fill-opacity:1; font-family:Arial,Helvetica Neue,Helvetica,sans-serif; font-size:48px; text-anchor:middle;" transform="rotate(0, 1931.23, 1479.62)" x="1931.23" y="1479.62">8</text>
</g>
<g clip-path="url(#clip9300)">
<text style="fill:#000000; fill-opacity:1; font-family:Arial,Helvetica Neue,Helvetica,sans-serif; font-size:48px; text-anchor:middle;" transform="rotate(0, 2352.76, 1479.62)" x="2352.76" y="1479.62">10</text>
</g>
<g clip-path="url(#clip9300)">
<text style="fill:#000000; fill-opacity:1; font-family:Arial,Helvetica Neue,Helvetica,sans-serif; font-size:48px; text-anchor:end;" transform="rotate(0, 221.111, 1404.11)" x="221.111" y="1404.11">0</text>
</g>
<g clip-path="url(#clip9300)">
<text style="fill:#000000; fill-opacity:1; font-family:Arial,Helvetica Neue,Helvetica,sans-serif; font-size:48px; text-anchor:start;" transform="rotate(0, 90.9698, 1201.28)" x="90.9698" y="1201.28">1×10</text>
</g>
<g clip-path="url(#clip9300)">
<text style="fill:#000000; fill-opacity:1; font-family:Arial,Helvetica Neue,Helvetica,sans-serif; font-size:38px; text-anchor:start;" transform="rotate(0, 199.367, 1173.87)" x="199.367" y="1173.87">8</text>
</g>
<g clip-path="url(#clip9300)">
<text style="fill:#000000; fill-opacity:1; font-family:Arial,Helvetica Neue,Helvetica,sans-serif; font-size:48px; text-anchor:start;" transform="rotate(0, 90.9698, 992.216)" x="90.9698" y="992.216">2×10</text>
</g>
<g clip-path="url(#clip9300)">
<text style="fill:#000000; fill-opacity:1; font-family:Arial,Helvetica Neue,Helvetica,sans-serif; font-size:38px; text-anchor:start;" transform="rotate(0, 199.367, 964.805)" x="199.367" y="964.805">8</text>
</g>
<g clip-path="url(#clip9300)">
<text style="fill:#000000; fill-opacity:1; font-family:Arial,Helvetica Neue,Helvetica,sans-serif; font-size:48px; text-anchor:start;" transform="rotate(0, 90.9698, 783.156)" x="90.9698" y="783.156">3×10</text>
</g>
<g clip-path="url(#clip9300)">
<text style="fill:#000000; fill-opacity:1; font-family:Arial,Helvetica Neue,Helvetica,sans-serif; font-size:38px; text-anchor:start;" transform="rotate(0, 199.367, 755.745)" x="199.367" y="755.745">8</text>
</g>
<g clip-path="url(#clip9300)">
<text style="fill:#000000; fill-opacity:1; font-family:Arial,Helvetica Neue,Helvetica,sans-serif; font-size:48px; text-anchor:start;" transform="rotate(0, 90.9698, 574.096)" x="90.9698" y="574.096">4×10</text>
</g>
<g clip-path="url(#clip9300)">
<text style="fill:#000000; fill-opacity:1; font-family:Arial,Helvetica Neue,Helvetica,sans-serif; font-size:38px; text-anchor:start;" transform="rotate(0, 199.367, 546.685)" x="199.367" y="546.685">8</text>
</g>
<g clip-path="url(#clip9300)">
<text style="fill:#000000; fill-opacity:1; font-family:Arial,Helvetica Neue,Helvetica,sans-serif; font-size:48px; text-anchor:start;" transform="rotate(0, 90.9698, 365.036)" x="90.9698" y="365.036">5×10</text>
</g>
<g clip-path="url(#clip9300)">
<text style="fill:#000000; fill-opacity:1; font-family:Arial,Helvetica Neue,Helvetica,sans-serif; font-size:38px; text-anchor:start;" transform="rotate(0, 199.367, 337.625)" x="199.367" y="337.625">8</text>
</g>
<g clip-path="url(#clip9300)">
<text style="fill:#000000; fill-opacity:1; font-family:Arial,Helvetica Neue,Helvetica,sans-serif; font-size:48px; text-anchor:start;" transform="rotate(0, 90.9698, 155.975)" x="90.9698" y="155.975">6×10</text>
</g>
<g clip-path="url(#clip9300)">
<text style="fill:#000000; fill-opacity:1; font-family:Arial,Helvetica Neue,Helvetica,sans-serif; font-size:38px; text-anchor:start;" transform="rotate(0, 199.367, 128.565)" x="199.367" y="128.565">8</text>
</g>
<g clip-path="url(#clip9300)">
<text style="fill:#000000; fill-opacity:1; font-family:Arial,Helvetica Neue,Helvetica,sans-serif; font-size:66px; text-anchor:middle;" transform="rotate(0, 1298.93, 1559.48)" x="1298.93" y="1559.48">t</text>
</g>
<polyline clip-path="url(#clip9302)" style="stroke:#009af9; stroke-width:12; stroke-opacity:1; fill:none" points="
  245.111,86.2547 247.221,88.0815 249.331,90.1456 251.441,92.21 253.55,94.2722 255.66,96.3317 257.77,98.3881 259.88,100.441 261.989,102.491 264.099,104.538 
  266.209,106.582 268.319,108.622 270.428,110.659 272.538,112.692 274.648,114.723 276.758,116.75 278.867,118.774 280.977,120.795 283.087,122.812 285.197,124.826 
  287.306,126.837 289.416,128.845 291.526,130.85 293.636,132.851 295.745,134.849 297.855,136.844 299.965,138.836 302.075,140.825 304.184,142.81 306.294,144.793 
  308.404,146.772 310.514,148.747 312.623,150.72 314.733,152.69 316.843,154.656 318.953,156.62 321.063,158.58 323.172,160.537 325.282,162.491 327.392,164.441 
  329.502,166.389 331.611,168.333 333.721,170.275 335.831,172.213 337.941,174.148 340.05,176.08 342.16,178.009 344.27,179.935 346.38,181.858 348.489,183.778 
  350.599,185.695 352.709,187.608 354.819,189.519 356.928,191.426 359.038,193.331 361.148,195.232 363.258,197.131 365.367,199.026 367.477,200.918 369.587,202.807 
  371.697,204.694 373.806,206.577 375.916,208.457 378.026,210.334 380.136,212.208 382.245,214.08 384.355,215.948 386.465,217.813 388.575,219.675 390.684,221.534 
  392.794,223.391 394.904,225.244 397.014,227.094 399.123,228.942 401.233,230.786 403.343,232.628 405.453,234.466 407.562,236.302 409.672,238.134 411.782,239.964 
  413.892,241.791 416.001,243.615 418.111,245.436 420.221,247.254 422.331,249.069 424.44,250.881 426.55,252.69 428.66,254.497 430.77,256.3 432.879,258.101 
  434.989,259.899 437.099,261.694 439.209,263.486 441.318,265.275 443.428,267.061 445.538,268.845 447.648,270.625 449.758,272.403 451.867,274.178 453.977,275.95 
  456.087,277.719 458.197,279.485 460.306,281.249 462.416,283.01 464.526,284.768 466.636,286.523 468.745,288.275 470.855,290.025 472.965,291.771 475.075,293.515 
  477.184,295.256 479.294,296.994 481.404,298.73 483.514,300.462 485.623,302.192 487.733,303.92 489.843,305.644 491.953,307.366 494.062,309.085 496.172,310.801 
  498.282,312.515 500.392,314.226 502.501,315.934 504.611,317.639 506.721,319.342 508.831,321.041 510.94,322.739 513.05,324.433 515.16,326.125 517.27,327.813 
  519.379,329.499 521.489,331.183 523.599,332.863 525.709,334.541 527.818,336.217 529.928,337.89 532.038,339.56 534.148,341.227 536.257,342.892 538.367,344.555 
  540.477,346.214 542.587,347.871 544.696,349.525 546.806,351.177 548.916,352.826 551.026,354.472 553.135,356.116 555.245,357.757 557.355,359.396 559.465,361.032 
  561.574,362.665 563.684,364.295 565.794,365.923 567.904,367.548 570.014,369.171 572.123,370.79 574.233,372.408 576.343,374.022 578.453,375.635 580.562,377.244 
  582.672,378.851 584.782,380.456 586.892,382.058 589.001,383.658 591.111,385.255 593.221,386.849 595.331,388.441 597.44,390.03 599.55,391.617 601.66,393.202 
  603.77,394.784 605.879,396.363 607.989,397.94 610.099,399.514 612.209,401.086 614.318,402.655 616.428,404.222 618.538,405.786 620.648,407.347 622.757,408.906 
  624.867,410.463 626.977,412.017 629.087,413.568 631.196,415.117 633.306,416.663 635.416,418.207 637.526,419.749 639.635,421.287 641.745,422.824 643.855,424.358 
  645.965,425.89 648.074,427.419 650.184,428.946 652.294,430.471 654.404,431.993 656.513,433.512 658.623,435.03 660.733,436.545 662.843,438.057 664.952,439.567 
  667.062,441.075 669.172,442.58 671.282,444.083 673.391,445.584 675.501,447.082 677.611,448.577 679.721,450.071 681.83,451.562 683.94,453.05 686.05,454.536 
  688.16,456.02 690.27,457.501 692.379,458.98 694.489,460.457 696.599,461.931 698.709,463.402 700.818,464.872 702.928,466.339 705.038,467.803 707.148,469.265 
  709.257,470.724 711.367,472.181 713.477,473.636 715.587,475.089 717.696,476.539 719.806,477.988 721.916,479.434 724.026,480.877 726.135,482.319 728.245,483.758 
  730.355,485.195 732.465,486.629 734.574,488.062 736.684,489.492 738.794,490.92 740.904,492.345 743.013,493.769 745.123,495.19 747.233,496.608 749.343,498.025 
  751.452,499.439 753.562,500.851 755.672,502.261 757.782,503.668 759.891,505.074 762.001,506.477 764.111,507.877 766.221,509.276 768.33,510.672 770.44,512.066 
  772.55,513.458 774.66,514.847 776.769,516.234 778.879,517.619 780.989,519.002 783.099,520.382 785.208,521.76 787.318,523.136 789.428,524.509 791.538,525.88 
  793.647,527.249 795.757,528.616 797.867,529.98 799.977,531.343 802.086,532.703 804.196,534.061 806.306,535.418 808.416,536.772 810.526,538.123 812.635,539.473 
  814.745,540.821 816.855,542.167 818.965,543.51 821.074,544.851 823.184,546.191 825.294,547.528 827.404,548.863 829.513,550.196 831.623,551.527 833.733,552.855 
  835.843,554.182 837.952,555.507 840.062,556.829 842.172,558.149 844.282,559.467 846.391,560.783 848.501,562.097 850.611,563.409 852.721,564.719 854.83,566.027 
  856.94,567.332 859.05,568.635 861.16,569.937 863.269,571.236 865.379,572.533 867.489,573.828 869.599,575.121 871.708,576.411 873.818,577.7 875.928,578.987 
  878.038,580.271 880.147,581.553 882.257,582.833 884.367,584.111 886.477,585.386 888.586,586.66 890.696,587.931 892.806,589.201 894.916,590.469 897.025,591.734 
  899.135,592.998 901.245,594.26 903.355,595.52 905.464,596.778 907.574,598.033 909.684,599.287 911.794,600.539 913.903,601.789 916.013,603.037 918.123,604.284 
  920.233,605.528 922.342,606.77 924.452,608.01 926.562,609.249 928.672,610.485 930.781,611.719 932.891,612.952 935.001,614.182 937.111,615.411 939.221,616.638 
  941.33,617.862 943.44,619.085 945.55,620.306 947.66,621.524 949.769,622.741 951.879,623.956 953.989,625.169 956.099,626.38 958.208,627.589 960.318,628.796 
  962.428,630.001 964.538,631.204 966.647,632.406 968.757,633.605 970.867,634.802 972.977,635.998 975.086,637.191 977.196,638.382 979.306,639.572 981.416,640.759 
  983.525,641.945 985.635,643.129 987.745,644.31 989.855,645.49 991.964,646.667 994.074,647.842 996.184,649.016 998.294,650.187 1000.4,651.357 1002.51,652.525 
  1004.62,653.692 1006.73,654.856 1008.84,656.019 1010.95,657.18 1013.06,658.339 1015.17,659.497 1017.28,660.652 1019.39,661.806 1021.5,662.958 1023.61,664.108 
  1025.72,665.256 1027.83,666.403 1029.94,667.548 1032.05,668.691 1034.16,669.832 1036.27,670.972 1038.38,672.109 1040.49,673.245 1042.6,674.379 1044.71,675.511 
  1046.82,676.642 1048.93,677.77 1051.04,678.897 1053.15,680.022 1055.26,681.146 1057.37,682.267 1059.48,683.387 1061.59,684.505 1063.7,685.621 1065.81,686.735 
  1067.92,687.848 1070.03,688.959 1072.14,690.068 1074.24,691.175 1076.35,692.28 1078.46,693.384 1080.57,694.486 1082.68,695.586 1084.79,696.684 1086.9,697.78 
  1089.01,698.875 1091.12,699.968 1093.23,701.059 1095.34,702.148 1097.45,703.235 1099.56,704.321 1101.67,705.405 1103.78,706.487 1105.89,707.567 1108,708.646 
  1110.11,709.722 1112.22,710.796 1114.33,711.869 1116.44,712.94 1118.55,714.009 1120.66,715.077 1122.77,716.143 1124.88,717.207 1126.99,718.27 1129.1,719.332 
  1131.21,720.391 1133.32,721.449 1135.43,722.506 1137.54,723.56 1139.65,724.613 1141.76,725.665 1143.87,726.715 1145.98,727.763 1148.09,728.81 1150.2,729.855 
  1152.31,730.898 1154.42,731.94 1156.53,732.98 1158.63,734.018 1160.74,735.055 1162.85,736.09 1164.96,737.124 1167.07,738.155 1169.18,739.186 1171.29,740.214 
  1173.4,741.241 1175.51,742.267 1177.62,743.29 1179.73,744.313 1181.84,745.333 1183.95,746.352 1186.06,747.369 1188.17,748.385 1190.28,749.399 1192.39,750.411 
  1194.5,751.422 1196.61,752.431 1198.72,753.438 1200.83,754.444 1202.94,755.448 1205.05,756.451 1207.16,757.452 1209.27,758.451 1211.38,759.449 1213.49,760.445 
  1215.6,761.439 1217.71,762.432 1219.82,763.423 1221.93,764.413 1224.04,765.4 1226.15,766.387 1228.26,767.371 1230.37,768.354 1232.48,769.336 1234.59,770.315 
  1236.7,771.293 1238.81,772.269 1240.92,773.243 1243.03,774.216 1245.13,775.187 1247.24,776.157 1249.35,777.125 1251.46,778.092 1253.57,779.057 1255.68,780.021 
  1257.79,780.983 1259.9,781.944 1262.01,782.904 1264.12,783.862 1266.23,784.818 1268.34,785.773 1270.45,786.727 1272.56,787.679 1274.67,788.629 1276.78,789.578 
  1278.89,790.526 1281,791.472 1283.11,792.417 1285.22,793.36 1287.33,794.302 1289.44,795.242 1291.55,796.181 1293.66,797.118 1295.77,798.054 1297.88,798.989 
  1299.99,799.922 1302.1,800.853 1304.21,801.783 1306.32,802.712 1308.43,803.639 1310.54,804.564 1312.65,805.488 1314.76,806.411 1316.87,807.332 1318.98,808.252 
  1321.09,809.17 1323.2,810.087 1325.31,811.002 1327.42,811.916 1329.53,812.828 1331.63,813.739 1333.74,814.648 1335.85,815.556 1337.96,816.463 1340.07,817.368 
  1342.18,818.271 1344.29,819.173 1346.4,820.074 1348.51,820.973 1350.62,821.871 1352.73,822.767 1354.84,823.661 1356.95,824.555 1359.06,825.446 1361.17,826.337 
  1363.28,827.225 1365.39,828.113 1367.5,828.999 1369.61,829.883 1371.72,830.766 1373.83,831.647 1375.94,832.527 1378.05,833.406 1380.16,834.282 1382.27,835.157 
  1384.38,836.03 1386.49,836.903 1388.6,837.774 1390.71,838.643 1392.82,839.512 1394.93,840.379 1397.04,841.244 1399.15,842.109 1401.26,842.972 1403.37,843.833 
  1405.48,844.694 1407.59,845.553 1409.7,846.411 1411.81,847.267 1413.92,848.122 1416.02,848.976 1418.13,849.829 1420.24,850.68 1422.35,851.53 1424.46,852.378 
  1426.57,853.225 1428.68,854.071 1430.79,854.916 1432.9,855.759 1435.01,856.601 1437.12,857.442 1439.23,858.281 1441.34,859.119 1443.45,859.956 1445.56,860.791 
  1447.67,861.626 1449.78,862.458 1451.89,863.29 1454,864.12 1456.11,864.949 1458.22,865.776 1460.33,866.602 1462.44,867.427 1464.55,868.251 1466.66,869.073 
  1468.77,869.894 1470.88,870.714 1472.99,871.532 1475.1,872.349 1477.21,873.164 1479.32,873.979 1481.43,874.792 1483.54,875.603 1485.65,876.414 1487.76,877.223 
  1489.87,878.031 1491.98,878.837 1494.09,879.642 1496.2,880.446 1498.31,881.248 1500.42,882.05 1502.52,882.849 1504.63,883.648 1506.74,884.445 1508.85,885.241 
  1510.96,886.036 1513.07,886.829 1515.18,887.621 1517.29,888.412 1519.4,889.201 1521.51,889.989 1523.62,890.775 1525.73,891.561 1527.84,892.345 1529.95,893.127 
  1532.06,893.908 1534.17,894.687 1536.28,895.465 1538.39,896.243 1540.5,897.019 1542.61,897.793 1544.72,898.567 1546.83,899.34 1548.94,900.111 1551.05,900.881 
  1553.16,901.65 1555.27,902.418 1557.38,903.185 1559.49,903.95 1561.6,904.714 1563.71,905.478 1565.82,906.239 1567.93,907 1570.04,907.76 1572.15,908.518 
  1574.26,909.276 1576.37,910.032 1578.48,910.787 1580.59,911.541 1582.7,912.293 1584.81,913.045 1586.92,913.795 1589.02,914.544 1591.13,915.292 1593.24,916.039 
  1595.35,916.784 1597.46,917.529 1599.57,918.272 1601.68,919.014 1603.79,919.755 1605.9,920.495 1608.01,921.233 1610.12,921.971 1612.23,922.707 1614.34,923.442 
  1616.45,924.176 1618.56,924.909 1620.67,925.64 1622.78,926.371 1624.89,927.1 1627,927.828 1629.11,928.555 1631.22,929.281 1633.33,930.005 1635.44,930.728 
  1637.55,931.451 1639.66,932.172 1641.77,932.892 1643.88,933.61 1645.99,934.328 1648.1,935.044 1650.21,935.759 1652.32,936.473 1654.43,937.186 1656.54,937.898 
  1658.65,938.608 1660.76,939.318 1662.87,940.026 1664.98,940.733 1667.09,941.439 1669.2,942.143 1671.31,942.847 1673.42,943.549 1675.52,944.25 1677.63,944.95 
  1679.74,945.649 1681.85,946.347 1683.96,947.043 1686.07,947.739 1688.18,948.433 1690.29,949.125 1692.4,949.816 1694.51,950.506 1696.62,951.195 1698.73,951.883 
  1700.84,952.57 1702.95,953.256 1705.06,953.941 1707.17,954.625 1709.28,955.307 1711.39,955.989 1713.5,956.67 1715.61,957.35 1717.72,958.029 1719.83,958.706 
  1721.94,959.383 1724.05,960.058 1726.16,960.733 1728.27,961.407 1730.38,962.079 1732.49,962.751 1734.6,963.421 1736.71,964.09 1738.82,964.759 1740.93,965.426 
  1743.04,966.093 1745.15,966.758 1747.26,967.422 1749.37,968.085 1751.48,968.748 1753.59,969.409 1755.7,970.069 1757.81,970.728 1759.91,971.386 1762.02,972.043 
  1764.13,972.699 1766.24,973.354 1768.35,974.008 1770.46,974.661 1772.57,975.313 1774.68,975.964 1776.79,976.613 1778.9,977.262 1781.01,977.91 1783.12,978.557 
  1785.23,979.202 1787.34,979.847 1789.45,980.491 1791.56,981.133 1793.67,981.775 1795.78,982.415 1797.89,983.055 1800,983.693 1802.11,984.331 1804.22,984.967 
  1806.33,985.603 1808.44,986.237 1810.55,986.87 1812.66,987.503 1814.77,988.134 1816.88,988.764 1818.99,989.393 1821.1,990.021 1823.21,990.648 1825.32,991.275 
  1827.43,991.9 1829.54,992.524 1831.65,993.147 1833.76,993.769 1835.87,994.39 1837.98,995.009 1840.09,995.628 1842.2,996.246 1844.31,996.863 1846.41,997.479 
  1848.52,998.093 1850.63,998.707 1852.74,999.32 1854.85,999.931 1856.96,1000.54 1859.07,1001.15 1861.18,1001.76 1863.29,1002.37 1865.4,1002.97 1867.51,1003.58 
  1869.62,1004.18 1871.73,1004.78 1873.84,1005.39 1875.95,1005.99 1878.06,1006.59 1880.17,1007.19 1882.28,1007.79 1884.39,1008.39 1886.5,1008.98 1888.61,1009.58 
  1890.72,1010.17 1892.83,1010.77 1894.94,1011.36 1897.05,1011.95 1899.16,1012.55 1901.27,1013.14 1903.38,1013.73 1905.49,1014.31 1907.6,1014.9 1909.71,1015.49 
  1911.82,1016.08 1913.93,1016.66 1916.04,1017.25 1918.15,1017.83 1920.26,1018.41 1922.37,1018.99 1924.48,1019.57 1926.59,1020.15 1928.7,1020.73 1930.81,1021.31 
  1932.91,1021.89 1935.02,1022.46 1937.13,1023.04 1939.24,1023.61 1941.35,1024.19 1943.46,1024.76 1945.57,1025.33 1947.68,1025.9 1949.79,1026.47 1951.9,1027.04 
  1954.01,1027.61 1956.12,1028.18 1958.23,1028.74 1960.34,1029.31 1962.45,1029.87 1964.56,1030.44 1966.67,1031 1968.78,1031.56 1970.89,1032.12 1973,1032.68 
  1975.11,1033.24 1977.22,1033.8 1979.33,1034.36 1981.44,1034.91 1983.55,1035.47 1985.66,1036.02 1987.77,1036.57 1989.88,1037.13 1991.99,1037.68 1994.1,1038.23 
  1996.21,1038.78 1998.32,1039.33 2000.43,1039.88 2002.54,1040.42 2004.65,1040.97 2006.76,1041.52 2008.87,1042.06 2010.98,1042.6 2013.09,1043.15 2015.2,1043.69 
  2017.3,1044.23 2019.41,1044.77 2021.52,1045.31 2023.63,1045.85 2025.74,1046.38 2027.85,1046.92 2029.96,1047.46 2032.07,1047.99 2034.18,1048.53 2036.29,1049.06 
  2038.4,1049.59 2040.51,1050.12 2042.62,1050.65 2044.73,1051.18 2046.84,1051.71 2048.95,1052.23 2051.06,1052.76 2053.17,1053.28 2055.28,1053.81 2057.39,1054.33 
  2059.5,1054.86 2061.61,1055.38 2063.72,1055.9 2065.83,1056.42 2067.94,1056.94 2070.05,1057.46 2072.16,1057.98 2074.27,1058.5 2076.38,1059.02 2078.49,1059.53 
  2080.6,1060.05 2082.71,1060.56 2084.82,1061.08 2086.93,1061.59 2089.04,1062.1 2091.15,1062.61 2093.26,1063.12 2095.37,1063.63 2097.48,1064.14 2099.59,1064.65 
  2101.7,1065.16 2103.8,1065.67 2105.91,1066.17 2108.02,1066.68 2110.13,1067.18 2112.24,1067.68 2114.35,1068.19 2116.46,1068.69 2118.57,1069.19 2120.68,1069.69 
  2122.79,1070.19 2124.9,1070.69 2127.01,1071.19 2129.12,1071.69 2131.23,1072.18 2133.34,1072.68 2135.45,1073.17 2137.56,1073.67 2139.67,1074.16 2141.78,1074.65 
  2143.89,1075.14 2146,1075.64 2148.11,1076.13 2150.22,1076.62 2152.33,1077.1 2154.44,1077.59 2156.55,1078.08 2158.66,1078.57 2160.77,1079.05 2162.88,1079.54 
  2164.99,1080.02 2167.1,1080.5 2169.21,1080.99 2171.32,1081.47 2173.43,1081.95 2175.54,1082.43 2177.65,1082.91 2179.76,1083.39 2181.87,1083.86 2183.98,1084.34 
  2186.09,1084.82 2188.2,1085.29 2190.3,1085.77 2192.41,1086.24 2194.52,1086.71 2196.63,1087.18 2198.74,1087.66 2200.85,1088.13 2202.96,1088.6 2205.07,1089.07 
  2207.18,1089.53 2209.29,1090 2211.4,1090.47 2213.51,1090.93 2215.62,1091.4 2217.73,1091.86 2219.84,1092.33 2221.95,1092.79 2224.06,1093.25 2226.17,1093.71 
  2228.28,1094.17 2230.39,1094.63 2232.5,1095.09 2234.61,1095.55 2236.72,1096.01 2238.83,1096.46 2240.94,1096.92 2243.05,1097.37 2245.16,1097.83 2247.27,1098.28 
  2249.38,1098.74 2251.49,1099.19 2253.6,1099.64 2255.71,1100.09 2257.82,1100.54 2259.93,1100.99 2262.04,1101.44 2264.15,1101.89 2266.26,1102.34 2268.37,1102.78 
  2270.48,1103.23 2272.59,1103.68 2274.69,1104.12 2276.8,1104.56 2278.91,1105.01 2281.02,1105.45 2283.13,1105.89 2285.24,1106.33 2287.35,1106.77 2289.46,1107.21 
  2291.57,1107.65 2293.68,1108.09 2295.79,1108.53 2297.9,1108.97 2300.01,1109.4 2302.12,1109.84 2304.23,1110.27 2306.34,1110.71 2308.45,1111.14 2310.56,1111.58 
  2312.67,1112.01 2314.78,1112.44 2316.89,1112.87 2319,1113.3 2321.11,1113.73 2323.22,1114.16 2325.33,1114.59 2327.44,1115.01 2329.55,1115.44 2331.66,1115.87 
  2333.77,1116.29 2335.88,1116.72 2337.99,1117.14 2340.1,1117.56 2342.21,1117.99 2344.32,1118.41 2346.43,1118.83 2348.54,1119.25 2350.65,1119.67 2352.76,1120.09 
  
  "/>
<polyline clip-path="url(#clip9302)" style="stroke:#e26f46; stroke-width:12; stroke-opacity:1; fill:none" points="
  245.111,1386.61 247.221,1385.24 249.331,1384.42 251.441,1384 253.55,1383.79 255.66,1383.69 257.77,1383.64 259.88,1383.62 261.989,1383.61 264.099,1383.6 
  266.209,1383.61 268.319,1383.61 270.428,1383.61 272.538,1383.62 274.648,1383.62 276.758,1383.63 278.867,1383.63 280.977,1383.63 283.087,1383.64 285.197,1383.64 
  287.306,1383.65 289.416,1383.65 291.526,1383.66 293.636,1383.66 295.745,1383.67 297.855,1383.67 299.965,1383.68 302.075,1383.68 304.184,1383.69 306.294,1383.69 
  308.404,1383.7 310.514,1383.7 312.623,1383.7 314.733,1383.71 316.843,1383.71 318.953,1383.72 321.063,1383.72 323.172,1383.73 325.282,1383.73 327.392,1383.74 
  329.502,1383.74 331.611,1383.75 333.721,1383.75 335.831,1383.76 337.941,1383.76 340.05,1383.76 342.16,1383.77 344.27,1383.77 346.38,1383.78 348.489,1383.79 
  350.599,1383.79 352.709,1383.79 354.819,1383.8 356.928,1383.8 359.038,1383.81 361.148,1383.81 363.258,1383.81 365.367,1383.82 367.477,1383.83 369.587,1383.83 
  371.697,1383.83 373.806,1383.84 375.916,1383.84 378.026,1383.85 380.136,1383.85 382.245,1383.85 384.355,1383.86 386.465,1383.86 388.575,1383.87 390.684,1383.87 
  392.794,1383.88 394.904,1383.88 397.014,1383.89 399.123,1383.89 401.233,1383.9 403.343,1383.9 405.453,1383.9 407.562,1383.91 409.672,1383.91 411.782,1383.92 
  413.892,1383.92 416.001,1383.92 418.111,1383.93 420.221,1383.93 422.331,1383.94 424.44,1383.94 426.55,1383.95 428.66,1383.95 430.77,1383.95 432.879,1383.96 
  434.989,1383.96 437.099,1383.97 439.209,1383.97 441.318,1383.98 443.428,1383.98 445.538,1383.98 447.648,1383.99 449.758,1383.99 451.867,1384 453.977,1384 
  456.087,1384 458.197,1384.01 460.306,1384.01 462.416,1384.02 464.526,1384.02 466.636,1384.03 468.745,1384.03 470.855,1384.03 472.965,1384.04 475.075,1384.04 
  477.184,1384.05 479.294,1384.05 481.404,1384.05 483.514,1384.06 485.623,1384.06 487.733,1384.07 489.843,1384.07 491.953,1384.07 494.062,1384.08 496.172,1384.08 
  498.282,1384.09 500.392,1384.09 502.501,1384.09 504.611,1384.1 506.721,1384.1 508.831,1384.11 510.94,1384.11 513.05,1384.12 515.16,1384.12 517.27,1384.12 
  519.379,1384.13 521.489,1384.13 523.599,1384.13 525.709,1384.14 527.818,1384.14 529.928,1384.15 532.038,1384.15 534.148,1384.15 536.257,1384.16 538.367,1384.16 
  540.477,1384.17 542.587,1384.17 544.696,1384.17 546.806,1384.18 548.916,1384.18 551.026,1384.19 553.135,1384.19 555.245,1384.19 557.355,1384.2 559.465,1384.2 
  561.574,1384.21 563.684,1384.21 565.794,1384.21 567.904,1384.22 570.014,1384.22 572.123,1384.22 574.233,1384.23 576.343,1384.23 578.453,1384.24 580.562,1384.24 
  582.672,1384.24 584.782,1384.25 586.892,1384.25 589.001,1384.25 591.111,1384.26 593.221,1384.26 595.331,1384.27 597.44,1384.27 599.55,1384.27 601.66,1384.28 
  603.77,1384.28 605.879,1384.28 607.989,1384.29 610.099,1384.29 612.209,1384.3 614.318,1384.3 616.428,1384.3 618.538,1384.31 620.648,1384.31 622.757,1384.31 
  624.867,1384.32 626.977,1384.32 629.087,1384.33 631.196,1384.33 633.306,1384.33 635.416,1384.34 637.526,1384.34 639.635,1384.34 641.745,1384.35 643.855,1384.35 
  645.965,1384.35 648.074,1384.36 650.184,1384.36 652.294,1384.37 654.404,1384.37 656.513,1384.37 658.623,1384.38 660.733,1384.38 662.843,1384.38 664.952,1384.39 
  667.062,1384.39 669.172,1384.39 671.282,1384.4 673.391,1384.4 675.501,1384.4 677.611,1384.41 679.721,1384.41 681.83,1384.41 683.94,1384.42 686.05,1384.42 
  688.16,1384.43 690.27,1384.43 692.379,1384.43 694.489,1384.44 696.599,1384.44 698.709,1384.44 700.818,1384.45 702.928,1384.45 705.038,1384.45 707.148,1384.46 
  709.257,1384.46 711.367,1384.46 713.477,1384.47 715.587,1384.47 717.696,1384.47 719.806,1384.48 721.916,1384.48 724.026,1384.48 726.135,1384.49 728.245,1384.49 
  730.355,1384.49 732.465,1384.5 734.574,1384.5 736.684,1384.5 738.794,1384.51 740.904,1384.51 743.013,1384.51 745.123,1384.52 747.233,1384.52 749.343,1384.52 
  751.452,1384.53 753.562,1384.53 755.672,1384.53 757.782,1384.54 759.891,1384.54 762.001,1384.54 764.111,1384.55 766.221,1384.55 768.33,1384.55 770.44,1384.56 
  772.55,1384.56 774.66,1384.56 776.769,1384.57 778.879,1384.57 780.989,1384.57 783.099,1384.58 785.208,1384.58 787.318,1384.58 789.428,1384.59 791.538,1384.59 
  793.647,1384.59 795.757,1384.6 797.867,1384.6 799.977,1384.6 802.086,1384.61 804.196,1384.61 806.306,1384.61 808.416,1384.62 810.526,1384.62 812.635,1384.62 
  814.745,1384.63 816.855,1384.63 818.965,1384.63 821.074,1384.63 823.184,1384.64 825.294,1384.64 827.404,1384.64 829.513,1384.65 831.623,1384.65 833.733,1384.65 
  835.843,1384.66 837.952,1384.66 840.062,1384.66 842.172,1384.67 844.282,1384.67 846.391,1384.67 848.501,1384.68 850.611,1384.68 852.721,1384.68 854.83,1384.68 
  856.94,1384.69 859.05,1384.69 861.16,1384.69 863.269,1384.7 865.379,1384.7 867.489,1384.7 869.599,1384.71 871.708,1384.71 873.818,1384.71 875.928,1384.72 
  878.038,1384.72 880.147,1384.72 882.257,1384.72 884.367,1384.73 886.477,1384.73 888.586,1384.73 890.696,1384.74 892.806,1384.74 894.916,1384.74 897.025,1384.75 
  899.135,1384.75 901.245,1384.75 903.355,1384.75 905.464,1384.76 907.574,1384.76 909.684,1384.76 911.794,1384.77 913.903,1384.77 916.013,1384.77 918.123,1384.78 
  920.233,1384.78 922.342,1384.78 924.452,1384.78 926.562,1384.79 928.672,1384.79 930.781,1384.79 932.891,1384.8 935.001,1384.8 937.111,1384.8 939.221,1384.8 
  941.33,1384.81 943.44,1384.81 945.55,1384.81 947.66,1384.82 949.769,1384.82 951.879,1384.82 953.989,1384.82 956.099,1384.83 958.208,1384.83 960.318,1384.83 
  962.428,1384.84 964.538,1384.84 966.647,1384.84 968.757,1384.84 970.867,1384.85 972.977,1384.85 975.086,1384.85 977.196,1384.86 979.306,1384.86 981.416,1384.86 
  983.525,1384.86 985.635,1384.87 987.745,1384.87 989.855,1384.87 991.964,1384.87 994.074,1384.88 996.184,1384.88 998.294,1384.88 1000.4,1384.89 1002.51,1384.89 
  1004.62,1384.89 1006.73,1384.89 1008.84,1384.9 1010.95,1384.9 1013.06,1384.9 1015.17,1384.91 1017.28,1384.91 1019.39,1384.91 1021.5,1384.91 1023.61,1384.92 
  1025.72,1384.92 1027.83,1384.92 1029.94,1384.92 1032.05,1384.93 1034.16,1384.93 1036.27,1384.93 1038.38,1384.94 1040.49,1384.94 1042.6,1384.94 1044.71,1384.94 
  1046.82,1384.95 1048.93,1384.95 1051.04,1384.95 1053.15,1384.95 1055.26,1384.96 1057.37,1384.96 1059.48,1384.96 1061.59,1384.96 1063.7,1384.97 1065.81,1384.97 
  1067.92,1384.97 1070.03,1384.97 1072.14,1384.98 1074.24,1384.98 1076.35,1384.98 1078.46,1384.99 1080.57,1384.99 1082.68,1384.99 1084.79,1384.99 1086.9,1385 
  1089.01,1385 1091.12,1385 1093.23,1385 1095.34,1385.01 1097.45,1385.01 1099.56,1385.01 1101.67,1385.01 1103.78,1385.02 1105.89,1385.02 1108,1385.02 
  1110.11,1385.02 1112.22,1385.03 1114.33,1385.03 1116.44,1385.03 1118.55,1385.03 1120.66,1385.04 1122.77,1385.04 1124.88,1385.04 1126.99,1385.04 1129.1,1385.05 
  1131.21,1385.05 1133.32,1385.05 1135.43,1385.05 1137.54,1385.06 1139.65,1385.06 1141.76,1385.06 1143.87,1385.06 1145.98,1385.07 1148.09,1385.07 1150.2,1385.07 
  1152.31,1385.07 1154.42,1385.08 1156.53,1385.08 1158.63,1385.08 1160.74,1385.08 1162.85,1385.09 1164.96,1385.09 1167.07,1385.09 1169.18,1385.09 1171.29,1385.1 
  1173.4,1385.1 1175.51,1385.1 1177.62,1385.1 1179.73,1385.11 1181.84,1385.11 1183.95,1385.11 1186.06,1385.11 1188.17,1385.11 1190.28,1385.12 1192.39,1385.12 
  1194.5,1385.12 1196.61,1385.12 1198.72,1385.13 1200.83,1385.13 1202.94,1385.13 1205.05,1385.13 1207.16,1385.14 1209.27,1385.14 1211.38,1385.14 1213.49,1385.14 
  1215.6,1385.15 1217.71,1385.15 1219.82,1385.15 1221.93,1385.15 1224.04,1385.16 1226.15,1385.16 1228.26,1385.16 1230.37,1385.16 1232.48,1385.16 1234.59,1385.17 
  1236.7,1385.17 1238.81,1385.17 1240.92,1385.17 1243.03,1385.18 1245.13,1385.18 1247.24,1385.18 1249.35,1385.18 1251.46,1385.18 1253.57,1385.19 1255.68,1385.19 
  1257.79,1385.19 1259.9,1385.19 1262.01,1385.2 1264.12,1385.2 1266.23,1385.2 1268.34,1385.2 1270.45,1385.21 1272.56,1385.21 1274.67,1385.21 1276.78,1385.21 
  1278.89,1385.21 1281,1385.22 1283.11,1385.22 1285.22,1385.22 1287.33,1385.22 1289.44,1385.23 1291.55,1385.23 1293.66,1385.23 1295.77,1385.23 1297.88,1385.23 
  1299.99,1385.24 1302.1,1385.24 1304.21,1385.24 1306.32,1385.24 1308.43,1385.25 1310.54,1385.25 1312.65,1385.25 1314.76,1385.25 1316.87,1385.25 1318.98,1385.26 
  1321.09,1385.26 1323.2,1385.26 1325.31,1385.26 1327.42,1385.26 1329.53,1385.27 1331.63,1385.27 1333.74,1385.27 1335.85,1385.27 1337.96,1385.28 1340.07,1385.28 
  1342.18,1385.28 1344.29,1385.28 1346.4,1385.28 1348.51,1385.29 1350.62,1385.29 1352.73,1385.29 1354.84,1385.29 1356.95,1385.29 1359.06,1385.3 1361.17,1385.3 
  1363.28,1385.3 1365.39,1385.3 1367.5,1385.31 1369.61,1385.31 1371.72,1385.31 1373.83,1385.31 1375.94,1385.31 1378.05,1385.32 1380.16,1385.32 1382.27,1385.32 
  1384.38,1385.32 1386.49,1385.32 1388.6,1385.33 1390.71,1385.33 1392.82,1385.33 1394.93,1385.33 1397.04,1385.33 1399.15,1385.34 1401.26,1385.34 1403.37,1385.34 
  1405.48,1385.34 1407.59,1385.34 1409.7,1385.35 1411.81,1385.35 1413.92,1385.35 1416.02,1385.35 1418.13,1385.35 1420.24,1385.36 1422.35,1385.36 1424.46,1385.36 
  1426.57,1385.36 1428.68,1385.36 1430.79,1385.37 1432.9,1385.37 1435.01,1385.37 1437.12,1385.37 1439.23,1385.37 1441.34,1385.38 1443.45,1385.38 1445.56,1385.38 
  1447.67,1385.38 1449.78,1385.38 1451.89,1385.39 1454,1385.39 1456.11,1385.39 1458.22,1385.39 1460.33,1385.39 1462.44,1385.4 1464.55,1385.4 1466.66,1385.4 
  1468.77,1385.4 1470.88,1385.4 1472.99,1385.41 1475.1,1385.41 1477.21,1385.41 1479.32,1385.41 1481.43,1385.41 1483.54,1385.41 1485.65,1385.42 1487.76,1385.42 
  1489.87,1385.42 1491.98,1385.42 1494.09,1385.42 1496.2,1385.43 1498.31,1385.43 1500.42,1385.43 1502.52,1385.43 1504.63,1385.43 1506.74,1385.44 1508.85,1385.44 
  1510.96,1385.44 1513.07,1385.44 1515.18,1385.44 1517.29,1385.45 1519.4,1385.45 1521.51,1385.45 1523.62,1385.45 1525.73,1385.45 1527.84,1385.45 1529.95,1385.46 
  1532.06,1385.46 1534.17,1385.46 1536.28,1385.46 1538.39,1385.46 1540.5,1385.47 1542.61,1385.47 1544.72,1385.47 1546.83,1385.47 1548.94,1385.47 1551.05,1385.47 
  1553.16,1385.48 1555.27,1385.48 1557.38,1385.48 1559.49,1385.48 1561.6,1385.48 1563.71,1385.49 1565.82,1385.49 1567.93,1385.49 1570.04,1385.49 1572.15,1385.49 
  1574.26,1385.49 1576.37,1385.5 1578.48,1385.5 1580.59,1385.5 1582.7,1385.5 1584.81,1385.5 1586.92,1385.51 1589.02,1385.51 1591.13,1385.51 1593.24,1385.51 
  1595.35,1385.51 1597.46,1385.51 1599.57,1385.52 1601.68,1385.52 1603.79,1385.52 1605.9,1385.52 1608.01,1385.52 1610.12,1385.52 1612.23,1385.53 1614.34,1385.53 
  1616.45,1385.53 1618.56,1385.53 1620.67,1385.53 1622.78,1385.53 1624.89,1385.54 1627,1385.54 1629.11,1385.54 1631.22,1385.54 1633.33,1385.54 1635.44,1385.54 
  1637.55,1385.55 1639.66,1385.55 1641.77,1385.55 1643.88,1385.55 1645.99,1385.55 1648.1,1385.56 1650.21,1385.56 1652.32,1385.56 1654.43,1385.56 1656.54,1385.56 
  1658.65,1385.56 1660.76,1385.57 1662.87,1385.57 1664.98,1385.57 1667.09,1385.57 1669.2,1385.57 1671.31,1385.57 1673.42,1385.58 1675.52,1385.58 1677.63,1385.58 
  1679.74,1385.58 1681.85,1385.58 1683.96,1385.58 1686.07,1385.59 1688.18,1385.59 1690.29,1385.59 1692.4,1385.59 1694.51,1385.59 1696.62,1385.59 1698.73,1385.59 
  1700.84,1385.6 1702.95,1385.6 1705.06,1385.6 1707.17,1385.6 1709.28,1385.6 1711.39,1385.6 1713.5,1385.61 1715.61,1385.61 1717.72,1385.61 1719.83,1385.61 
  1721.94,1385.61 1724.05,1385.61 1726.16,1385.62 1728.27,1385.62 1730.38,1385.62 1732.49,1385.62 1734.6,1385.62 1736.71,1385.62 1738.82,1385.63 1740.93,1385.63 
  1743.04,1385.63 1745.15,1385.63 1747.26,1385.63 1749.37,1385.63 1751.48,1385.63 1753.59,1385.64 1755.7,1385.64 1757.81,1385.64 1759.91,1385.64 1762.02,1385.64 
  1764.13,1385.64 1766.24,1385.65 1768.35,1385.65 1770.46,1385.65 1772.57,1385.65 1774.68,1385.65 1776.79,1385.65 1778.9,1385.65 1781.01,1385.66 1783.12,1385.66 
  1785.23,1385.66 1787.34,1385.66 1789.45,1385.66 1791.56,1385.66 1793.67,1385.67 1795.78,1385.67 1797.89,1385.67 1800,1385.67 1802.11,1385.67 1804.22,1385.67 
  1806.33,1385.67 1808.44,1385.68 1810.55,1385.68 1812.66,1385.68 1814.77,1385.68 1816.88,1385.68 1818.99,1385.68 1821.1,1385.68 1823.21,1385.69 1825.32,1385.69 
  1827.43,1385.69 1829.54,1385.69 1831.65,1385.69 1833.76,1385.69 1835.87,1385.7 1837.98,1385.7 1840.09,1385.7 1842.2,1385.7 1844.31,1385.7 1846.41,1385.7 
  1848.52,1385.7 1850.63,1385.71 1852.74,1385.71 1854.85,1385.71 1856.96,1385.71 1859.07,1385.71 1861.18,1385.71 1863.29,1385.71 1865.4,1385.72 1867.51,1385.72 
  1869.62,1385.72 1871.73,1385.72 1873.84,1385.72 1875.95,1385.72 1878.06,1385.72 1880.17,1385.73 1882.28,1385.73 1884.39,1385.73 1886.5,1385.73 1888.61,1385.73 
  1890.72,1385.73 1892.83,1385.73 1894.94,1385.74 1897.05,1385.74 1899.16,1385.74 1901.27,1385.74 1903.38,1385.74 1905.49,1385.74 1907.6,1385.74 1909.71,1385.74 
  1911.82,1385.75 1913.93,1385.75 1916.04,1385.75 1918.15,1385.75 1920.26,1385.75 1922.37,1385.75 1924.48,1385.75 1926.59,1385.76 1928.7,1385.76 1930.81,1385.76 
  1932.91,1385.76 1935.02,1385.76 1937.13,1385.76 1939.24,1385.76 1941.35,1385.77 1943.46,1385.77 1945.57,1385.77 1947.68,1385.77 1949.79,1385.77 1951.9,1385.77 
  1954.01,1385.77 1956.12,1385.77 1958.23,1385.78 1960.34,1385.78 1962.45,1385.78 1964.56,1385.78 1966.67,1385.78 1968.78,1385.78 1970.89,1385.78 1973,1385.79 
  1975.11,1385.79 1977.22,1385.79 1979.33,1385.79 1981.44,1385.79 1983.55,1385.79 1985.66,1385.79 1987.77,1385.79 1989.88,1385.8 1991.99,1385.8 1994.1,1385.8 
  1996.21,1385.8 1998.32,1385.8 2000.43,1385.8 2002.54,1385.8 2004.65,1385.8 2006.76,1385.81 2008.87,1385.81 2010.98,1385.81 2013.09,1385.81 2015.2,1385.81 
  2017.3,1385.81 2019.41,1385.81 2021.52,1385.82 2023.63,1385.82 2025.74,1385.82 2027.85,1385.82 2029.96,1385.82 2032.07,1385.82 2034.18,1385.82 2036.29,1385.82 
  2038.4,1385.83 2040.51,1385.83 2042.62,1385.83 2044.73,1385.83 2046.84,1385.83 2048.95,1385.83 2051.06,1385.83 2053.17,1385.83 2055.28,1385.84 2057.39,1385.84 
  2059.5,1385.84 2061.61,1385.84 2063.72,1385.84 2065.83,1385.84 2067.94,1385.84 2070.05,1385.84 2072.16,1385.85 2074.27,1385.85 2076.38,1385.85 2078.49,1385.85 
  2080.6,1385.85 2082.71,1385.85 2084.82,1385.85 2086.93,1385.85 2089.04,1385.85 2091.15,1385.86 2093.26,1385.86 2095.37,1385.86 2097.48,1385.86 2099.59,1385.86 
  2101.7,1385.86 2103.8,1385.86 2105.91,1385.86 2108.02,1385.87 2110.13,1385.87 2112.24,1385.87 2114.35,1385.87 2116.46,1385.87 2118.57,1385.87 2120.68,1385.87 
  2122.79,1385.87 2124.9,1385.88 2127.01,1385.88 2129.12,1385.88 2131.23,1385.88 2133.34,1385.88 2135.45,1385.88 2137.56,1385.88 2139.67,1385.88 2141.78,1385.88 
  2143.89,1385.89 2146,1385.89 2148.11,1385.89 2150.22,1385.89 2152.33,1385.89 2154.44,1385.89 2156.55,1385.89 2158.66,1385.89 2160.77,1385.89 2162.88,1385.9 
  2164.99,1385.9 2167.1,1385.9 2169.21,1385.9 2171.32,1385.9 2173.43,1385.9 2175.54,1385.9 2177.65,1385.9 2179.76,1385.9 2181.87,1385.91 2183.98,1385.91 
  2186.09,1385.91 2188.2,1385.91 2190.3,1385.91 2192.41,1385.91 2194.52,1385.91 2196.63,1385.91 2198.74,1385.92 2200.85,1385.92 2202.96,1385.92 2205.07,1385.92 
  2207.18,1385.92 2209.29,1385.92 2211.4,1385.92 2213.51,1385.92 2215.62,1385.92 2217.73,1385.92 2219.84,1385.93 2221.95,1385.93 2224.06,1385.93 2226.17,1385.93 
  2228.28,1385.93 2230.39,1385.93 2232.5,1385.93 2234.61,1385.93 2236.72,1385.93 2238.83,1385.94 2240.94,1385.94 2243.05,1385.94 2245.16,1385.94 2247.27,1385.94 
  2249.38,1385.94 2251.49,1385.94 2253.6,1385.94 2255.71,1385.94 2257.82,1385.95 2259.93,1385.95 2262.04,1385.95 2264.15,1385.95 2266.26,1385.95 2268.37,1385.95 
  2270.48,1385.95 2272.59,1385.95 2274.69,1385.95 2276.8,1385.95 2278.91,1385.96 2281.02,1385.96 2283.13,1385.96 2285.24,1385.96 2287.35,1385.96 2289.46,1385.96 
  2291.57,1385.96 2293.68,1385.96 2295.79,1385.96 2297.9,1385.97 2300.01,1385.97 2302.12,1385.97 2304.23,1385.97 2306.34,1385.97 2308.45,1385.97 2310.56,1385.97 
  2312.67,1385.97 2314.78,1385.97 2316.89,1385.97 2319,1385.98 2321.11,1385.98 2323.22,1385.98 2325.33,1385.98 2327.44,1385.98 2329.55,1385.98 2331.66,1385.98 
  2333.77,1385.98 2335.88,1385.98 2337.99,1385.98 2340.1,1385.99 2342.21,1385.99 2344.32,1385.99 2346.43,1385.99 2348.54,1385.99 2350.65,1385.99 2352.76,1385.99 
  
  "/>
<polyline clip-path="url(#clip9302)" style="stroke:#3da44d; stroke-width:12; stroke-opacity:1; fill:none" points="
  245.111,1386.61 247.221,1386.15 249.331,1384.91 251.441,1383.26 253.55,1381.41 255.66,1379.45 257.77,1377.44 259.88,1375.41 261.989,1373.37 264.099,1371.33 
  266.209,1369.28 268.319,1367.24 270.428,1365.2 272.538,1363.16 274.648,1361.13 276.758,1359.1 278.867,1357.07 280.977,1355.04 283.087,1353.02 285.197,1351 
  287.306,1348.98 289.416,1346.97 291.526,1344.96 293.636,1342.96 295.745,1340.95 297.855,1338.95 299.965,1336.96 302.075,1334.96 304.184,1332.97 306.294,1330.99 
  308.404,1329 310.514,1327.02 312.623,1325.05 314.733,1323.07 316.843,1321.1 318.953,1319.13 321.063,1317.17 323.172,1315.21 325.282,1313.25 327.392,1311.29 
  329.502,1309.34 331.611,1307.39 333.721,1305.44 335.831,1303.5 337.941,1301.56 340.05,1299.63 342.16,1297.69 344.27,1295.76 346.38,1293.83 348.489,1291.91 
  350.599,1289.99 352.709,1288.07 354.819,1286.16 356.928,1284.24 359.038,1282.33 361.148,1280.43 363.258,1278.53 365.367,1276.63 367.477,1274.73 369.587,1272.83 
  371.697,1270.94 373.806,1269.06 375.916,1267.17 378.026,1265.29 380.136,1263.41 382.245,1261.54 384.355,1259.66 386.465,1257.79 388.575,1255.93 390.684,1254.06 
  392.794,1252.2 394.904,1250.35 397.014,1248.49 399.123,1246.64 401.233,1244.79 403.343,1242.94 405.453,1241.1 407.562,1239.26 409.672,1237.43 411.782,1235.59 
  413.892,1233.76 416.001,1231.93 418.111,1230.11 420.221,1228.28 422.331,1226.46 424.44,1224.65 426.55,1222.83 428.66,1221.02 430.77,1219.22 432.879,1217.41 
  434.989,1215.61 437.099,1213.81 439.209,1212.01 441.318,1210.22 443.428,1208.43 445.538,1206.64 447.648,1204.86 449.758,1203.08 451.867,1201.3 453.977,1199.52 
  456.087,1197.75 458.197,1195.98 460.306,1194.21 462.416,1192.44 464.526,1190.68 466.636,1188.92 468.745,1187.17 470.855,1185.41 472.965,1183.66 475.075,1181.91 
  477.184,1180.17 479.294,1178.43 481.404,1176.69 483.514,1174.95 485.623,1173.22 487.733,1171.48 489.843,1169.76 491.953,1168.03 494.062,1166.31 496.172,1164.59 
  498.282,1162.87 500.392,1161.15 502.501,1159.44 504.611,1157.73 506.721,1156.03 508.831,1154.32 510.94,1152.62 513.05,1150.92 515.16,1149.23 517.27,1147.53 
  519.379,1145.84 521.489,1144.16 523.599,1142.47 525.709,1140.79 527.818,1139.11 529.928,1137.43 532.038,1135.76 534.148,1134.09 536.257,1132.42 538.367,1130.75 
  540.477,1129.09 542.587,1127.43 544.696,1125.77 546.806,1124.12 548.916,1122.46 551.026,1120.81 553.135,1119.16 555.245,1117.52 557.355,1115.88 559.465,1114.24 
  561.574,1112.6 563.684,1110.97 565.794,1109.33 567.904,1107.71 570.014,1106.08 572.123,1104.46 574.233,1102.83 576.343,1101.22 578.453,1099.6 580.562,1097.99 
  582.672,1096.38 584.782,1094.77 586.892,1093.16 589.001,1091.56 591.111,1089.96 593.221,1088.36 595.331,1086.76 597.44,1085.17 599.55,1083.58 601.66,1081.99 
  603.77,1080.41 605.879,1078.82 607.989,1077.24 610.099,1075.66 612.209,1074.09 614.318,1072.52 616.428,1070.95 618.538,1069.38 620.648,1067.81 622.757,1066.25 
  624.867,1064.69 626.977,1063.13 629.087,1061.58 631.196,1060.02 633.306,1058.47 635.416,1056.93 637.526,1055.38 639.635,1053.84 641.745,1052.3 643.855,1050.76 
  645.965,1049.23 648.074,1047.69 650.184,1046.16 652.294,1044.64 654.404,1043.11 656.513,1041.59 658.623,1040.07 660.733,1038.55 662.843,1037.03 664.952,1035.52 
  667.062,1034.01 669.172,1032.5 671.282,1030.99 673.391,1029.49 675.501,1027.98 677.611,1026.49 679.721,1024.99 681.83,1023.49 683.94,1022 686.05,1020.51 
  688.16,1019.03 690.27,1017.54 692.379,1016.06 694.489,1014.58 696.599,1013.1 698.709,1011.63 700.818,1010.15 702.928,1008.68 705.038,1007.21 707.148,1005.75 
  709.257,1004.29 711.367,1002.83 713.477,1001.37 715.587,999.911 717.696,998.458 719.806,997.006 721.916,995.557 724.026,994.109 726.135,992.665 728.245,991.222 
  730.355,989.782 732.465,988.344 734.574,986.908 736.684,985.475 738.794,984.043 740.904,982.615 743.013,981.188 745.123,979.763 747.233,978.341 749.343,976.921 
  751.452,975.504 753.562,974.088 755.672,972.675 757.782,971.265 759.891,969.856 762.001,968.45 764.111,967.046 766.221,965.644 768.33,964.244 770.44,962.847 
  772.55,961.452 774.66,960.06 776.769,958.669 778.879,957.281 780.989,955.895 783.099,954.512 785.208,953.13 787.318,951.751 789.428,950.375 791.538,949 
  793.647,947.628 795.757,946.259 797.867,944.891 799.977,943.525 802.086,942.161 804.196,940.8 806.306,939.441 808.416,938.083 810.526,936.728 812.635,935.375 
  814.745,934.024 816.855,932.676 818.965,931.329 821.074,929.984 823.184,928.642 825.294,927.302 827.404,925.963 829.513,924.627 831.623,923.293 833.733,921.962 
  835.843,920.632 837.952,919.304 840.062,917.979 842.172,916.655 844.282,915.334 846.391,914.015 848.501,912.698 850.611,911.383 852.721,910.07 854.83,908.759 
  856.94,907.451 859.05,906.144 861.16,904.84 863.269,903.538 865.379,902.238 867.489,900.94 869.599,899.644 871.708,898.35 873.818,897.058 875.928,895.769 
  878.038,894.481 880.147,893.196 882.257,891.913 884.367,890.632 886.477,889.354 888.586,888.077 890.696,886.803 892.806,885.53 894.916,884.26 897.025,882.991 
  899.135,881.724 901.245,880.46 903.355,879.197 905.464,877.936 907.574,876.677 909.684,875.42 911.794,874.165 913.903,872.912 916.013,871.661 918.123,870.412 
  920.233,869.165 922.342,867.92 924.452,866.677 926.562,865.435 928.672,864.196 930.781,862.959 932.891,861.723 935.001,860.49 937.111,859.258 939.221,858.029 
  941.33,856.801 943.44,855.576 945.55,854.352 947.66,853.131 949.769,851.911 951.879,850.693 953.989,849.477 956.099,848.264 958.208,847.052 960.318,845.842 
  962.428,844.634 964.538,843.428 966.647,842.224 968.757,841.022 970.867,839.822 972.977,838.623 975.086,837.427 977.196,836.233 979.306,835.041 981.416,833.85 
  983.525,832.662 985.635,831.476 987.745,830.291 989.855,829.109 991.964,827.929 994.074,826.751 996.184,825.574 998.294,824.4 1000.4,823.227 1002.51,822.056 
  1004.62,820.887 1006.73,819.72 1008.84,818.555 1010.95,817.391 1013.06,816.229 1015.17,815.069 1017.28,813.911 1019.39,812.754 1021.5,811.599 1023.61,810.447 
  1025.72,809.295 1027.83,808.146 1029.94,806.999 1032.05,805.853 1034.16,804.709 1036.27,803.567 1038.38,802.427 1040.49,801.288 1042.6,800.151 1044.71,799.016 
  1046.82,797.883 1048.93,796.752 1051.04,795.622 1053.15,794.495 1055.26,793.369 1057.37,792.245 1059.48,791.122 1061.59,790.002 1063.7,788.883 1065.81,787.766 
  1067.92,786.651 1070.03,785.537 1072.14,784.426 1074.24,783.316 1076.35,782.208 1078.46,781.102 1080.57,779.997 1082.68,778.895 1084.79,777.794 1086.9,776.695 
  1089.01,775.598 1091.12,774.502 1093.23,773.409 1095.34,772.317 1097.45,771.227 1099.56,770.139 1101.67,769.052 1103.78,767.968 1105.89,766.885 1108,765.804 
  1110.11,764.725 1112.22,763.649 1114.33,762.573 1116.44,761.5 1118.55,760.428 1120.66,759.358 1122.77,758.289 1124.88,757.222 1126.99,756.157 1129.1,755.093 
  1131.21,754.031 1133.32,752.97 1135.43,751.911 1137.54,750.854 1139.65,749.798 1141.76,748.744 1143.87,747.692 1145.98,746.641 1148.09,745.592 1150.2,744.545 
  1152.31,743.499 1154.42,742.455 1156.53,741.413 1158.63,740.372 1160.74,739.332 1162.85,738.295 1164.96,737.259 1167.07,736.225 1169.18,735.192 1171.29,734.161 
  1173.4,733.131 1175.51,732.104 1177.62,731.077 1179.73,730.053 1181.84,729.03 1183.95,728.009 1186.06,726.989 1188.17,725.971 1190.28,724.955 1192.39,723.94 
  1194.5,722.927 1196.61,721.915 1198.72,720.906 1200.83,719.897 1202.94,718.891 1205.05,717.886 1207.16,716.883 1209.27,715.881 1211.38,714.881 1213.49,713.883 
  1215.6,712.886 1217.71,711.891 1219.82,710.897 1221.93,709.905 1224.04,708.915 1226.15,707.927 1228.26,706.94 1230.37,705.954 1232.48,704.971 1234.59,703.989 
  1236.7,703.008 1238.81,702.03 1240.92,701.054 1243.03,700.079 1245.13,699.105 1247.24,698.133 1249.35,697.163 1251.46,696.194 1253.57,695.226 1255.68,694.26 
  1257.79,693.295 1259.9,692.332 1262.01,691.371 1264.12,690.41 1266.23,689.452 1268.34,688.494 1270.45,687.539 1272.56,686.584 1274.67,685.632 1276.78,684.68 
  1278.89,683.73 1281,682.782 1283.11,681.835 1285.22,680.89 1287.33,679.946 1289.44,679.003 1291.55,678.062 1293.66,677.122 1295.77,676.184 1297.88,675.248 
  1299.99,674.313 1302.1,673.379 1304.21,672.447 1306.32,671.516 1308.43,670.587 1310.54,669.659 1312.65,668.733 1314.76,667.808 1316.87,666.885 1318.98,665.963 
  1321.09,665.042 1323.2,664.124 1325.31,663.206 1327.42,662.29 1329.53,661.376 1331.63,660.463 1333.74,659.551 1335.85,658.641 1337.96,657.732 1340.07,656.825 
  1342.18,655.92 1344.29,655.016 1346.4,654.113 1348.51,653.212 1350.62,652.312 1352.73,651.414 1354.84,650.517 1356.95,649.621 1359.06,648.728 1361.17,647.835 
  1363.28,646.944 1365.39,646.055 1367.5,645.167 1369.61,644.281 1371.72,643.396 1373.83,642.512 1375.94,641.63 1378.05,640.75 1380.16,639.871 1382.27,638.994 
  1384.38,638.119 1386.49,637.244 1388.6,636.371 1390.71,635.5 1392.82,634.629 1394.93,633.76 1397.04,632.893 1399.15,632.026 1401.26,631.161 1403.37,630.297 
  1405.48,629.435 1407.59,628.574 1409.7,627.714 1411.81,626.856 1413.92,625.998 1416.02,625.142 1418.13,624.288 1420.24,623.435 1422.35,622.583 1424.46,621.732 
  1426.57,620.883 1428.68,620.035 1430.79,619.189 1432.9,618.343 1435.01,617.499 1437.12,616.657 1439.23,615.815 1441.34,614.975 1443.45,614.137 1445.56,613.299 
  1447.67,612.463 1449.78,611.628 1451.89,610.795 1454,609.963 1456.11,609.132 1458.22,608.303 1460.33,607.475 1462.44,606.648 1464.55,605.822 1466.66,604.998 
  1468.77,604.175 1470.88,603.354 1472.99,602.534 1475.1,601.715 1477.21,600.897 1479.32,600.081 1481.43,599.266 1483.54,598.452 1485.65,597.64 1487.76,596.829 
  1489.87,596.019 1491.98,595.211 1494.09,594.404 1496.2,593.598 1498.31,592.794 1500.42,591.991 1502.52,591.189 1504.63,590.389 1506.74,589.59 1508.85,588.792 
  1510.96,587.996 1513.07,587.2 1515.18,586.407 1517.29,585.614 1519.4,584.823 1521.51,584.033 1523.62,583.245 1525.73,582.457 1527.84,581.671 1529.95,580.888 
  1532.06,580.105 1534.17,579.324 1536.28,578.544 1538.39,577.765 1540.5,576.987 1542.61,576.21 1544.72,575.435 1546.83,574.66 1548.94,573.887 1551.05,573.115 
  1553.16,572.344 1555.27,571.575 1557.38,570.806 1559.49,570.039 1561.6,569.273 1563.71,568.508 1565.82,567.744 1567.93,566.981 1570.04,566.22 1572.15,565.46 
  1574.26,564.701 1576.37,563.943 1578.48,563.186 1580.59,562.43 1582.7,561.676 1584.81,560.923 1586.92,560.171 1589.02,559.42 1591.13,558.67 1593.24,557.922 
  1595.35,557.174 1597.46,556.428 1599.57,555.683 1601.68,554.939 1603.79,554.197 1605.9,553.455 1608.01,552.715 1610.12,551.976 1612.23,551.238 1614.34,550.501 
  1616.45,549.765 1618.56,549.031 1620.67,548.298 1622.78,547.565 1624.89,546.834 1627,546.105 1629.11,545.376 1631.22,544.649 1633.33,543.922 1635.44,543.197 
  1637.55,542.473 1639.66,541.751 1641.77,541.029 1643.88,540.309 1645.99,539.59 1648.1,538.871 1650.21,538.155 1652.32,537.439 1654.43,536.724 1656.54,536.011 
  1658.65,535.299 1660.76,534.588 1662.87,533.878 1664.98,533.169 1667.09,532.462 1669.2,531.755 1671.31,531.05 1673.42,530.346 1675.52,529.644 1677.63,528.942 
  1679.74,528.241 1681.85,527.542 1683.96,526.844 1686.07,526.147 1688.18,525.451 1690.29,524.758 1692.4,524.065 1694.51,523.373 1696.62,522.682 1698.73,521.993 
  1700.84,521.304 1702.95,520.617 1705.06,519.93 1707.17,519.245 1709.28,518.56 1711.39,517.877 1713.5,517.195 1715.61,516.513 1717.72,515.833 1719.83,515.154 
  1721.94,514.475 1724.05,513.798 1726.16,513.122 1728.27,512.447 1730.38,511.773 1732.49,511.1 1734.6,510.428 1736.71,509.757 1738.82,509.087 1740.93,508.418 
  1743.04,507.75 1745.15,507.083 1747.26,506.417 1749.37,505.752 1751.48,505.089 1753.59,504.426 1755.7,503.764 1757.81,503.103 1759.91,502.444 1762.02,501.785 
  1764.13,501.128 1766.24,500.471 1768.35,499.816 1770.46,499.161 1772.57,498.508 1774.68,497.855 1776.79,497.204 1778.9,496.554 1781.01,495.904 1783.12,495.256 
  1785.23,494.609 1787.34,493.963 1789.45,493.318 1791.56,492.674 1793.67,492.031 1795.78,491.388 1797.89,490.747 1800,490.107 1802.11,489.469 1804.22,488.831 
  1806.33,488.194 1808.44,487.558 1810.55,486.923 1812.66,486.289 1814.77,485.657 1816.88,485.025 1818.99,484.394 1821.1,483.765 1823.21,483.136 1825.32,482.508 
  1827.43,481.882 1829.54,481.256 1831.65,480.632 1833.76,480.009 1835.87,479.386 1837.98,478.765 1840.09,478.144 1842.2,477.525 1844.31,476.907 1846.41,476.29 
  1848.52,475.673 1850.63,475.058 1852.74,474.444 1854.85,473.831 1856.96,473.219 1859.07,472.609 1861.18,471.999 1863.29,471.391 1865.4,470.784 1867.51,470.177 
  1869.62,469.571 1871.73,468.967 1873.84,468.363 1875.95,467.76 1878.06,467.158 1880.17,466.557 1882.28,465.956 1884.39,465.357 1886.5,464.759 1888.61,464.161 
  1890.72,463.565 1892.83,462.969 1894.94,462.374 1897.05,461.78 1899.16,461.187 1901.27,460.595 1903.38,460.004 1905.49,459.414 1907.6,458.825 1909.71,458.236 
  1911.82,457.649 1913.93,457.062 1916.04,456.476 1918.15,455.891 1920.26,455.308 1922.37,454.725 1924.48,454.143 1926.59,453.561 1928.7,452.981 1930.81,452.402 
  1932.91,451.823 1935.02,451.246 1937.13,450.669 1939.24,450.093 1941.35,449.518 1943.46,448.945 1945.57,448.371 1947.68,447.799 1949.79,447.228 1951.9,446.658 
  1954.01,446.088 1956.12,445.52 1958.23,444.952 1960.34,444.386 1962.45,443.82 1964.56,443.255 1966.67,442.691 1968.78,442.128 1970.89,441.566 1973,441.005 
  1975.11,440.444 1977.22,439.885 1979.33,439.326 1981.44,438.769 1983.55,438.212 1985.66,437.656 1987.77,437.101 1989.88,436.547 1991.99,435.994 1994.1,435.442 
  1996.21,434.891 1998.32,434.34 2000.43,433.791 2002.54,433.242 2004.65,432.695 2006.76,432.148 2008.87,431.602 2010.98,431.057 2013.09,430.513 2015.2,429.97 
  2017.3,429.428 2019.41,428.887 2021.52,428.346 2023.63,427.807 2025.74,427.268 2027.85,426.73 2029.96,426.194 2032.07,425.658 2034.18,425.123 2036.29,424.589 
  2038.4,424.057 2040.51,423.525 2042.62,422.994 2044.73,422.464 2046.84,421.935 2048.95,421.406 2051.06,420.879 2053.17,420.352 2055.28,419.826 2057.39,419.3 
  2059.5,418.776 2061.61,418.252 2063.72,417.729 2065.83,417.207 2067.94,416.685 2070.05,416.165 2072.16,415.645 2074.27,415.126 2076.38,414.608 2078.49,414.09 
  2080.6,413.573 2082.71,413.057 2084.82,412.542 2086.93,412.028 2089.04,411.515 2091.15,411.002 2093.26,410.49 2095.37,409.979 2097.48,409.468 2099.59,408.959 
  2101.7,408.45 2103.8,407.942 2105.91,407.435 2108.02,406.928 2110.13,406.423 2112.24,405.918 2114.35,405.414 2116.46,404.911 2118.57,404.408 2120.68,403.907 
  2122.79,403.406 2124.9,402.906 2127.01,402.406 2129.12,401.908 2131.23,401.41 2133.34,400.913 2135.45,400.417 2137.56,399.922 2139.67,399.427 2141.78,398.933 
  2143.89,398.44 2146,397.948 2148.11,397.457 2150.22,396.966 2152.33,396.476 2154.44,395.987 2156.55,395.499 2158.66,395.011 2160.77,394.525 2162.88,394.039 
  2164.99,393.554 2167.1,393.069 2169.21,392.586 2171.32,392.103 2173.43,391.621 2175.54,391.14 2177.65,390.66 2179.76,390.18 2181.87,389.701 2183.98,389.223 
  2186.09,388.746 2188.2,388.27 2190.3,387.794 2192.41,387.319 2194.52,386.845 2196.63,386.372 2198.74,385.9 2200.85,385.428 2202.96,384.957 2205.07,384.487 
  2207.18,384.018 2209.29,383.549 2211.4,383.081 2213.51,382.615 2215.62,382.148 2217.73,381.683 2219.84,381.219 2221.95,380.755 2224.06,380.292 2226.17,379.83 
  2228.28,379.369 2230.39,378.908 2232.5,378.448 2234.61,377.989 2236.72,377.531 2238.83,377.073 2240.94,376.616 2243.05,376.159 2245.16,375.703 2247.27,375.248 
  2249.38,374.794 2251.49,374.34 2253.6,373.888 2255.71,373.435 2257.82,372.984 2259.93,372.533 2262.04,372.083 2264.15,371.633 2266.26,371.185 2268.37,370.737 
  2270.48,370.289 2272.59,369.843 2274.69,369.397 2276.8,368.952 2278.91,368.507 2281.02,368.063 2283.13,367.62 2285.24,367.178 2287.35,366.736 2289.46,366.295 
  2291.57,365.855 2293.68,365.415 2295.79,364.976 2297.9,364.538 2300.01,364.1 2302.12,363.664 2304.23,363.228 2306.34,362.792 2308.45,362.357 2310.56,361.923 
  2312.67,361.49 2314.78,361.058 2316.89,360.626 2319,360.195 2321.11,359.764 2323.22,359.334 2325.33,358.905 2327.44,358.477 2329.55,358.049 2331.66,357.622 
  2333.77,357.196 2335.88,356.77 2337.99,356.345 2340.1,355.921 2342.21,355.498 2344.32,355.075 2346.43,354.653 2348.54,354.232 2350.65,353.811 2352.76,353.391 
  
  "/>
<polygon clip-path="url(#clip9300)" points="
1861.6,372.684 2280.76,372.684 2280.76,130.764 1861.6,130.764 
  " fill="#ffffff" fill-rule="evenodd" fill-opacity="1"/>
<polyline clip-path="url(#clip9300)" style="stroke:#000000; stroke-width:4; stroke-opacity:1; fill:none" points="
  1861.6,372.684 2280.76,372.684 2280.76,130.764 1861.6,130.764 1861.6,372.684 
  "/>
<polyline clip-path="url(#clip9300)" style="stroke:#009af9; stroke-width:12; stroke-opacity:1; fill:none" points="
  1885.6,191.244 2029.6,191.244 
  "/>
<g clip-path="url(#clip9300)">
<text style="fill:#000000; fill-opacity:1; font-family:Arial,Helvetica Neue,Helvetica,sans-serif; font-size:48px; text-anchor:start;" transform="rotate(0, 2053.6, 208.744)" x="2053.6" y="208.744">Ln(t)</text>
</g>
<polyline clip-path="url(#clip9300)" style="stroke:#e26f46; stroke-width:12; stroke-opacity:1; fill:none" points="
  1885.6,251.724 2029.6,251.724 
  "/>
<g clip-path="url(#clip9300)">
<text style="fill:#000000; fill-opacity:1; font-family:Arial,Helvetica Neue,Helvetica,sans-serif; font-size:48px; text-anchor:start;" transform="rotate(0, 2053.6, 269.224)" x="2053.6" y="269.224">DCA(t)</text>
</g>
<polyline clip-path="url(#clip9300)" style="stroke:#3da44d; stroke-width:12; stroke-opacity:1; fill:none" points="
  1885.6,312.204 2029.6,312.204 
  "/>
<g clip-path="url(#clip9300)">
<text style="fill:#000000; fill-opacity:1; font-family:Arial,Helvetica Neue,Helvetica,sans-serif; font-size:48px; text-anchor:start;" transform="rotate(0, 2053.6, 329.704)" x="2053.6" y="329.704">DCAA(t)</text>
</g>
</svg>
