<?xml version="1.0" encoding="utf-8"?>
<svg xmlns="http://www.w3.org/2000/svg" xmlns:xlink="http://www.w3.org/1999/xlink" width="600" height="400" viewBox="0 0 2400 1600">
<defs>
  <clipPath id="clip9900">
    <rect x="0" y="0" width="2400" height="1600"/>
  </clipPath>
</defs>
<polygon clip-path="url(#clip9900)" points="
0,1600 2400,1600 2400,0 0,0 
  " fill="#ffffff" fill-rule="evenodd" fill-opacity="1"/>
<defs>
  <clipPath id="clip9901">
    <rect x="480" y="0" width="1681" height="1600"/>
  </clipPath>
</defs>
<polygon clip-path="url(#clip9900)" points="
167.279,1425.62 2352.76,1425.62 2352.76,47.2441 167.279,47.2441 
  " fill="#ffffff" fill-rule="evenodd" fill-opacity="1"/>
<defs>
  <clipPath id="clip9902">
    <rect x="167" y="47" width="2186" height="1379"/>
  </clipPath>
</defs>
<polyline clip-path="url(#clip9902)" style="stroke:#000000; stroke-width:2; stroke-opacity:0.1; fill:none" points="
  167.279,1425.62 167.279,47.2441 
  "/>
<polyline clip-path="url(#clip9902)" style="stroke:#000000; stroke-width:2; stroke-opacity:0.1; fill:none" points="
  713.648,1425.62 713.648,47.2441 
  "/>
<polyline clip-path="url(#clip9902)" style="stroke:#000000; stroke-width:2; stroke-opacity:0.1; fill:none" points="
  1260.02,1425.62 1260.02,47.2441 
  "/>
<polyline clip-path="url(#clip9902)" style="stroke:#000000; stroke-width:2; stroke-opacity:0.1; fill:none" points="
  1806.39,1425.62 1806.39,47.2441 
  "/>
<polyline clip-path="url(#clip9902)" style="stroke:#000000; stroke-width:2; stroke-opacity:0.1; fill:none" points="
  2352.76,1425.62 2352.76,47.2441 
  "/>
<polyline clip-path="url(#clip9902)" style="stroke:#000000; stroke-width:2; stroke-opacity:0.1; fill:none" points="
  167.279,1386.61 2352.76,1386.61 
  "/>
<polyline clip-path="url(#clip9902)" style="stroke:#000000; stroke-width:2; stroke-opacity:0.1; fill:none" points="
  167.279,1169.88 2352.76,1169.88 
  "/>
<polyline clip-path="url(#clip9902)" style="stroke:#000000; stroke-width:2; stroke-opacity:0.1; fill:none" points="
  167.279,953.158 2352.76,953.158 
  "/>
<polyline clip-path="url(#clip9902)" style="stroke:#000000; stroke-width:2; stroke-opacity:0.1; fill:none" points="
  167.279,736.432 2352.76,736.432 
  "/>
<polyline clip-path="url(#clip9902)" style="stroke:#000000; stroke-width:2; stroke-opacity:0.1; fill:none" points="
  167.279,519.707 2352.76,519.707 
  "/>
<polyline clip-path="url(#clip9902)" style="stroke:#000000; stroke-width:2; stroke-opacity:0.1; fill:none" points="
  167.279,302.981 2352.76,302.981 
  "/>
<polyline clip-path="url(#clip9902)" style="stroke:#000000; stroke-width:2; stroke-opacity:0.1; fill:none" points="
  167.279,86.2547 2352.76,86.2547 
  "/>
<polyline clip-path="url(#clip9900)" style="stroke:#000000; stroke-width:4; stroke-opacity:1; fill:none" points="
  167.279,1425.62 2352.76,1425.62 
  "/>
<polyline clip-path="url(#clip9900)" style="stroke:#000000; stroke-width:4; stroke-opacity:1; fill:none" points="
  167.279,1425.62 167.279,47.2441 
  "/>
<polyline clip-path="url(#clip9900)" style="stroke:#000000; stroke-width:4; stroke-opacity:1; fill:none" points="
  167.279,1425.62 167.279,1404.94 
  "/>
<polyline clip-path="url(#clip9900)" style="stroke:#000000; stroke-width:4; stroke-opacity:1; fill:none" points="
  713.648,1425.62 713.648,1404.94 
  "/>
<polyline clip-path="url(#clip9900)" style="stroke:#000000; stroke-width:4; stroke-opacity:1; fill:none" points="
  1260.02,1425.62 1260.02,1404.94 
  "/>
<polyline clip-path="url(#clip9900)" style="stroke:#000000; stroke-width:4; stroke-opacity:1; fill:none" points="
  1806.39,1425.62 1806.39,1404.94 
  "/>
<polyline clip-path="url(#clip9900)" style="stroke:#000000; stroke-width:4; stroke-opacity:1; fill:none" points="
  2352.76,1425.62 2352.76,1404.94 
  "/>
<polyline clip-path="url(#clip9900)" style="stroke:#000000; stroke-width:4; stroke-opacity:1; fill:none" points="
  167.279,1386.61 200.061,1386.61 
  "/>
<polyline clip-path="url(#clip9900)" style="stroke:#000000; stroke-width:4; stroke-opacity:1; fill:none" points="
  167.279,1169.88 200.061,1169.88 
  "/>
<polyline clip-path="url(#clip9900)" style="stroke:#000000; stroke-width:4; stroke-opacity:1; fill:none" points="
  167.279,953.158 200.061,953.158 
  "/>
<polyline clip-path="url(#clip9900)" style="stroke:#000000; stroke-width:4; stroke-opacity:1; fill:none" points="
  167.279,736.432 200.061,736.432 
  "/>
<polyline clip-path="url(#clip9900)" style="stroke:#000000; stroke-width:4; stroke-opacity:1; fill:none" points="
  167.279,519.707 200.061,519.707 
  "/>
<polyline clip-path="url(#clip9900)" style="stroke:#000000; stroke-width:4; stroke-opacity:1; fill:none" points="
  167.279,302.981 200.061,302.981 
  "/>
<polyline clip-path="url(#clip9900)" style="stroke:#000000; stroke-width:4; stroke-opacity:1; fill:none" points="
  167.279,86.2547 200.061,86.2547 
  "/>
<g clip-path="url(#clip9900)">
<text style="fill:#000000; fill-opacity:1; font-family:Arial,Helvetica Neue,Helvetica,sans-serif; font-size:48px; text-anchor:middle;" transform="rotate(0, 167.279, 1479.62)" x="167.279" y="1479.62">0</text>
</g>
<g clip-path="url(#clip9900)">
<text style="fill:#000000; fill-opacity:1; font-family:Arial,Helvetica Neue,Helvetica,sans-serif; font-size:48px; text-anchor:middle;" transform="rotate(0, 713.648, 1479.62)" x="713.648" y="1479.62">50</text>
</g>
<g clip-path="url(#clip9900)">
<text style="fill:#000000; fill-opacity:1; font-family:Arial,Helvetica Neue,Helvetica,sans-serif; font-size:48px; text-anchor:middle;" transform="rotate(0, 1260.02, 1479.62)" x="1260.02" y="1479.62">100</text>
</g>
<g clip-path="url(#clip9900)">
<text style="fill:#000000; fill-opacity:1; font-family:Arial,Helvetica Neue,Helvetica,sans-serif; font-size:48px; text-anchor:middle;" transform="rotate(0, 1806.39, 1479.62)" x="1806.39" y="1479.62">150</text>
</g>
<g clip-path="url(#clip9900)">
<text style="fill:#000000; fill-opacity:1; font-family:Arial,Helvetica Neue,Helvetica,sans-serif; font-size:48px; text-anchor:middle;" transform="rotate(0, 2352.76, 1479.62)" x="2352.76" y="1479.62">200</text>
</g>
<g clip-path="url(#clip9900)">
<text style="fill:#000000; fill-opacity:1; font-family:Arial,Helvetica Neue,Helvetica,sans-serif; font-size:48px; text-anchor:end;" transform="rotate(0, 143.279, 1404.11)" x="143.279" y="1404.11">0</text>
</g>
<g clip-path="url(#clip9900)">
<text style="fill:#000000; fill-opacity:1; font-family:Arial,Helvetica Neue,Helvetica,sans-serif; font-size:48px; text-anchor:end;" transform="rotate(0, 143.279, 1187.38)" x="143.279" y="1187.38">100</text>
</g>
<g clip-path="url(#clip9900)">
<text style="fill:#000000; fill-opacity:1; font-family:Arial,Helvetica Neue,Helvetica,sans-serif; font-size:48px; text-anchor:end;" transform="rotate(0, 143.279, 970.658)" x="143.279" y="970.658">200</text>
</g>
<g clip-path="url(#clip9900)">
<text style="fill:#000000; fill-opacity:1; font-family:Arial,Helvetica Neue,Helvetica,sans-serif; font-size:48px; text-anchor:end;" transform="rotate(0, 143.279, 753.932)" x="143.279" y="753.932">300</text>
</g>
<g clip-path="url(#clip9900)">
<text style="fill:#000000; fill-opacity:1; font-family:Arial,Helvetica Neue,Helvetica,sans-serif; font-size:48px; text-anchor:end;" transform="rotate(0, 143.279, 537.207)" x="143.279" y="537.207">400</text>
</g>
<g clip-path="url(#clip9900)">
<text style="fill:#000000; fill-opacity:1; font-family:Arial,Helvetica Neue,Helvetica,sans-serif; font-size:48px; text-anchor:end;" transform="rotate(0, 143.279, 320.481)" x="143.279" y="320.481">500</text>
</g>
<g clip-path="url(#clip9900)">
<text style="fill:#000000; fill-opacity:1; font-family:Arial,Helvetica Neue,Helvetica,sans-serif; font-size:48px; text-anchor:end;" transform="rotate(0, 143.279, 103.755)" x="143.279" y="103.755">600</text>
</g>
<g clip-path="url(#clip9900)">
<text style="fill:#000000; fill-opacity:1; font-family:Arial,Helvetica Neue,Helvetica,sans-serif; font-size:66px; text-anchor:middle;" transform="rotate(0, 1260.02, 1559.48)" x="1260.02" y="1559.48">t</text>
</g>
<polyline clip-path="url(#clip9902)" style="stroke:#009af9; stroke-width:12; stroke-opacity:1; fill:none" points="
  167.279,86.2547 169.467,93.0463 171.654,99.7706 173.842,106.429 176.03,113.021 178.217,119.549 180.405,126.014 182.593,132.416 184.78,138.756 186.968,145.035 
  189.156,151.254 191.343,157.414 193.531,163.515 195.719,169.559 197.906,175.546 200.094,181.477 202.282,187.352 204.469,193.173 206.657,198.94 208.845,204.654 
  211.032,210.316 213.22,215.926 215.408,221.485 217.595,226.994 219.783,232.453 221.971,237.863 224.158,243.224 226.346,248.538 228.534,253.805 230.721,259.025 
  232.909,264.199 235.097,269.328 237.284,274.412 239.472,279.452 241.66,284.448 243.847,289.401 246.035,294.312 248.223,299.18 250.41,304.008 252.598,308.794 
  254.786,313.539 256.973,318.245 259.161,322.911 261.349,327.538 263.536,332.127 265.724,336.677 267.912,341.19 270.099,345.666 272.287,350.105 274.475,354.507 
  276.662,358.874 278.85,363.206 281.038,367.502 283.225,371.764 285.413,375.992 287.601,380.186 289.788,384.346 291.976,388.474 294.164,392.569 296.351,396.631 
  298.539,400.662 300.727,404.662 302.914,408.63 305.102,412.567 307.29,416.474 309.477,420.351 311.665,424.198 313.853,428.015 316.04,431.804 318.228,435.563 
  320.416,439.295 322.603,442.998 324.791,446.673 326.979,450.32 329.166,453.941 331.354,457.534 333.542,461.101 335.729,464.642 337.917,468.156 340.105,471.645 
  342.292,475.108 344.48,478.546 346.668,481.959 348.855,485.347 351.043,488.711 353.231,492.051 355.418,495.366 357.606,498.658 359.794,501.927 361.981,505.172 
  364.169,508.395 366.357,511.595 368.544,514.772 370.732,517.927 372.92,521.06 375.107,524.171 377.295,527.26 379.483,530.329 381.67,533.376 383.858,536.402 
  386.046,539.407 388.233,542.392 390.421,545.357 392.609,548.301 394.796,551.226 396.984,554.131 399.172,557.016 401.359,559.882 403.547,562.729 405.735,565.557 
  407.922,568.366 410.11,571.157 412.298,573.929 414.485,576.683 416.673,579.419 418.861,582.137 421.048,584.838 423.236,587.521 425.424,590.186 427.611,592.834 
  429.799,595.466 431.987,598.08 434.174,600.678 436.362,603.259 438.55,605.824 440.737,608.372 442.925,610.905 445.113,613.421 447.3,615.922 449.488,618.407 
  451.676,620.877 453.863,623.331 456.051,625.77 458.239,628.193 460.426,630.602 462.614,632.996 464.802,635.376 466.989,637.74 469.177,640.091 471.365,642.427 
  473.552,644.748 475.74,647.056 477.927,649.35 480.115,651.63 482.303,653.896 484.49,656.149 486.678,658.388 488.866,660.615 491.053,662.827 493.241,665.027 
  495.429,667.214 497.616,669.388 499.804,671.549 501.992,673.698 504.179,675.834 506.367,677.957 508.555,680.068 510.742,682.168 512.93,684.254 515.118,686.329 
  517.305,688.393 519.493,690.444 521.681,692.483 523.868,694.511 526.056,696.528 528.244,698.533 530.431,700.527 532.619,702.509 534.807,704.481 536.994,706.441 
  539.182,708.391 541.37,710.329 543.557,712.257 545.745,714.174 547.933,716.081 550.12,717.977 552.308,719.862 554.496,721.738 556.683,723.603 558.871,725.457 
  561.059,727.302 563.246,729.137 565.434,730.962 567.622,732.777 569.809,734.582 571.997,736.377 574.185,738.163 576.372,739.94 578.56,741.706 580.748,743.464 
  582.935,745.212 585.123,746.951 587.311,748.681 589.498,750.401 591.686,752.113 593.874,753.815 596.061,755.509 598.249,757.194 600.437,758.87 602.624,760.537 
  604.812,762.196 607,763.846 609.187,765.488 611.375,767.121 613.563,768.746 615.75,770.362 617.938,771.97 620.126,773.57 622.313,775.162 624.501,776.746 
  626.689,778.322 628.876,779.89 631.064,781.45 633.252,783.003 635.439,784.547 637.627,786.084 639.815,787.613 642.002,789.135 644.19,790.649 646.378,792.156 
  648.565,793.655 650.753,795.147 652.941,796.631 655.128,798.109 657.316,799.579 659.504,801.041 661.691,802.497 663.879,803.946 666.067,805.388 668.254,806.822 
  670.442,808.25 672.63,809.671 674.817,811.086 677.005,812.493 679.193,813.894 681.38,815.288 683.568,816.675 685.756,818.056 687.943,819.43 690.131,820.798 
  692.319,822.159 694.506,823.514 696.694,824.863 698.882,826.205 701.069,827.541 703.257,828.871 705.445,830.195 707.632,831.513 709.82,832.824 712.008,834.129 
  714.195,835.429 716.383,836.722 718.571,838.01 720.758,839.291 722.946,840.567 725.134,841.837 727.321,843.101 729.509,844.36 731.697,845.612 733.884,846.859 
  736.072,848.101 738.26,849.337 740.447,850.567 742.635,851.792 744.823,853.011 747.01,854.225 749.198,855.434 751.386,856.637 753.573,857.834 755.761,859.027 
  757.949,860.214 760.136,861.396 762.324,862.573 764.512,863.744 766.699,864.911 768.887,866.072 771.075,867.229 773.262,868.38 775.45,869.526 777.638,870.667 
  779.825,871.804 782.013,872.935 784.201,874.062 786.388,875.184 788.576,876.301 790.764,877.413 792.951,878.521 795.139,879.623 797.326,880.721 799.514,881.815 
  801.702,882.904 803.889,883.988 806.077,885.067 808.265,886.143 810.452,887.213 812.64,888.279 814.828,889.341 817.015,890.398 819.203,891.451 821.391,892.499 
  823.578,893.544 825.766,894.583 827.954,895.619 830.141,896.65 832.329,897.677 834.517,898.7 836.704,899.719 838.892,900.733 841.08,901.744 843.267,902.75 
  845.455,903.752 847.643,904.75 849.83,905.744 852.018,906.734 854.206,907.72 856.393,908.702 858.581,909.68 860.769,910.655 862.956,911.625 865.144,912.591 
  867.332,913.554 869.519,914.513 871.707,915.468 873.895,916.419 876.082,917.366 878.27,918.31 880.458,919.25 882.645,920.186 884.833,921.118 887.021,922.047 
  889.208,922.973 891.396,923.894 893.584,924.812 895.771,925.727 897.959,926.638 900.147,927.545 902.334,928.449 904.522,929.349 906.71,930.246 908.897,931.14 
  911.085,932.03 913.273,932.917 915.46,933.8 917.648,934.68 919.836,935.556 922.023,936.43 924.211,937.299 926.399,938.166 928.586,939.029 930.774,939.889 
  932.962,940.746 935.149,941.6 937.337,942.45 939.525,943.297 941.712,944.141 943.9,944.982 946.088,945.82 948.275,946.654 950.463,947.486 952.651,948.314 
  954.838,949.139 957.026,949.962 959.214,950.781 961.401,951.597 963.589,952.41 965.777,953.22 967.964,954.028 970.152,954.832 972.34,955.633 974.527,956.431 
  976.715,957.227 978.903,958.02 981.09,958.809 983.278,959.596 985.466,960.38 987.653,961.161 989.841,961.94 992.029,962.715 994.216,963.488 996.404,964.258 
  998.592,965.025 1000.78,965.79 1002.97,966.552 1005.15,967.311 1007.34,968.067 1009.53,968.821 1011.72,969.572 1013.91,970.32 1016.09,971.066 1018.28,971.809 
  1020.47,972.55 1022.66,973.288 1024.84,974.023 1027.03,974.756 1029.22,975.486 1031.41,976.214 1033.59,976.939 1035.78,977.661 1037.97,978.382 1040.16,979.099 
  1042.34,979.814 1044.53,980.527 1046.72,981.237 1048.91,981.945 1051.1,982.651 1053.28,983.354 1055.47,984.054 1057.66,984.752 1059.85,985.448 1062.03,986.142 
  1064.22,986.833 1066.41,987.521 1068.6,988.208 1070.78,988.892 1072.97,989.574 1075.16,990.253 1077.35,990.931 1079.54,991.606 1081.72,992.278 1083.91,992.949 
  1086.1,993.617 1088.29,994.283 1090.47,994.947 1092.66,995.608 1094.85,996.268 1097.04,996.925 1099.22,997.58 1101.41,998.233 1103.6,998.883 1105.79,999.532 
  1107.97,1000.18 1110.16,1000.82 1112.35,1001.46 1114.54,1002.1 1116.73,1002.74 1118.91,1003.38 1121.1,1004.01 1123.29,1004.64 1125.48,1005.27 1127.66,1005.9 
  1129.85,1006.53 1132.04,1007.15 1134.23,1007.77 1136.41,1008.39 1138.6,1009.01 1140.79,1009.63 1142.98,1010.24 1145.17,1010.85 1147.35,1011.46 1149.54,1012.07 
  1151.73,1012.67 1153.92,1013.28 1156.1,1013.88 1158.29,1014.48 1160.48,1015.08 1162.67,1015.67 1164.85,1016.27 1167.04,1016.86 1169.23,1017.45 1171.42,1018.04 
  1173.6,1018.63 1175.79,1019.21 1177.98,1019.8 1180.17,1020.38 1182.36,1020.96 1184.54,1021.53 1186.73,1022.11 1188.92,1022.69 1191.11,1023.26 1193.29,1023.83 
  1195.48,1024.4 1197.67,1024.96 1199.86,1025.53 1202.04,1026.09 1204.23,1026.66 1206.42,1027.22 1208.61,1027.77 1210.8,1028.33 1212.98,1028.89 1215.17,1029.44 
  1217.36,1029.99 1219.55,1030.54 1221.73,1031.09 1223.92,1031.64 1226.11,1032.18 1228.3,1032.72 1230.48,1033.27 1232.67,1033.81 1234.86,1034.34 1237.05,1034.88 
  1239.23,1035.42 1241.42,1035.95 1243.61,1036.48 1245.8,1037.01 1247.99,1037.54 1250.17,1038.07 1252.36,1038.59 1254.55,1039.12 1256.74,1039.64 1258.92,1040.16 
  1261.11,1040.68 1263.3,1041.2 1265.49,1041.72 1267.67,1042.23 1269.86,1042.74 1272.05,1043.26 1274.24,1043.77 1276.43,1044.27 1278.61,1044.78 1280.8,1045.29 
  1282.99,1045.79 1285.18,1046.3 1287.36,1046.8 1289.55,1047.3 1291.74,1047.8 1293.93,1048.29 1296.11,1048.79 1298.3,1049.28 1300.49,1049.78 1302.68,1050.27 
  1304.86,1050.76 1307.05,1051.25 1309.24,1051.73 1311.43,1052.22 1313.62,1052.7 1315.8,1053.19 1317.99,1053.67 1320.18,1054.15 1322.37,1054.63 1324.55,1055.1 
  1326.74,1055.58 1328.93,1056.05 1331.12,1056.53 1333.3,1057 1335.49,1057.47 1337.68,1057.94 1339.87,1058.41 1342.05,1058.88 1344.24,1059.34 1346.43,1059.81 
  1348.62,1060.27 1350.81,1060.73 1352.99,1061.19 1355.18,1061.65 1357.37,1062.11 1359.56,1062.56 1361.74,1063.02 1363.93,1063.47 1366.12,1063.93 1368.31,1064.38 
  1370.49,1064.83 1372.68,1065.28 1374.87,1065.73 1377.06,1066.17 1379.25,1066.62 1381.43,1067.06 1383.62,1067.5 1385.81,1067.95 1388,1068.39 1390.18,1068.83 
  1392.37,1069.26 1394.56,1069.7 1396.75,1070.14 1398.93,1070.57 1401.12,1071.01 1403.31,1071.44 1405.5,1071.87 1407.68,1072.3 1409.87,1072.73 1412.06,1073.15 
  1414.25,1073.58 1416.44,1074.01 1418.62,1074.43 1420.81,1074.85 1423,1075.28 1425.19,1075.7 1427.37,1076.12 1429.56,1076.53 1431.75,1076.95 1433.94,1077.37 
  1436.12,1077.78 1438.31,1078.2 1440.5,1078.61 1442.69,1079.02 1444.88,1079.43 1447.06,1079.84 1449.25,1080.25 1451.44,1080.66 1453.63,1081.07 1455.81,1081.47 
  1458,1081.88 1460.19,1082.28 1462.38,1082.68 1464.56,1083.08 1466.75,1083.48 1468.94,1083.88 1471.13,1084.28 1473.31,1084.68 1475.5,1085.07 1477.69,1085.47 
  1479.88,1085.86 1482.07,1086.26 1484.25,1086.65 1486.44,1087.04 1488.63,1087.43 1490.82,1087.82 1493,1088.21 1495.19,1088.59 1497.38,1088.98 1499.57,1089.36 
  1501.75,1089.75 1503.94,1090.13 1506.13,1090.51 1508.32,1090.89 1510.51,1091.27 1512.69,1091.65 1514.88,1092.03 1517.07,1092.41 1519.26,1092.78 1521.44,1093.16 
  1523.63,1093.53 1525.82,1093.91 1528.01,1094.28 1530.19,1094.65 1532.38,1095.02 1534.57,1095.39 1536.76,1095.76 1538.94,1096.13 1541.13,1096.5 1543.32,1096.86 
  1545.51,1097.23 1547.7,1097.59 1549.88,1097.95 1552.07,1098.32 1554.26,1098.68 1556.45,1099.04 1558.63,1099.4 1560.82,1099.76 1563.01,1100.11 1565.2,1100.47 
  1567.38,1100.83 1569.57,1101.18 1571.76,1101.54 1573.95,1101.89 1576.14,1102.24 1578.32,1102.59 1580.51,1102.95 1582.7,1103.3 1584.89,1103.64 1587.07,1103.99 
  1589.26,1104.34 1591.45,1104.69 1593.64,1105.03 1595.82,1105.38 1598.01,1105.72 1600.2,1106.07 1602.39,1106.41 1604.57,1106.75 1606.76,1107.09 1608.95,1107.43 
  1611.14,1107.77 1613.33,1108.11 1615.51,1108.45 1617.7,1108.78 1619.89,1109.12 1622.08,1109.45 1624.26,1109.79 1626.45,1110.12 1628.64,1110.45 1630.83,1110.79 
  1633.01,1111.12 1635.2,1111.45 1637.39,1111.78 1639.58,1112.11 1641.76,1112.43 1643.95,1112.76 1646.14,1113.09 1648.33,1113.41 1650.52,1113.74 1652.7,1114.06 
  1654.89,1114.39 1657.08,1114.71 1659.27,1115.03 1661.45,1115.35 1663.64,1115.67 1665.83,1115.99 1668.02,1116.31 1670.2,1116.63 1672.39,1116.95 1674.58,1117.26 
  1676.77,1117.58 1678.96,1117.89 1681.14,1118.21 1683.33,1118.52 1685.52,1118.83 1687.71,1119.15 1689.89,1119.46 1692.08,1119.77 1694.27,1120.08 1696.46,1120.39 
  1698.64,1120.7 1700.83,1121.01 1703.02,1121.31 1705.21,1121.62 1707.39,1121.93 1709.58,1122.23 1711.77,1122.54 1713.96,1122.84 1716.15,1123.14 1718.33,1123.45 
  1720.52,1123.75 1722.71,1124.05 1724.9,1124.35 1727.08,1124.65 1729.27,1124.95 1731.46,1125.25 1733.65,1125.54 1735.83,1125.84 1738.02,1126.14 1740.21,1126.43 
  1742.4,1126.73 1744.59,1127.02 1746.77,1127.32 1748.96,1127.61 1751.15,1127.9 1753.34,1128.19 1755.52,1128.48 1757.71,1128.77 1759.9,1129.06 1762.09,1129.35 
  1764.27,1129.64 1766.46,1129.93 1768.65,1130.22 1770.84,1130.5 1773.02,1130.79 1775.21,1131.08 1777.4,1131.36 1779.59,1131.64 1781.78,1131.93 1783.96,1132.21 
  1786.15,1132.49 1788.34,1132.77 1790.53,1133.06 1792.71,1133.34 1794.9,1133.62 1797.09,1133.9 1799.28,1134.17 1801.46,1134.45 1803.65,1134.73 1805.84,1135.01 
  1808.03,1135.28 1810.22,1135.56 1812.4,1135.83 1814.59,1136.11 1816.78,1136.38 1818.97,1136.65 1821.15,1136.93 1823.34,1137.2 1825.53,1137.47 1827.72,1137.74 
  1829.9,1138.01 1832.09,1138.28 1834.28,1138.55 1836.47,1138.82 1838.65,1139.09 1840.84,1139.35 1843.03,1139.62 1845.22,1139.89 1847.41,1140.15 1849.59,1140.42 
  1851.78,1140.68 1853.97,1140.95 1856.16,1141.21 1858.34,1141.47 1860.53,1141.73 1862.72,1142 1864.91,1142.26 1867.09,1142.52 1869.28,1142.78 1871.47,1143.04 
  1873.66,1143.3 1875.85,1143.55 1878.03,1143.81 1880.22,1144.07 1882.41,1144.33 1884.6,1144.58 1886.78,1144.84 1888.97,1145.09 1891.16,1145.35 1893.35,1145.6 
  1895.53,1145.86 1897.72,1146.11 1899.91,1146.36 1902.1,1146.61 1904.28,1146.87 1906.47,1147.12 1908.66,1147.37 1910.85,1147.62 1913.04,1147.87 1915.22,1148.12 
  1917.41,1148.36 1919.6,1148.61 1921.79,1148.86 1923.97,1149.11 1926.16,1149.35 1928.35,1149.6 1930.54,1149.84 1932.72,1150.09 1934.91,1150.33 1937.1,1150.58 
  1939.29,1150.82 1941.47,1151.06 1943.66,1151.31 1945.85,1151.55 1948.04,1151.79 1950.23,1152.03 1952.41,1152.27 1954.6,1152.51 1956.79,1152.75 1958.98,1152.99 
  1961.16,1153.23 1963.35,1153.46 1965.54,1153.7 1967.73,1153.94 1969.91,1154.18 1972.1,1154.41 1974.29,1154.65 1976.48,1154.88 1978.67,1155.12 1980.85,1155.35 
  1983.04,1155.58 1985.23,1155.82 1987.42,1156.05 1989.6,1156.28 1991.79,1156.51 1993.98,1156.75 1996.17,1156.98 1998.35,1157.21 2000.54,1157.44 2002.73,1157.67 
  2004.92,1157.9 2007.1,1158.12 2009.29,1158.35 2011.48,1158.58 2013.67,1158.81 2015.86,1159.03 2018.04,1159.26 2020.23,1159.49 2022.42,1159.71 2024.61,1159.94 
  2026.79,1160.16 2028.98,1160.39 2031.17,1160.61 2033.36,1160.83 2035.54,1161.06 2037.73,1161.28 2039.92,1161.5 2042.11,1161.72 2044.3,1161.94 2046.48,1162.16 
  2048.67,1162.38 2050.86,1162.6 2053.05,1162.82 2055.23,1163.04 2057.42,1163.26 2059.61,1163.48 2061.8,1163.7 2063.98,1163.91 2066.17,1164.13 2068.36,1164.35 
  2070.55,1164.56 2072.73,1164.78 2074.92,1164.99 2077.11,1165.21 2079.3,1165.42 2081.49,1165.64 2083.67,1165.85 2085.86,1166.06 2088.05,1166.27 2090.24,1166.49 
  2092.42,1166.7 2094.61,1166.91 2096.8,1167.12 2098.99,1167.33 2101.17,1167.54 2103.36,1167.75 2105.55,1167.96 2107.74,1168.17 2109.93,1168.38 2112.11,1168.59 
  2114.3,1168.8 2116.49,1169 2118.68,1169.21 2120.86,1169.42 2123.05,1169.62 2125.24,1169.83 2127.43,1170.03 2129.61,1170.24 2131.8,1170.44 2133.99,1170.65 
  2136.18,1170.85 2138.36,1171.06 2140.55,1171.26 2142.74,1171.46 2144.93,1171.67 2147.12,1171.87 2149.3,1172.07 2151.49,1172.27 2153.68,1172.47 2155.87,1172.67 
  2158.05,1172.87 2160.24,1173.07 2162.43,1173.27 2164.62,1173.47 2166.8,1173.67 2168.99,1173.87 2171.18,1174.07 2173.37,1174.26 2175.56,1174.46 2177.74,1174.66 
  2179.93,1174.85 2182.12,1175.05 2184.31,1175.25 2186.49,1175.44 2188.68,1175.64 2190.87,1175.83 2193.06,1176.03 2195.24,1176.22 2197.43,1176.41 2199.62,1176.61 
  2201.81,1176.8 2203.99,1176.99 2206.18,1177.19 2208.37,1177.38 2210.56,1177.57 2212.75,1177.76 2214.93,1177.95 2217.12,1178.14 2219.31,1178.33 2221.5,1178.52 
  2223.68,1178.71 2225.87,1178.9 2228.06,1179.09 2230.25,1179.28 2232.43,1179.47 2234.62,1179.65 2236.81,1179.84 2239,1180.03 2241.19,1180.22 2243.37,1180.4 
  2245.56,1180.59 2247.75,1180.77 2249.94,1180.96 2252.12,1181.14 2254.31,1181.33 2256.5,1181.51 2258.69,1181.7 2260.87,1181.88 2263.06,1182.07 2265.25,1182.25 
  2267.44,1182.43 2269.62,1182.61 2271.81,1182.8 2274,1182.98 2276.19,1183.16 2278.38,1183.34 2280.56,1183.52 2282.75,1183.7 2284.94,1183.88 2287.13,1184.06 
  2289.31,1184.24 2291.5,1184.42 2293.69,1184.6 2295.88,1184.78 2298.06,1184.96 2300.25,1185.14 2302.44,1185.31 2304.63,1185.49 2306.81,1185.67 2309,1185.85 
  2311.19,1186.02 2313.38,1186.2 2315.57,1186.38 2317.75,1186.55 2319.94,1186.73 2322.13,1186.9 2324.32,1187.08 2326.5,1187.25 2328.69,1187.42 2330.88,1187.6 
  2333.07,1187.77 2335.25,1187.95 2337.44,1188.12 2339.63,1188.29 2341.82,1188.46 2344.01,1188.64 2346.19,1188.81 2348.38,1188.98 2350.57,1189.15 2352.76,1189.32 
  
  "/>
<polyline clip-path="url(#clip9902)" style="stroke:#e26f46; stroke-width:12; stroke-opacity:1; fill:none" points="
  167.279,1386.61 169.467,1379.82 171.654,1373.11 173.842,1366.48 176.03,1359.91 178.217,1353.43 180.405,1347.01 182.593,1340.67 184.78,1334.39 186.968,1328.19 
  189.156,1322.05 191.343,1315.98 193.531,1309.98 195.719,1304.04 197.906,1298.17 200.094,1292.37 202.282,1286.62 204.469,1280.94 206.657,1275.32 208.845,1269.76 
  211.032,1264.26 213.22,1258.82 215.408,1253.43 217.595,1248.11 219.783,1242.84 221.971,1237.62 224.158,1232.47 226.346,1227.36 228.534,1222.32 230.721,1217.32 
  232.909,1212.38 235.097,1207.49 237.284,1202.65 239.472,1197.86 241.66,1193.12 243.847,1188.43 246.035,1183.79 248.223,1179.2 250.41,1174.65 252.598,1170.16 
  254.786,1165.71 256.973,1161.3 259.161,1156.94 261.349,1152.63 263.536,1148.36 265.724,1144.13 267.912,1139.95 270.099,1135.81 272.287,1131.71 274.475,1127.65 
  276.662,1123.64 278.85,1119.66 281.038,1115.73 283.225,1111.83 285.413,1107.98 287.601,1104.16 289.788,1100.39 291.976,1096.65 294.164,1092.95 296.351,1089.28 
  298.539,1085.65 300.727,1082.06 302.914,1078.51 305.102,1074.99 307.29,1071.5 309.477,1068.05 311.665,1064.64 313.853,1061.26 316.04,1057.91 318.228,1054.59 
  320.416,1051.31 322.603,1048.06 324.791,1044.85 326.979,1041.66 329.166,1038.51 331.354,1035.39 333.542,1032.29 335.729,1029.23 337.917,1026.2 340.105,1023.2 
  342.292,1020.23 344.48,1017.29 346.668,1014.38 348.855,1011.49 351.043,1008.63 353.231,1005.81 355.418,1003.01 357.606,1000.23 359.794,997.487 361.981,994.767 
  364.169,992.075 366.357,989.409 368.544,986.769 370.732,984.154 372.92,981.565 375.107,979.002 377.295,976.463 379.483,973.95 381.67,971.46 383.858,968.995 
  386.046,966.555 388.233,964.137 390.421,961.744 392.609,959.374 394.796,957.026 396.984,954.702 399.172,952.4 401.359,950.121 403.547,947.864 405.735,945.629 
  407.922,943.416 410.11,941.224 412.298,939.053 414.485,936.904 416.673,934.775 418.861,932.668 421.048,930.58 423.236,928.513 425.424,926.467 427.611,924.44 
  429.799,922.433 431.987,920.445 434.174,918.477 436.362,916.528 438.55,914.598 440.737,912.687 442.925,910.795 445.113,908.921 447.3,907.065 449.488,905.228 
  451.676,903.408 453.863,901.606 456.051,899.822 458.239,898.056 460.426,896.307 462.614,894.575 464.802,892.86 466.989,891.161 469.177,889.48 471.365,887.815 
  473.552,886.167 475.74,884.535 477.927,882.918 480.115,881.318 482.303,879.734 484.49,878.165 486.678,876.612 488.866,875.075 491.053,873.552 493.241,872.045 
  495.429,870.553 497.616,869.075 499.804,867.613 501.992,866.165 504.179,864.731 506.367,863.312 508.555,861.907 510.742,860.516 512.93,859.139 515.118,857.776 
  517.305,856.426 519.493,855.09 521.681,853.768 523.868,852.459 526.056,851.163 528.244,849.881 530.431,848.611 532.619,847.355 534.807,846.111 536.994,844.88 
  539.182,843.661 541.37,842.455 543.557,841.262 545.745,840.08 547.933,838.911 550.12,837.754 552.308,836.609 554.496,835.476 556.683,834.354 558.871,833.244 
  561.059,832.146 563.246,831.059 565.434,829.984 567.622,828.92 569.809,827.867 571.997,826.825 574.185,825.795 576.372,824.775 578.56,823.766 580.748,822.768 
  582.935,821.78 585.123,820.803 587.311,819.837 589.498,818.881 591.686,817.935 593.874,816.999 596.061,816.074 598.249,815.159 600.437,814.254 602.624,813.358 
  604.812,812.473 607,811.597 609.187,810.731 611.375,809.874 613.563,809.027 615.75,808.19 617.938,807.362 620.126,806.543 622.313,805.733 624.501,804.933 
  626.689,804.141 628.876,803.359 631.064,802.585 633.252,801.821 635.439,801.065 637.627,800.318 639.815,799.579 642.002,798.849 644.19,798.128 646.378,797.415 
  648.565,796.71 650.753,796.014 652.941,795.326 655.128,794.646 657.316,793.974 659.504,793.31 661.691,792.655 663.879,792.007 666.067,791.367 668.254,790.735 
  670.442,790.11 672.63,789.494 674.817,788.885 677.005,788.283 679.193,787.689 681.38,787.103 683.568,786.524 685.756,785.952 687.943,785.388 690.131,784.831 
  692.319,784.281 694.506,783.738 696.694,783.202 698.882,782.673 701.069,782.152 703.257,781.637 705.445,781.129 707.632,780.628 709.82,780.133 712.008,779.645 
  714.195,779.164 716.383,778.69 718.571,778.222 720.758,777.761 722.946,777.306 725.134,776.857 727.321,776.415 729.509,775.979 731.697,775.55 733.884,775.127 
  736.072,774.71 738.26,774.299 740.447,773.894 742.635,773.495 744.823,773.103 747.01,772.716 749.198,772.335 751.386,771.96 753.573,771.591 755.761,771.228 
  757.949,770.87 760.136,770.518 762.324,770.172 764.512,769.831 766.699,769.496 768.887,769.167 771.075,768.843 773.262,768.524 775.45,768.211 777.638,767.904 
  779.825,767.601 782.013,767.304 784.201,767.013 786.388,766.726 788.576,766.445 790.764,766.169 792.951,765.898 795.139,765.632 797.326,765.371 799.514,765.115 
  801.702,764.864 803.889,764.618 806.077,764.376 808.265,764.14 810.452,763.909 812.64,763.682 814.828,763.46 817.015,763.243 819.203,763.03 821.391,762.822 
  823.578,762.619 825.766,762.42 827.954,762.226 830.141,762.036 832.329,761.851 834.517,761.671 836.704,761.494 838.892,761.322 841.08,761.155 843.267,760.992 
  845.455,760.833 847.643,760.678 849.83,760.528 852.018,760.382 854.206,760.24 856.393,760.102 858.581,759.968 860.769,759.839 862.956,759.713 865.144,759.592 
  867.332,759.474 869.519,759.361 871.707,759.251 873.895,759.146 876.082,759.044 878.27,758.947 880.458,758.853 882.645,758.763 884.833,758.676 887.021,758.594 
  889.208,758.515 891.396,758.44 893.584,758.368 895.771,758.301 897.959,758.237 900.147,758.176 902.334,758.119 904.522,758.066 906.71,758.016 908.897,757.97 
  911.085,757.927 913.273,757.887 915.46,757.852 917.648,757.819 919.836,757.79 922.023,757.764 924.211,757.742 926.399,757.723 928.586,757.707 930.774,757.695 
  932.962,757.686 935.149,757.68 937.337,757.677 939.525,757.677 941.712,757.681 943.9,757.688 946.088,757.698 948.275,757.711 950.463,757.727 952.651,757.746 
  954.838,757.768 957.026,757.794 959.214,757.822 961.401,757.853 963.589,757.887 965.777,757.925 967.964,757.965 970.152,758.008 972.34,758.053 974.527,758.102 
  976.715,758.154 978.903,758.208 981.09,758.265 983.278,758.325 985.466,758.388 987.653,758.453 989.841,758.522 992.029,758.593 994.216,758.666 996.404,758.742 
  998.592,758.821 1000.78,758.903 1002.97,758.987 1005.15,759.074 1007.34,759.163 1009.53,759.255 1011.72,759.349 1013.91,759.446 1016.09,759.546 1018.28,759.648 
  1020.47,759.752 1022.66,759.859 1024.84,759.968 1027.03,760.08 1029.22,760.194 1031.41,760.311 1033.59,760.43 1035.78,760.551 1037.97,760.674 1040.16,760.8 
  1042.34,760.928 1044.53,761.059 1046.72,761.192 1048.91,761.327 1051.1,761.464 1053.28,761.603 1055.47,761.745 1057.66,761.889 1059.85,762.035 1062.03,762.183 
  1064.22,762.334 1066.41,762.486 1068.6,762.641 1070.78,762.797 1072.97,762.956 1075.16,763.117 1077.35,763.28 1079.54,763.445 1081.72,763.612 1083.91,763.781 
  1086.1,763.952 1088.29,764.125 1090.47,764.3 1092.66,764.477 1094.85,764.656 1097.04,764.837 1099.22,765.02 1101.41,765.205 1103.6,765.392 1105.79,765.58 
  1107.97,765.771 1110.16,765.963 1112.35,766.157 1114.54,766.353 1116.73,766.551 1118.91,766.751 1121.1,766.952 1123.29,767.156 1125.48,767.361 1127.66,767.567 
  1129.85,767.776 1132.04,767.986 1134.23,768.198 1136.41,768.412 1138.6,768.627 1140.79,768.845 1142.98,769.063 1145.17,769.284 1147.35,769.506 1149.54,769.73 
  1151.73,769.955 1153.92,770.182 1156.1,770.411 1158.29,770.641 1160.48,770.873 1162.67,771.106 1164.85,771.341 1167.04,771.578 1169.23,771.816 1171.42,772.055 
  1173.6,772.296 1175.79,772.539 1177.98,772.783 1180.17,773.029 1182.36,773.276 1184.54,773.524 1186.73,773.774 1188.92,774.026 1191.11,774.279 1193.29,774.533 
  1195.48,774.789 1197.67,775.046 1199.86,775.305 1202.04,775.565 1204.23,775.827 1206.42,776.089 1208.61,776.353 1210.8,776.619 1212.98,776.886 1215.17,777.154 
  1217.36,777.424 1219.55,777.694 1221.73,777.967 1223.92,778.24 1226.11,778.515 1228.3,778.791 1230.48,779.068 1232.67,779.347 1234.86,779.626 1237.05,779.908 
  1239.23,780.19 1241.42,780.473 1243.61,780.758 1245.8,781.044 1247.99,781.331 1250.17,781.62 1252.36,781.909 1254.55,782.2 1256.74,782.492 1258.92,782.785 
  1261.11,783.079 1263.3,783.374 1265.49,783.671 1267.67,783.968 1269.86,784.267 1272.05,784.567 1274.24,784.867 1276.43,785.169 1278.61,785.472 1280.8,785.777 
  1282.99,786.082 1285.18,786.388 1287.36,786.695 1289.55,787.004 1291.74,787.313 1293.93,787.623 1296.11,787.935 1298.3,788.247 1300.49,788.561 1302.68,788.875 
  1304.86,789.191 1307.05,789.507 1309.24,789.824 1311.43,790.143 1313.62,790.462 1315.8,790.782 1317.99,791.103 1320.18,791.426 1322.37,791.749 1324.55,792.073 
  1326.74,792.397 1328.93,792.723 1331.12,793.05 1333.3,793.377 1335.49,793.706 1337.68,794.035 1339.87,794.366 1342.05,794.697 1344.24,795.029 1346.43,795.361 
  1348.62,795.695 1350.81,796.03 1352.99,796.365 1355.18,796.701 1357.37,797.038 1359.56,797.376 1361.74,797.714 1363.93,798.054 1366.12,798.394 1368.31,798.735 
  1370.49,799.077 1372.68,799.419 1374.87,799.763 1377.06,800.107 1379.25,800.452 1381.43,800.797 1383.62,801.143 1385.81,801.491 1388,801.838 1390.18,802.187 
  1392.37,802.536 1394.56,802.886 1396.75,803.237 1398.93,803.588 1401.12,803.94 1403.31,804.293 1405.5,804.647 1407.68,805.001 1409.87,805.356 1412.06,805.711 
  1414.25,806.067 1416.44,806.424 1418.62,806.782 1420.81,807.14 1423,807.499 1425.19,807.858 1427.37,808.218 1429.56,808.579 1431.75,808.941 1433.94,809.303 
  1436.12,809.665 1438.31,810.028 1440.5,810.392 1442.69,810.757 1444.88,811.122 1447.06,811.487 1449.25,811.854 1451.44,812.22 1453.63,812.588 1455.81,812.956 
  1458,813.324 1460.19,813.693 1462.38,814.063 1464.56,814.433 1466.75,814.804 1468.94,815.175 1471.13,815.547 1473.31,815.919 1475.5,816.292 1477.69,816.665 
  1479.88,817.039 1482.07,817.413 1484.25,817.788 1486.44,818.164 1488.63,818.54 1490.82,818.916 1493,819.293 1495.19,819.67 1497.38,820.048 1499.57,820.426 
  1501.75,820.805 1503.94,821.184 1506.13,821.564 1508.32,821.944 1510.51,822.325 1512.69,822.706 1514.88,823.088 1517.07,823.469 1519.26,823.852 1521.44,824.235 
  1523.63,824.618 1525.82,825.002 1528.01,825.386 1530.19,825.771 1532.38,826.156 1534.57,826.541 1536.76,826.927 1538.94,827.313 1541.13,827.7 1543.32,828.087 
  1545.51,828.474 1547.7,828.862 1549.88,829.25 1552.07,829.638 1554.26,830.027 1556.45,830.417 1558.63,830.806 1560.82,831.196 1563.01,831.587 1565.2,831.978 
  1567.38,832.369 1569.57,832.76 1571.76,833.152 1573.95,833.544 1576.14,833.937 1578.32,834.33 1580.51,834.723 1582.7,835.116 1584.89,835.51 1587.07,835.904 
  1589.26,836.299 1591.45,836.693 1593.64,837.088 1595.82,837.484 1598.01,837.88 1600.2,838.276 1602.39,838.672 1604.57,839.068 1606.76,839.465 1608.95,839.862 
  1611.14,840.26 1613.33,840.658 1615.51,841.056 1617.7,841.454 1619.89,841.852 1622.08,842.251 1624.26,842.65 1626.45,843.05 1628.64,843.449 1630.83,843.849 
  1633.01,844.249 1635.2,844.65 1637.39,845.05 1639.58,845.451 1641.76,845.852 1643.95,846.253 1646.14,846.655 1648.33,847.057 1650.52,847.459 1652.7,847.861 
  1654.89,848.263 1657.08,848.666 1659.27,849.069 1661.45,849.472 1663.64,849.875 1665.83,850.279 1668.02,850.682 1670.2,851.086 1672.39,851.49 1674.58,851.895 
  1676.77,852.299 1678.96,852.704 1681.14,853.109 1683.33,853.514 1685.52,853.919 1687.71,854.324 1689.89,854.73 1692.08,855.135 1694.27,855.541 1696.46,855.947 
  1698.64,856.353 1700.83,856.76 1703.02,857.166 1705.21,857.573 1707.39,857.98 1709.58,858.387 1711.77,858.794 1713.96,859.201 1716.15,859.609 1718.33,860.016 
  1720.52,860.424 1722.71,860.832 1724.9,861.24 1727.08,861.648 1729.27,862.056 1731.46,862.464 1733.65,862.872 1735.83,863.281 1738.02,863.69 1740.21,864.098 
  1742.4,864.507 1744.59,864.916 1746.77,865.325 1748.96,865.735 1751.15,866.144 1753.34,866.553 1755.52,866.963 1757.71,867.372 1759.9,867.782 1762.09,868.192 
  1764.27,868.602 1766.46,869.012 1768.65,869.422 1770.84,869.832 1773.02,870.242 1775.21,870.652 1777.4,871.063 1779.59,871.473 1781.78,871.884 1783.96,872.294 
  1786.15,872.705 1788.34,873.116 1790.53,873.526 1792.71,873.937 1794.9,874.348 1797.09,874.759 1799.28,875.17 1801.46,875.581 1803.65,875.992 1805.84,876.403 
  1808.03,876.814 1810.22,877.226 1812.4,877.637 1814.59,878.048 1816.78,878.46 1818.97,878.871 1821.15,879.282 1823.34,879.694 1825.53,880.105 1827.72,880.517 
  1829.9,880.928 1832.09,881.34 1834.28,881.752 1836.47,882.163 1838.65,882.575 1840.84,882.987 1843.03,883.398 1845.22,883.81 1847.41,884.222 1849.59,884.633 
  1851.78,885.045 1853.97,885.457 1856.16,885.869 1858.34,886.281 1860.53,886.692 1862.72,887.104 1864.91,887.516 1867.09,887.928 1869.28,888.339 1871.47,888.751 
  1873.66,889.163 1875.85,889.574 1878.03,889.986 1880.22,890.398 1882.41,890.809 1884.6,891.221 1886.78,891.633 1888.97,892.044 1891.16,892.456 1893.35,892.867 
  1895.53,893.279 1897.72,893.69 1899.91,894.102 1902.1,894.513 1904.28,894.925 1906.47,895.336 1908.66,895.748 1910.85,896.159 1913.04,896.57 1915.22,896.981 
  1917.41,897.393 1919.6,897.804 1921.79,898.215 1923.97,898.626 1926.16,899.037 1928.35,899.448 1930.54,899.859 1932.72,900.27 1934.91,900.681 1937.1,901.091 
  1939.29,901.502 1941.47,901.913 1943.66,902.323 1945.85,902.734 1948.04,903.144 1950.23,903.555 1952.41,903.965 1954.6,904.375 1956.79,904.786 1958.98,905.196 
  1961.16,905.606 1963.35,906.016 1965.54,906.426 1967.73,906.836 1969.91,907.246 1972.1,907.655 1974.29,908.065 1976.48,908.474 1978.67,908.884 1980.85,909.293 
  1983.04,909.703 1985.23,910.112 1987.42,910.521 1989.6,910.93 1991.79,911.339 1993.98,911.748 1996.17,912.157 1998.35,912.566 2000.54,912.974 2002.73,913.383 
  2004.92,913.791 2007.1,914.2 2009.29,914.608 2011.48,915.016 2013.67,915.424 2015.86,915.832 2018.04,916.24 2020.23,916.648 2022.42,917.056 2024.61,917.463 
  2026.79,917.871 2028.98,918.278 2031.17,918.685 2033.36,919.092 2035.54,919.499 2037.73,919.906 2039.92,920.313 2042.11,920.72 2044.3,921.126 2046.48,921.533 
  2048.67,921.939 2050.86,922.345 2053.05,922.751 2055.23,923.157 2057.42,923.563 2059.61,923.969 2061.8,924.374 2063.98,924.78 2066.17,925.185 2068.36,925.59 
  2070.55,925.996 2072.73,926.401 2074.92,926.805 2077.11,927.21 2079.3,927.615 2081.49,928.019 2083.67,928.423 2085.86,928.828 2088.05,929.232 2090.24,929.635 
  2092.42,930.039 2094.61,930.443 2096.8,930.846 2098.99,931.25 2101.17,931.653 2103.36,932.056 2105.55,932.459 2107.74,932.862 2109.93,933.264 2112.11,933.667 
  2114.3,934.069 2116.49,934.471 2118.68,934.873 2120.86,935.275 2123.05,935.677 2125.24,936.078 2127.43,936.48 2129.61,936.881 2131.8,937.282 2133.99,937.683 
  2136.18,938.084 2138.36,938.484 2140.55,938.885 2142.74,939.285 2144.93,939.685 2147.12,940.085 2149.3,940.485 2151.49,940.885 2153.68,941.284 2155.87,941.683 
  2158.05,942.083 2160.24,942.482 2162.43,942.88 2164.62,943.279 2166.8,943.678 2168.99,944.076 2171.18,944.474 2173.37,944.872 2175.56,945.27 2177.74,945.667 
  2179.93,946.065 2182.12,946.462 2184.31,946.859 2186.49,947.256 2188.68,947.653 2190.87,948.049 2193.06,948.446 2195.24,948.842 2197.43,949.238 2199.62,949.634 
  2201.81,950.03 2203.99,950.425 2206.18,950.82 2208.37,951.215 2210.56,951.61 2212.75,952.005 2214.93,952.4 2217.12,952.794 2219.31,953.188 2221.5,953.582 
  2223.68,953.976 2225.87,954.37 2228.06,954.763 2230.25,955.156 2232.43,955.549 2234.62,955.942 2236.81,956.335 2239,956.727 2241.19,957.12 2243.37,957.512 
  2245.56,957.904 2247.75,958.295 2249.94,958.687 2252.12,959.078 2254.31,959.469 2256.5,959.86 2258.69,960.251 2260.87,960.641 2263.06,961.031 2265.25,961.422 
  2267.44,961.811 2269.62,962.201 2271.81,962.591 2274,962.98 2276.19,963.369 2278.38,963.758 2280.56,964.147 2282.75,964.535 2284.94,964.923 2287.13,965.311 
  2289.31,965.699 2291.5,966.087 2293.69,966.474 2295.88,966.861 2298.06,967.248 2300.25,967.635 2302.44,968.022 2304.63,968.408 2306.81,968.794 2309,969.18 
  2311.19,969.566 2313.38,969.952 2315.57,970.337 2317.75,970.722 2319.94,971.107 2322.13,971.492 2324.32,971.876 2326.5,972.261 2328.69,972.645 2330.88,973.028 
  2333.07,973.412 2335.25,973.795 2337.44,974.179 2339.63,974.562 2341.82,974.944 2344.01,975.327 2346.19,975.709 2348.38,976.091 2350.57,976.473 2352.76,976.855 
  
  "/>
<polyline clip-path="url(#clip9902)" style="stroke:#3da44d; stroke-width:12; stroke-opacity:1; fill:none" points="
  167.279,1386.61 169.467,1386.6 171.654,1386.59 173.842,1386.57 176.03,1386.54 178.217,1386.5 180.405,1386.45 182.593,1386.39 184.78,1386.32 186.968,1386.25 
  189.156,1386.16 191.343,1386.07 193.531,1385.97 195.719,1385.87 197.906,1385.75 200.094,1385.63 202.282,1385.5 204.469,1385.36 206.657,1385.21 208.845,1385.06 
  211.032,1384.9 213.22,1384.73 215.408,1384.55 217.595,1384.37 219.783,1384.18 221.971,1383.98 224.158,1383.78 226.346,1383.57 228.534,1383.35 230.721,1383.12 
  232.909,1382.89 235.097,1382.66 237.284,1382.41 239.472,1382.16 241.66,1381.9 243.847,1381.64 246.035,1381.37 248.223,1381.09 250.41,1380.81 252.598,1380.52 
  254.786,1380.23 256.973,1379.92 259.161,1379.62 261.349,1379.31 263.536,1378.99 265.724,1378.66 267.912,1378.33 270.099,1378 272.287,1377.66 274.475,1377.31 
  276.662,1376.96 278.85,1376.6 281.038,1376.24 283.225,1375.87 285.413,1375.5 287.601,1375.12 289.788,1374.74 291.976,1374.35 294.164,1373.96 296.351,1373.56 
  298.539,1373.16 300.727,1372.75 302.914,1372.33 305.102,1371.92 307.29,1371.49 309.477,1371.07 311.665,1370.64 313.853,1370.2 316.04,1369.76 318.228,1369.31 
  320.416,1368.86 322.603,1368.41 324.791,1367.95 326.979,1367.49 329.166,1367.02 331.354,1366.55 333.542,1366.07 335.729,1365.6 337.917,1365.11 340.105,1364.62 
  342.292,1364.13 344.48,1363.64 346.668,1363.14 348.855,1362.63 351.043,1362.13 353.231,1361.61 355.418,1361.1 357.606,1360.58 359.794,1360.06 361.981,1359.53 
  364.169,1359 366.357,1358.47 368.544,1357.93 370.732,1357.39 372.92,1356.85 375.107,1356.3 377.295,1355.75 379.483,1355.19 381.67,1354.63 383.858,1354.07 
  386.046,1353.51 388.233,1352.94 390.421,1352.37 392.609,1351.8 394.796,1351.22 396.984,1350.64 399.172,1350.05 401.359,1349.47 403.547,1348.88 405.735,1348.28 
  407.922,1347.69 410.11,1347.09 412.298,1346.49 414.485,1345.88 416.673,1345.28 418.861,1344.67 421.048,1344.05 423.236,1343.44 425.424,1342.82 427.611,1342.2 
  429.799,1341.57 431.987,1340.95 434.174,1340.32 436.362,1339.68 438.55,1339.05 440.737,1338.41 442.925,1337.77 445.113,1337.13 447.3,1336.48 449.488,1335.84 
  451.676,1335.19 453.863,1334.53 456.051,1333.88 458.239,1333.22 460.426,1332.56 462.614,1331.9 464.802,1331.24 466.989,1330.57 469.177,1329.9 471.365,1329.23 
  473.552,1328.56 475.74,1327.88 477.927,1327.2 480.115,1326.52 482.303,1325.84 484.49,1325.16 486.678,1324.47 488.866,1323.78 491.053,1323.09 493.241,1322.4 
  495.429,1321.7 497.616,1321.01 499.804,1320.31 501.992,1319.61 504.179,1318.91 506.367,1318.2 508.555,1317.5 510.742,1316.79 512.93,1316.08 515.118,1315.37 
  517.305,1314.65 519.493,1313.94 521.681,1313.22 523.868,1312.5 526.056,1311.78 528.244,1311.06 530.431,1310.33 532.619,1309.61 534.807,1308.88 536.994,1308.15 
  539.182,1307.42 541.37,1306.69 543.557,1305.95 545.745,1305.22 547.933,1304.48 550.12,1303.74 552.308,1303 554.496,1302.26 556.683,1301.51 558.871,1300.77 
  561.059,1300.02 563.246,1299.27 565.434,1298.52 567.622,1297.77 569.809,1297.02 571.997,1296.27 574.185,1295.51 576.372,1294.76 578.56,1294 580.748,1293.24 
  582.935,1292.48 585.123,1291.72 587.311,1290.95 589.498,1290.19 591.686,1289.42 593.874,1288.66 596.061,1287.89 598.249,1287.12 600.437,1286.35 602.624,1285.58 
  604.812,1284.8 607,1284.03 609.187,1283.25 611.375,1282.48 613.563,1281.7 615.75,1280.92 617.938,1280.14 620.126,1279.36 622.313,1278.58 624.501,1277.79 
  626.689,1277.01 628.876,1276.22 631.064,1275.43 633.252,1274.65 635.439,1273.86 637.627,1273.07 639.815,1272.28 642.002,1271.49 644.19,1270.69 646.378,1269.9 
  648.565,1269.11 650.753,1268.31 652.941,1267.51 655.128,1266.72 657.316,1265.92 659.504,1265.12 661.691,1264.32 663.879,1263.52 666.067,1262.72 668.254,1261.91 
  670.442,1261.11 672.63,1260.31 674.817,1259.5 677.005,1258.69 679.193,1257.89 681.38,1257.08 683.568,1256.27 685.756,1255.46 687.943,1254.65 690.131,1253.84 
  692.319,1253.03 694.506,1252.22 696.694,1251.41 698.882,1250.59 701.069,1249.78 703.257,1248.96 705.445,1248.15 707.632,1247.33 709.82,1246.51 712.008,1245.7 
  714.195,1244.88 716.383,1244.06 718.571,1243.24 720.758,1242.42 722.946,1241.6 725.134,1240.78 727.321,1239.95 729.509,1239.13 731.697,1238.31 733.884,1237.48 
  736.072,1236.66 738.26,1235.84 740.447,1235.01 742.635,1234.18 744.823,1233.36 747.01,1232.53 749.198,1231.7 751.386,1230.87 753.573,1230.05 755.761,1229.22 
  757.949,1228.39 760.136,1227.56 762.324,1226.73 764.512,1225.9 766.699,1225.06 768.887,1224.23 771.075,1223.4 773.262,1222.57 775.45,1221.73 777.638,1220.9 
  779.825,1220.07 782.013,1219.23 784.201,1218.4 786.388,1217.56 788.576,1216.73 790.764,1215.89 792.951,1215.05 795.139,1214.22 797.326,1213.38 799.514,1212.54 
  801.702,1211.7 803.889,1210.87 806.077,1210.03 808.265,1209.19 810.452,1208.35 812.64,1207.51 814.828,1206.67 817.015,1205.83 819.203,1204.99 821.391,1204.15 
  823.578,1203.31 825.766,1202.47 827.954,1201.63 830.141,1200.78 832.329,1199.94 834.517,1199.1 836.704,1198.26 838.892,1197.42 841.08,1196.57 843.267,1195.73 
  845.455,1194.89 847.643,1194.04 849.83,1193.2 852.018,1192.35 854.206,1191.51 856.393,1190.67 858.581,1189.82 860.769,1188.98 862.956,1188.13 865.144,1187.29 
  867.332,1186.44 869.519,1185.6 871.707,1184.75 873.895,1183.91 876.082,1183.06 878.27,1182.21 880.458,1181.37 882.645,1180.52 884.833,1179.68 887.021,1178.83 
  889.208,1177.98 891.396,1177.14 893.584,1176.29 895.771,1175.44 897.959,1174.6 900.147,1173.75 902.334,1172.9 904.522,1172.06 906.71,1171.21 908.897,1170.36 
  911.085,1169.51 913.273,1168.67 915.46,1167.82 917.648,1166.97 919.836,1166.12 922.023,1165.28 924.211,1164.43 926.399,1163.58 928.586,1162.73 930.774,1161.89 
  932.962,1161.04 935.149,1160.19 937.337,1159.34 939.525,1158.5 941.712,1157.65 943.9,1156.8 946.088,1155.95 948.275,1155.11 950.463,1154.26 952.651,1153.41 
  954.838,1152.56 957.026,1151.72 959.214,1150.87 961.401,1150.02 963.589,1149.17 965.777,1148.33 967.964,1147.48 970.152,1146.63 972.34,1145.78 974.527,1144.94 
  976.715,1144.09 978.903,1143.24 981.09,1142.4 983.278,1141.55 985.466,1140.7 987.653,1139.86 989.841,1139.01 992.029,1138.16 994.216,1137.32 996.404,1136.47 
  998.592,1135.62 1000.78,1134.78 1002.97,1133.93 1005.15,1133.09 1007.34,1132.24 1009.53,1131.39 1011.72,1130.55 1013.91,1129.7 1016.09,1128.86 1018.28,1128.01 
  1020.47,1127.17 1022.66,1126.32 1024.84,1125.48 1027.03,1124.64 1029.22,1123.79 1031.41,1122.95 1033.59,1122.1 1035.78,1121.26 1037.97,1120.41 1040.16,1119.57 
  1042.34,1118.73 1044.53,1117.88 1046.72,1117.04 1048.91,1116.2 1051.1,1115.36 1053.28,1114.51 1055.47,1113.67 1057.66,1112.83 1059.85,1111.99 1062.03,1111.15 
  1064.22,1110.3 1066.41,1109.46 1068.6,1108.62 1070.78,1107.78 1072.97,1106.94 1075.16,1106.1 1077.35,1105.26 1079.54,1104.42 1081.72,1103.58 1083.91,1102.74 
  1086.1,1101.9 1088.29,1101.06 1090.47,1100.22 1092.66,1099.39 1094.85,1098.55 1097.04,1097.71 1099.22,1096.87 1101.41,1096.03 1103.6,1095.2 1105.79,1094.36 
  1107.97,1093.52 1110.16,1092.69 1112.35,1091.85 1114.54,1091.01 1116.73,1090.18 1118.91,1089.34 1121.1,1088.51 1123.29,1087.67 1125.48,1086.84 1127.66,1086 
  1129.85,1085.17 1132.04,1084.33 1134.23,1083.5 1136.41,1082.67 1138.6,1081.83 1140.79,1081 1142.98,1080.17 1145.17,1079.34 1147.35,1078.5 1149.54,1077.67 
  1151.73,1076.84 1153.92,1076.01 1156.1,1075.18 1158.29,1074.35 1160.48,1073.52 1162.67,1072.69 1164.85,1071.86 1167.04,1071.03 1169.23,1070.2 1171.42,1069.37 
  1173.6,1068.55 1175.79,1067.72 1177.98,1066.89 1180.17,1066.06 1182.36,1065.24 1184.54,1064.41 1186.73,1063.59 1188.92,1062.76 1191.11,1061.93 1193.29,1061.11 
  1195.48,1060.28 1197.67,1059.46 1199.86,1058.64 1202.04,1057.81 1204.23,1056.99 1206.42,1056.17 1208.61,1055.34 1210.8,1054.52 1212.98,1053.7 1215.17,1052.88 
  1217.36,1052.06 1219.55,1051.24 1221.73,1050.41 1223.92,1049.59 1226.11,1048.77 1228.3,1047.96 1230.48,1047.14 1232.67,1046.32 1234.86,1045.5 1237.05,1044.68 
  1239.23,1043.86 1241.42,1043.05 1243.61,1042.23 1245.8,1041.41 1247.99,1040.6 1250.17,1039.78 1252.36,1038.97 1254.55,1038.15 1256.74,1037.34 1258.92,1036.52 
  1261.11,1035.71 1263.3,1034.9 1265.49,1034.08 1267.67,1033.27 1269.86,1032.46 1272.05,1031.65 1274.24,1030.84 1276.43,1030.03 1278.61,1029.22 1280.8,1028.41 
  1282.99,1027.6 1285.18,1026.79 1287.36,1025.98 1289.55,1025.17 1291.74,1024.36 1293.93,1023.55 1296.11,1022.75 1298.3,1021.94 1300.49,1021.13 1302.68,1020.33 
  1304.86,1019.52 1307.05,1018.72 1309.24,1017.91 1311.43,1017.11 1313.62,1016.31 1315.8,1015.5 1317.99,1014.7 1320.18,1013.9 1322.37,1013.1 1324.55,1012.29 
  1326.74,1011.49 1328.93,1010.69 1331.12,1009.89 1333.3,1009.09 1335.49,1008.29 1337.68,1007.49 1339.87,1006.7 1342.05,1005.9 1344.24,1005.1 1346.43,1004.3 
  1348.62,1003.51 1350.81,1002.71 1352.99,1001.91 1355.18,1001.12 1357.37,1000.32 1359.56,999.53 1361.74,998.736 1363.93,997.943 1366.12,997.15 1368.31,996.357 
  1370.49,995.565 1372.68,994.774 1374.87,993.983 1377.06,993.192 1379.25,992.402 1381.43,991.612 1383.62,990.823 1385.81,990.034 1388,989.245 1390.18,988.457 
  1392.37,987.67 1394.56,986.883 1396.75,986.097 1398.93,985.311 1401.12,984.525 1403.31,983.74 1405.5,982.955 1407.68,982.171 1409.87,981.388 1412.06,980.605 
  1414.25,979.822 1416.44,979.04 1418.62,978.258 1420.81,977.477 1423,976.696 1425.19,975.916 1427.37,975.136 1429.56,974.357 1431.75,973.578 1433.94,972.8 
  1436.12,972.022 1438.31,971.245 1440.5,970.468 1442.69,969.691 1444.88,968.916 1447.06,968.14 1449.25,967.365 1451.44,966.591 1453.63,965.817 1455.81,965.044 
  1458,964.271 1460.19,963.498 1462.38,962.727 1464.56,961.955 1466.75,961.184 1468.94,960.414 1471.13,959.644 1473.31,958.875 1475.5,958.106 1477.69,957.337 
  1479.88,956.569 1482.07,955.802 1484.25,955.035 1486.44,954.269 1488.63,953.503 1490.82,952.738 1493,951.973 1495.19,951.209 1497.38,950.445 1499.57,949.681 
  1501.75,948.919 1503.94,948.156 1506.13,947.395 1508.32,946.633 1510.51,945.873 1512.69,945.112 1514.88,944.353 1517.07,943.593 1519.26,942.835 1521.44,942.076 
  1523.63,941.319 1525.82,940.562 1528.01,939.805 1530.19,939.049 1532.38,938.293 1534.57,937.538 1536.76,936.784 1538.94,936.03 1541.13,935.276 1543.32,934.523 
  1545.51,933.771 1547.7,933.019 1549.88,932.267 1552.07,931.516 1554.26,930.766 1556.45,930.016 1558.63,929.267 1560.82,928.518 1563.01,927.77 1565.2,927.022 
  1567.38,926.275 1569.57,925.528 1571.76,924.782 1573.95,924.036 1576.14,923.291 1578.32,922.546 1580.51,921.802 1582.7,921.059 1584.89,920.316 1587.07,919.573 
  1589.26,918.831 1591.45,918.09 1593.64,917.349 1595.82,916.609 1598.01,915.869 1600.2,915.13 1602.39,914.391 1604.57,913.653 1606.76,912.915 1608.95,912.178 
  1611.14,911.441 1613.33,910.705 1615.51,909.97 1617.7,909.235 1619.89,908.5 1622.08,907.766 1624.26,907.033 1626.45,906.3 1628.64,905.568 1630.83,904.836 
  1633.01,904.105 1635.2,903.374 1637.39,902.644 1639.58,901.914 1641.76,901.185 1643.95,900.456 1646.14,899.728 1648.33,899.001 1650.52,898.274 1652.7,897.548 
  1654.89,896.822 1657.08,896.096 1659.27,895.372 1661.45,894.647 1663.64,893.924 1665.83,893.201 1668.02,892.478 1670.2,891.756 1672.39,891.035 1674.58,890.314 
  1676.77,889.593 1678.96,888.873 1681.14,888.154 1683.33,887.435 1685.52,886.717 1687.71,885.999 1689.89,885.282 1692.08,884.566 1694.27,883.85 1696.46,883.134 
  1698.64,882.419 1700.83,881.705 1703.02,880.991 1705.21,880.278 1707.39,879.565 1709.58,878.853 1711.77,878.141 1713.96,877.43 1716.15,876.719 1718.33,876.009 
  1720.52,875.3 1722.71,874.591 1724.9,873.883 1727.08,873.175 1729.27,872.468 1731.46,871.761 1733.65,871.055 1735.83,870.349 1738.02,869.644 1740.21,868.94 
  1742.4,868.236 1744.59,867.532 1746.77,866.829 1748.96,866.127 1751.15,865.425 1753.34,864.724 1755.52,864.024 1757.71,863.323 1759.9,862.624 1762.09,861.925 
  1764.27,861.226 1766.46,860.529 1768.65,859.831 1770.84,859.135 1773.02,858.438 1775.21,857.743 1777.4,857.048 1779.59,856.353 1781.78,855.659 1783.96,854.966 
  1786.15,854.273 1788.34,853.58 1790.53,852.889 1792.71,852.197 1794.9,851.507 1797.09,850.817 1799.28,850.127 1801.46,849.438 1803.65,848.749 1805.84,848.062 
  1808.03,847.374 1810.22,846.687 1812.4,846.001 1814.59,845.315 1816.78,844.63 1818.97,843.946 1821.15,843.262 1823.34,842.578 1825.53,841.895 1827.72,841.213 
  1829.9,840.531 1832.09,839.85 1834.28,839.169 1836.47,838.489 1838.65,837.81 1840.84,837.13 1843.03,836.452 1845.22,835.774 1847.41,835.097 1849.59,834.42 
  1851.78,833.744 1853.97,833.068 1856.16,832.393 1858.34,831.718 1860.53,831.044 1862.72,830.371 1864.91,829.698 1867.09,829.025 1869.28,828.354 1871.47,827.682 
  1873.66,827.012 1875.85,826.341 1878.03,825.672 1880.22,825.003 1882.41,824.334 1884.6,823.666 1886.78,822.999 1888.97,822.332 1891.16,821.666 1893.35,821 
  1895.53,820.335 1897.72,819.671 1899.91,819.007 1902.1,818.343 1904.28,817.68 1906.47,817.018 1908.66,816.356 1910.85,815.695 1913.04,815.034 1915.22,814.374 
  1917.41,813.714 1919.6,813.055 1921.79,812.397 1923.97,811.739 1926.16,811.081 1928.35,810.425 1930.54,809.768 1932.72,809.113 1934.91,808.457 1937.1,807.803 
  1939.29,807.149 1941.47,806.495 1943.66,805.842 1945.85,805.19 1948.04,804.538 1950.23,803.887 1952.41,803.236 1954.6,802.586 1956.79,801.936 1958.98,801.287 
  1961.16,800.638 1963.35,799.99 1965.54,799.343 1967.73,798.696 1969.91,798.05 1972.1,797.404 1974.29,796.759 1976.48,796.114 1978.67,795.47 1980.85,794.827 
  1983.04,794.183 1985.23,793.541 1987.42,792.899 1989.6,792.258 1991.79,791.617 1993.98,790.977 1996.17,790.337 1998.35,789.698 2000.54,789.059 2002.73,788.421 
  2004.92,787.784 2007.1,787.147 2009.29,786.51 2011.48,785.874 2013.67,785.239 2015.86,784.604 2018.04,783.97 2020.23,783.336 2022.42,782.703 2024.61,782.071 
  2026.79,781.439 2028.98,780.807 2031.17,780.176 2033.36,779.546 2035.54,778.916 2037.73,778.287 2039.92,777.658 2042.11,777.03 2044.3,776.402 2046.48,775.775 
  2048.67,775.149 2050.86,774.523 2053.05,773.897 2055.23,773.272 2057.42,772.648 2059.61,772.024 2061.8,771.401 2063.98,770.778 2066.17,770.156 2068.36,769.535 
  2070.55,768.913 2072.73,768.293 2074.92,767.673 2077.11,767.054 2079.3,766.435 2081.49,765.816 2083.67,765.198 2085.86,764.581 2088.05,763.964 2090.24,763.348 
  2092.42,762.733 2094.61,762.118 2096.8,761.503 2098.99,760.889 2101.17,760.276 2103.36,759.663 2105.55,759.05 2107.74,758.439 2109.93,757.827 2112.11,757.217 
  2114.3,756.606 2116.49,755.997 2118.68,755.388 2120.86,754.779 2123.05,754.171 2125.24,753.563 2127.43,752.957 2129.61,752.35 2131.8,751.744 2133.99,751.139 
  2136.18,750.534 2138.36,749.93 2140.55,749.326 2142.74,748.723 2144.93,748.12 2147.12,747.518 2149.3,746.917 2151.49,746.316 2153.68,745.715 2155.87,745.115 
  2158.05,744.516 2160.24,743.917 2162.43,743.319 2164.62,742.721 2166.8,742.124 2168.99,741.527 2171.18,740.931 2173.37,740.335 2175.56,739.74 2177.74,739.146 
  2179.93,738.552 2182.12,737.958 2184.31,737.365 2186.49,736.773 2188.68,736.181 2190.87,735.589 2193.06,734.999 2195.24,734.408 2197.43,733.819 2199.62,733.229 
  2201.81,732.641 2203.99,732.053 2206.18,731.465 2208.37,730.878 2210.56,730.291 2212.75,729.705 2214.93,729.12 2217.12,728.535 2219.31,727.95 2221.5,727.367 
  2223.68,726.783 2225.87,726.2 2228.06,725.618 2230.25,725.036 2232.43,724.455 2234.62,723.874 2236.81,723.294 2239,722.715 2241.19,722.135 2243.37,721.557 
  2245.56,720.979 2247.75,720.401 2249.94,719.824 2252.12,719.248 2254.31,718.672 2256.5,718.096 2258.69,717.522 2260.87,716.947 2263.06,716.373 2265.25,715.8 
  2267.44,715.227 2269.62,714.655 2271.81,714.083 2274,713.512 2276.19,712.941 2278.38,712.371 2280.56,711.802 2282.75,711.232 2284.94,710.664 2287.13,710.096 
  2289.31,709.528 2291.5,708.961 2293.69,708.395 2295.88,707.829 2298.06,707.263 2300.25,706.698 2302.44,706.134 2304.63,705.57 2306.81,705.007 2309,704.444 
  2311.19,703.881 2313.38,703.32 2315.57,702.758 2317.75,702.198 2319.94,701.637 2322.13,701.078 2324.32,700.518 2326.5,699.96 2328.69,699.402 2330.88,698.844 
  2333.07,698.287 2335.25,697.73 2337.44,697.174 2339.63,696.618 2341.82,696.063 2344.01,695.509 2346.19,694.955 2348.38,694.401 2350.57,693.848 2352.76,693.296 
  
  "/>
<polygon clip-path="url(#clip9900)" points="
1963.21,372.684 2280.76,372.684 2280.76,130.764 1963.21,130.764 
  " fill="#ffffff" fill-rule="evenodd" fill-opacity="1"/>
<polyline clip-path="url(#clip9900)" style="stroke:#000000; stroke-width:4; stroke-opacity:1; fill:none" points="
  1963.21,372.684 2280.76,372.684 2280.76,130.764 1963.21,130.764 1963.21,372.684 
  "/>
<polyline clip-path="url(#clip9900)" style="stroke:#009af9; stroke-width:12; stroke-opacity:1; fill:none" points="
  1987.21,191.244 2131.21,191.244 
  "/>
<g clip-path="url(#clip9900)">
<text style="fill:#000000; fill-opacity:1; font-family:Arial,Helvetica Neue,Helvetica,sans-serif; font-size:48px; text-anchor:start;" transform="rotate(0, 2155.21, 208.744)" x="2155.21" y="208.744">X(t)</text>
</g>
<polyline clip-path="url(#clip9900)" style="stroke:#e26f46; stroke-width:12; stroke-opacity:1; fill:none" points="
  1987.21,251.724 2131.21,251.724 
  "/>
<g clip-path="url(#clip9900)">
<text style="fill:#000000; fill-opacity:1; font-family:Arial,Helvetica Neue,Helvetica,sans-serif; font-size:48px; text-anchor:start;" transform="rotate(0, 2155.21, 269.224)" x="2155.21" y="269.224">Y(t)</text>
</g>
<polyline clip-path="url(#clip9900)" style="stroke:#3da44d; stroke-width:12; stroke-opacity:1; fill:none" points="
  1987.21,312.204 2131.21,312.204 
  "/>
<g clip-path="url(#clip9900)">
<text style="fill:#000000; fill-opacity:1; font-family:Arial,Helvetica Neue,Helvetica,sans-serif; font-size:48px; text-anchor:start;" transform="rotate(0, 2155.21, 329.704)" x="2155.21" y="329.704">Z(t)</text>
</g>
</svg>
