<?xml version="1.0" encoding="utf-8"?>
<svg xmlns="http://www.w3.org/2000/svg" xmlns:xlink="http://www.w3.org/1999/xlink" width="600" height="400" viewBox="0 0 2400 1600">
<defs>
  <clipPath id="clip5100">
    <rect x="0" y="0" width="2400" height="1600"/>
  </clipPath>
</defs>
<polygon clip-path="url(#clip5100)" points="
0,1600 2400,1600 2400,0 0,0 
  " fill="#ffffff" fill-rule="evenodd" fill-opacity="1"/>
<defs>
  <clipPath id="clip5101">
    <rect x="480" y="0" width="1681" height="1600"/>
  </clipPath>
</defs>
<polygon clip-path="url(#clip5100)" points="
167.279,1425.62 2352.76,1425.62 2352.76,47.2441 167.279,47.2441 
  " fill="#ffffff" fill-rule="evenodd" fill-opacity="1"/>
<defs>
  <clipPath id="clip5102">
    <rect x="167" y="47" width="2186" height="1379"/>
  </clipPath>
</defs>
<polyline clip-path="url(#clip5102)" style="stroke:#000000; stroke-width:2; stroke-opacity:0.1; fill:none" points="
  167.279,1425.62 167.279,47.2441 
  "/>
<polyline clip-path="url(#clip5102)" style="stroke:#000000; stroke-width:2; stroke-opacity:0.1; fill:none" points="
  604.374,1425.62 604.374,47.2441 
  "/>
<polyline clip-path="url(#clip5102)" style="stroke:#000000; stroke-width:2; stroke-opacity:0.1; fill:none" points="
  1041.47,1425.62 1041.47,47.2441 
  "/>
<polyline clip-path="url(#clip5102)" style="stroke:#000000; stroke-width:2; stroke-opacity:0.1; fill:none" points="
  1478.57,1425.62 1478.57,47.2441 
  "/>
<polyline clip-path="url(#clip5102)" style="stroke:#000000; stroke-width:2; stroke-opacity:0.1; fill:none" points="
  1915.66,1425.62 1915.66,47.2441 
  "/>
<polyline clip-path="url(#clip5102)" style="stroke:#000000; stroke-width:2; stroke-opacity:0.1; fill:none" points="
  2352.76,1425.62 2352.76,47.2441 
  "/>
<polyline clip-path="url(#clip5102)" style="stroke:#000000; stroke-width:2; stroke-opacity:0.1; fill:none" points="
  167.279,1386.61 2352.76,1386.61 
  "/>
<polyline clip-path="url(#clip5102)" style="stroke:#000000; stroke-width:2; stroke-opacity:0.1; fill:none" points="
  167.279,1169.88 2352.76,1169.88 
  "/>
<polyline clip-path="url(#clip5102)" style="stroke:#000000; stroke-width:2; stroke-opacity:0.1; fill:none" points="
  167.279,953.158 2352.76,953.158 
  "/>
<polyline clip-path="url(#clip5102)" style="stroke:#000000; stroke-width:2; stroke-opacity:0.1; fill:none" points="
  167.279,736.432 2352.76,736.432 
  "/>
<polyline clip-path="url(#clip5102)" style="stroke:#000000; stroke-width:2; stroke-opacity:0.1; fill:none" points="
  167.279,519.707 2352.76,519.707 
  "/>
<polyline clip-path="url(#clip5102)" style="stroke:#000000; stroke-width:2; stroke-opacity:0.1; fill:none" points="
  167.279,302.981 2352.76,302.981 
  "/>
<polyline clip-path="url(#clip5102)" style="stroke:#000000; stroke-width:2; stroke-opacity:0.1; fill:none" points="
  167.279,86.2547 2352.76,86.2547 
  "/>
<polyline clip-path="url(#clip5100)" style="stroke:#000000; stroke-width:4; stroke-opacity:1; fill:none" points="
  167.279,1425.62 2352.76,1425.62 
  "/>
<polyline clip-path="url(#clip5100)" style="stroke:#000000; stroke-width:4; stroke-opacity:1; fill:none" points="
  167.279,1425.62 167.279,47.2441 
  "/>
<polyline clip-path="url(#clip5100)" style="stroke:#000000; stroke-width:4; stroke-opacity:1; fill:none" points="
  167.279,1425.62 167.279,1404.94 
  "/>
<polyline clip-path="url(#clip5100)" style="stroke:#000000; stroke-width:4; stroke-opacity:1; fill:none" points="
  604.374,1425.62 604.374,1404.94 
  "/>
<polyline clip-path="url(#clip5100)" style="stroke:#000000; stroke-width:4; stroke-opacity:1; fill:none" points="
  1041.47,1425.62 1041.47,1404.94 
  "/>
<polyline clip-path="url(#clip5100)" style="stroke:#000000; stroke-width:4; stroke-opacity:1; fill:none" points="
  1478.57,1425.62 1478.57,1404.94 
  "/>
<polyline clip-path="url(#clip5100)" style="stroke:#000000; stroke-width:4; stroke-opacity:1; fill:none" points="
  1915.66,1425.62 1915.66,1404.94 
  "/>
<polyline clip-path="url(#clip5100)" style="stroke:#000000; stroke-width:4; stroke-opacity:1; fill:none" points="
  2352.76,1425.62 2352.76,1404.94 
  "/>
<polyline clip-path="url(#clip5100)" style="stroke:#000000; stroke-width:4; stroke-opacity:1; fill:none" points="
  167.279,1386.61 200.061,1386.61 
  "/>
<polyline clip-path="url(#clip5100)" style="stroke:#000000; stroke-width:4; stroke-opacity:1; fill:none" points="
  167.279,1169.88 200.061,1169.88 
  "/>
<polyline clip-path="url(#clip5100)" style="stroke:#000000; stroke-width:4; stroke-opacity:1; fill:none" points="
  167.279,953.158 200.061,953.158 
  "/>
<polyline clip-path="url(#clip5100)" style="stroke:#000000; stroke-width:4; stroke-opacity:1; fill:none" points="
  167.279,736.432 200.061,736.432 
  "/>
<polyline clip-path="url(#clip5100)" style="stroke:#000000; stroke-width:4; stroke-opacity:1; fill:none" points="
  167.279,519.707 200.061,519.707 
  "/>
<polyline clip-path="url(#clip5100)" style="stroke:#000000; stroke-width:4; stroke-opacity:1; fill:none" points="
  167.279,302.981 200.061,302.981 
  "/>
<polyline clip-path="url(#clip5100)" style="stroke:#000000; stroke-width:4; stroke-opacity:1; fill:none" points="
  167.279,86.2547 200.061,86.2547 
  "/>
<g clip-path="url(#clip5100)">
<text style="fill:#000000; fill-opacity:1; font-family:Arial,Helvetica Neue,Helvetica,sans-serif; font-size:48px; text-anchor:middle;" transform="rotate(0, 167.279, 1479.62)" x="167.279" y="1479.62">0</text>
</g>
<g clip-path="url(#clip5100)">
<text style="fill:#000000; fill-opacity:1; font-family:Arial,Helvetica Neue,Helvetica,sans-serif; font-size:48px; text-anchor:middle;" transform="rotate(0, 604.374, 1479.62)" x="604.374" y="1479.62">2</text>
</g>
<g clip-path="url(#clip5100)">
<text style="fill:#000000; fill-opacity:1; font-family:Arial,Helvetica Neue,Helvetica,sans-serif; font-size:48px; text-anchor:middle;" transform="rotate(0, 1041.47, 1479.62)" x="1041.47" y="1479.62">4</text>
</g>
<g clip-path="url(#clip5100)">
<text style="fill:#000000; fill-opacity:1; font-family:Arial,Helvetica Neue,Helvetica,sans-serif; font-size:48px; text-anchor:middle;" transform="rotate(0, 1478.57, 1479.62)" x="1478.57" y="1479.62">6</text>
</g>
<g clip-path="url(#clip5100)">
<text style="fill:#000000; fill-opacity:1; font-family:Arial,Helvetica Neue,Helvetica,sans-serif; font-size:48px; text-anchor:middle;" transform="rotate(0, 1915.66, 1479.62)" x="1915.66" y="1479.62">8</text>
</g>
<g clip-path="url(#clip5100)">
<text style="fill:#000000; fill-opacity:1; font-family:Arial,Helvetica Neue,Helvetica,sans-serif; font-size:48px; text-anchor:middle;" transform="rotate(0, 2352.76, 1479.62)" x="2352.76" y="1479.62">10</text>
</g>
<g clip-path="url(#clip5100)">
<text style="fill:#000000; fill-opacity:1; font-family:Arial,Helvetica Neue,Helvetica,sans-serif; font-size:48px; text-anchor:end;" transform="rotate(0, 143.279, 1404.11)" x="143.279" y="1404.11">0</text>
</g>
<g clip-path="url(#clip5100)">
<text style="fill:#000000; fill-opacity:1; font-family:Arial,Helvetica Neue,Helvetica,sans-serif; font-size:48px; text-anchor:end;" transform="rotate(0, 143.279, 1187.38)" x="143.279" y="1187.38">100</text>
</g>
<g clip-path="url(#clip5100)">
<text style="fill:#000000; fill-opacity:1; font-family:Arial,Helvetica Neue,Helvetica,sans-serif; font-size:48px; text-anchor:end;" transform="rotate(0, 143.279, 970.658)" x="143.279" y="970.658">200</text>
</g>
<g clip-path="url(#clip5100)">
<text style="fill:#000000; fill-opacity:1; font-family:Arial,Helvetica Neue,Helvetica,sans-serif; font-size:48px; text-anchor:end;" transform="rotate(0, 143.279, 753.932)" x="143.279" y="753.932">300</text>
</g>
<g clip-path="url(#clip5100)">
<text style="fill:#000000; fill-opacity:1; font-family:Arial,Helvetica Neue,Helvetica,sans-serif; font-size:48px; text-anchor:end;" transform="rotate(0, 143.279, 537.207)" x="143.279" y="537.207">400</text>
</g>
<g clip-path="url(#clip5100)">
<text style="fill:#000000; fill-opacity:1; font-family:Arial,Helvetica Neue,Helvetica,sans-serif; font-size:48px; text-anchor:end;" transform="rotate(0, 143.279, 320.481)" x="143.279" y="320.481">500</text>
</g>
<g clip-path="url(#clip5100)">
<text style="fill:#000000; fill-opacity:1; font-family:Arial,Helvetica Neue,Helvetica,sans-serif; font-size:48px; text-anchor:end;" transform="rotate(0, 143.279, 103.755)" x="143.279" y="103.755">600</text>
</g>
<g clip-path="url(#clip5100)">
<text style="fill:#000000; fill-opacity:1; font-family:Arial,Helvetica Neue,Helvetica,sans-serif; font-size:66px; text-anchor:middle;" transform="rotate(0, 1260.02, 1559.48)" x="1260.02" y="1559.48">t</text>
</g>
<polyline clip-path="url(#clip5102)" style="stroke:#009af9; stroke-width:12; stroke-opacity:1; fill:none" points="
  167.279,86.2547 169.467,1342.69 171.654,1364.38 173.842,1371.73 176.03,1375.43 178.217,1377.66 180.405,1379.15 182.593,1380.21 184.78,1381.01 186.968,1381.63 
  189.156,1382.13 191.343,1382.53 193.531,1382.87 195.719,1383.16 197.906,1383.41 200.094,1383.62 202.282,1383.81 204.469,1383.97 206.657,1384.12 208.845,1384.25 
  211.032,1384.37 213.22,1384.47 215.408,1384.57 217.595,1384.66 219.783,1384.74 221.971,1384.81 224.158,1384.88 226.346,1384.95 228.534,1385.01 230.721,1385.06 
  232.909,1385.11 235.097,1385.16 237.284,1385.21 239.472,1385.25 241.66,1385.29 243.847,1385.33 246.035,1385.36 248.223,1385.4 250.41,1385.43 252.598,1385.46 
  254.786,1385.49 256.973,1385.52 259.161,1385.54 261.349,1385.57 263.536,1385.59 265.724,1385.61 267.912,1385.63 270.099,1385.65 272.287,1385.67 274.475,1385.69 
  276.662,1385.71 278.85,1385.73 281.038,1385.75 283.225,1385.76 285.413,1385.78 287.601,1385.79 289.788,1385.81 291.976,1385.82 294.164,1385.84 296.351,1385.85 
  298.539,1385.86 300.727,1385.87 302.914,1385.89 305.102,1385.9 307.29,1385.91 309.477,1385.92 311.665,1385.93 313.853,1385.94 316.04,1385.95 318.228,1385.96 
  320.416,1385.97 322.603,1385.98 324.791,1385.99 326.979,1386 329.166,1386 331.354,1386.01 333.542,1386.02 335.729,1386.03 337.917,1386.03 340.105,1386.04 
  342.292,1386.05 344.48,1386.06 346.668,1386.06 348.855,1386.07 351.043,1386.08 353.231,1386.08 355.418,1386.09 357.606,1386.09 359.794,1386.1 361.981,1386.11 
  364.169,1386.11 366.357,1386.12 368.544,1386.12 370.732,1386.13 372.92,1386.13 375.107,1386.14 377.295,1386.14 379.483,1386.15 381.67,1386.15 383.858,1386.16 
  386.046,1386.16 388.233,1386.17 390.421,1386.17 392.609,1386.17 394.796,1386.18 396.984,1386.18 399.172,1386.19 401.359,1386.19 403.547,1386.19 405.735,1386.2 
  407.922,1386.2 410.11,1386.21 412.298,1386.21 414.485,1386.21 416.673,1386.22 418.861,1386.22 421.048,1386.22 423.236,1386.23 425.424,1386.23 427.611,1386.23 
  429.799,1386.24 431.987,1386.24 434.174,1386.24 436.362,1386.25 438.55,1386.25 440.737,1386.25 442.925,1386.25 445.113,1386.26 447.3,1386.26 449.488,1386.26 
  451.676,1386.26 453.863,1386.27 456.051,1386.27 458.239,1386.27 460.426,1386.28 462.614,1386.28 464.802,1386.28 466.989,1386.28 469.177,1386.28 471.365,1386.29 
  473.552,1386.29 475.74,1386.29 477.927,1386.29 480.115,1386.3 482.303,1386.3 484.49,1386.3 486.678,1386.3 488.866,1386.3 491.053,1386.31 493.241,1386.31 
  495.429,1386.31 497.616,1386.31 499.804,1386.31 501.992,1386.32 504.179,1386.32 506.367,1386.32 508.555,1386.32 510.742,1386.32 512.93,1386.33 515.118,1386.33 
  517.305,1386.33 519.493,1386.33 521.681,1386.33 523.868,1386.33 526.056,1386.34 528.244,1386.34 530.431,1386.34 532.619,1386.34 534.807,1386.34 536.994,1386.34 
  539.182,1386.35 541.37,1386.35 543.557,1386.35 545.745,1386.35 547.933,1386.35 550.12,1386.35 552.308,1386.36 554.496,1386.36 556.683,1386.36 558.871,1386.36 
  561.059,1386.36 563.246,1386.36 565.434,1386.36 567.622,1386.36 569.809,1386.37 571.997,1386.37 574.185,1386.37 576.372,1386.37 578.56,1386.37 580.748,1386.37 
  582.935,1386.37 585.123,1386.38 587.311,1386.38 589.498,1386.38 591.686,1386.38 593.874,1386.38 596.061,1386.38 598.249,1386.38 600.437,1386.38 602.624,1386.38 
  604.812,1386.39 607,1386.39 609.187,1386.39 611.375,1386.39 613.563,1386.39 615.75,1386.39 617.938,1386.39 620.126,1386.39 622.313,1386.39 624.501,1386.4 
  626.689,1386.4 628.876,1386.4 631.064,1386.4 633.252,1386.4 635.439,1386.4 637.627,1386.4 639.815,1386.4 642.002,1386.4 644.19,1386.4 646.378,1386.41 
  648.565,1386.41 650.753,1386.41 652.941,1386.41 655.128,1386.41 657.316,1386.41 659.504,1386.41 661.691,1386.41 663.879,1386.41 666.067,1386.41 668.254,1386.41 
  670.442,1386.41 672.63,1386.42 674.817,1386.42 677.005,1386.42 679.193,1386.42 681.38,1386.42 683.568,1386.42 685.756,1386.42 687.943,1386.42 690.131,1386.42 
  692.319,1386.42 694.506,1386.42 696.694,1386.42 698.882,1386.43 701.069,1386.43 703.257,1386.43 705.445,1386.43 707.632,1386.43 709.82,1386.43 712.008,1386.43 
  714.195,1386.43 716.383,1386.43 718.571,1386.43 720.758,1386.43 722.946,1386.43 725.134,1386.43 727.321,1386.43 729.509,1386.44 731.697,1386.44 733.884,1386.44 
  736.072,1386.44 738.26,1386.44 740.447,1386.44 742.635,1386.44 744.823,1386.44 747.01,1386.44 749.198,1386.44 751.386,1386.44 753.573,1386.44 755.761,1386.44 
  757.949,1386.44 760.136,1386.44 762.324,1386.45 764.512,1386.45 766.699,1386.45 768.887,1386.45 771.075,1386.45 773.262,1386.45 775.45,1386.45 777.638,1386.45 
  779.825,1386.45 782.013,1386.45 784.201,1386.45 786.388,1386.45 788.576,1386.45 790.764,1386.45 792.951,1386.45 795.139,1386.45 797.326,1386.45 799.514,1386.45 
  801.702,1386.46 803.889,1386.46 806.077,1386.46 808.265,1386.46 810.452,1386.46 812.64,1386.46 814.828,1386.46 817.015,1386.46 819.203,1386.46 821.391,1386.46 
  823.578,1386.46 825.766,1386.46 827.954,1386.46 830.141,1386.46 832.329,1386.46 834.517,1386.46 836.704,1386.46 838.892,1386.46 841.08,1386.46 843.267,1386.46 
  845.455,1386.47 847.643,1386.47 849.83,1386.47 852.018,1386.47 854.206,1386.47 856.393,1386.47 858.581,1386.47 860.769,1386.47 862.956,1386.47 865.144,1386.47 
  867.332,1386.47 869.519,1386.47 871.707,1386.47 873.895,1386.47 876.082,1386.47 878.27,1386.47 880.458,1386.47 882.645,1386.47 884.833,1386.47 887.021,1386.47 
  889.208,1386.47 891.396,1386.47 893.584,1386.47 895.771,1386.48 897.959,1386.48 900.147,1386.48 902.334,1386.48 904.522,1386.48 906.71,1386.48 908.897,1386.48 
  911.085,1386.48 913.273,1386.48 915.46,1386.48 917.648,1386.48 919.836,1386.48 922.023,1386.48 924.211,1386.48 926.399,1386.48 928.586,1386.48 930.774,1386.48 
  932.962,1386.48 935.149,1386.48 937.337,1386.48 939.525,1386.48 941.712,1386.48 943.9,1386.48 946.088,1386.48 948.275,1386.48 950.463,1386.48 952.651,1386.49 
  954.838,1386.49 957.026,1386.49 959.214,1386.49 961.401,1386.49 963.589,1386.49 965.777,1386.49 967.964,1386.49 970.152,1386.49 972.34,1386.49 974.527,1386.49 
  976.715,1386.49 978.903,1386.49 981.09,1386.49 983.278,1386.49 985.466,1386.49 987.653,1386.49 989.841,1386.49 992.029,1386.49 994.216,1386.49 996.404,1386.49 
  998.592,1386.49 1000.78,1386.49 1002.97,1386.49 1005.15,1386.49 1007.34,1386.49 1009.53,1386.49 1011.72,1386.49 1013.91,1386.49 1016.09,1386.49 1018.28,1386.49 
  1020.47,1386.5 1022.66,1386.5 1024.84,1386.5 1027.03,1386.5 1029.22,1386.5 1031.41,1386.5 1033.59,1386.5 1035.78,1386.5 1037.97,1386.5 1040.16,1386.5 
  1042.34,1386.5 1044.53,1386.5 1046.72,1386.5 1048.91,1386.5 1051.1,1386.5 1053.28,1386.5 1055.47,1386.5 1057.66,1386.5 1059.85,1386.5 1062.03,1386.5 
  1064.22,1386.5 1066.41,1386.5 1068.6,1386.5 1070.78,1386.5 1072.97,1386.5 1075.16,1386.5 1077.35,1386.5 1079.54,1386.5 1081.72,1386.5 1083.91,1386.5 
  1086.1,1386.5 1088.29,1386.5 1090.47,1386.5 1092.66,1386.5 1094.85,1386.5 1097.04,1386.5 1099.22,1386.5 1101.41,1386.51 1103.6,1386.51 1105.79,1386.51 
  1107.97,1386.51 1110.16,1386.51 1112.35,1386.51 1114.54,1386.51 1116.73,1386.51 1118.91,1386.51 1121.1,1386.51 1123.29,1386.51 1125.48,1386.51 1127.66,1386.51 
  1129.85,1386.51 1132.04,1386.51 1134.23,1386.51 1136.41,1386.51 1138.6,1386.51 1140.79,1386.51 1142.98,1386.51 1145.17,1386.51 1147.35,1386.51 1149.54,1386.51 
  1151.73,1386.51 1153.92,1386.51 1156.1,1386.51 1158.29,1386.51 1160.48,1386.51 1162.67,1386.51 1164.85,1386.51 1167.04,1386.51 1169.23,1386.51 1171.42,1386.51 
  1173.6,1386.51 1175.79,1386.51 1177.98,1386.51 1180.17,1386.51 1182.36,1386.51 1184.54,1386.51 1186.73,1386.51 1188.92,1386.51 1191.11,1386.51 1193.29,1386.51 
  1195.48,1386.51 1197.67,1386.51 1199.86,1386.52 1202.04,1386.52 1204.23,1386.52 1206.42,1386.52 1208.61,1386.52 1210.8,1386.52 1212.98,1386.52 1215.17,1386.52 
  1217.36,1386.52 1219.55,1386.52 1221.73,1386.52 1223.92,1386.52 1226.11,1386.52 1228.3,1386.52 1230.48,1386.52 1232.67,1386.52 1234.86,1386.52 1237.05,1386.52 
  1239.23,1386.52 1241.42,1386.52 1243.61,1386.52 1245.8,1386.52 1247.99,1386.52 1250.17,1386.52 1252.36,1386.52 1254.55,1386.52 1256.74,1386.52 1258.92,1386.52 
  1261.11,1386.52 1263.3,1386.52 1265.49,1386.52 1267.67,1386.52 1269.86,1386.52 1272.05,1386.52 1274.24,1386.52 1276.43,1386.52 1278.61,1386.52 1280.8,1386.52 
  1282.99,1386.52 1285.18,1386.52 1287.36,1386.52 1289.55,1386.52 1291.74,1386.52 1293.93,1386.52 1296.11,1386.52 1298.3,1386.52 1300.49,1386.52 1302.68,1386.52 
  1304.86,1386.52 1307.05,1386.52 1309.24,1386.52 1311.43,1386.52 1313.62,1386.52 1315.8,1386.52 1317.99,1386.52 1320.18,1386.52 1322.37,1386.53 1324.55,1386.53 
  1326.74,1386.53 1328.93,1386.53 1331.12,1386.53 1333.3,1386.53 1335.49,1386.53 1337.68,1386.53 1339.87,1386.53 1342.05,1386.53 1344.24,1386.53 1346.43,1386.53 
  1348.62,1386.53 1350.81,1386.53 1352.99,1386.53 1355.18,1386.53 1357.37,1386.53 1359.56,1386.53 1361.74,1386.53 1363.93,1386.53 1366.12,1386.53 1368.31,1386.53 
  1370.49,1386.53 1372.68,1386.53 1374.87,1386.53 1377.06,1386.53 1379.25,1386.53 1381.43,1386.53 1383.62,1386.53 1385.81,1386.53 1388,1386.53 1390.18,1386.53 
  1392.37,1386.53 1394.56,1386.53 1396.75,1386.53 1398.93,1386.53 1401.12,1386.53 1403.31,1386.53 1405.5,1386.53 1407.68,1386.53 1409.87,1386.53 1412.06,1386.53 
  1414.25,1386.53 1416.44,1386.53 1418.62,1386.53 1420.81,1386.53 1423,1386.53 1425.19,1386.53 1427.37,1386.53 1429.56,1386.53 1431.75,1386.53 1433.94,1386.53 
  1436.12,1386.53 1438.31,1386.53 1440.5,1386.53 1442.69,1386.53 1444.88,1386.53 1447.06,1386.53 1449.25,1386.53 1451.44,1386.53 1453.63,1386.53 1455.81,1386.53 
  1458,1386.53 1460.19,1386.53 1462.38,1386.53 1464.56,1386.53 1466.75,1386.53 1468.94,1386.53 1471.13,1386.53 1473.31,1386.53 1475.5,1386.54 1477.69,1386.54 
  1479.88,1386.54 1482.07,1386.54 1484.25,1386.54 1486.44,1386.54 1488.63,1386.54 1490.82,1386.54 1493,1386.54 1495.19,1386.54 1497.38,1386.54 1499.57,1386.54 
  1501.75,1386.54 1503.94,1386.54 1506.13,1386.54 1508.32,1386.54 1510.51,1386.54 1512.69,1386.54 1514.88,1386.54 1517.07,1386.54 1519.26,1386.54 1521.44,1386.54 
  1523.63,1386.54 1525.82,1386.54 1528.01,1386.54 1530.19,1386.54 1532.38,1386.54 1534.57,1386.54 1536.76,1386.54 1538.94,1386.54 1541.13,1386.54 1543.32,1386.54 
  1545.51,1386.54 1547.7,1386.54 1549.88,1386.54 1552.07,1386.54 1554.26,1386.54 1556.45,1386.54 1558.63,1386.54 1560.82,1386.54 1563.01,1386.54 1565.2,1386.54 
  1567.38,1386.54 1569.57,1386.54 1571.76,1386.54 1573.95,1386.54 1576.14,1386.54 1578.32,1386.54 1580.51,1386.54 1582.7,1386.54 1584.89,1386.54 1587.07,1386.54 
  1589.26,1386.54 1591.45,1386.54 1593.64,1386.54 1595.82,1386.54 1598.01,1386.54 1600.2,1386.54 1602.39,1386.54 1604.57,1386.54 1606.76,1386.54 1608.95,1386.54 
  1611.14,1386.54 1613.33,1386.54 1615.51,1386.54 1617.7,1386.54 1619.89,1386.54 1622.08,1386.54 1624.26,1386.54 1626.45,1386.54 1628.64,1386.54 1630.83,1386.54 
  1633.01,1386.54 1635.2,1386.54 1637.39,1386.54 1639.58,1386.54 1641.76,1386.54 1643.95,1386.54 1646.14,1386.54 1648.33,1386.54 1650.52,1386.54 1652.7,1386.54 
  1654.89,1386.54 1657.08,1386.54 1659.27,1386.54 1661.45,1386.54 1663.64,1386.54 1665.83,1386.54 1668.02,1386.54 1670.2,1386.54 1672.39,1386.54 1674.58,1386.55 
  1676.77,1386.55 1678.96,1386.55 1681.14,1386.55 1683.33,1386.55 1685.52,1386.55 1687.71,1386.55 1689.89,1386.55 1692.08,1386.55 1694.27,1386.55 1696.46,1386.55 
  1698.64,1386.55 1700.83,1386.55 1703.02,1386.55 1705.21,1386.55 1707.39,1386.55 1709.58,1386.55 1711.77,1386.55 1713.96,1386.55 1716.15,1386.55 1718.33,1386.55 
  1720.52,1386.55 1722.71,1386.55 1724.9,1386.55 1727.08,1386.55 1729.27,1386.55 1731.46,1386.55 1733.65,1386.55 1735.83,1386.55 1738.02,1386.55 1740.21,1386.55 
  1742.4,1386.55 1744.59,1386.55 1746.77,1386.55 1748.96,1386.55 1751.15,1386.55 1753.34,1386.55 1755.52,1386.55 1757.71,1386.55 1759.9,1386.55 1762.09,1386.55 
  1764.27,1386.55 1766.46,1386.55 1768.65,1386.55 1770.84,1386.55 1773.02,1386.55 1775.21,1386.55 1777.4,1386.55 1779.59,1386.55 1781.78,1386.55 1783.96,1386.55 
  1786.15,1386.55 1788.34,1386.55 1790.53,1386.55 1792.71,1386.55 1794.9,1386.55 1797.09,1386.55 1799.28,1386.55 1801.46,1386.55 1803.65,1386.55 1805.84,1386.55 
  1808.03,1386.55 1810.22,1386.55 1812.4,1386.55 1814.59,1386.55 1816.78,1386.55 1818.97,1386.55 1821.15,1386.55 1823.34,1386.55 1825.53,1386.55 1827.72,1386.55 
  1829.9,1386.55 1832.09,1386.55 1834.28,1386.55 1836.47,1386.55 1838.65,1386.55 1840.84,1386.55 1843.03,1386.55 1845.22,1386.55 1847.41,1386.55 1849.59,1386.55 
  1851.78,1386.55 1853.97,1386.55 1856.16,1386.55 1858.34,1386.55 1860.53,1386.55 1862.72,1386.55 1864.91,1386.55 1867.09,1386.55 1869.28,1386.55 1871.47,1386.55 
  1873.66,1386.55 1875.85,1386.55 1878.03,1386.55 1880.22,1386.55 1882.41,1386.55 1884.6,1386.55 1886.78,1386.55 1888.97,1386.55 1891.16,1386.55 1893.35,1386.55 
  1895.53,1386.55 1897.72,1386.55 1899.91,1386.55 1902.1,1386.55 1904.28,1386.55 1906.47,1386.55 1908.66,1386.55 1910.85,1386.55 1913.04,1386.55 1915.22,1386.55 
  1917.41,1386.55 1919.6,1386.55 1921.79,1386.55 1923.97,1386.55 1926.16,1386.55 1928.35,1386.55 1930.54,1386.55 1932.72,1386.55 1934.91,1386.55 1937.1,1386.55 
  1939.29,1386.55 1941.47,1386.55 1943.66,1386.55 1945.85,1386.55 1948.04,1386.56 1950.23,1386.56 1952.41,1386.56 1954.6,1386.56 1956.79,1386.56 1958.98,1386.56 
  1961.16,1386.56 1963.35,1386.56 1965.54,1386.56 1967.73,1386.56 1969.91,1386.56 1972.1,1386.56 1974.29,1386.56 1976.48,1386.56 1978.67,1386.56 1980.85,1386.56 
  1983.04,1386.56 1985.23,1386.56 1987.42,1386.56 1989.6,1386.56 1991.79,1386.56 1993.98,1386.56 1996.17,1386.56 1998.35,1386.56 2000.54,1386.56 2002.73,1386.56 
  2004.92,1386.56 2007.1,1386.56 2009.29,1386.56 2011.48,1386.56 2013.67,1386.56 2015.86,1386.56 2018.04,1386.56 2020.23,1386.56 2022.42,1386.56 2024.61,1386.56 
  2026.79,1386.56 2028.98,1386.56 2031.17,1386.56 2033.36,1386.56 2035.54,1386.56 2037.73,1386.56 2039.92,1386.56 2042.11,1386.56 2044.3,1386.56 2046.48,1386.56 
  2048.67,1386.56 2050.86,1386.56 2053.05,1386.56 2055.23,1386.56 2057.42,1386.56 2059.61,1386.56 2061.8,1386.56 2063.98,1386.56 2066.17,1386.56 2068.36,1386.56 
  2070.55,1386.56 2072.73,1386.56 2074.92,1386.56 2077.11,1386.56 2079.3,1386.56 2081.49,1386.56 2083.67,1386.56 2085.86,1386.56 2088.05,1386.56 2090.24,1386.56 
  2092.42,1386.56 2094.61,1386.56 2096.8,1386.56 2098.99,1386.56 2101.17,1386.56 2103.36,1386.56 2105.55,1386.56 2107.74,1386.56 2109.93,1386.56 2112.11,1386.56 
  2114.3,1386.56 2116.49,1386.56 2118.68,1386.56 2120.86,1386.56 2123.05,1386.56 2125.24,1386.56 2127.43,1386.56 2129.61,1386.56 2131.8,1386.56 2133.99,1386.56 
  2136.18,1386.56 2138.36,1386.56 2140.55,1386.56 2142.74,1386.56 2144.93,1386.56 2147.12,1386.56 2149.3,1386.56 2151.49,1386.56 2153.68,1386.56 2155.87,1386.56 
  2158.05,1386.56 2160.24,1386.56 2162.43,1386.56 2164.62,1386.56 2166.8,1386.56 2168.99,1386.56 2171.18,1386.56 2173.37,1386.56 2175.56,1386.56 2177.74,1386.56 
  2179.93,1386.56 2182.12,1386.56 2184.31,1386.56 2186.49,1386.56 2188.68,1386.56 2190.87,1386.56 2193.06,1386.56 2195.24,1386.56 2197.43,1386.56 2199.62,1386.56 
  2201.81,1386.56 2203.99,1386.56 2206.18,1386.56 2208.37,1386.56 2210.56,1386.56 2212.75,1386.56 2214.93,1386.56 2217.12,1386.56 2219.31,1386.56 2221.5,1386.56 
  2223.68,1386.56 2225.87,1386.56 2228.06,1386.56 2230.25,1386.56 2232.43,1386.56 2234.62,1386.56 2236.81,1386.56 2239,1386.56 2241.19,1386.56 2243.37,1386.56 
  2245.56,1386.56 2247.75,1386.56 2249.94,1386.56 2252.12,1386.56 2254.31,1386.56 2256.5,1386.56 2258.69,1386.56 2260.87,1386.56 2263.06,1386.56 2265.25,1386.56 
  2267.44,1386.56 2269.62,1386.56 2271.81,1386.56 2274,1386.56 2276.19,1386.56 2278.38,1386.56 2280.56,1386.56 2282.75,1386.56 2284.94,1386.56 2287.13,1386.56 
  2289.31,1386.56 2291.5,1386.56 2293.69,1386.56 2295.88,1386.56 2298.06,1386.56 2300.25,1386.56 2302.44,1386.56 2304.63,1386.56 2306.81,1386.56 2309,1386.56 
  2311.19,1386.56 2313.38,1386.56 2315.57,1386.56 2317.75,1386.56 2319.94,1386.56 2322.13,1386.56 2324.32,1386.56 2326.5,1386.56 2328.69,1386.56 2330.88,1386.56 
  2333.07,1386.56 2335.25,1386.56 2337.44,1386.56 2339.63,1386.56 2341.82,1386.57 2344.01,1386.57 2346.19,1386.57 2348.38,1386.57 2350.57,1386.57 2352.76,1386.57 
  
  "/>
<polyline clip-path="url(#clip5102)" style="stroke:#e26f46; stroke-width:12; stroke-opacity:1; fill:none" points="
  167.279,1386.61 169.467,137.855 171.654,124.641 173.842,125.791 176.03,130.574 178.217,136.791 180.405,143.703 182.593,150.991 184.78,158.494 186.968,166.123 
  189.156,173.825 191.343,181.565 193.531,189.32 195.719,197.075 197.906,204.818 200.094,212.543 202.282,220.242 204.469,227.911 206.657,235.547 208.845,243.147 
  211.032,250.709 213.22,258.231 215.408,265.713 217.595,273.152 219.783,280.55 221.971,287.903 224.158,295.214 226.346,302.48 228.534,309.702 230.721,316.879 
  232.909,324.012 235.097,331.101 237.284,338.145 239.472,345.144 241.66,352.099 243.847,359.009 246.035,365.875 248.223,372.697 250.41,379.474 252.598,386.208 
  254.786,392.898 256.973,399.545 259.161,406.148 261.349,412.708 263.536,419.225 265.724,425.7 267.912,432.132 270.099,438.521 272.287,444.869 274.475,451.175 
  276.662,457.439 278.85,463.662 281.038,469.844 283.225,475.985 285.413,482.085 287.601,488.145 289.788,494.164 291.976,500.144 294.164,506.084 296.351,511.985 
  298.539,517.846 300.727,523.668 302.914,529.452 305.102,535.198 307.29,540.905 309.477,546.574 311.665,552.205 313.853,557.799 316.04,563.355 318.228,568.875 
  320.416,574.358 322.603,579.804 324.791,585.214 326.979,590.587 329.166,595.925 331.354,601.227 333.542,606.494 335.729,611.726 337.917,616.923 340.105,622.085 
  342.292,627.212 344.48,632.306 346.668,637.365 348.855,642.39 351.043,647.382 353.231,652.341 355.418,657.266 357.606,662.158 359.794,667.018 361.981,671.845 
  364.169,676.64 366.357,681.403 368.544,686.133 370.732,690.833 372.92,695.5 375.107,700.137 377.295,704.743 379.483,709.317 381.67,713.861 383.858,718.375 
  386.046,722.858 388.233,727.312 390.421,731.735 392.609,736.129 394.796,740.494 396.984,744.829 399.172,749.135 401.359,753.413 403.547,757.661 405.735,761.882 
  407.922,766.074 410.11,770.238 412.298,774.374 414.485,778.482 416.673,782.563 418.861,786.616 421.048,790.642 423.236,794.642 425.424,798.614 427.611,802.56 
  429.799,806.479 431.987,810.372 434.174,814.239 436.362,818.081 438.55,821.896 440.737,825.686 442.925,829.45 445.113,833.189 447.3,836.903 449.488,840.593 
  451.676,844.257 453.863,847.897 456.051,851.512 458.239,855.104 460.426,858.671 462.614,862.214 464.802,865.733 466.989,869.229 469.177,872.702 471.365,876.151 
  473.552,879.577 475.74,882.98 477.927,886.36 480.115,889.717 482.303,893.052 484.49,896.365 486.678,899.655 488.866,902.924 491.053,906.17 493.241,909.395 
  495.429,912.598 497.616,915.779 499.804,918.94 501.992,922.079 504.179,925.197 506.367,928.294 508.555,931.37 510.742,934.425 512.93,937.461 515.118,940.475 
  517.305,943.47 519.493,946.444 521.681,949.399 523.868,952.334 526.056,955.249 528.244,958.144 530.431,961.02 532.619,963.877 534.807,966.714 536.994,969.533 
  539.182,972.332 541.37,975.113 543.557,977.875 545.745,980.619 547.933,983.344 550.12,986.051 552.308,988.739 554.496,991.41 556.683,994.063 558.871,996.698 
  561.059,999.315 563.246,1001.91 565.434,1004.5 567.622,1007.06 569.809,1009.61 571.997,1012.14 574.185,1014.65 576.372,1017.15 578.56,1019.63 580.748,1022.09 
  582.935,1024.54 585.123,1026.97 587.311,1029.39 589.498,1031.78 591.686,1034.17 593.874,1036.53 596.061,1038.88 598.249,1041.22 600.437,1043.53 602.624,1045.84 
  604.812,1048.12 607,1050.4 609.187,1052.65 611.375,1054.9 613.563,1057.12 615.75,1059.33 617.938,1061.53 620.126,1063.71 622.313,1065.88 624.501,1068.03 
  626.689,1070.17 628.876,1072.3 631.064,1074.41 633.252,1076.5 635.439,1078.58 637.627,1080.65 639.815,1082.71 642.002,1084.75 644.19,1086.77 646.378,1088.79 
  648.565,1090.79 650.753,1092.77 652.941,1094.74 655.128,1096.7 657.316,1098.65 659.504,1100.58 661.691,1102.5 663.879,1104.41 666.067,1106.3 668.254,1108.19 
  670.442,1110.05 672.63,1111.91 674.817,1113.75 677.005,1115.59 679.193,1117.41 681.38,1119.21 683.568,1121.01 685.756,1122.79 687.943,1124.56 690.131,1126.32 
  692.319,1128.07 694.506,1129.8 696.694,1131.53 698.882,1133.24 701.069,1134.94 703.257,1136.63 705.445,1138.31 707.632,1139.98 709.82,1141.63 712.008,1143.28 
  714.195,1144.91 716.383,1146.53 718.571,1148.14 720.758,1149.74 722.946,1151.33 725.134,1152.91 727.321,1154.48 729.509,1156.04 731.697,1157.59 733.884,1159.13 
  736.072,1160.65 738.26,1162.17 740.447,1163.68 742.635,1165.17 744.823,1166.66 747.01,1168.14 749.198,1169.6 751.386,1171.06 753.573,1172.51 755.761,1173.95 
  757.949,1175.37 760.136,1176.79 762.324,1178.2 764.512,1179.6 766.699,1180.99 768.887,1182.37 771.075,1183.74 773.262,1185.1 775.45,1186.46 777.638,1187.8 
  779.825,1189.13 782.013,1190.46 784.201,1191.78 786.388,1193.08 788.576,1194.38 790.764,1195.67 792.951,1196.96 795.139,1198.23 797.326,1199.49 799.514,1200.75 
  801.702,1202 803.889,1203.24 806.077,1204.47 808.265,1205.69 810.452,1206.91 812.64,1208.11 814.828,1209.31 817.015,1210.5 819.203,1211.68 821.391,1212.86 
  823.578,1214.02 825.766,1215.18 827.954,1216.33 830.141,1217.47 832.329,1218.61 834.517,1219.74 836.704,1220.86 838.892,1221.97 841.08,1223.08 843.267,1224.17 
  845.455,1225.26 847.643,1226.35 849.83,1227.42 852.018,1228.49 854.206,1229.55 856.393,1230.61 858.581,1231.65 860.769,1232.7 862.956,1233.73 865.144,1234.75 
  867.332,1235.77 869.519,1236.79 871.707,1237.79 873.895,1238.79 876.082,1239.78 878.27,1240.77 880.458,1241.75 882.645,1242.72 884.833,1243.69 887.021,1244.65 
  889.208,1245.6 891.396,1246.55 893.584,1247.49 895.771,1248.42 897.959,1249.35 900.147,1250.27 902.334,1251.19 904.522,1252.09 906.71,1253 908.897,1253.9 
  911.085,1254.79 913.273,1255.67 915.46,1256.55 917.648,1257.42 919.836,1258.29 922.023,1259.15 924.211,1260.01 926.399,1260.86 928.586,1261.7 930.774,1262.54 
  932.962,1263.37 935.149,1264.2 937.337,1265.02 939.525,1265.84 941.712,1266.65 943.9,1267.46 946.088,1268.26 948.275,1269.05 950.463,1269.84 952.651,1270.62 
  954.838,1271.4 957.026,1272.17 959.214,1272.94 961.401,1273.71 963.589,1274.46 965.777,1275.22 967.964,1275.96 970.152,1276.71 972.34,1277.45 974.527,1278.18 
  976.715,1278.91 978.903,1279.63 981.09,1280.35 983.278,1281.06 985.466,1281.77 987.653,1282.47 989.841,1283.17 992.029,1283.87 994.216,1284.56 996.404,1285.24 
  998.592,1285.92 1000.78,1286.6 1002.97,1287.27 1005.15,1287.93 1007.34,1288.6 1009.53,1289.25 1011.72,1289.91 1013.91,1290.56 1016.09,1291.2 1018.28,1291.84 
  1020.47,1292.48 1022.66,1293.11 1024.84,1293.74 1027.03,1294.36 1029.22,1294.98 1031.41,1295.6 1033.59,1296.21 1035.78,1296.81 1037.97,1297.42 1040.16,1298.01 
  1042.34,1298.61 1044.53,1299.2 1046.72,1299.79 1048.91,1300.37 1051.1,1300.95 1053.28,1301.52 1055.47,1302.1 1057.66,1302.66 1059.85,1303.23 1062.03,1303.79 
  1064.22,1304.34 1066.41,1304.89 1068.6,1305.44 1070.78,1305.99 1072.97,1306.53 1075.16,1307.07 1077.35,1307.6 1079.54,1308.13 1081.72,1308.66 1083.91,1309.18 
  1086.1,1309.7 1088.29,1310.22 1090.47,1310.73 1092.66,1311.24 1094.85,1311.75 1097.04,1312.25 1099.22,1312.75 1101.41,1313.24 1103.6,1313.74 1105.79,1314.23 
  1107.97,1314.71 1110.16,1315.19 1112.35,1315.67 1114.54,1316.15 1116.73,1316.62 1118.91,1317.09 1121.1,1317.56 1123.29,1318.02 1125.48,1318.48 1127.66,1318.94 
  1129.85,1319.4 1132.04,1319.85 1134.23,1320.29 1136.41,1320.74 1138.6,1321.18 1140.79,1321.62 1142.98,1322.06 1145.17,1322.49 1147.35,1322.92 1149.54,1323.35 
  1151.73,1323.77 1153.92,1324.2 1156.1,1324.61 1158.29,1325.03 1160.48,1325.44 1162.67,1325.85 1164.85,1326.26 1167.04,1326.67 1169.23,1327.07 1171.42,1327.47 
  1173.6,1327.87 1175.79,1328.26 1177.98,1328.65 1180.17,1329.04 1182.36,1329.43 1184.54,1329.81 1186.73,1330.19 1188.92,1330.57 1191.11,1330.95 1193.29,1331.32 
  1195.48,1331.69 1197.67,1332.06 1199.86,1332.43 1202.04,1332.79 1204.23,1333.15 1206.42,1333.51 1208.61,1333.87 1210.8,1334.22 1212.98,1334.57 1215.17,1334.92 
  1217.36,1335.27 1219.55,1335.61 1221.73,1335.95 1223.92,1336.29 1226.11,1336.63 1228.3,1336.97 1230.48,1337.3 1232.67,1337.63 1234.86,1337.96 1237.05,1338.29 
  1239.23,1338.61 1241.42,1338.93 1243.61,1339.25 1245.8,1339.57 1247.99,1339.89 1250.17,1340.2 1252.36,1340.51 1254.55,1340.82 1256.74,1341.13 1258.92,1341.43 
  1261.11,1341.74 1263.3,1342.04 1265.49,1342.34 1267.67,1342.64 1269.86,1342.93 1272.05,1343.22 1274.24,1343.52 1276.43,1343.8 1278.61,1344.09 1280.8,1344.38 
  1282.99,1344.66 1285.18,1344.94 1287.36,1345.22 1289.55,1345.5 1291.74,1345.78 1293.93,1346.05 1296.11,1346.32 1298.3,1346.59 1300.49,1346.86 1302.68,1347.13 
  1304.86,1347.39 1307.05,1347.66 1309.24,1347.92 1311.43,1348.18 1313.62,1348.44 1315.8,1348.69 1317.99,1348.95 1320.18,1349.2 1322.37,1349.45 1324.55,1349.7 
  1326.74,1349.95 1328.93,1350.19 1331.12,1350.44 1333.3,1350.68 1335.49,1350.92 1337.68,1351.16 1339.87,1351.4 1342.05,1351.64 1344.24,1351.87 1346.43,1352.1 
  1348.62,1352.34 1350.81,1352.57 1352.99,1352.79 1355.18,1353.02 1357.37,1353.25 1359.56,1353.47 1361.74,1353.69 1363.93,1353.91 1366.12,1354.13 1368.31,1354.35 
  1370.49,1354.57 1372.68,1354.78 1374.87,1355 1377.06,1355.21 1379.25,1355.42 1381.43,1355.63 1383.62,1355.84 1385.81,1356.04 1388,1356.25 1390.18,1356.45 
  1392.37,1356.65 1394.56,1356.85 1396.75,1357.05 1398.93,1357.25 1401.12,1357.45 1403.31,1357.65 1405.5,1357.84 1407.68,1358.03 1409.87,1358.22 1412.06,1358.41 
  1414.25,1358.6 1416.44,1358.79 1418.62,1358.98 1420.81,1359.16 1423,1359.35 1425.19,1359.53 1427.37,1359.71 1429.56,1359.89 1431.75,1360.07 1433.94,1360.25 
  1436.12,1360.43 1438.31,1360.6 1440.5,1360.78 1442.69,1360.95 1444.88,1361.12 1447.06,1361.29 1449.25,1361.46 1451.44,1361.63 1453.63,1361.8 1455.81,1361.97 
  1458,1362.13 1460.19,1362.3 1462.38,1362.46 1464.56,1362.62 1466.75,1362.78 1468.94,1362.94 1471.13,1363.1 1473.31,1363.26 1475.5,1363.42 1477.69,1363.57 
  1479.88,1363.73 1482.07,1363.88 1484.25,1364.03 1486.44,1364.18 1488.63,1364.33 1490.82,1364.48 1493,1364.63 1495.19,1364.78 1497.38,1364.93 1499.57,1365.07 
  1501.75,1365.22 1503.94,1365.36 1506.13,1365.5 1508.32,1365.64 1510.51,1365.79 1512.69,1365.93 1514.88,1366.06 1517.07,1366.2 1519.26,1366.34 1521.44,1366.48 
  1523.63,1366.61 1525.82,1366.74 1528.01,1366.88 1530.19,1367.01 1532.38,1367.14 1534.57,1367.27 1536.76,1367.4 1538.94,1367.53 1541.13,1367.66 1543.32,1367.79 
  1545.51,1367.91 1547.7,1368.04 1549.88,1368.16 1552.07,1368.29 1554.26,1368.41 1556.45,1368.53 1558.63,1368.65 1560.82,1368.77 1563.01,1368.89 1565.2,1369.01 
  1567.38,1369.13 1569.57,1369.25 1571.76,1369.36 1573.95,1369.48 1576.14,1369.59 1578.32,1369.71 1580.51,1369.82 1582.7,1369.93 1584.89,1370.05 1587.07,1370.16 
  1589.26,1370.27 1591.45,1370.38 1593.64,1370.49 1595.82,1370.59 1598.01,1370.7 1600.2,1370.81 1602.39,1370.91 1604.57,1371.02 1606.76,1371.12 1608.95,1371.23 
  1611.14,1371.33 1613.33,1371.43 1615.51,1371.54 1617.7,1371.64 1619.89,1371.74 1622.08,1371.84 1624.26,1371.94 1626.45,1372.03 1628.64,1372.13 1630.83,1372.23 
  1633.01,1372.33 1635.2,1372.42 1637.39,1372.52 1639.58,1372.61 1641.76,1372.71 1643.95,1372.8 1646.14,1372.89 1648.33,1372.98 1650.52,1373.07 1652.7,1373.17 
  1654.89,1373.26 1657.08,1373.34 1659.27,1373.43 1661.45,1373.52 1663.64,1373.61 1665.83,1373.7 1668.02,1373.78 1670.2,1373.87 1672.39,1373.96 1674.58,1374.04 
  1676.77,1374.12 1678.96,1374.21 1681.14,1374.29 1683.33,1374.37 1685.52,1374.46 1687.71,1374.54 1689.89,1374.62 1692.08,1374.7 1694.27,1374.78 1696.46,1374.86 
  1698.64,1374.94 1700.83,1375.02 1703.02,1375.09 1705.21,1375.17 1707.39,1375.25 1709.58,1375.32 1711.77,1375.4 1713.96,1375.47 1716.15,1375.55 1718.33,1375.62 
  1720.52,1375.7 1722.71,1375.77 1724.9,1375.84 1727.08,1375.92 1729.27,1375.99 1731.46,1376.06 1733.65,1376.13 1735.83,1376.2 1738.02,1376.27 1740.21,1376.34 
  1742.4,1376.41 1744.59,1376.48 1746.77,1376.54 1748.96,1376.61 1751.15,1376.68 1753.34,1376.75 1755.52,1376.81 1757.71,1376.88 1759.9,1376.94 1762.09,1377.01 
  1764.27,1377.07 1766.46,1377.14 1768.65,1377.2 1770.84,1377.26 1773.02,1377.33 1775.21,1377.39 1777.4,1377.45 1779.59,1377.51 1781.78,1377.57 1783.96,1377.63 
  1786.15,1377.69 1788.34,1377.75 1790.53,1377.81 1792.71,1377.87 1794.9,1377.93 1797.09,1377.99 1799.28,1378.05 1801.46,1378.1 1803.65,1378.16 1805.84,1378.22 
  1808.03,1378.27 1810.22,1378.33 1812.4,1378.38 1814.59,1378.44 1816.78,1378.49 1818.97,1378.55 1821.15,1378.6 1823.34,1378.66 1825.53,1378.71 1827.72,1378.76 
  1829.9,1378.82 1832.09,1378.87 1834.28,1378.92 1836.47,1378.97 1838.65,1379.02 1840.84,1379.07 1843.03,1379.12 1845.22,1379.17 1847.41,1379.22 1849.59,1379.27 
  1851.78,1379.32 1853.97,1379.37 1856.16,1379.42 1858.34,1379.47 1860.53,1379.52 1862.72,1379.56 1864.91,1379.61 1867.09,1379.66 1869.28,1379.7 1871.47,1379.75 
  1873.66,1379.8 1875.85,1379.84 1878.03,1379.89 1880.22,1379.93 1882.41,1379.98 1884.6,1380.02 1886.78,1380.07 1888.97,1380.11 1891.16,1380.15 1893.35,1380.2 
  1895.53,1380.24 1897.72,1380.28 1899.91,1380.32 1902.1,1380.37 1904.28,1380.41 1906.47,1380.45 1908.66,1380.49 1910.85,1380.53 1913.04,1380.57 1915.22,1380.61 
  1917.41,1380.65 1919.6,1380.69 1921.79,1380.73 1923.97,1380.77 1926.16,1380.81 1928.35,1380.85 1930.54,1380.89 1932.72,1380.93 1934.91,1380.97 1937.1,1381 
  1939.29,1381.04 1941.47,1381.08 1943.66,1381.12 1945.85,1381.15 1948.04,1381.19 1950.23,1381.23 1952.41,1381.26 1954.6,1381.3 1956.79,1381.33 1958.98,1381.37 
  1961.16,1381.4 1963.35,1381.44 1965.54,1381.47 1967.73,1381.51 1969.91,1381.54 1972.1,1381.58 1974.29,1381.61 1976.48,1381.64 1978.67,1381.68 1980.85,1381.71 
  1983.04,1381.74 1985.23,1381.78 1987.42,1381.81 1989.6,1381.84 1991.79,1381.87 1993.98,1381.9 1996.17,1381.94 1998.35,1381.97 2000.54,1382 2002.73,1382.03 
  2004.92,1382.06 2007.1,1382.09 2009.29,1382.12 2011.48,1382.15 2013.67,1382.18 2015.86,1382.21 2018.04,1382.24 2020.23,1382.27 2022.42,1382.3 2024.61,1382.33 
  2026.79,1382.36 2028.98,1382.38 2031.17,1382.41 2033.36,1382.44 2035.54,1382.47 2037.73,1382.5 2039.92,1382.52 2042.11,1382.55 2044.3,1382.58 2046.48,1382.61 
  2048.67,1382.63 2050.86,1382.66 2053.05,1382.69 2055.23,1382.71 2057.42,1382.74 2059.61,1382.76 2061.8,1382.79 2063.98,1382.82 2066.17,1382.84 2068.36,1382.87 
  2070.55,1382.89 2072.73,1382.92 2074.92,1382.94 2077.11,1382.96 2079.3,1382.99 2081.49,1383.01 2083.67,1383.04 2085.86,1383.06 2088.05,1383.09 2090.24,1383.11 
  2092.42,1383.13 2094.61,1383.16 2096.8,1383.18 2098.99,1383.2 2101.17,1383.22 2103.36,1383.25 2105.55,1383.27 2107.74,1383.29 2109.93,1383.31 2112.11,1383.34 
  2114.3,1383.36 2116.49,1383.38 2118.68,1383.4 2120.86,1383.42 2123.05,1383.44 2125.24,1383.47 2127.43,1383.49 2129.61,1383.51 2131.8,1383.53 2133.99,1383.55 
  2136.18,1383.57 2138.36,1383.59 2140.55,1383.61 2142.74,1383.63 2144.93,1383.65 2147.12,1383.67 2149.3,1383.69 2151.49,1383.71 2153.68,1383.73 2155.87,1383.75 
  2158.05,1383.77 2160.24,1383.79 2162.43,1383.81 2164.62,1383.82 2166.8,1383.84 2168.99,1383.86 2171.18,1383.88 2173.37,1383.9 2175.56,1383.92 2177.74,1383.93 
  2179.93,1383.95 2182.12,1383.97 2184.31,1383.99 2186.49,1384 2188.68,1384.02 2190.87,1384.04 2193.06,1384.06 2195.24,1384.07 2197.43,1384.09 2199.62,1384.11 
  2201.81,1384.12 2203.99,1384.14 2206.18,1384.16 2208.37,1384.17 2210.56,1384.19 2212.75,1384.21 2214.93,1384.22 2217.12,1384.24 2219.31,1384.25 2221.5,1384.27 
  2223.68,1384.29 2225.87,1384.3 2228.06,1384.32 2230.25,1384.33 2232.43,1384.35 2234.62,1384.36 2236.81,1384.38 2239,1384.39 2241.19,1384.41 2243.37,1384.42 
  2245.56,1384.44 2247.75,1384.45 2249.94,1384.47 2252.12,1384.48 2254.31,1384.49 2256.5,1384.51 2258.69,1384.52 2260.87,1384.54 2263.06,1384.55 2265.25,1384.56 
  2267.44,1384.58 2269.62,1384.59 2271.81,1384.61 2274,1384.62 2276.19,1384.63 2278.38,1384.65 2280.56,1384.66 2282.75,1384.67 2284.94,1384.68 2287.13,1384.7 
  2289.31,1384.71 2291.5,1384.72 2293.69,1384.74 2295.88,1384.75 2298.06,1384.76 2300.25,1384.77 2302.44,1384.79 2304.63,1384.8 2306.81,1384.81 2309,1384.82 
  2311.19,1384.83 2313.38,1384.85 2315.57,1384.86 2317.75,1384.87 2319.94,1384.88 2322.13,1384.89 2324.32,1384.9 2326.5,1384.92 2328.69,1384.93 2330.88,1384.94 
  2333.07,1384.95 2335.25,1384.96 2337.44,1384.97 2339.63,1384.98 2341.82,1384.99 2344.01,1385 2346.19,1385.01 2348.38,1385.03 2350.57,1385.04 2352.76,1385.05 
  
  "/>
<polyline clip-path="url(#clip5102)" style="stroke:#3da44d; stroke-width:12; stroke-opacity:1; fill:none" points="
  167.279,1386.61 169.467,1378.92 171.654,1370.45 173.842,1361.95 176.03,1353.46 178.217,1345.02 180.405,1336.62 182.593,1328.27 184.78,1319.97 186.968,1311.72 
  189.156,1303.52 191.343,1295.37 193.531,1287.28 195.719,1279.24 197.906,1271.25 200.094,1263.31 202.282,1255.42 204.469,1247.59 206.657,1239.81 208.845,1232.08 
  211.032,1224.4 213.22,1216.77 215.408,1209.19 217.595,1201.66 219.783,1194.18 221.971,1186.75 224.158,1179.37 226.346,1172.04 228.534,1164.76 230.721,1157.53 
  232.909,1150.34 235.097,1143.21 237.284,1136.12 239.472,1129.08 241.66,1122.08 243.847,1115.13 246.035,1108.23 248.223,1101.38 250.41,1094.57 252.598,1087.8 
  254.786,1081.08 256.973,1074.41 259.161,1067.78 261.349,1061.2 263.536,1054.66 265.724,1048.16 267.912,1041.7 270.099,1035.29 272.287,1028.93 274.475,1022.6 
  276.662,1016.32 278.85,1010.08 281.038,1003.88 283.225,997.723 285.413,991.607 287.601,985.532 289.788,979.498 291.976,973.504 294.164,967.551 296.351,961.637 
  298.539,955.763 300.727,949.928 302.914,944.132 305.102,938.376 307.29,932.657 309.477,926.978 311.665,921.336 313.853,915.732 316.04,910.165 318.228,904.636 
  320.416,899.144 322.603,893.689 324.791,888.271 326.979,882.888 329.166,877.542 331.354,872.232 333.542,866.957 335.729,861.718 337.917,856.513 340.105,851.344 
  342.292,846.209 344.48,841.109 346.668,836.043 348.855,831.011 351.043,826.013 353.231,821.048 355.418,816.117 357.606,811.218 359.794,806.353 361.981,801.52 
  364.169,796.72 366.357,791.951 368.544,787.215 370.732,782.511 372.92,777.838 375.107,773.196 377.295,768.586 379.483,764.006 381.67,759.457 383.858,754.939 
  386.046,750.451 388.233,745.993 390.421,741.565 392.609,737.167 394.796,732.799 396.984,728.459 399.172,724.149 401.359,719.868 403.547,715.615 405.735,711.391 
  407.922,707.195 410.11,703.028 412.298,698.888 414.485,694.776 416.673,690.692 418.861,686.635 421.048,682.605 423.236,678.603 425.424,674.627 427.611,670.678 
  429.799,666.755 431.987,662.859 434.174,658.989 436.362,655.145 438.55,651.327 440.737,647.534 442.925,643.767 445.113,640.025 447.3,636.308 449.488,632.616 
  451.676,628.949 453.863,625.306 456.051,621.688 458.239,618.095 460.426,614.525 462.614,610.979 464.802,607.457 466.989,603.959 469.177,600.484 471.365,597.033 
  473.552,593.605 475.74,590.199 477.927,586.817 480.115,583.457 482.303,580.12 484.49,576.805 486.678,573.513 488.866,570.242 491.053,566.994 493.241,563.767 
  495.429,560.562 497.616,557.379 499.804,554.216 501.992,551.075 504.179,547.956 506.367,544.857 508.555,541.779 510.742,538.721 512.93,535.684 515.118,532.668 
  517.305,529.671 519.493,526.695 521.681,523.739 523.868,520.802 526.056,517.886 528.244,514.989 530.431,512.111 532.619,509.253 534.807,506.414 536.994,503.594 
  539.182,500.792 541.37,498.01 543.557,495.247 545.745,492.501 547.933,489.775 550.12,487.066 552.308,484.376 554.496,481.704 556.683,479.05 558.871,476.414 
  561.059,473.795 563.246,471.194 565.434,468.61 567.622,466.044 569.809,463.495 571.997,460.963 574.185,458.448 576.372,455.95 578.56,453.468 580.748,451.004 
  582.935,448.556 585.123,446.124 587.311,443.709 589.498,441.309 591.686,438.926 593.874,436.559 596.061,434.208 598.249,431.873 600.437,429.553 602.624,427.249 
  604.812,424.96 607,422.687 609.187,420.429 611.375,418.186 613.563,415.958 615.75,413.745 617.938,411.547 620.126,409.364 622.313,407.195 624.501,405.041 
  626.689,402.901 628.876,400.776 631.064,398.665 633.252,396.568 635.439,394.485 637.627,392.417 639.815,390.362 642.002,388.321 644.19,386.293 646.378,384.28 
  648.565,382.279 650.753,380.293 652.941,378.319 655.128,376.359 657.316,374.412 659.504,372.478 661.691,370.557 663.879,368.649 666.067,366.754 668.254,364.871 
  670.442,363.001 672.63,361.144 674.817,359.299 677.005,357.467 679.193,355.647 681.38,353.839 683.568,352.043 685.756,350.259 687.943,348.487 690.131,346.727 
  692.319,344.979 694.506,343.243 696.694,341.518 698.882,339.805 701.069,338.103 703.257,336.413 705.445,334.734 707.632,333.067 709.82,331.41 712.008,329.765 
  714.195,328.131 716.383,326.507 718.571,324.895 720.758,323.293 722.946,321.703 725.134,320.122 727.321,318.553 729.509,316.994 731.697,315.445 733.884,313.907 
  736.072,312.379 738.26,310.861 740.447,309.354 742.635,307.857 744.823,306.369 747.01,304.892 749.198,303.425 751.386,301.967 753.573,300.519 755.761,299.081 
  757.949,297.653 760.136,296.234 762.324,294.825 764.512,293.425 766.699,292.035 768.887,290.654 771.075,289.282 773.262,287.92 775.45,286.566 777.638,285.222 
  779.825,283.887 782.013,282.56 784.201,281.243 786.388,279.935 788.576,278.635 790.764,277.344 792.951,276.062 795.139,274.788 797.326,273.523 799.514,272.266 
  801.702,271.018 803.889,269.778 806.077,268.546 808.265,267.323 810.452,266.108 812.64,264.901 814.828,263.703 817.015,262.512 819.203,261.329 821.391,260.154 
  823.578,258.988 825.766,257.829 827.954,256.677 830.141,255.534 832.329,254.398 834.517,253.27 836.704,252.149 838.892,251.036 841.08,249.93 843.267,248.832 
  845.455,247.741 847.643,246.658 849.83,245.581 852.018,244.512 854.206,243.45 856.393,242.396 858.581,241.348 860.769,240.307 862.956,239.273 865.144,238.247 
  867.332,237.227 869.519,236.214 871.707,235.208 873.895,234.208 876.082,233.215 878.27,232.229 880.458,231.25 882.645,230.277 884.833,229.31 887.021,228.35 
  889.208,227.397 891.396,226.45 893.584,225.509 895.771,224.574 897.959,223.646 900.147,222.724 902.334,221.808 904.522,220.899 906.71,219.995 908.897,219.098 
  911.085,218.206 913.273,217.321 915.46,216.441 917.648,215.568 919.836,214.7 922.023,213.838 924.211,212.982 926.399,212.132 928.586,211.287 930.774,210.448 
  932.962,209.615 935.149,208.787 937.337,207.965 939.525,207.148 941.712,206.337 943.9,205.532 946.088,204.731 948.275,203.936 950.463,203.147 952.651,202.363 
  954.838,201.584 957.026,200.81 959.214,200.041 961.401,199.278 963.589,198.52 965.777,197.767 967.964,197.019 970.152,196.276 972.34,195.537 974.527,194.804 
  976.715,194.076 978.903,193.353 981.09,192.634 983.278,191.921 985.466,191.212 987.653,190.508 989.841,189.809 992.029,189.114 994.216,188.424 996.404,187.739 
  998.592,187.058 1000.78,186.382 1002.97,185.71 1005.15,185.043 1007.34,184.381 1009.53,183.722 1011.72,183.069 1013.91,182.419 1016.09,181.774 1018.28,181.134 
  1020.47,180.497 1022.66,179.865 1024.84,179.237 1027.03,178.613 1029.22,177.994 1031.41,177.379 1033.59,176.767 1035.78,176.16 1037.97,175.557 1040.16,174.958 
  1042.34,174.363 1044.53,173.772 1046.72,173.185 1048.91,172.602 1051.1,172.023 1053.28,171.447 1055.47,170.876 1057.66,170.308 1059.85,169.744 1062.03,169.184 
  1064.22,168.628 1066.41,168.075 1068.6,167.526 1070.78,166.981 1072.97,166.44 1075.16,165.902 1077.35,165.367 1079.54,164.837 1081.72,164.31 1083.91,163.786 
  1086.1,163.266 1088.29,162.749 1090.47,162.236 1092.66,161.726 1094.85,161.22 1097.04,160.717 1099.22,160.218 1101.41,159.721 1103.6,159.229 1105.79,158.739 
  1107.97,158.253 1110.16,157.77 1112.35,157.29 1114.54,156.814 1116.73,156.341 1118.91,155.87 1121.1,155.404 1123.29,154.94 1125.48,154.479 1127.66,154.022 
  1129.85,153.567 1132.04,153.116 1134.23,152.667 1136.41,152.222 1138.6,151.779 1140.79,151.34 1142.98,150.904 1145.17,150.47 1147.35,150.04 1149.54,149.612 
  1151.73,149.187 1153.92,148.765 1156.1,148.346 1158.29,147.93 1160.48,147.516 1162.67,147.105 1164.85,146.697 1167.04,146.292 1169.23,145.89 1171.42,145.49 
  1173.6,145.093 1175.79,144.698 1177.98,144.306 1180.17,143.917 1182.36,143.531 1184.54,143.147 1186.73,142.765 1188.92,142.386 1191.11,142.01 1193.29,141.636 
  1195.48,141.265 1197.67,140.896 1199.86,140.53 1202.04,140.166 1204.23,139.805 1206.42,139.446 1208.61,139.089 1210.8,138.735 1212.98,138.383 1215.17,138.034 
  1217.36,137.687 1219.55,137.342 1221.73,137 1223.92,136.659 1226.11,136.322 1228.3,135.986 1230.48,135.653 1232.67,135.321 1234.86,134.992 1237.05,134.666 
  1239.23,134.341 1241.42,134.019 1243.61,133.699 1245.8,133.381 1247.99,133.065 1250.17,132.751 1252.36,132.439 1254.55,132.129 1256.74,131.822 1258.92,131.516 
  1261.11,131.213 1263.3,130.911 1265.49,130.612 1267.67,130.315 1269.86,130.019 1272.05,129.726 1274.24,129.434 1276.43,129.145 1278.61,128.857 1280.8,128.572 
  1282.99,128.288 1285.18,128.006 1287.36,127.726 1289.55,127.448 1291.74,127.172 1293.93,126.897 1296.11,126.625 1298.3,126.354 1300.49,126.086 1302.68,125.819 
  1304.86,125.553 1307.05,125.29 1309.24,125.028 1311.43,124.768 1313.62,124.51 1315.8,124.254 1317.99,123.999 1320.18,123.746 1322.37,123.495 1324.55,123.245 
  1326.74,122.997 1328.93,122.751 1331.12,122.506 1333.3,122.263 1335.49,122.022 1337.68,121.782 1339.87,121.544 1342.05,121.308 1344.24,121.073 1346.43,120.84 
  1348.62,120.608 1350.81,120.378 1352.99,120.149 1355.18,119.922 1357.37,119.697 1359.56,119.473 1361.74,119.25 1363.93,119.029 1366.12,118.809 1368.31,118.591 
  1370.49,118.375 1372.68,118.16 1374.87,117.946 1377.06,117.734 1379.25,117.523 1381.43,117.313 1383.62,117.105 1385.81,116.899 1388,116.694 1390.18,116.49 
  1392.37,116.287 1394.56,116.086 1396.75,115.886 1398.93,115.688 1401.12,115.491 1403.31,115.295 1405.5,115.101 1407.68,114.907 1409.87,114.716 1412.06,114.525 
  1414.25,114.336 1416.44,114.148 1418.62,113.961 1420.81,113.775 1423,113.591 1425.19,113.408 1427.37,113.226 1429.56,113.046 1431.75,112.866 1433.94,112.688 
  1436.12,112.511 1438.31,112.335 1440.5,112.16 1442.69,111.987 1444.88,111.815 1447.06,111.644 1449.25,111.473 1451.44,111.305 1453.63,111.137 1455.81,110.97 
  1458,110.805 1460.19,110.64 1462.38,110.477 1464.56,110.315 1466.75,110.154 1468.94,109.993 1471.13,109.834 1473.31,109.677 1475.5,109.52 1477.69,109.364 
  1479.88,109.209 1482.07,109.055 1484.25,108.903 1486.44,108.751 1488.63,108.6 1490.82,108.451 1493,108.302 1495.19,108.154 1497.38,108.008 1499.57,107.862 
  1501.75,107.717 1503.94,107.573 1506.13,107.431 1508.32,107.289 1510.51,107.148 1512.69,107.008 1514.88,106.869 1517.07,106.731 1519.26,106.594 1521.44,106.458 
  1523.63,106.323 1525.82,106.188 1528.01,106.055 1530.19,105.922 1532.38,105.791 1534.57,105.66 1536.76,105.53 1538.94,105.401 1541.13,105.273 1543.32,105.145 
  1545.51,105.019 1547.7,104.893 1549.88,104.769 1552.07,104.645 1554.26,104.522 1556.45,104.399 1558.63,104.278 1560.82,104.157 1563.01,104.038 1565.2,103.919 
  1567.38,103.801 1569.57,103.683 1571.76,103.567 1573.95,103.451 1576.14,103.336 1578.32,103.221 1580.51,103.108 1582.7,102.995 1584.89,102.883 1587.07,102.772 
  1589.26,102.662 1591.45,102.552 1593.64,102.443 1595.82,102.335 1598.01,102.227 1600.2,102.12 1602.39,102.014 1604.57,101.909 1606.76,101.804 1608.95,101.7 
  1611.14,101.597 1613.33,101.494 1615.51,101.393 1617.7,101.291 1619.89,101.191 1622.08,101.091 1624.26,100.992 1626.45,100.893 1628.64,100.796 1630.83,100.698 
  1633.01,100.602 1635.2,100.506 1637.39,100.411 1639.58,100.316 1641.76,100.222 1643.95,100.129 1646.14,100.036 1648.33,99.9439 1650.52,99.8524 1652.7,99.7615 
  1654.89,99.6713 1657.08,99.5816 1659.27,99.4925 1661.45,99.4041 1663.64,99.3162 1665.83,99.2289 1668.02,99.1422 1670.2,99.056 1672.39,98.9705 1674.58,98.8855 
  1676.77,98.8011 1678.96,98.7172 1681.14,98.6339 1683.33,98.5511 1685.52,98.469 1687.71,98.3873 1689.89,98.3062 1692.08,98.2256 1694.27,98.1456 1696.46,98.0661 
  1698.64,97.9872 1700.83,97.9088 1703.02,97.8308 1705.21,97.7535 1707.39,97.6766 1709.58,97.6003 1711.77,97.5244 1713.96,97.4491 1716.15,97.3743 1718.33,97.3 
  1720.52,97.2261 1722.71,97.1528 1724.9,97.08 1727.08,97.0076 1729.27,96.9358 1731.46,96.8644 1733.65,96.7935 1735.83,96.7231 1738.02,96.6531 1740.21,96.5836 
  1742.4,96.5146 1744.59,96.4461 1746.77,96.378 1748.96,96.3104 1751.15,96.2432 1753.34,96.1765 1755.52,96.1102 1757.71,96.0444 1759.9,95.979 1762.09,95.9141 
  1764.27,95.8496 1766.46,95.7855 1768.65,95.7218 1770.84,95.6586 1773.02,95.5959 1775.21,95.5335 1777.4,95.4716 1779.59,95.41 1781.78,95.3489 1783.96,95.2882 
  1786.15,95.2279 1788.34,95.168 1790.53,95.1086 1792.71,95.0495 1794.9,94.9908 1797.09,94.9325 1799.28,94.8746 1801.46,94.8171 1803.65,94.76 1805.84,94.7033 
  1808.03,94.6469 1810.22,94.5909 1812.4,94.5354 1814.59,94.4801 1816.78,94.4253 1818.97,94.3708 1821.15,94.3167 1823.34,94.2629 1825.53,94.2095 1827.72,94.1565 
  1829.9,94.1038 1832.09,94.0515 1834.28,93.9996 1836.47,93.9479 1838.65,93.8967 1840.84,93.8457 1843.03,93.7952 1845.22,93.7449 1847.41,93.695 1849.59,93.6454 
  1851.78,93.5962 1853.97,93.5473 1856.16,93.4987 1858.34,93.4504 1860.53,93.4025 1862.72,93.3549 1864.91,93.3076 1867.09,93.2606 1869.28,93.2139 1871.47,93.1676 
  1873.66,93.1215 1875.85,93.0758 1878.03,93.0304 1880.22,92.9852 1882.41,92.9404 1884.6,92.8959 1886.78,92.8517 1888.97,92.8077 1891.16,92.7641 1893.35,92.7207 
  1895.53,92.6777 1897.72,92.6349 1899.91,92.5924 1902.1,92.5502 1904.28,92.5083 1906.47,92.4666 1908.66,92.4253 1910.85,92.3842 1913.04,92.3434 1915.22,92.3028 
  1917.41,92.2625 1919.6,92.2225 1921.79,92.1828 1923.97,92.1433 1926.16,92.1041 1928.35,92.0651 1930.54,92.0264 1932.72,91.988 1934.91,91.9498 1937.1,91.9119 
  1939.29,91.8742 1941.47,91.8368 1943.66,91.7996 1945.85,91.7627 1948.04,91.7261 1950.23,91.6896 1952.41,91.6534 1954.6,91.6175 1956.79,91.5818 1958.98,91.5463 
  1961.16,91.5111 1963.35,91.4761 1965.54,91.4414 1967.73,91.4069 1969.91,91.3726 1972.1,91.3385 1974.29,91.3047 1976.48,91.2711 1978.67,91.2377 1980.85,91.2046 
  1983.04,91.1717 1985.23,91.1389 1987.42,91.1065 1989.6,91.0742 1991.79,91.0421 1993.98,91.0103 1996.17,90.9787 1998.35,90.9473 2000.54,90.9161 2002.73,90.8851 
  2004.92,90.8543 2007.1,90.8238 2009.29,90.7934 2011.48,90.7632 2013.67,90.7333 2015.86,90.7035 2018.04,90.674 2020.23,90.6446 2022.42,90.6155 2024.61,90.5865 
  2026.79,90.5577 2028.98,90.5292 2031.17,90.5008 2033.36,90.4726 2035.54,90.4446 2037.73,90.4168 2039.92,90.3892 2042.11,90.3617 2044.3,90.3345 2046.48,90.3074 
  2048.67,90.2805 2050.86,90.2538 2053.05,90.2273 2055.23,90.2009 2057.42,90.1748 2059.61,90.1488 2061.8,90.123 2063.98,90.0973 2066.17,90.0718 2068.36,90.0465 
  2070.55,90.0214 2072.73,89.9964 2074.92,89.9716 2077.11,89.947 2079.3,89.9226 2081.49,89.8983 2083.67,89.8741 2085.86,89.8501 2088.05,89.8263 2090.24,89.8027 
  2092.42,89.7792 2094.61,89.7558 2096.8,89.7327 2098.99,89.7096 2101.17,89.6868 2103.36,89.664 2105.55,89.6415 2107.74,89.619 2109.93,89.5968 2112.11,89.5747 
  2114.3,89.5527 2116.49,89.5309 2118.68,89.5092 2120.86,89.4877 2123.05,89.4663 2125.24,89.445 2127.43,89.4239 2129.61,89.4029 2131.8,89.3821 2133.99,89.3614 
  2136.18,89.3409 2138.36,89.3205 2140.55,89.3002 2142.74,89.2801 2144.93,89.26 2147.12,89.2402 2149.3,89.2204 2151.49,89.2008 2153.68,89.1813 2155.87,89.162 
  2158.05,89.1428 2160.24,89.1237 2162.43,89.1047 2164.62,89.0858 2166.8,89.0671 2168.99,89.0485 2171.18,89.0301 2173.37,89.0117 2175.56,88.9935 2177.74,88.9754 
  2179.93,88.9574 2182.12,88.9396 2184.31,88.9218 2186.49,88.9042 2188.68,88.8867 2190.87,88.8693 2193.06,88.8521 2195.24,88.8349 2197.43,88.8179 2199.62,88.801 
  2201.81,88.7842 2203.99,88.7675 2206.18,88.7509 2208.37,88.7344 2210.56,88.718 2212.75,88.7018 2214.93,88.6856 2217.12,88.6696 2219.31,88.6537 2221.5,88.6378 
  2223.68,88.6221 2225.87,88.6065 2228.06,88.591 2230.25,88.5756 2232.43,88.5603 2234.62,88.5451 2236.81,88.53 2239,88.515 2241.19,88.5001 2243.37,88.4854 
  2245.56,88.4707 2247.75,88.4561 2249.94,88.4416 2252.12,88.4272 2254.31,88.4129 2256.5,88.3987 2258.69,88.3846 2260.87,88.3705 2263.06,88.3566 2265.25,88.3428 
  2267.44,88.329 2269.62,88.3154 2271.81,88.3018 2274,88.2884 2276.19,88.275 2278.38,88.2617 2280.56,88.2485 2282.75,88.2354 2284.94,88.2224 2287.13,88.2095 
  2289.31,88.1966 2291.5,88.1839 2293.69,88.1712 2295.88,88.1586 2298.06,88.1461 2300.25,88.1337 2302.44,88.1214 2304.63,88.1091 2306.81,88.0969 2309,88.0848 
  2311.19,88.0728 2313.38,88.0609 2315.57,88.0491 2317.75,88.0373 2319.94,88.0256 2322.13,88.014 2324.32,88.0024 2326.5,87.991 2328.69,87.9796 2330.88,87.9683 
  2333.07,87.9571 2335.25,87.9459 2337.44,87.9348 2339.63,87.9238 2341.82,87.9129 2344.01,87.902 2346.19,87.8912 2348.38,87.8805 2350.57,87.8699 2352.76,87.8593 
  
  "/>
<polygon clip-path="url(#clip5100)" points="
1963.21,372.684 2280.76,372.684 2280.76,130.764 1963.21,130.764 
  " fill="#ffffff" fill-rule="evenodd" fill-opacity="1"/>
<polyline clip-path="url(#clip5100)" style="stroke:#000000; stroke-width:4; stroke-opacity:1; fill:none" points="
  1963.21,372.684 2280.76,372.684 2280.76,130.764 1963.21,130.764 1963.21,372.684 
  "/>
<polyline clip-path="url(#clip5100)" style="stroke:#009af9; stroke-width:12; stroke-opacity:1; fill:none" points="
  1987.21,191.244 2131.21,191.244 
  "/>
<g clip-path="url(#clip5100)">
<text style="fill:#000000; fill-opacity:1; font-family:Arial,Helvetica Neue,Helvetica,sans-serif; font-size:48px; text-anchor:start;" transform="rotate(0, 2155.21, 208.744)" x="2155.21" y="208.744">X(t)</text>
</g>
<polyline clip-path="url(#clip5100)" style="stroke:#e26f46; stroke-width:12; stroke-opacity:1; fill:none" points="
  1987.21,251.724 2131.21,251.724 
  "/>
<g clip-path="url(#clip5100)">
<text style="fill:#000000; fill-opacity:1; font-family:Arial,Helvetica Neue,Helvetica,sans-serif; font-size:48px; text-anchor:start;" transform="rotate(0, 2155.21, 269.224)" x="2155.21" y="269.224">Y(t)</text>
</g>
<polyline clip-path="url(#clip5100)" style="stroke:#3da44d; stroke-width:12; stroke-opacity:1; fill:none" points="
  1987.21,312.204 2131.21,312.204 
  "/>
<g clip-path="url(#clip5100)">
<text style="fill:#000000; fill-opacity:1; font-family:Arial,Helvetica Neue,Helvetica,sans-serif; font-size:48px; text-anchor:start;" transform="rotate(0, 2155.21, 329.704)" x="2155.21" y="329.704">Z(t)</text>
</g>
</svg>
